G04 This is an RS-274x file exported by *
G04 gerbv version 2.6.0 *
G04 More information is available about gerbv at *
G04 http://gerbv.gpleda.org/ *
G04 --End of header info--*
%MOIN*%
%FSLAX34Y34*%
%IPPOS*%
G04 --Define apertures--*
%ADD10C,0.0050*%
%ADD11C,0.0000*%
G04 --Start main section--*
G54D10*
G01X0001440Y0000640D02*
G01X0033440Y0000640D01*
G01X0033440Y0000640D02*
G01X0033500Y0000642D01*
G01X0033500Y0000642D02*
G01X0033561Y0000647D01*
G01X0033561Y0000647D02*
G01X0033620Y0000656D01*
G01X0033620Y0000656D02*
G01X0033679Y0000669D01*
G01X0033679Y0000669D02*
G01X0033738Y0000685D01*
G01X0033738Y0000685D02*
G01X0033795Y0000705D01*
G01X0033795Y0000705D02*
G01X0033850Y0000728D01*
G01X0033850Y0000728D02*
G01X0033905Y0000755D01*
G01X0033905Y0000755D02*
G01X0033957Y0000784D01*
G01X0033957Y0000784D02*
G01X0034008Y0000817D01*
G01X0034008Y0000817D02*
G01X0034057Y0000853D01*
G01X0034057Y0000853D02*
G01X0034103Y0000891D01*
G01X0034103Y0000891D02*
G01X0034147Y0000933D01*
G01X0034147Y0000933D02*
G01X0034189Y0000977D01*
G01X0034189Y0000977D02*
G01X0034227Y0001023D01*
G01X0034227Y0001023D02*
G01X0034263Y0001072D01*
G01X0034263Y0001072D02*
G01X0034296Y0001123D01*
G01X0034296Y0001123D02*
G01X0034325Y0001175D01*
G01X0034325Y0001175D02*
G01X0034352Y0001230D01*
G01X0034352Y0001230D02*
G01X0034375Y0001285D01*
G01X0034375Y0001285D02*
G01X0034395Y0001342D01*
G01X0034395Y0001342D02*
G01X0034411Y0001401D01*
G01X0034411Y0001401D02*
G01X0034424Y0001460D01*
G01X0034424Y0001460D02*
G01X0034433Y0001519D01*
G01X0034433Y0001519D02*
G01X0034438Y0001580D01*
G01X0034438Y0001580D02*
G01X0034440Y0001640D01*
G01X0034440Y0001640D02*
G01X0034440Y0022640D01*
G01X0034440Y0022640D02*
G01X0034438Y0022700D01*
G01X0034438Y0022700D02*
G01X0034433Y0022761D01*
G01X0034433Y0022761D02*
G01X0034424Y0022820D01*
G01X0034424Y0022820D02*
G01X0034411Y0022879D01*
G01X0034411Y0022879D02*
G01X0034395Y0022938D01*
G01X0034395Y0022938D02*
G01X0034375Y0022995D01*
G01X0034375Y0022995D02*
G01X0034352Y0023050D01*
G01X0034352Y0023050D02*
G01X0034325Y0023105D01*
G01X0034325Y0023105D02*
G01X0034296Y0023157D01*
G01X0034296Y0023157D02*
G01X0034263Y0023208D01*
G01X0034263Y0023208D02*
G01X0034227Y0023257D01*
G01X0034227Y0023257D02*
G01X0034189Y0023303D01*
G01X0034189Y0023303D02*
G01X0034147Y0023347D01*
G01X0034147Y0023347D02*
G01X0034103Y0023389D01*
G01X0034103Y0023389D02*
G01X0034057Y0023427D01*
G01X0034057Y0023427D02*
G01X0034008Y0023463D01*
G01X0034008Y0023463D02*
G01X0033957Y0023496D01*
G01X0033957Y0023496D02*
G01X0033905Y0023525D01*
G01X0033905Y0023525D02*
G01X0033850Y0023552D01*
G01X0033850Y0023552D02*
G01X0033795Y0023575D01*
G01X0033795Y0023575D02*
G01X0033738Y0023595D01*
G01X0033738Y0023595D02*
G01X0033679Y0023611D01*
G01X0033679Y0023611D02*
G01X0033620Y0023624D01*
G01X0033620Y0023624D02*
G01X0033561Y0023633D01*
G01X0033561Y0023633D02*
G01X0033500Y0023638D01*
G01X0033500Y0023638D02*
G01X0033440Y0023640D01*
G01X0033440Y0023640D02*
G01X0001440Y0023640D01*
G01X0001440Y0023640D02*
G01X0001380Y0023638D01*
G01X0001380Y0023638D02*
G01X0001319Y0023633D01*
G01X0001319Y0023633D02*
G01X0001260Y0023624D01*
G01X0001260Y0023624D02*
G01X0001201Y0023611D01*
G01X0001201Y0023611D02*
G01X0001142Y0023595D01*
G01X0001142Y0023595D02*
G01X0001085Y0023575D01*
G01X0001085Y0023575D02*
G01X0001030Y0023552D01*
G01X0001030Y0023552D02*
G01X0000975Y0023525D01*
G01X0000975Y0023525D02*
G01X0000923Y0023496D01*
G01X0000923Y0023496D02*
G01X0000872Y0023463D01*
G01X0000872Y0023463D02*
G01X0000823Y0023427D01*
G01X0000823Y0023427D02*
G01X0000777Y0023389D01*
G01X0000777Y0023389D02*
G01X0000733Y0023347D01*
G01X0000733Y0023347D02*
G01X0000691Y0023303D01*
G01X0000691Y0023303D02*
G01X0000653Y0023257D01*
G01X0000653Y0023257D02*
G01X0000617Y0023208D01*
G01X0000617Y0023208D02*
G01X0000584Y0023157D01*
G01X0000584Y0023157D02*
G01X0000555Y0023105D01*
G01X0000555Y0023105D02*
G01X0000528Y0023050D01*
G01X0000528Y0023050D02*
G01X0000505Y0022995D01*
G01X0000505Y0022995D02*
G01X0000485Y0022938D01*
G01X0000485Y0022938D02*
G01X0000469Y0022879D01*
G01X0000469Y0022879D02*
G01X0000456Y0022820D01*
G01X0000456Y0022820D02*
G01X0000447Y0022761D01*
G01X0000447Y0022761D02*
G01X0000442Y0022700D01*
G01X0000442Y0022700D02*
G01X0000440Y0022640D01*
G01X0000440Y0022640D02*
G01X0000440Y0001640D01*
G01X0000440Y0001640D02*
G01X0000442Y0001580D01*
G01X0000442Y0001580D02*
G01X0000447Y0001519D01*
G01X0000447Y0001519D02*
G01X0000456Y0001460D01*
G01X0000456Y0001460D02*
G01X0000469Y0001401D01*
G01X0000469Y0001401D02*
G01X0000485Y0001342D01*
G01X0000485Y0001342D02*
G01X0000505Y0001285D01*
G01X0000505Y0001285D02*
G01X0000528Y0001230D01*
G01X0000528Y0001230D02*
G01X0000555Y0001175D01*
G01X0000555Y0001175D02*
G01X0000584Y0001123D01*
G01X0000584Y0001123D02*
G01X0000617Y0001072D01*
G01X0000617Y0001072D02*
G01X0000653Y0001023D01*
G01X0000653Y0001023D02*
G01X0000691Y0000977D01*
G01X0000691Y0000977D02*
G01X0000733Y0000933D01*
G01X0000733Y0000933D02*
G01X0000777Y0000891D01*
G01X0000777Y0000891D02*
G01X0000823Y0000853D01*
G01X0000823Y0000853D02*
G01X0000872Y0000817D01*
G01X0000872Y0000817D02*
G01X0000923Y0000784D01*
G01X0000923Y0000784D02*
G01X0000975Y0000755D01*
G01X0000975Y0000755D02*
G01X0001030Y0000728D01*
G01X0001030Y0000728D02*
G01X0001085Y0000705D01*
G01X0001085Y0000705D02*
G01X0001142Y0000685D01*
G01X0001142Y0000685D02*
G01X0001201Y0000669D01*
G01X0001201Y0000669D02*
G01X0001260Y0000656D01*
G01X0001260Y0000656D02*
G01X0001319Y0000647D01*
G01X0001319Y0000647D02*
G01X0001380Y0000642D01*
G01X0001380Y0000642D02*
G01X0001440Y0000640D01*
G54D11*
G01X0001310Y0002140D02*
G01X0001312Y0002190D01*
G01X0001312Y0002190D02*
G01X0001318Y0002240D01*
G01X0001318Y0002240D02*
G01X0001328Y0002289D01*
G01X0001328Y0002289D02*
G01X0001342Y0002337D01*
G01X0001342Y0002337D02*
G01X0001359Y0002384D01*
G01X0001359Y0002384D02*
G01X0001380Y0002429D01*
G01X0001380Y0002429D02*
G01X0001405Y0002473D01*
G01X0001405Y0002473D02*
G01X0001433Y0002514D01*
G01X0001433Y0002514D02*
G01X0001465Y0002553D01*
G01X0001465Y0002553D02*
G01X0001499Y0002590D01*
G01X0001499Y0002590D02*
G01X0001536Y0002624D01*
G01X0001536Y0002624D02*
G01X0001576Y0002654D01*
G01X0001576Y0002654D02*
G01X0001618Y0002681D01*
G01X0001618Y0002681D02*
G01X0001662Y0002705D01*
G01X0001662Y0002705D02*
G01X0001708Y0002726D01*
G01X0001708Y0002726D02*
G01X0001755Y0002742D01*
G01X0001755Y0002742D02*
G01X0001803Y0002755D01*
G01X0001803Y0002755D02*
G01X0001853Y0002764D01*
G01X0001853Y0002764D02*
G01X0001902Y0002769D01*
G01X0001902Y0002769D02*
G01X0001953Y0002770D01*
G01X0001953Y0002770D02*
G01X0002003Y0002767D01*
G01X0002003Y0002767D02*
G01X0002052Y0002760D01*
G01X0002052Y0002760D02*
G01X0002101Y0002749D01*
G01X0002101Y0002749D02*
G01X0002149Y0002734D01*
G01X0002149Y0002734D02*
G01X0002195Y0002716D01*
G01X0002195Y0002716D02*
G01X0002240Y0002694D01*
G01X0002240Y0002694D02*
G01X0002283Y0002668D01*
G01X0002283Y0002668D02*
G01X0002324Y0002639D01*
G01X0002324Y0002639D02*
G01X0002363Y0002607D01*
G01X0002363Y0002607D02*
G01X0002399Y0002572D01*
G01X0002399Y0002572D02*
G01X0002431Y0002534D01*
G01X0002431Y0002534D02*
G01X0002461Y0002494D01*
G01X0002461Y0002494D02*
G01X0002488Y0002451D01*
G01X0002488Y0002451D02*
G01X0002511Y0002407D01*
G01X0002511Y0002407D02*
G01X0002530Y0002361D01*
G01X0002530Y0002361D02*
G01X0002546Y0002313D01*
G01X0002546Y0002313D02*
G01X0002558Y0002264D01*
G01X0002558Y0002264D02*
G01X0002566Y0002215D01*
G01X0002566Y0002215D02*
G01X0002570Y0002165D01*
G01X0002570Y0002165D02*
G01X0002570Y0002115D01*
G01X0002570Y0002115D02*
G01X0002566Y0002065D01*
G01X0002566Y0002065D02*
G01X0002558Y0002016D01*
G01X0002558Y0002016D02*
G01X0002546Y0001967D01*
G01X0002546Y0001967D02*
G01X0002530Y0001919D01*
G01X0002530Y0001919D02*
G01X0002511Y0001873D01*
G01X0002511Y0001873D02*
G01X0002488Y0001829D01*
G01X0002488Y0001829D02*
G01X0002461Y0001786D01*
G01X0002461Y0001786D02*
G01X0002431Y0001746D01*
G01X0002431Y0001746D02*
G01X0002399Y0001708D01*
G01X0002399Y0001708D02*
G01X0002363Y0001673D01*
G01X0002363Y0001673D02*
G01X0002324Y0001641D01*
G01X0002324Y0001641D02*
G01X0002283Y0001612D01*
G01X0002283Y0001612D02*
G01X0002240Y0001586D01*
G01X0002240Y0001586D02*
G01X0002195Y0001564D01*
G01X0002195Y0001564D02*
G01X0002149Y0001546D01*
G01X0002149Y0001546D02*
G01X0002101Y0001531D01*
G01X0002101Y0001531D02*
G01X0002052Y0001520D01*
G01X0002052Y0001520D02*
G01X0002003Y0001513D01*
G01X0002003Y0001513D02*
G01X0001953Y0001510D01*
G01X0001953Y0001510D02*
G01X0001902Y0001511D01*
G01X0001902Y0001511D02*
G01X0001853Y0001516D01*
G01X0001853Y0001516D02*
G01X0001803Y0001525D01*
G01X0001803Y0001525D02*
G01X0001755Y0001538D01*
G01X0001755Y0001538D02*
G01X0001708Y0001554D01*
G01X0001708Y0001554D02*
G01X0001662Y0001575D01*
G01X0001662Y0001575D02*
G01X0001618Y0001599D01*
G01X0001618Y0001599D02*
G01X0001576Y0001626D01*
G01X0001576Y0001626D02*
G01X0001536Y0001656D01*
G01X0001536Y0001656D02*
G01X0001499Y0001690D01*
G01X0001499Y0001690D02*
G01X0001465Y0001727D01*
G01X0001465Y0001727D02*
G01X0001433Y0001766D01*
G01X0001433Y0001766D02*
G01X0001405Y0001807D01*
G01X0001405Y0001807D02*
G01X0001380Y0001851D01*
G01X0001380Y0001851D02*
G01X0001359Y0001896D01*
G01X0001359Y0001896D02*
G01X0001342Y0001943D01*
G01X0001342Y0001943D02*
G01X0001328Y0001991D01*
G01X0001328Y0001991D02*
G01X0001318Y0002040D01*
G01X0001318Y0002040D02*
G01X0001312Y0002090D01*
G01X0001312Y0002090D02*
G01X0001310Y0002140D01*
G01X0001310Y0022140D02*
G01X0001312Y0022190D01*
G01X0001312Y0022190D02*
G01X0001318Y0022240D01*
G01X0001318Y0022240D02*
G01X0001328Y0022289D01*
G01X0001328Y0022289D02*
G01X0001342Y0022337D01*
G01X0001342Y0022337D02*
G01X0001359Y0022384D01*
G01X0001359Y0022384D02*
G01X0001380Y0022429D01*
G01X0001380Y0022429D02*
G01X0001405Y0022473D01*
G01X0001405Y0022473D02*
G01X0001433Y0022514D01*
G01X0001433Y0022514D02*
G01X0001465Y0022553D01*
G01X0001465Y0022553D02*
G01X0001499Y0022590D01*
G01X0001499Y0022590D02*
G01X0001536Y0022624D01*
G01X0001536Y0022624D02*
G01X0001576Y0022654D01*
G01X0001576Y0022654D02*
G01X0001618Y0022681D01*
G01X0001618Y0022681D02*
G01X0001662Y0022705D01*
G01X0001662Y0022705D02*
G01X0001708Y0022726D01*
G01X0001708Y0022726D02*
G01X0001755Y0022742D01*
G01X0001755Y0022742D02*
G01X0001803Y0022755D01*
G01X0001803Y0022755D02*
G01X0001853Y0022764D01*
G01X0001853Y0022764D02*
G01X0001902Y0022769D01*
G01X0001902Y0022769D02*
G01X0001953Y0022770D01*
G01X0001953Y0022770D02*
G01X0002003Y0022767D01*
G01X0002003Y0022767D02*
G01X0002052Y0022760D01*
G01X0002052Y0022760D02*
G01X0002101Y0022749D01*
G01X0002101Y0022749D02*
G01X0002149Y0022734D01*
G01X0002149Y0022734D02*
G01X0002195Y0022716D01*
G01X0002195Y0022716D02*
G01X0002240Y0022694D01*
G01X0002240Y0022694D02*
G01X0002283Y0022668D01*
G01X0002283Y0022668D02*
G01X0002324Y0022639D01*
G01X0002324Y0022639D02*
G01X0002363Y0022607D01*
G01X0002363Y0022607D02*
G01X0002399Y0022572D01*
G01X0002399Y0022572D02*
G01X0002431Y0022534D01*
G01X0002431Y0022534D02*
G01X0002461Y0022494D01*
G01X0002461Y0022494D02*
G01X0002488Y0022451D01*
G01X0002488Y0022451D02*
G01X0002511Y0022407D01*
G01X0002511Y0022407D02*
G01X0002530Y0022361D01*
G01X0002530Y0022361D02*
G01X0002546Y0022313D01*
G01X0002546Y0022313D02*
G01X0002558Y0022264D01*
G01X0002558Y0022264D02*
G01X0002566Y0022215D01*
G01X0002566Y0022215D02*
G01X0002570Y0022165D01*
G01X0002570Y0022165D02*
G01X0002570Y0022115D01*
G01X0002570Y0022115D02*
G01X0002566Y0022065D01*
G01X0002566Y0022065D02*
G01X0002558Y0022016D01*
G01X0002558Y0022016D02*
G01X0002546Y0021967D01*
G01X0002546Y0021967D02*
G01X0002530Y0021919D01*
G01X0002530Y0021919D02*
G01X0002511Y0021873D01*
G01X0002511Y0021873D02*
G01X0002488Y0021829D01*
G01X0002488Y0021829D02*
G01X0002461Y0021786D01*
G01X0002461Y0021786D02*
G01X0002431Y0021746D01*
G01X0002431Y0021746D02*
G01X0002399Y0021708D01*
G01X0002399Y0021708D02*
G01X0002363Y0021673D01*
G01X0002363Y0021673D02*
G01X0002324Y0021641D01*
G01X0002324Y0021641D02*
G01X0002283Y0021612D01*
G01X0002283Y0021612D02*
G01X0002240Y0021586D01*
G01X0002240Y0021586D02*
G01X0002195Y0021564D01*
G01X0002195Y0021564D02*
G01X0002149Y0021546D01*
G01X0002149Y0021546D02*
G01X0002101Y0021531D01*
G01X0002101Y0021531D02*
G01X0002052Y0021520D01*
G01X0002052Y0021520D02*
G01X0002003Y0021513D01*
G01X0002003Y0021513D02*
G01X0001953Y0021510D01*
G01X0001953Y0021510D02*
G01X0001902Y0021511D01*
G01X0001902Y0021511D02*
G01X0001853Y0021516D01*
G01X0001853Y0021516D02*
G01X0001803Y0021525D01*
G01X0001803Y0021525D02*
G01X0001755Y0021538D01*
G01X0001755Y0021538D02*
G01X0001708Y0021554D01*
G01X0001708Y0021554D02*
G01X0001662Y0021575D01*
G01X0001662Y0021575D02*
G01X0001618Y0021599D01*
G01X0001618Y0021599D02*
G01X0001576Y0021626D01*
G01X0001576Y0021626D02*
G01X0001536Y0021656D01*
G01X0001536Y0021656D02*
G01X0001499Y0021690D01*
G01X0001499Y0021690D02*
G01X0001465Y0021727D01*
G01X0001465Y0021727D02*
G01X0001433Y0021766D01*
G01X0001433Y0021766D02*
G01X0001405Y0021807D01*
G01X0001405Y0021807D02*
G01X0001380Y0021851D01*
G01X0001380Y0021851D02*
G01X0001359Y0021896D01*
G01X0001359Y0021896D02*
G01X0001342Y0021943D01*
G01X0001342Y0021943D02*
G01X0001328Y0021991D01*
G01X0001328Y0021991D02*
G01X0001318Y0022040D01*
G01X0001318Y0022040D02*
G01X0001312Y0022090D01*
G01X0001312Y0022090D02*
G01X0001310Y0022140D01*
G01X0032310Y0022140D02*
G01X0032312Y0022190D01*
G01X0032312Y0022190D02*
G01X0032318Y0022240D01*
G01X0032318Y0022240D02*
G01X0032328Y0022289D01*
G01X0032328Y0022289D02*
G01X0032342Y0022337D01*
G01X0032342Y0022337D02*
G01X0032359Y0022384D01*
G01X0032359Y0022384D02*
G01X0032380Y0022429D01*
G01X0032380Y0022429D02*
G01X0032405Y0022473D01*
G01X0032405Y0022473D02*
G01X0032433Y0022514D01*
G01X0032433Y0022514D02*
G01X0032465Y0022553D01*
G01X0032465Y0022553D02*
G01X0032499Y0022590D01*
G01X0032499Y0022590D02*
G01X0032536Y0022624D01*
G01X0032536Y0022624D02*
G01X0032576Y0022654D01*
G01X0032576Y0022654D02*
G01X0032618Y0022681D01*
G01X0032618Y0022681D02*
G01X0032662Y0022705D01*
G01X0032662Y0022705D02*
G01X0032708Y0022726D01*
G01X0032708Y0022726D02*
G01X0032755Y0022742D01*
G01X0032755Y0022742D02*
G01X0032803Y0022755D01*
G01X0032803Y0022755D02*
G01X0032853Y0022764D01*
G01X0032853Y0022764D02*
G01X0032902Y0022769D01*
G01X0032902Y0022769D02*
G01X0032953Y0022770D01*
G01X0032953Y0022770D02*
G01X0033003Y0022767D01*
G01X0033003Y0022767D02*
G01X0033052Y0022760D01*
G01X0033052Y0022760D02*
G01X0033101Y0022749D01*
G01X0033101Y0022749D02*
G01X0033149Y0022734D01*
G01X0033149Y0022734D02*
G01X0033195Y0022716D01*
G01X0033195Y0022716D02*
G01X0033240Y0022694D01*
G01X0033240Y0022694D02*
G01X0033283Y0022668D01*
G01X0033283Y0022668D02*
G01X0033324Y0022639D01*
G01X0033324Y0022639D02*
G01X0033363Y0022607D01*
G01X0033363Y0022607D02*
G01X0033399Y0022572D01*
G01X0033399Y0022572D02*
G01X0033431Y0022534D01*
G01X0033431Y0022534D02*
G01X0033461Y0022494D01*
G01X0033461Y0022494D02*
G01X0033488Y0022451D01*
G01X0033488Y0022451D02*
G01X0033511Y0022407D01*
G01X0033511Y0022407D02*
G01X0033530Y0022361D01*
G01X0033530Y0022361D02*
G01X0033546Y0022313D01*
G01X0033546Y0022313D02*
G01X0033558Y0022264D01*
G01X0033558Y0022264D02*
G01X0033566Y0022215D01*
G01X0033566Y0022215D02*
G01X0033570Y0022165D01*
G01X0033570Y0022165D02*
G01X0033570Y0022115D01*
G01X0033570Y0022115D02*
G01X0033566Y0022065D01*
G01X0033566Y0022065D02*
G01X0033558Y0022016D01*
G01X0033558Y0022016D02*
G01X0033546Y0021967D01*
G01X0033546Y0021967D02*
G01X0033530Y0021919D01*
G01X0033530Y0021919D02*
G01X0033511Y0021873D01*
G01X0033511Y0021873D02*
G01X0033488Y0021829D01*
G01X0033488Y0021829D02*
G01X0033461Y0021786D01*
G01X0033461Y0021786D02*
G01X0033431Y0021746D01*
G01X0033431Y0021746D02*
G01X0033399Y0021708D01*
G01X0033399Y0021708D02*
G01X0033363Y0021673D01*
G01X0033363Y0021673D02*
G01X0033324Y0021641D01*
G01X0033324Y0021641D02*
G01X0033283Y0021612D01*
G01X0033283Y0021612D02*
G01X0033240Y0021586D01*
G01X0033240Y0021586D02*
G01X0033195Y0021564D01*
G01X0033195Y0021564D02*
G01X0033149Y0021546D01*
G01X0033149Y0021546D02*
G01X0033101Y0021531D01*
G01X0033101Y0021531D02*
G01X0033052Y0021520D01*
G01X0033052Y0021520D02*
G01X0033003Y0021513D01*
G01X0033003Y0021513D02*
G01X0032953Y0021510D01*
G01X0032953Y0021510D02*
G01X0032902Y0021511D01*
G01X0032902Y0021511D02*
G01X0032853Y0021516D01*
G01X0032853Y0021516D02*
G01X0032803Y0021525D01*
G01X0032803Y0021525D02*
G01X0032755Y0021538D01*
G01X0032755Y0021538D02*
G01X0032708Y0021554D01*
G01X0032708Y0021554D02*
G01X0032662Y0021575D01*
G01X0032662Y0021575D02*
G01X0032618Y0021599D01*
G01X0032618Y0021599D02*
G01X0032576Y0021626D01*
G01X0032576Y0021626D02*
G01X0032536Y0021656D01*
G01X0032536Y0021656D02*
G01X0032499Y0021690D01*
G01X0032499Y0021690D02*
G01X0032465Y0021727D01*
G01X0032465Y0021727D02*
G01X0032433Y0021766D01*
G01X0032433Y0021766D02*
G01X0032405Y0021807D01*
G01X0032405Y0021807D02*
G01X0032380Y0021851D01*
G01X0032380Y0021851D02*
G01X0032359Y0021896D01*
G01X0032359Y0021896D02*
G01X0032342Y0021943D01*
G01X0032342Y0021943D02*
G01X0032328Y0021991D01*
G01X0032328Y0021991D02*
G01X0032318Y0022040D01*
G01X0032318Y0022040D02*
G01X0032312Y0022090D01*
G01X0032312Y0022090D02*
G01X0032310Y0022140D01*
G01X0032310Y0002140D02*
G01X0032312Y0002190D01*
G01X0032312Y0002190D02*
G01X0032318Y0002240D01*
G01X0032318Y0002240D02*
G01X0032328Y0002289D01*
G01X0032328Y0002289D02*
G01X0032342Y0002337D01*
G01X0032342Y0002337D02*
G01X0032359Y0002384D01*
G01X0032359Y0002384D02*
G01X0032380Y0002429D01*
G01X0032380Y0002429D02*
G01X0032405Y0002473D01*
G01X0032405Y0002473D02*
G01X0032433Y0002514D01*
G01X0032433Y0002514D02*
G01X0032465Y0002553D01*
G01X0032465Y0002553D02*
G01X0032499Y0002590D01*
G01X0032499Y0002590D02*
G01X0032536Y0002624D01*
G01X0032536Y0002624D02*
G01X0032576Y0002654D01*
G01X0032576Y0002654D02*
G01X0032618Y0002681D01*
G01X0032618Y0002681D02*
G01X0032662Y0002705D01*
G01X0032662Y0002705D02*
G01X0032708Y0002726D01*
G01X0032708Y0002726D02*
G01X0032755Y0002742D01*
G01X0032755Y0002742D02*
G01X0032803Y0002755D01*
G01X0032803Y0002755D02*
G01X0032853Y0002764D01*
G01X0032853Y0002764D02*
G01X0032902Y0002769D01*
G01X0032902Y0002769D02*
G01X0032953Y0002770D01*
G01X0032953Y0002770D02*
G01X0033003Y0002767D01*
G01X0033003Y0002767D02*
G01X0033052Y0002760D01*
G01X0033052Y0002760D02*
G01X0033101Y0002749D01*
G01X0033101Y0002749D02*
G01X0033149Y0002734D01*
G01X0033149Y0002734D02*
G01X0033195Y0002716D01*
G01X0033195Y0002716D02*
G01X0033240Y0002694D01*
G01X0033240Y0002694D02*
G01X0033283Y0002668D01*
G01X0033283Y0002668D02*
G01X0033324Y0002639D01*
G01X0033324Y0002639D02*
G01X0033363Y0002607D01*
G01X0033363Y0002607D02*
G01X0033399Y0002572D01*
G01X0033399Y0002572D02*
G01X0033431Y0002534D01*
G01X0033431Y0002534D02*
G01X0033461Y0002494D01*
G01X0033461Y0002494D02*
G01X0033488Y0002451D01*
G01X0033488Y0002451D02*
G01X0033511Y0002407D01*
G01X0033511Y0002407D02*
G01X0033530Y0002361D01*
G01X0033530Y0002361D02*
G01X0033546Y0002313D01*
G01X0033546Y0002313D02*
G01X0033558Y0002264D01*
G01X0033558Y0002264D02*
G01X0033566Y0002215D01*
G01X0033566Y0002215D02*
G01X0033570Y0002165D01*
G01X0033570Y0002165D02*
G01X0033570Y0002115D01*
G01X0033570Y0002115D02*
G01X0033566Y0002065D01*
G01X0033566Y0002065D02*
G01X0033558Y0002016D01*
G01X0033558Y0002016D02*
G01X0033546Y0001967D01*
G01X0033546Y0001967D02*
G01X0033530Y0001919D01*
G01X0033530Y0001919D02*
G01X0033511Y0001873D01*
G01X0033511Y0001873D02*
G01X0033488Y0001829D01*
G01X0033488Y0001829D02*
G01X0033461Y0001786D01*
G01X0033461Y0001786D02*
G01X0033431Y0001746D01*
G01X0033431Y0001746D02*
G01X0033399Y0001708D01*
G01X0033399Y0001708D02*
G01X0033363Y0001673D01*
G01X0033363Y0001673D02*
G01X0033324Y0001641D01*
G01X0033324Y0001641D02*
G01X0033283Y0001612D01*
G01X0033283Y0001612D02*
G01X0033240Y0001586D01*
G01X0033240Y0001586D02*
G01X0033195Y0001564D01*
G01X0033195Y0001564D02*
G01X0033149Y0001546D01*
G01X0033149Y0001546D02*
G01X0033101Y0001531D01*
G01X0033101Y0001531D02*
G01X0033052Y0001520D01*
G01X0033052Y0001520D02*
G01X0033003Y0001513D01*
G01X0033003Y0001513D02*
G01X0032953Y0001510D01*
G01X0032953Y0001510D02*
G01X0032902Y0001511D01*
G01X0032902Y0001511D02*
G01X0032853Y0001516D01*
G01X0032853Y0001516D02*
G01X0032803Y0001525D01*
G01X0032803Y0001525D02*
G01X0032755Y0001538D01*
G01X0032755Y0001538D02*
G01X0032708Y0001554D01*
G01X0032708Y0001554D02*
G01X0032662Y0001575D01*
G01X0032662Y0001575D02*
G01X0032618Y0001599D01*
G01X0032618Y0001599D02*
G01X0032576Y0001626D01*
G01X0032576Y0001626D02*
G01X0032536Y0001656D01*
G01X0032536Y0001656D02*
G01X0032499Y0001690D01*
G01X0032499Y0001690D02*
G01X0032465Y0001727D01*
G01X0032465Y0001727D02*
G01X0032433Y0001766D01*
G01X0032433Y0001766D02*
G01X0032405Y0001807D01*
G01X0032405Y0001807D02*
G01X0032380Y0001851D01*
G01X0032380Y0001851D02*
G01X0032359Y0001896D01*
G01X0032359Y0001896D02*
G01X0032342Y0001943D01*
G01X0032342Y0001943D02*
G01X0032328Y0001991D01*
G01X0032328Y0001991D02*
G01X0032318Y0002040D01*
G01X0032318Y0002040D02*
G01X0032312Y0002090D01*
G01X0032312Y0002090D02*
G01X0032310Y0002140D01*
M02*
