G04 This is an RS-274x file exported by *
G04 gerbv version 2.6.0 *
G04 More information is available about gerbv at *
G04 http://gerbv.gpleda.org/ *
G04 --End of header info--*
%MOIN*%
%FSLAX34Y34*%
%IPPOS*%
G04 --Define apertures--*
%AMMACRO10*
5,1,8,0.000000,0.000000,0.064943,22.500000*
%
%ADD10MACRO10*%
%ADD11C,0.0080*%
G04 --Start main section--*
G54D10*
G01X0004940Y0006140D03*
G01X0005940Y0006140D03*
G01X0006940Y0006140D03*
G01X0007940Y0006140D03*
G01X0008940Y0006140D03*
G01X0009940Y0006140D03*
G01X0010940Y0006140D03*
G01X0011940Y0006140D03*
G01X0012940Y0006140D03*
G01X0013940Y0006140D03*
G01X0014940Y0006140D03*
G01X0015940Y0006140D03*
G01X0016940Y0006140D03*
G01X0017940Y0006140D03*
G01X0018940Y0006140D03*
G01X0019940Y0006140D03*
G01X0020940Y0006140D03*
G01X0021940Y0006140D03*
G01X0022940Y0006140D03*
G01X0023940Y0006140D03*
G01X0025940Y0006140D03*
G01X0026940Y0006140D03*
G01X0027940Y0006140D03*
G01X0028940Y0006140D03*
G01X0029940Y0006140D03*
G01X0030940Y0006140D03*
G01X0030940Y0003140D03*
G01X0029940Y0003140D03*
G01X0028940Y0003140D03*
G01X0027940Y0003140D03*
G01X0026940Y0003140D03*
G01X0025940Y0003140D03*
G01X0025940Y0018140D03*
G01X0026940Y0018140D03*
G01X0027940Y0018140D03*
G01X0028940Y0018140D03*
G01X0029940Y0018140D03*
G01X0030940Y0018140D03*
G01X0030940Y0021140D03*
G01X0029940Y0021140D03*
G01X0028940Y0021140D03*
G01X0027940Y0021140D03*
G01X0026940Y0021140D03*
G01X0025940Y0021140D03*
G01X0023940Y0018140D03*
G01X0022940Y0018140D03*
G01X0021940Y0018140D03*
G01X0020940Y0018140D03*
G01X0019940Y0018140D03*
G01X0018940Y0018140D03*
G01X0017940Y0018140D03*
G01X0016940Y0018140D03*
G01X0015940Y0018140D03*
G01X0014940Y0018140D03*
G01X0013940Y0018140D03*
G01X0012940Y0018140D03*
G01X0011940Y0018140D03*
G01X0010940Y0018140D03*
G01X0009940Y0018140D03*
G01X0008940Y0018140D03*
G01X0007940Y0018140D03*
G01X0006940Y0018140D03*
G01X0005940Y0018140D03*
G01X0004940Y0018140D03*
G54D11*
G01X0002673Y0001018D02*
G01X0002301Y0000855D01*
G01X0002301Y0000855D02*
G01X0032630Y0000855D01*
G01X0032630Y0000855D02*
G01X0032402Y0000913D01*
G01X0032402Y0000913D02*
G01X0032402Y0000913D01*
G01X0032402Y0000913D02*
G01X0032032Y0001154D01*
G01X0032032Y0001154D02*
G01X0032032Y0001154D01*
G01X0032032Y0001154D02*
G01X0031762Y0001502D01*
G01X0031762Y0001502D02*
G01X0031762Y0001502D01*
G01X0031762Y0001502D02*
G01X0031618Y0001919D01*
G01X0031618Y0001919D02*
G01X0031618Y0002361D01*
G01X0031618Y0002361D02*
G01X0031762Y0002778D01*
G01X0031762Y0002778D02*
G01X0031762Y0002778D01*
G01X0031762Y0002778D02*
G01X0032032Y0003126D01*
G01X0032032Y0003126D02*
G01X0032032Y0003126D01*
G01X0032032Y0003126D02*
G01X0032032Y0003126D01*
G01X0032032Y0003126D02*
G01X0032402Y0003367D01*
G01X0032402Y0003367D02*
G01X0032402Y0003367D01*
G01X0032402Y0003367D02*
G01X0032829Y0003475D01*
G01X0032829Y0003475D02*
G01X0032829Y0003475D01*
G01X0032829Y0003475D02*
G01X0033269Y0003439D01*
G01X0033269Y0003439D02*
G01X0033269Y0003439D01*
G01X0033269Y0003439D02*
G01X0033673Y0003262D01*
G01X0033673Y0003262D02*
G01X0033673Y0003262D01*
G01X0033673Y0003262D02*
G01X0033997Y0002963D01*
G01X0033997Y0002963D02*
G01X0033997Y0002963D01*
G01X0033997Y0002963D02*
G01X0034207Y0002575D01*
G01X0034207Y0002575D02*
G01X0034207Y0002575D01*
G01X0034207Y0002575D02*
G01X0034225Y0002470D01*
G01X0034225Y0002470D02*
G01X0034225Y0021810D01*
G01X0034225Y0021810D02*
G01X0034207Y0021705D01*
G01X0034207Y0021705D02*
G01X0034207Y0021705D01*
G01X0034207Y0021705D02*
G01X0033997Y0021317D01*
G01X0033997Y0021317D02*
G01X0033997Y0021317D01*
G01X0033997Y0021317D02*
G01X0033673Y0021018D01*
G01X0033673Y0021018D02*
G01X0033673Y0021018D01*
G01X0033673Y0021018D02*
G01X0033269Y0020841D01*
G01X0033269Y0020841D02*
G01X0033269Y0020841D01*
G01X0033269Y0020841D02*
G01X0032829Y0020805D01*
G01X0032829Y0020805D02*
G01X0032829Y0020805D01*
G01X0032829Y0020805D02*
G01X0032402Y0020913D01*
G01X0032402Y0020913D02*
G01X0032402Y0020913D01*
G01X0032402Y0020913D02*
G01X0032032Y0021154D01*
G01X0032032Y0021154D02*
G01X0032032Y0021154D01*
G01X0032032Y0021154D02*
G01X0032032Y0021154D01*
G01X0032032Y0021154D02*
G01X0031762Y0021502D01*
G01X0031762Y0021502D02*
G01X0031762Y0021502D01*
G01X0031762Y0021502D02*
G01X0031618Y0021919D01*
G01X0031618Y0021919D02*
G01X0031618Y0022361D01*
G01X0031618Y0022361D02*
G01X0031762Y0022778D01*
G01X0031762Y0022778D02*
G01X0031762Y0022778D01*
G01X0031762Y0022778D02*
G01X0032032Y0023126D01*
G01X0032032Y0023126D02*
G01X0032032Y0023126D01*
G01X0032032Y0023126D02*
G01X0032032Y0023126D01*
G01X0032032Y0023126D02*
G01X0032402Y0023367D01*
G01X0032402Y0023367D02*
G01X0032402Y0023367D01*
G01X0032402Y0023367D02*
G01X0032630Y0023425D01*
G01X0032630Y0023425D02*
G01X0002301Y0023425D01*
G01X0002301Y0023425D02*
G01X0002673Y0023262D01*
G01X0002673Y0023262D02*
G01X0002673Y0023262D01*
G01X0002673Y0023262D02*
G01X0002997Y0022963D01*
G01X0002997Y0022963D02*
G01X0002997Y0022963D01*
G01X0002997Y0022963D02*
G01X0002997Y0022963D01*
G01X0002997Y0022963D02*
G01X0003207Y0022575D01*
G01X0003207Y0022575D02*
G01X0003207Y0022575D01*
G01X0003207Y0022575D02*
G01X0003280Y0022140D01*
G01X0003280Y0022140D02*
G01X0003207Y0021705D01*
G01X0003207Y0021705D02*
G01X0003207Y0021705D01*
G01X0003207Y0021705D02*
G01X0002997Y0021317D01*
G01X0002997Y0021317D02*
G01X0002997Y0021317D01*
G01X0002997Y0021317D02*
G01X0002673Y0021018D01*
G01X0002673Y0021018D02*
G01X0002673Y0021018D01*
G01X0002673Y0021018D02*
G01X0002269Y0020841D01*
G01X0002269Y0020841D02*
G01X0002269Y0020841D01*
G01X0002269Y0020841D02*
G01X0001829Y0020805D01*
G01X0001829Y0020805D02*
G01X0001829Y0020805D01*
G01X0001829Y0020805D02*
G01X0001402Y0020913D01*
G01X0001402Y0020913D02*
G01X0001402Y0020913D01*
G01X0001402Y0020913D02*
G01X0001032Y0021154D01*
G01X0001032Y0021154D02*
G01X0001032Y0021154D01*
G01X0001032Y0021154D02*
G01X0001032Y0021154D01*
G01X0001032Y0021154D02*
G01X0000762Y0021502D01*
G01X0000762Y0021502D02*
G01X0000762Y0021502D01*
G01X0000762Y0021502D02*
G01X0000655Y0021812D01*
G01X0000655Y0021812D02*
G01X0000655Y0002468D01*
G01X0000655Y0002468D02*
G01X0000762Y0002778D01*
G01X0000762Y0002778D02*
G01X0000762Y0002778D01*
G01X0000762Y0002778D02*
G01X0001032Y0003126D01*
G01X0001032Y0003126D02*
G01X0001032Y0003126D01*
G01X0001032Y0003126D02*
G01X0001032Y0003126D01*
G01X0001032Y0003126D02*
G01X0001402Y0003367D01*
G01X0001402Y0003367D02*
G01X0001402Y0003367D01*
G01X0001402Y0003367D02*
G01X0001829Y0003475D01*
G01X0001829Y0003475D02*
G01X0001829Y0003475D01*
G01X0001829Y0003475D02*
G01X0002269Y0003439D01*
G01X0002269Y0003439D02*
G01X0002269Y0003439D01*
G01X0002269Y0003439D02*
G01X0002673Y0003262D01*
G01X0002673Y0003262D02*
G01X0002673Y0003262D01*
G01X0002673Y0003262D02*
G01X0002997Y0002963D01*
G01X0002997Y0002963D02*
G01X0002997Y0002963D01*
G01X0002997Y0002963D02*
G01X0003207Y0002575D01*
G01X0003207Y0002575D02*
G01X0003207Y0002575D01*
G01X0003207Y0002575D02*
G01X0003280Y0002140D01*
G01X0003280Y0002140D02*
G01X0003207Y0001705D01*
G01X0003207Y0001705D02*
G01X0002997Y0001317D01*
G01X0002997Y0001317D02*
G01X0002997Y0001317D01*
G01X0002997Y0001317D02*
G01X0002673Y0001018D01*
G01X0002673Y0001018D02*
G01X0002673Y0001018D01*
G01X0002688Y0001033D02*
G01X0032219Y0001033D01*
G01X0032339Y0000954D02*
G01X0002527Y0000954D01*
G01X0002348Y0000876D02*
G01X0032549Y0000876D01*
G01X0032098Y0001111D02*
G01X0002774Y0001111D01*
G01X0002859Y0001190D02*
G01X0032005Y0001190D01*
G01X0031944Y0001268D02*
G01X0002944Y0001268D01*
G01X0003013Y0001347D02*
G01X0031883Y0001347D01*
G01X0031822Y0001425D02*
G01X0003056Y0001425D01*
G01X0003098Y0001504D02*
G01X0031761Y0001504D01*
G01X0031734Y0001582D02*
G01X0003141Y0001582D01*
G01X0003183Y0001661D02*
G01X0031707Y0001661D01*
G01X0031680Y0001739D02*
G01X0003213Y0001739D01*
G01X0003207Y0001705D02*
G01X0003207Y0001705D01*
G01X0003226Y0001818D02*
G01X0031653Y0001818D01*
G01X0031626Y0001896D02*
G01X0003239Y0001896D01*
G01X0003252Y0001975D02*
G01X0031618Y0001975D01*
G01X0031618Y0002053D02*
G01X0003265Y0002053D01*
G01X0003279Y0002132D02*
G01X0031618Y0002132D01*
G01X0031618Y0002210D02*
G01X0003268Y0002210D01*
G01X0003255Y0002289D02*
G01X0031618Y0002289D01*
G01X0031620Y0002367D02*
G01X0003242Y0002367D01*
G01X0003229Y0002446D02*
G01X0031647Y0002446D01*
G01X0031674Y0002524D02*
G01X0003216Y0002524D01*
G01X0003193Y0002603D02*
G01X0031701Y0002603D01*
G01X0031728Y0002681D02*
G01X0003150Y0002681D01*
G01X0003108Y0002760D02*
G01X0025698Y0002760D01*
G01X0025758Y0002700D02*
G01X0025500Y0002958D01*
G01X0025500Y0002958D02*
G01X0025500Y0003100D01*
G01X0025500Y0003100D02*
G01X0025900Y0003100D01*
G01X0025900Y0003100D02*
G01X0025900Y0003180D01*
G01X0025900Y0003180D02*
G01X0025900Y0003580D01*
G01X0025900Y0003580D02*
G01X0025758Y0003580D01*
G01X0025758Y0003580D02*
G01X0025500Y0003322D01*
G01X0025500Y0003322D02*
G01X0025500Y0003180D01*
G01X0025500Y0003180D02*
G01X0025900Y0003180D01*
G01X0025900Y0003180D02*
G01X0025980Y0003180D01*
G01X0025980Y0003180D02*
G01X0025980Y0003580D01*
G01X0025980Y0003580D02*
G01X0026122Y0003580D01*
G01X0026122Y0003580D02*
G01X0026380Y0003322D01*
G01X0026380Y0003322D02*
G01X0026380Y0003180D01*
G01X0026380Y0003180D02*
G01X0025980Y0003180D01*
G01X0025980Y0003180D02*
G01X0025980Y0003100D01*
G01X0025980Y0003100D02*
G01X0026380Y0003100D01*
G01X0026380Y0003100D02*
G01X0026380Y0002958D01*
G01X0026380Y0002958D02*
G01X0026122Y0002700D01*
G01X0026122Y0002700D02*
G01X0025980Y0002700D01*
G01X0025980Y0002700D02*
G01X0025980Y0003100D01*
G01X0025980Y0003100D02*
G01X0025900Y0003100D01*
G01X0025900Y0003100D02*
G01X0025900Y0002700D01*
G01X0025900Y0002700D02*
G01X0025758Y0002700D01*
G01X0025900Y0002760D02*
G01X0025980Y0002760D01*
G01X0025980Y0002838D02*
G01X0025900Y0002838D01*
G01X0025900Y0002917D02*
G01X0025980Y0002917D01*
G01X0025980Y0002995D02*
G01X0025900Y0002995D01*
G01X0025900Y0003074D02*
G01X0025980Y0003074D01*
G01X0025980Y0003152D02*
G01X0026540Y0003152D01*
G01X0026540Y0003074D02*
G01X0026380Y0003074D01*
G01X0026380Y0002995D02*
G01X0026540Y0002995D01*
G01X0026540Y0002974D02*
G01X0026774Y0002740D01*
G01X0026774Y0002740D02*
G01X0027106Y0002740D01*
G01X0027106Y0002740D02*
G01X0027340Y0002974D01*
G01X0027340Y0002974D02*
G01X0027340Y0003306D01*
G01X0027340Y0003306D02*
G01X0027106Y0003540D01*
G01X0027106Y0003540D02*
G01X0026774Y0003540D01*
G01X0026774Y0003540D02*
G01X0026540Y0003306D01*
G01X0026540Y0003306D02*
G01X0026540Y0002974D01*
G01X0026598Y0002917D02*
G01X0026339Y0002917D01*
G01X0026260Y0002838D02*
G01X0026676Y0002838D01*
G01X0026755Y0002760D02*
G01X0026182Y0002760D01*
G01X0025900Y0003152D02*
G01X0002792Y0003152D01*
G01X0002707Y0003231D02*
G01X0025500Y0003231D01*
G01X0025500Y0003309D02*
G01X0002565Y0003309D01*
G01X0002386Y0003388D02*
G01X0025565Y0003388D01*
G01X0025644Y0003466D02*
G01X0001943Y0003466D01*
G01X0001792Y0003466D02*
G01X0000655Y0003466D01*
G01X0000655Y0003388D02*
G01X0001482Y0003388D01*
G01X0001313Y0003309D02*
G01X0000655Y0003309D01*
G01X0000655Y0003231D02*
G01X0001193Y0003231D01*
G01X0001072Y0003152D02*
G01X0000655Y0003152D01*
G01X0000655Y0003074D02*
G01X0000992Y0003074D01*
G01X0000931Y0002995D02*
G01X0000655Y0002995D01*
G01X0000655Y0002917D02*
G01X0000869Y0002917D01*
G01X0000808Y0002838D02*
G01X0000655Y0002838D01*
G01X0000655Y0002760D02*
G01X0000755Y0002760D01*
G01X0000728Y0002681D02*
G01X0000655Y0002681D01*
G01X0000655Y0002603D02*
G01X0000701Y0002603D01*
G01X0000674Y0002524D02*
G01X0000655Y0002524D01*
G01X0000655Y0003545D02*
G01X0025722Y0003545D01*
G01X0025900Y0003545D02*
G01X0025980Y0003545D01*
G01X0025980Y0003466D02*
G01X0025900Y0003466D01*
G01X0025900Y0003388D02*
G01X0025980Y0003388D01*
G01X0025980Y0003309D02*
G01X0025900Y0003309D01*
G01X0025900Y0003231D02*
G01X0025980Y0003231D01*
G01X0026236Y0003466D02*
G01X0026700Y0003466D01*
G01X0026622Y0003388D02*
G01X0026315Y0003388D01*
G01X0026380Y0003309D02*
G01X0026543Y0003309D01*
G01X0026540Y0003231D02*
G01X0026380Y0003231D01*
G01X0026158Y0003545D02*
G01X0034225Y0003545D01*
G01X0034225Y0003623D02*
G01X0000655Y0003623D01*
G01X0000655Y0003702D02*
G01X0034225Y0003702D01*
G01X0034225Y0003780D02*
G01X0000655Y0003780D01*
G01X0000655Y0003859D02*
G01X0034225Y0003859D01*
G01X0034225Y0003937D02*
G01X0000655Y0003937D01*
G01X0000655Y0004016D02*
G01X0034225Y0004016D01*
G01X0034225Y0004094D02*
G01X0000655Y0004094D01*
G01X0000655Y0004173D02*
G01X0034225Y0004173D01*
G01X0034225Y0004251D02*
G01X0000655Y0004251D01*
G01X0000655Y0004330D02*
G01X0034225Y0004330D01*
G01X0034225Y0004408D02*
G01X0000655Y0004408D01*
G01X0000655Y0004487D02*
G01X0034225Y0004487D01*
G01X0034225Y0004565D02*
G01X0000655Y0004565D01*
G01X0000655Y0004644D02*
G01X0034225Y0004644D01*
G01X0034225Y0004722D02*
G01X0000655Y0004722D01*
G01X0000655Y0004801D02*
G01X0034225Y0004801D01*
G01X0034225Y0004879D02*
G01X0000655Y0004879D01*
G01X0000655Y0004958D02*
G01X0034225Y0004958D01*
G01X0034225Y0005036D02*
G01X0000655Y0005036D01*
G01X0000655Y0005115D02*
G01X0034225Y0005115D01*
G01X0034225Y0005193D02*
G01X0000655Y0005193D01*
G01X0000655Y0005272D02*
G01X0034225Y0005272D01*
G01X0034225Y0005350D02*
G01X0000655Y0005350D01*
G01X0000655Y0005429D02*
G01X0034225Y0005429D01*
G01X0034225Y0005507D02*
G01X0000655Y0005507D01*
G01X0000655Y0005586D02*
G01X0034225Y0005586D01*
G01X0034225Y0005664D02*
G01X0000655Y0005664D01*
G01X0000655Y0005743D02*
G01X0004772Y0005743D01*
G01X0004774Y0005740D02*
G01X0005106Y0005740D01*
G01X0005106Y0005740D02*
G01X0005340Y0005974D01*
G01X0005340Y0005974D02*
G01X0005340Y0006306D01*
G01X0005340Y0006306D02*
G01X0005106Y0006540D01*
G01X0005106Y0006540D02*
G01X0004774Y0006540D01*
G01X0004774Y0006540D02*
G01X0004540Y0006306D01*
G01X0004540Y0006306D02*
G01X0004540Y0005974D01*
G01X0004540Y0005974D02*
G01X0004774Y0005740D01*
G01X0004693Y0005821D02*
G01X0000655Y0005821D01*
G01X0000655Y0005900D02*
G01X0004615Y0005900D01*
G01X0004540Y0005978D02*
G01X0000655Y0005978D01*
G01X0000655Y0006057D02*
G01X0004540Y0006057D01*
G01X0004540Y0006135D02*
G01X0000655Y0006135D01*
G01X0000655Y0006214D02*
G01X0004540Y0006214D01*
G01X0004540Y0006292D02*
G01X0000655Y0006292D01*
G01X0000655Y0006371D02*
G01X0004605Y0006371D01*
G01X0004683Y0006449D02*
G01X0000655Y0006449D01*
G01X0000655Y0006528D02*
G01X0004762Y0006528D01*
G01X0005118Y0006528D02*
G01X0005762Y0006528D01*
G01X0005774Y0006540D02*
G01X0005540Y0006306D01*
G01X0005540Y0006306D02*
G01X0005540Y0005974D01*
G01X0005540Y0005974D02*
G01X0005774Y0005740D01*
G01X0005774Y0005740D02*
G01X0006106Y0005740D01*
G01X0006106Y0005740D02*
G01X0006340Y0005974D01*
G01X0006340Y0005974D02*
G01X0006340Y0006306D01*
G01X0006340Y0006306D02*
G01X0006106Y0006540D01*
G01X0006106Y0006540D02*
G01X0005774Y0006540D01*
G01X0005683Y0006449D02*
G01X0005197Y0006449D01*
G01X0005275Y0006371D02*
G01X0005605Y0006371D01*
G01X0005540Y0006292D02*
G01X0005340Y0006292D01*
G01X0005340Y0006214D02*
G01X0005540Y0006214D01*
G01X0005540Y0006135D02*
G01X0005340Y0006135D01*
G01X0005340Y0006057D02*
G01X0005540Y0006057D01*
G01X0005540Y0005978D02*
G01X0005340Y0005978D01*
G01X0005265Y0005900D02*
G01X0005615Y0005900D01*
G01X0005693Y0005821D02*
G01X0005187Y0005821D01*
G01X0005108Y0005743D02*
G01X0005772Y0005743D01*
G01X0006108Y0005743D02*
G01X0006772Y0005743D01*
G01X0006774Y0005740D02*
G01X0007106Y0005740D01*
G01X0007106Y0005740D02*
G01X0007340Y0005974D01*
G01X0007340Y0005974D02*
G01X0007340Y0006306D01*
G01X0007340Y0006306D02*
G01X0007106Y0006540D01*
G01X0007106Y0006540D02*
G01X0006774Y0006540D01*
G01X0006774Y0006540D02*
G01X0006540Y0006306D01*
G01X0006540Y0006306D02*
G01X0006540Y0005974D01*
G01X0006540Y0005974D02*
G01X0006774Y0005740D01*
G01X0006693Y0005821D02*
G01X0006187Y0005821D01*
G01X0006265Y0005900D02*
G01X0006615Y0005900D01*
G01X0006540Y0005978D02*
G01X0006340Y0005978D01*
G01X0006340Y0006057D02*
G01X0006540Y0006057D01*
G01X0006540Y0006135D02*
G01X0006340Y0006135D01*
G01X0006340Y0006214D02*
G01X0006540Y0006214D01*
G01X0006540Y0006292D02*
G01X0006340Y0006292D01*
G01X0006275Y0006371D02*
G01X0006605Y0006371D01*
G01X0006683Y0006449D02*
G01X0006197Y0006449D01*
G01X0006118Y0006528D02*
G01X0006762Y0006528D01*
G01X0007118Y0006528D02*
G01X0007762Y0006528D01*
G01X0007774Y0006540D02*
G01X0007540Y0006306D01*
G01X0007540Y0006306D02*
G01X0007540Y0005974D01*
G01X0007540Y0005974D02*
G01X0007774Y0005740D01*
G01X0007774Y0005740D02*
G01X0008106Y0005740D01*
G01X0008106Y0005740D02*
G01X0008340Y0005974D01*
G01X0008340Y0005974D02*
G01X0008340Y0006306D01*
G01X0008340Y0006306D02*
G01X0008106Y0006540D01*
G01X0008106Y0006540D02*
G01X0007774Y0006540D01*
G01X0007683Y0006449D02*
G01X0007197Y0006449D01*
G01X0007275Y0006371D02*
G01X0007605Y0006371D01*
G01X0007540Y0006292D02*
G01X0007340Y0006292D01*
G01X0007340Y0006214D02*
G01X0007540Y0006214D01*
G01X0007540Y0006135D02*
G01X0007340Y0006135D01*
G01X0007340Y0006057D02*
G01X0007540Y0006057D01*
G01X0007540Y0005978D02*
G01X0007340Y0005978D01*
G01X0007265Y0005900D02*
G01X0007615Y0005900D01*
G01X0007693Y0005821D02*
G01X0007187Y0005821D01*
G01X0007108Y0005743D02*
G01X0007772Y0005743D01*
G01X0008108Y0005743D02*
G01X0008772Y0005743D01*
G01X0008774Y0005740D02*
G01X0009106Y0005740D01*
G01X0009106Y0005740D02*
G01X0009340Y0005974D01*
G01X0009340Y0005974D02*
G01X0009340Y0006306D01*
G01X0009340Y0006306D02*
G01X0009106Y0006540D01*
G01X0009106Y0006540D02*
G01X0008774Y0006540D01*
G01X0008774Y0006540D02*
G01X0008540Y0006306D01*
G01X0008540Y0006306D02*
G01X0008540Y0005974D01*
G01X0008540Y0005974D02*
G01X0008774Y0005740D01*
G01X0008693Y0005821D02*
G01X0008187Y0005821D01*
G01X0008265Y0005900D02*
G01X0008615Y0005900D01*
G01X0008540Y0005978D02*
G01X0008340Y0005978D01*
G01X0008340Y0006057D02*
G01X0008540Y0006057D01*
G01X0008540Y0006135D02*
G01X0008340Y0006135D01*
G01X0008340Y0006214D02*
G01X0008540Y0006214D01*
G01X0008540Y0006292D02*
G01X0008340Y0006292D01*
G01X0008275Y0006371D02*
G01X0008605Y0006371D01*
G01X0008683Y0006449D02*
G01X0008197Y0006449D01*
G01X0008118Y0006528D02*
G01X0008762Y0006528D01*
G01X0009118Y0006528D02*
G01X0009762Y0006528D01*
G01X0009774Y0006540D02*
G01X0009540Y0006306D01*
G01X0009540Y0006306D02*
G01X0009540Y0005974D01*
G01X0009540Y0005974D02*
G01X0009774Y0005740D01*
G01X0009774Y0005740D02*
G01X0010106Y0005740D01*
G01X0010106Y0005740D02*
G01X0010340Y0005974D01*
G01X0010340Y0005974D02*
G01X0010340Y0006306D01*
G01X0010340Y0006306D02*
G01X0010106Y0006540D01*
G01X0010106Y0006540D02*
G01X0009774Y0006540D01*
G01X0009683Y0006449D02*
G01X0009197Y0006449D01*
G01X0009275Y0006371D02*
G01X0009605Y0006371D01*
G01X0009540Y0006292D02*
G01X0009340Y0006292D01*
G01X0009340Y0006214D02*
G01X0009540Y0006214D01*
G01X0009540Y0006135D02*
G01X0009340Y0006135D01*
G01X0009340Y0006057D02*
G01X0009540Y0006057D01*
G01X0009540Y0005978D02*
G01X0009340Y0005978D01*
G01X0009265Y0005900D02*
G01X0009615Y0005900D01*
G01X0009693Y0005821D02*
G01X0009187Y0005821D01*
G01X0009108Y0005743D02*
G01X0009772Y0005743D01*
G01X0010108Y0005743D02*
G01X0010772Y0005743D01*
G01X0010774Y0005740D02*
G01X0011106Y0005740D01*
G01X0011106Y0005740D02*
G01X0011340Y0005974D01*
G01X0011340Y0005974D02*
G01X0011340Y0006306D01*
G01X0011340Y0006306D02*
G01X0011106Y0006540D01*
G01X0011106Y0006540D02*
G01X0010774Y0006540D01*
G01X0010774Y0006540D02*
G01X0010540Y0006306D01*
G01X0010540Y0006306D02*
G01X0010540Y0005974D01*
G01X0010540Y0005974D02*
G01X0010774Y0005740D01*
G01X0010693Y0005821D02*
G01X0010187Y0005821D01*
G01X0010265Y0005900D02*
G01X0010615Y0005900D01*
G01X0010540Y0005978D02*
G01X0010340Y0005978D01*
G01X0010340Y0006057D02*
G01X0010540Y0006057D01*
G01X0010540Y0006135D02*
G01X0010340Y0006135D01*
G01X0010340Y0006214D02*
G01X0010540Y0006214D01*
G01X0010540Y0006292D02*
G01X0010340Y0006292D01*
G01X0010275Y0006371D02*
G01X0010605Y0006371D01*
G01X0010683Y0006449D02*
G01X0010197Y0006449D01*
G01X0010118Y0006528D02*
G01X0010762Y0006528D01*
G01X0011118Y0006528D02*
G01X0011762Y0006528D01*
G01X0011774Y0006540D02*
G01X0011540Y0006306D01*
G01X0011540Y0006306D02*
G01X0011540Y0005974D01*
G01X0011540Y0005974D02*
G01X0011774Y0005740D01*
G01X0011774Y0005740D02*
G01X0012106Y0005740D01*
G01X0012106Y0005740D02*
G01X0012340Y0005974D01*
G01X0012340Y0005974D02*
G01X0012340Y0006306D01*
G01X0012340Y0006306D02*
G01X0012106Y0006540D01*
G01X0012106Y0006540D02*
G01X0011774Y0006540D01*
G01X0011683Y0006449D02*
G01X0011197Y0006449D01*
G01X0011275Y0006371D02*
G01X0011605Y0006371D01*
G01X0011540Y0006292D02*
G01X0011340Y0006292D01*
G01X0011340Y0006214D02*
G01X0011540Y0006214D01*
G01X0011540Y0006135D02*
G01X0011340Y0006135D01*
G01X0011340Y0006057D02*
G01X0011540Y0006057D01*
G01X0011540Y0005978D02*
G01X0011340Y0005978D01*
G01X0011265Y0005900D02*
G01X0011615Y0005900D01*
G01X0011693Y0005821D02*
G01X0011187Y0005821D01*
G01X0011108Y0005743D02*
G01X0011772Y0005743D01*
G01X0012108Y0005743D02*
G01X0012772Y0005743D01*
G01X0012774Y0005740D02*
G01X0013106Y0005740D01*
G01X0013106Y0005740D02*
G01X0013340Y0005974D01*
G01X0013340Y0005974D02*
G01X0013340Y0006306D01*
G01X0013340Y0006306D02*
G01X0013106Y0006540D01*
G01X0013106Y0006540D02*
G01X0012774Y0006540D01*
G01X0012774Y0006540D02*
G01X0012540Y0006306D01*
G01X0012540Y0006306D02*
G01X0012540Y0005974D01*
G01X0012540Y0005974D02*
G01X0012774Y0005740D01*
G01X0012693Y0005821D02*
G01X0012187Y0005821D01*
G01X0012265Y0005900D02*
G01X0012615Y0005900D01*
G01X0012540Y0005978D02*
G01X0012340Y0005978D01*
G01X0012340Y0006057D02*
G01X0012540Y0006057D01*
G01X0012540Y0006135D02*
G01X0012340Y0006135D01*
G01X0012340Y0006214D02*
G01X0012540Y0006214D01*
G01X0012540Y0006292D02*
G01X0012340Y0006292D01*
G01X0012275Y0006371D02*
G01X0012605Y0006371D01*
G01X0012683Y0006449D02*
G01X0012197Y0006449D01*
G01X0012118Y0006528D02*
G01X0012762Y0006528D01*
G01X0013118Y0006528D02*
G01X0013762Y0006528D01*
G01X0013774Y0006540D02*
G01X0013540Y0006306D01*
G01X0013540Y0006306D02*
G01X0013540Y0005974D01*
G01X0013540Y0005974D02*
G01X0013774Y0005740D01*
G01X0013774Y0005740D02*
G01X0014106Y0005740D01*
G01X0014106Y0005740D02*
G01X0014340Y0005974D01*
G01X0014340Y0005974D02*
G01X0014340Y0006306D01*
G01X0014340Y0006306D02*
G01X0014106Y0006540D01*
G01X0014106Y0006540D02*
G01X0013774Y0006540D01*
G01X0013683Y0006449D02*
G01X0013197Y0006449D01*
G01X0013275Y0006371D02*
G01X0013605Y0006371D01*
G01X0013540Y0006292D02*
G01X0013340Y0006292D01*
G01X0013340Y0006214D02*
G01X0013540Y0006214D01*
G01X0013540Y0006135D02*
G01X0013340Y0006135D01*
G01X0013340Y0006057D02*
G01X0013540Y0006057D01*
G01X0013540Y0005978D02*
G01X0013340Y0005978D01*
G01X0013265Y0005900D02*
G01X0013615Y0005900D01*
G01X0013693Y0005821D02*
G01X0013187Y0005821D01*
G01X0013108Y0005743D02*
G01X0013772Y0005743D01*
G01X0014108Y0005743D02*
G01X0014772Y0005743D01*
G01X0014774Y0005740D02*
G01X0015106Y0005740D01*
G01X0015106Y0005740D02*
G01X0015340Y0005974D01*
G01X0015340Y0005974D02*
G01X0015340Y0006306D01*
G01X0015340Y0006306D02*
G01X0015106Y0006540D01*
G01X0015106Y0006540D02*
G01X0014774Y0006540D01*
G01X0014774Y0006540D02*
G01X0014540Y0006306D01*
G01X0014540Y0006306D02*
G01X0014540Y0005974D01*
G01X0014540Y0005974D02*
G01X0014774Y0005740D01*
G01X0014693Y0005821D02*
G01X0014187Y0005821D01*
G01X0014265Y0005900D02*
G01X0014615Y0005900D01*
G01X0014540Y0005978D02*
G01X0014340Y0005978D01*
G01X0014340Y0006057D02*
G01X0014540Y0006057D01*
G01X0014540Y0006135D02*
G01X0014340Y0006135D01*
G01X0014340Y0006214D02*
G01X0014540Y0006214D01*
G01X0014540Y0006292D02*
G01X0014340Y0006292D01*
G01X0014275Y0006371D02*
G01X0014605Y0006371D01*
G01X0014683Y0006449D02*
G01X0014197Y0006449D01*
G01X0014118Y0006528D02*
G01X0014762Y0006528D01*
G01X0015118Y0006528D02*
G01X0015762Y0006528D01*
G01X0015774Y0006540D02*
G01X0015540Y0006306D01*
G01X0015540Y0006306D02*
G01X0015540Y0005974D01*
G01X0015540Y0005974D02*
G01X0015774Y0005740D01*
G01X0015774Y0005740D02*
G01X0016106Y0005740D01*
G01X0016106Y0005740D02*
G01X0016340Y0005974D01*
G01X0016340Y0005974D02*
G01X0016340Y0006306D01*
G01X0016340Y0006306D02*
G01X0016106Y0006540D01*
G01X0016106Y0006540D02*
G01X0015774Y0006540D01*
G01X0015683Y0006449D02*
G01X0015197Y0006449D01*
G01X0015275Y0006371D02*
G01X0015605Y0006371D01*
G01X0015540Y0006292D02*
G01X0015340Y0006292D01*
G01X0015340Y0006214D02*
G01X0015540Y0006214D01*
G01X0015540Y0006135D02*
G01X0015340Y0006135D01*
G01X0015340Y0006057D02*
G01X0015540Y0006057D01*
G01X0015540Y0005978D02*
G01X0015340Y0005978D01*
G01X0015265Y0005900D02*
G01X0015615Y0005900D01*
G01X0015693Y0005821D02*
G01X0015187Y0005821D01*
G01X0015108Y0005743D02*
G01X0015772Y0005743D01*
G01X0016108Y0005743D02*
G01X0016772Y0005743D01*
G01X0016774Y0005740D02*
G01X0017106Y0005740D01*
G01X0017106Y0005740D02*
G01X0017340Y0005974D01*
G01X0017340Y0005974D02*
G01X0017340Y0006306D01*
G01X0017340Y0006306D02*
G01X0017106Y0006540D01*
G01X0017106Y0006540D02*
G01X0016774Y0006540D01*
G01X0016774Y0006540D02*
G01X0016540Y0006306D01*
G01X0016540Y0006306D02*
G01X0016540Y0005974D01*
G01X0016540Y0005974D02*
G01X0016774Y0005740D01*
G01X0016693Y0005821D02*
G01X0016187Y0005821D01*
G01X0016265Y0005900D02*
G01X0016615Y0005900D01*
G01X0016540Y0005978D02*
G01X0016340Y0005978D01*
G01X0016340Y0006057D02*
G01X0016540Y0006057D01*
G01X0016540Y0006135D02*
G01X0016340Y0006135D01*
G01X0016340Y0006214D02*
G01X0016540Y0006214D01*
G01X0016540Y0006292D02*
G01X0016340Y0006292D01*
G01X0016275Y0006371D02*
G01X0016605Y0006371D01*
G01X0016683Y0006449D02*
G01X0016197Y0006449D01*
G01X0016118Y0006528D02*
G01X0016762Y0006528D01*
G01X0017118Y0006528D02*
G01X0017762Y0006528D01*
G01X0017774Y0006540D02*
G01X0017540Y0006306D01*
G01X0017540Y0006306D02*
G01X0017540Y0005974D01*
G01X0017540Y0005974D02*
G01X0017774Y0005740D01*
G01X0017774Y0005740D02*
G01X0018106Y0005740D01*
G01X0018106Y0005740D02*
G01X0018340Y0005974D01*
G01X0018340Y0005974D02*
G01X0018340Y0006306D01*
G01X0018340Y0006306D02*
G01X0018106Y0006540D01*
G01X0018106Y0006540D02*
G01X0017774Y0006540D01*
G01X0017683Y0006449D02*
G01X0017197Y0006449D01*
G01X0017275Y0006371D02*
G01X0017605Y0006371D01*
G01X0017540Y0006292D02*
G01X0017340Y0006292D01*
G01X0017340Y0006214D02*
G01X0017540Y0006214D01*
G01X0017540Y0006135D02*
G01X0017340Y0006135D01*
G01X0017340Y0006057D02*
G01X0017540Y0006057D01*
G01X0017540Y0005978D02*
G01X0017340Y0005978D01*
G01X0017265Y0005900D02*
G01X0017615Y0005900D01*
G01X0017693Y0005821D02*
G01X0017187Y0005821D01*
G01X0017108Y0005743D02*
G01X0017772Y0005743D01*
G01X0018108Y0005743D02*
G01X0018772Y0005743D01*
G01X0018774Y0005740D02*
G01X0019106Y0005740D01*
G01X0019106Y0005740D02*
G01X0019340Y0005974D01*
G01X0019340Y0005974D02*
G01X0019340Y0006306D01*
G01X0019340Y0006306D02*
G01X0019106Y0006540D01*
G01X0019106Y0006540D02*
G01X0018774Y0006540D01*
G01X0018774Y0006540D02*
G01X0018540Y0006306D01*
G01X0018540Y0006306D02*
G01X0018540Y0005974D01*
G01X0018540Y0005974D02*
G01X0018774Y0005740D01*
G01X0018693Y0005821D02*
G01X0018187Y0005821D01*
G01X0018265Y0005900D02*
G01X0018615Y0005900D01*
G01X0018540Y0005978D02*
G01X0018340Y0005978D01*
G01X0018340Y0006057D02*
G01X0018540Y0006057D01*
G01X0018540Y0006135D02*
G01X0018340Y0006135D01*
G01X0018340Y0006214D02*
G01X0018540Y0006214D01*
G01X0018540Y0006292D02*
G01X0018340Y0006292D01*
G01X0018275Y0006371D02*
G01X0018605Y0006371D01*
G01X0018683Y0006449D02*
G01X0018197Y0006449D01*
G01X0018118Y0006528D02*
G01X0018762Y0006528D01*
G01X0019118Y0006528D02*
G01X0019762Y0006528D01*
G01X0019774Y0006540D02*
G01X0019540Y0006306D01*
G01X0019540Y0006306D02*
G01X0019540Y0005974D01*
G01X0019540Y0005974D02*
G01X0019774Y0005740D01*
G01X0019774Y0005740D02*
G01X0020106Y0005740D01*
G01X0020106Y0005740D02*
G01X0020340Y0005974D01*
G01X0020340Y0005974D02*
G01X0020340Y0006306D01*
G01X0020340Y0006306D02*
G01X0020106Y0006540D01*
G01X0020106Y0006540D02*
G01X0019774Y0006540D01*
G01X0019683Y0006449D02*
G01X0019197Y0006449D01*
G01X0019275Y0006371D02*
G01X0019605Y0006371D01*
G01X0019540Y0006292D02*
G01X0019340Y0006292D01*
G01X0019340Y0006214D02*
G01X0019540Y0006214D01*
G01X0019540Y0006135D02*
G01X0019340Y0006135D01*
G01X0019340Y0006057D02*
G01X0019540Y0006057D01*
G01X0019540Y0005978D02*
G01X0019340Y0005978D01*
G01X0019265Y0005900D02*
G01X0019615Y0005900D01*
G01X0019693Y0005821D02*
G01X0019187Y0005821D01*
G01X0019108Y0005743D02*
G01X0019772Y0005743D01*
G01X0020108Y0005743D02*
G01X0020715Y0005743D01*
G01X0020758Y0005700D02*
G01X0020500Y0005958D01*
G01X0020500Y0005958D02*
G01X0020500Y0006100D01*
G01X0020500Y0006100D02*
G01X0020900Y0006100D01*
G01X0020900Y0006100D02*
G01X0020900Y0006180D01*
G01X0020900Y0006180D02*
G01X0020900Y0006580D01*
G01X0020900Y0006580D02*
G01X0020758Y0006580D01*
G01X0020758Y0006580D02*
G01X0020500Y0006322D01*
G01X0020500Y0006322D02*
G01X0020500Y0006180D01*
G01X0020500Y0006180D02*
G01X0020900Y0006180D01*
G01X0020900Y0006180D02*
G01X0020980Y0006180D01*
G01X0020980Y0006180D02*
G01X0020980Y0006580D01*
G01X0020980Y0006580D02*
G01X0021122Y0006580D01*
G01X0021122Y0006580D02*
G01X0021380Y0006322D01*
G01X0021380Y0006322D02*
G01X0021380Y0006180D01*
G01X0021380Y0006180D02*
G01X0020980Y0006180D01*
G01X0020980Y0006180D02*
G01X0020980Y0006100D01*
G01X0020980Y0006100D02*
G01X0021380Y0006100D01*
G01X0021380Y0006100D02*
G01X0021380Y0005958D01*
G01X0021380Y0005958D02*
G01X0021122Y0005700D01*
G01X0021122Y0005700D02*
G01X0020980Y0005700D01*
G01X0020980Y0005700D02*
G01X0020980Y0006100D01*
G01X0020980Y0006100D02*
G01X0020900Y0006100D01*
G01X0020900Y0006100D02*
G01X0020900Y0005700D01*
G01X0020900Y0005700D02*
G01X0020758Y0005700D01*
G01X0020900Y0005743D02*
G01X0020980Y0005743D01*
G01X0020980Y0005821D02*
G01X0020900Y0005821D01*
G01X0020900Y0005900D02*
G01X0020980Y0005900D01*
G01X0020980Y0005978D02*
G01X0020900Y0005978D01*
G01X0020900Y0006057D02*
G01X0020980Y0006057D01*
G01X0020980Y0006135D02*
G01X0021900Y0006135D01*
G01X0021900Y0006100D02*
G01X0021500Y0006100D01*
G01X0021500Y0006100D02*
G01X0021500Y0005958D01*
G01X0021500Y0005958D02*
G01X0021758Y0005700D01*
G01X0021758Y0005700D02*
G01X0021900Y0005700D01*
G01X0021900Y0005700D02*
G01X0021900Y0006100D01*
G01X0021900Y0006100D02*
G01X0021900Y0006180D01*
G01X0021900Y0006180D02*
G01X0021900Y0006580D01*
G01X0021900Y0006580D02*
G01X0021758Y0006580D01*
G01X0021758Y0006580D02*
G01X0021500Y0006322D01*
G01X0021500Y0006322D02*
G01X0021500Y0006180D01*
G01X0021500Y0006180D02*
G01X0021900Y0006180D01*
G01X0021900Y0006180D02*
G01X0021980Y0006180D01*
G01X0021980Y0006180D02*
G01X0021980Y0006580D01*
G01X0021980Y0006580D02*
G01X0022122Y0006580D01*
G01X0022122Y0006580D02*
G01X0022380Y0006322D01*
G01X0022380Y0006322D02*
G01X0022380Y0006180D01*
G01X0022380Y0006180D02*
G01X0021980Y0006180D01*
G01X0021980Y0006180D02*
G01X0021980Y0006100D01*
G01X0021980Y0006100D02*
G01X0022380Y0006100D01*
G01X0022380Y0006100D02*
G01X0022380Y0005958D01*
G01X0022380Y0005958D02*
G01X0022122Y0005700D01*
G01X0022122Y0005700D02*
G01X0021980Y0005700D01*
G01X0021980Y0005700D02*
G01X0021980Y0006100D01*
G01X0021980Y0006100D02*
G01X0021900Y0006100D01*
G01X0021900Y0006057D02*
G01X0021980Y0006057D01*
G01X0021980Y0006135D02*
G01X0022540Y0006135D01*
G01X0022540Y0006057D02*
G01X0022380Y0006057D01*
G01X0022380Y0005978D02*
G01X0022540Y0005978D01*
G01X0022540Y0005974D02*
G01X0022774Y0005740D01*
G01X0022774Y0005740D02*
G01X0023106Y0005740D01*
G01X0023106Y0005740D02*
G01X0023340Y0005974D01*
G01X0023340Y0005974D02*
G01X0023340Y0006306D01*
G01X0023340Y0006306D02*
G01X0023106Y0006540D01*
G01X0023106Y0006540D02*
G01X0022774Y0006540D01*
G01X0022774Y0006540D02*
G01X0022540Y0006306D01*
G01X0022540Y0006306D02*
G01X0022540Y0005974D01*
G01X0022615Y0005900D02*
G01X0022322Y0005900D01*
G01X0022243Y0005821D02*
G01X0022693Y0005821D01*
G01X0022772Y0005743D02*
G01X0022165Y0005743D01*
G01X0021980Y0005743D02*
G01X0021900Y0005743D01*
G01X0021900Y0005821D02*
G01X0021980Y0005821D01*
G01X0021980Y0005900D02*
G01X0021900Y0005900D01*
G01X0021900Y0005978D02*
G01X0021980Y0005978D01*
G01X0021980Y0006214D02*
G01X0021900Y0006214D01*
G01X0021900Y0006292D02*
G01X0021980Y0006292D01*
G01X0021980Y0006371D02*
G01X0021900Y0006371D01*
G01X0021900Y0006449D02*
G01X0021980Y0006449D01*
G01X0021980Y0006528D02*
G01X0021900Y0006528D01*
G01X0021705Y0006528D02*
G01X0021175Y0006528D01*
G01X0021253Y0006449D02*
G01X0021627Y0006449D01*
G01X0021548Y0006371D02*
G01X0021332Y0006371D01*
G01X0021380Y0006292D02*
G01X0021500Y0006292D01*
G01X0021500Y0006214D02*
G01X0021380Y0006214D01*
G01X0021380Y0006057D02*
G01X0021500Y0006057D01*
G01X0021500Y0005978D02*
G01X0021380Y0005978D01*
G01X0021322Y0005900D02*
G01X0021558Y0005900D01*
G01X0021637Y0005821D02*
G01X0021243Y0005821D01*
G01X0021165Y0005743D02*
G01X0021715Y0005743D01*
G01X0022380Y0006214D02*
G01X0022540Y0006214D01*
G01X0022540Y0006292D02*
G01X0022380Y0006292D01*
G01X0022332Y0006371D02*
G01X0022605Y0006371D01*
G01X0022683Y0006449D02*
G01X0022253Y0006449D01*
G01X0022175Y0006528D02*
G01X0022762Y0006528D01*
G01X0023118Y0006528D02*
G01X0023762Y0006528D01*
G01X0023774Y0006540D02*
G01X0023540Y0006306D01*
G01X0023540Y0006306D02*
G01X0023540Y0005974D01*
G01X0023540Y0005974D02*
G01X0023774Y0005740D01*
G01X0023774Y0005740D02*
G01X0024106Y0005740D01*
G01X0024106Y0005740D02*
G01X0024340Y0005974D01*
G01X0024340Y0005974D02*
G01X0024340Y0006306D01*
G01X0024340Y0006306D02*
G01X0024106Y0006540D01*
G01X0024106Y0006540D02*
G01X0023774Y0006540D01*
G01X0023683Y0006449D02*
G01X0023197Y0006449D01*
G01X0023275Y0006371D02*
G01X0023605Y0006371D01*
G01X0023540Y0006292D02*
G01X0023340Y0006292D01*
G01X0023340Y0006214D02*
G01X0023540Y0006214D01*
G01X0023540Y0006135D02*
G01X0023340Y0006135D01*
G01X0023340Y0006057D02*
G01X0023540Y0006057D01*
G01X0023540Y0005978D02*
G01X0023340Y0005978D01*
G01X0023265Y0005900D02*
G01X0023615Y0005900D01*
G01X0023693Y0005821D02*
G01X0023187Y0005821D01*
G01X0023108Y0005743D02*
G01X0023772Y0005743D01*
G01X0024108Y0005743D02*
G01X0025715Y0005743D01*
G01X0025758Y0005700D02*
G01X0025900Y0005700D01*
G01X0025900Y0005700D02*
G01X0025900Y0006100D01*
G01X0025900Y0006100D02*
G01X0025980Y0006100D01*
G01X0025980Y0006100D02*
G01X0025980Y0006180D01*
G01X0025980Y0006180D02*
G01X0026380Y0006180D01*
G01X0026380Y0006180D02*
G01X0026380Y0006322D01*
G01X0026380Y0006322D02*
G01X0026122Y0006580D01*
G01X0026122Y0006580D02*
G01X0025980Y0006580D01*
G01X0025980Y0006580D02*
G01X0025980Y0006180D01*
G01X0025980Y0006180D02*
G01X0025900Y0006180D01*
G01X0025900Y0006180D02*
G01X0025900Y0006580D01*
G01X0025900Y0006580D02*
G01X0025758Y0006580D01*
G01X0025758Y0006580D02*
G01X0025500Y0006322D01*
G01X0025500Y0006322D02*
G01X0025500Y0006180D01*
G01X0025500Y0006180D02*
G01X0025900Y0006180D01*
G01X0025900Y0006180D02*
G01X0025900Y0006100D01*
G01X0025900Y0006100D02*
G01X0025500Y0006100D01*
G01X0025500Y0006100D02*
G01X0025500Y0005958D01*
G01X0025500Y0005958D02*
G01X0025758Y0005700D01*
G01X0025900Y0005743D02*
G01X0025980Y0005743D01*
G01X0025980Y0005700D02*
G01X0026122Y0005700D01*
G01X0026122Y0005700D02*
G01X0026380Y0005958D01*
G01X0026380Y0005958D02*
G01X0026380Y0006100D01*
G01X0026380Y0006100D02*
G01X0025980Y0006100D01*
G01X0025980Y0006100D02*
G01X0025980Y0005700D01*
G01X0025980Y0005821D02*
G01X0025900Y0005821D01*
G01X0025900Y0005900D02*
G01X0025980Y0005900D01*
G01X0025980Y0005978D02*
G01X0025900Y0005978D01*
G01X0025900Y0006057D02*
G01X0025980Y0006057D01*
G01X0025980Y0006135D02*
G01X0026540Y0006135D01*
G01X0026540Y0006057D02*
G01X0026380Y0006057D01*
G01X0026380Y0005978D02*
G01X0026540Y0005978D01*
G01X0026540Y0005974D02*
G01X0026774Y0005740D01*
G01X0026774Y0005740D02*
G01X0027106Y0005740D01*
G01X0027106Y0005740D02*
G01X0027340Y0005974D01*
G01X0027340Y0005974D02*
G01X0027340Y0006306D01*
G01X0027340Y0006306D02*
G01X0027106Y0006540D01*
G01X0027106Y0006540D02*
G01X0026774Y0006540D01*
G01X0026774Y0006540D02*
G01X0026540Y0006306D01*
G01X0026540Y0006306D02*
G01X0026540Y0005974D01*
G01X0026615Y0005900D02*
G01X0026322Y0005900D01*
G01X0026243Y0005821D02*
G01X0026693Y0005821D01*
G01X0026772Y0005743D02*
G01X0026165Y0005743D01*
G01X0025637Y0005821D02*
G01X0024187Y0005821D01*
G01X0024265Y0005900D02*
G01X0025558Y0005900D01*
G01X0025500Y0005978D02*
G01X0024340Y0005978D01*
G01X0024340Y0006057D02*
G01X0025500Y0006057D01*
G01X0025500Y0006214D02*
G01X0024340Y0006214D01*
G01X0024340Y0006292D02*
G01X0025500Y0006292D01*
G01X0025548Y0006371D02*
G01X0024275Y0006371D01*
G01X0024197Y0006449D02*
G01X0025627Y0006449D01*
G01X0025705Y0006528D02*
G01X0024118Y0006528D01*
G01X0024340Y0006135D02*
G01X0025900Y0006135D01*
G01X0025900Y0006214D02*
G01X0025980Y0006214D01*
G01X0025980Y0006292D02*
G01X0025900Y0006292D01*
G01X0025900Y0006371D02*
G01X0025980Y0006371D01*
G01X0025980Y0006449D02*
G01X0025900Y0006449D01*
G01X0025900Y0006528D02*
G01X0025980Y0006528D01*
G01X0026175Y0006528D02*
G01X0026762Y0006528D01*
G01X0026683Y0006449D02*
G01X0026253Y0006449D01*
G01X0026332Y0006371D02*
G01X0026605Y0006371D01*
G01X0026540Y0006292D02*
G01X0026380Y0006292D01*
G01X0026380Y0006214D02*
G01X0026540Y0006214D01*
G01X0027118Y0006528D02*
G01X0027762Y0006528D01*
G01X0027774Y0006540D02*
G01X0027540Y0006306D01*
G01X0027540Y0006306D02*
G01X0027540Y0005974D01*
G01X0027540Y0005974D02*
G01X0027774Y0005740D01*
G01X0027774Y0005740D02*
G01X0028106Y0005740D01*
G01X0028106Y0005740D02*
G01X0028340Y0005974D01*
G01X0028340Y0005974D02*
G01X0028340Y0006306D01*
G01X0028340Y0006306D02*
G01X0028106Y0006540D01*
G01X0028106Y0006540D02*
G01X0027774Y0006540D01*
G01X0027683Y0006449D02*
G01X0027197Y0006449D01*
G01X0027275Y0006371D02*
G01X0027605Y0006371D01*
G01X0027540Y0006292D02*
G01X0027340Y0006292D01*
G01X0027340Y0006214D02*
G01X0027540Y0006214D01*
G01X0027540Y0006135D02*
G01X0027340Y0006135D01*
G01X0027340Y0006057D02*
G01X0027540Y0006057D01*
G01X0027540Y0005978D02*
G01X0027340Y0005978D01*
G01X0027265Y0005900D02*
G01X0027615Y0005900D01*
G01X0027693Y0005821D02*
G01X0027187Y0005821D01*
G01X0027108Y0005743D02*
G01X0027772Y0005743D01*
G01X0028108Y0005743D02*
G01X0028772Y0005743D01*
G01X0028774Y0005740D02*
G01X0029106Y0005740D01*
G01X0029106Y0005740D02*
G01X0029340Y0005974D01*
G01X0029340Y0005974D02*
G01X0029340Y0006306D01*
G01X0029340Y0006306D02*
G01X0029106Y0006540D01*
G01X0029106Y0006540D02*
G01X0028774Y0006540D01*
G01X0028774Y0006540D02*
G01X0028540Y0006306D01*
G01X0028540Y0006306D02*
G01X0028540Y0005974D01*
G01X0028540Y0005974D02*
G01X0028774Y0005740D01*
G01X0028693Y0005821D02*
G01X0028187Y0005821D01*
G01X0028265Y0005900D02*
G01X0028615Y0005900D01*
G01X0028540Y0005978D02*
G01X0028340Y0005978D01*
G01X0028340Y0006057D02*
G01X0028540Y0006057D01*
G01X0028540Y0006135D02*
G01X0028340Y0006135D01*
G01X0028340Y0006214D02*
G01X0028540Y0006214D01*
G01X0028540Y0006292D02*
G01X0028340Y0006292D01*
G01X0028275Y0006371D02*
G01X0028605Y0006371D01*
G01X0028683Y0006449D02*
G01X0028197Y0006449D01*
G01X0028118Y0006528D02*
G01X0028762Y0006528D01*
G01X0029118Y0006528D02*
G01X0029762Y0006528D01*
G01X0029774Y0006540D02*
G01X0029540Y0006306D01*
G01X0029540Y0006306D02*
G01X0029540Y0005974D01*
G01X0029540Y0005974D02*
G01X0029774Y0005740D01*
G01X0029774Y0005740D02*
G01X0030106Y0005740D01*
G01X0030106Y0005740D02*
G01X0030340Y0005974D01*
G01X0030340Y0005974D02*
G01X0030340Y0006306D01*
G01X0030340Y0006306D02*
G01X0030106Y0006540D01*
G01X0030106Y0006540D02*
G01X0029774Y0006540D01*
G01X0029683Y0006449D02*
G01X0029197Y0006449D01*
G01X0029275Y0006371D02*
G01X0029605Y0006371D01*
G01X0029540Y0006292D02*
G01X0029340Y0006292D01*
G01X0029340Y0006214D02*
G01X0029540Y0006214D01*
G01X0029540Y0006135D02*
G01X0029340Y0006135D01*
G01X0029340Y0006057D02*
G01X0029540Y0006057D01*
G01X0029540Y0005978D02*
G01X0029340Y0005978D01*
G01X0029265Y0005900D02*
G01X0029615Y0005900D01*
G01X0029693Y0005821D02*
G01X0029187Y0005821D01*
G01X0029108Y0005743D02*
G01X0029772Y0005743D01*
G01X0030108Y0005743D02*
G01X0030772Y0005743D01*
G01X0030774Y0005740D02*
G01X0031106Y0005740D01*
G01X0031106Y0005740D02*
G01X0031340Y0005974D01*
G01X0031340Y0005974D02*
G01X0031340Y0006306D01*
G01X0031340Y0006306D02*
G01X0031106Y0006540D01*
G01X0031106Y0006540D02*
G01X0030774Y0006540D01*
G01X0030774Y0006540D02*
G01X0030540Y0006306D01*
G01X0030540Y0006306D02*
G01X0030540Y0005974D01*
G01X0030540Y0005974D02*
G01X0030774Y0005740D01*
G01X0030693Y0005821D02*
G01X0030187Y0005821D01*
G01X0030265Y0005900D02*
G01X0030615Y0005900D01*
G01X0030540Y0005978D02*
G01X0030340Y0005978D01*
G01X0030340Y0006057D02*
G01X0030540Y0006057D01*
G01X0030540Y0006135D02*
G01X0030340Y0006135D01*
G01X0030340Y0006214D02*
G01X0030540Y0006214D01*
G01X0030540Y0006292D02*
G01X0030340Y0006292D01*
G01X0030275Y0006371D02*
G01X0030605Y0006371D01*
G01X0030683Y0006449D02*
G01X0030197Y0006449D01*
G01X0030118Y0006528D02*
G01X0030762Y0006528D01*
G01X0031118Y0006528D02*
G01X0034225Y0006528D01*
G01X0034225Y0006606D02*
G01X0000655Y0006606D01*
G01X0000655Y0006685D02*
G01X0034225Y0006685D01*
G01X0034225Y0006763D02*
G01X0000655Y0006763D01*
G01X0000655Y0006842D02*
G01X0034225Y0006842D01*
G01X0034225Y0006920D02*
G01X0000655Y0006920D01*
G01X0000655Y0006999D02*
G01X0034225Y0006999D01*
G01X0034225Y0007077D02*
G01X0000655Y0007077D01*
G01X0000655Y0007156D02*
G01X0034225Y0007156D01*
G01X0034225Y0007234D02*
G01X0000655Y0007234D01*
G01X0000655Y0007313D02*
G01X0034225Y0007313D01*
G01X0034225Y0007391D02*
G01X0000655Y0007391D01*
G01X0000655Y0007470D02*
G01X0034225Y0007470D01*
G01X0034225Y0007548D02*
G01X0000655Y0007548D01*
G01X0000655Y0007627D02*
G01X0034225Y0007627D01*
G01X0034225Y0007705D02*
G01X0000655Y0007705D01*
G01X0000655Y0007784D02*
G01X0034225Y0007784D01*
G01X0034225Y0007862D02*
G01X0000655Y0007862D01*
G01X0000655Y0007941D02*
G01X0034225Y0007941D01*
G01X0034225Y0008019D02*
G01X0000655Y0008019D01*
G01X0000655Y0008098D02*
G01X0034225Y0008098D01*
G01X0034225Y0008176D02*
G01X0000655Y0008176D01*
G01X0000655Y0008255D02*
G01X0034225Y0008255D01*
G01X0034225Y0008333D02*
G01X0000655Y0008333D01*
G01X0000655Y0008412D02*
G01X0034225Y0008412D01*
G01X0034225Y0008490D02*
G01X0000655Y0008490D01*
G01X0000655Y0008569D02*
G01X0034225Y0008569D01*
G01X0034225Y0008647D02*
G01X0000655Y0008647D01*
G01X0000655Y0008726D02*
G01X0034225Y0008726D01*
G01X0034225Y0008804D02*
G01X0000655Y0008804D01*
G01X0000655Y0008883D02*
G01X0034225Y0008883D01*
G01X0034225Y0008961D02*
G01X0000655Y0008961D01*
G01X0000655Y0009040D02*
G01X0034225Y0009040D01*
G01X0034225Y0009118D02*
G01X0000655Y0009118D01*
G01X0000655Y0009197D02*
G01X0034225Y0009197D01*
G01X0034225Y0009275D02*
G01X0000655Y0009275D01*
G01X0000655Y0009354D02*
G01X0034225Y0009354D01*
G01X0034225Y0009432D02*
G01X0000655Y0009432D01*
G01X0000655Y0009511D02*
G01X0034225Y0009511D01*
G01X0034225Y0009589D02*
G01X0000655Y0009589D01*
G01X0000655Y0009668D02*
G01X0034225Y0009668D01*
G01X0034225Y0009746D02*
G01X0000655Y0009746D01*
G01X0000655Y0009825D02*
G01X0034225Y0009825D01*
G01X0034225Y0009903D02*
G01X0000655Y0009903D01*
G01X0000655Y0009982D02*
G01X0034225Y0009982D01*
G01X0034225Y0010060D02*
G01X0000655Y0010060D01*
G01X0000655Y0010139D02*
G01X0034225Y0010139D01*
G01X0034225Y0010217D02*
G01X0000655Y0010217D01*
G01X0000655Y0010296D02*
G01X0034225Y0010296D01*
G01X0034225Y0010374D02*
G01X0000655Y0010374D01*
G01X0000655Y0010453D02*
G01X0034225Y0010453D01*
G01X0034225Y0010531D02*
G01X0000655Y0010531D01*
G01X0000655Y0010610D02*
G01X0034225Y0010610D01*
G01X0034225Y0010688D02*
G01X0000655Y0010688D01*
G01X0000655Y0010767D02*
G01X0034225Y0010767D01*
G01X0034225Y0010845D02*
G01X0000655Y0010845D01*
G01X0000655Y0010924D02*
G01X0034225Y0010924D01*
G01X0034225Y0011002D02*
G01X0000655Y0011002D01*
G01X0000655Y0011081D02*
G01X0034225Y0011081D01*
G01X0034225Y0011159D02*
G01X0000655Y0011159D01*
G01X0000655Y0011238D02*
G01X0034225Y0011238D01*
G01X0034225Y0011316D02*
G01X0000655Y0011316D01*
G01X0000655Y0011395D02*
G01X0034225Y0011395D01*
G01X0034225Y0011473D02*
G01X0000655Y0011473D01*
G01X0000655Y0011552D02*
G01X0034225Y0011552D01*
G01X0034225Y0011630D02*
G01X0000655Y0011630D01*
G01X0000655Y0011709D02*
G01X0034225Y0011709D01*
G01X0034225Y0011787D02*
G01X0000655Y0011787D01*
G01X0000655Y0011866D02*
G01X0034225Y0011866D01*
G01X0034225Y0011944D02*
G01X0000655Y0011944D01*
G01X0000655Y0012023D02*
G01X0034225Y0012023D01*
G01X0034225Y0012101D02*
G01X0000655Y0012101D01*
G01X0000655Y0012180D02*
G01X0034225Y0012180D01*
G01X0034225Y0012258D02*
G01X0000655Y0012258D01*
G01X0000655Y0012337D02*
G01X0034225Y0012337D01*
G01X0034225Y0012415D02*
G01X0000655Y0012415D01*
G01X0000655Y0012494D02*
G01X0034225Y0012494D01*
G01X0034225Y0012572D02*
G01X0000655Y0012572D01*
G01X0000655Y0012651D02*
G01X0034225Y0012651D01*
G01X0034225Y0012729D02*
G01X0000655Y0012729D01*
G01X0000655Y0012808D02*
G01X0034225Y0012808D01*
G01X0034225Y0012886D02*
G01X0000655Y0012886D01*
G01X0000655Y0012965D02*
G01X0034225Y0012965D01*
G01X0034225Y0013043D02*
G01X0000655Y0013043D01*
G01X0000655Y0013122D02*
G01X0034225Y0013122D01*
G01X0034225Y0013200D02*
G01X0000655Y0013200D01*
G01X0000655Y0013279D02*
G01X0034225Y0013279D01*
G01X0034225Y0013357D02*
G01X0000655Y0013357D01*
G01X0000655Y0013436D02*
G01X0034225Y0013436D01*
G01X0034225Y0013514D02*
G01X0000655Y0013514D01*
G01X0000655Y0013593D02*
G01X0034225Y0013593D01*
G01X0034225Y0013671D02*
G01X0000655Y0013671D01*
G01X0000655Y0013750D02*
G01X0034225Y0013750D01*
G01X0034225Y0013828D02*
G01X0000655Y0013828D01*
G01X0000655Y0013907D02*
G01X0034225Y0013907D01*
G01X0034225Y0013985D02*
G01X0000655Y0013985D01*
G01X0000655Y0014064D02*
G01X0034225Y0014064D01*
G01X0034225Y0014142D02*
G01X0000655Y0014142D01*
G01X0000655Y0014221D02*
G01X0034225Y0014221D01*
G01X0034225Y0014299D02*
G01X0000655Y0014299D01*
G01X0000655Y0014378D02*
G01X0034225Y0014378D01*
G01X0034225Y0014456D02*
G01X0000655Y0014456D01*
G01X0000655Y0014535D02*
G01X0034225Y0014535D01*
G01X0034225Y0014613D02*
G01X0000655Y0014613D01*
G01X0000655Y0014692D02*
G01X0034225Y0014692D01*
G01X0034225Y0014770D02*
G01X0000655Y0014770D01*
G01X0000655Y0014849D02*
G01X0034225Y0014849D01*
G01X0034225Y0014927D02*
G01X0000655Y0014927D01*
G01X0000655Y0015006D02*
G01X0034225Y0015006D01*
G01X0034225Y0015084D02*
G01X0000655Y0015084D01*
G01X0000655Y0015163D02*
G01X0034225Y0015163D01*
G01X0034225Y0015241D02*
G01X0000655Y0015241D01*
G01X0000655Y0015320D02*
G01X0034225Y0015320D01*
G01X0034225Y0015398D02*
G01X0000655Y0015398D01*
G01X0000655Y0015477D02*
G01X0034225Y0015477D01*
G01X0034225Y0015555D02*
G01X0000655Y0015555D01*
G01X0000655Y0015634D02*
G01X0034225Y0015634D01*
G01X0034225Y0015712D02*
G01X0000655Y0015712D01*
G01X0000655Y0015791D02*
G01X0034225Y0015791D01*
G01X0034225Y0015869D02*
G01X0000655Y0015869D01*
G01X0000655Y0015948D02*
G01X0034225Y0015948D01*
G01X0034225Y0016026D02*
G01X0000655Y0016026D01*
G01X0000655Y0016105D02*
G01X0034225Y0016105D01*
G01X0034225Y0016183D02*
G01X0000655Y0016183D01*
G01X0000655Y0016262D02*
G01X0034225Y0016262D01*
G01X0034225Y0016340D02*
G01X0000655Y0016340D01*
G01X0000655Y0016419D02*
G01X0034225Y0016419D01*
G01X0034225Y0016497D02*
G01X0000655Y0016497D01*
G01X0000655Y0016576D02*
G01X0034225Y0016576D01*
G01X0034225Y0016654D02*
G01X0000655Y0016654D01*
G01X0000655Y0016733D02*
G01X0034225Y0016733D01*
G01X0034225Y0016811D02*
G01X0000655Y0016811D01*
G01X0000655Y0016890D02*
G01X0034225Y0016890D01*
G01X0034225Y0016968D02*
G01X0000655Y0016968D01*
G01X0000655Y0017047D02*
G01X0034225Y0017047D01*
G01X0034225Y0017125D02*
G01X0000655Y0017125D01*
G01X0000655Y0017204D02*
G01X0034225Y0017204D01*
G01X0034225Y0017282D02*
G01X0000655Y0017282D01*
G01X0000655Y0017361D02*
G01X0034225Y0017361D01*
G01X0034225Y0017439D02*
G01X0000655Y0017439D01*
G01X0000655Y0017518D02*
G01X0034225Y0017518D01*
G01X0034225Y0017596D02*
G01X0000655Y0017596D01*
G01X0000655Y0017675D02*
G01X0034225Y0017675D01*
G01X0034225Y0017753D02*
G01X0031119Y0017753D01*
G01X0031106Y0017740D02*
G01X0031340Y0017974D01*
G01X0031340Y0017974D02*
G01X0031340Y0018306D01*
G01X0031340Y0018306D02*
G01X0031106Y0018540D01*
G01X0031106Y0018540D02*
G01X0030774Y0018540D01*
G01X0030774Y0018540D02*
G01X0030540Y0018306D01*
G01X0030540Y0018306D02*
G01X0030540Y0017974D01*
G01X0030540Y0017974D02*
G01X0030774Y0017740D01*
G01X0030774Y0017740D02*
G01X0031106Y0017740D01*
G01X0031197Y0017832D02*
G01X0034225Y0017832D01*
G01X0034225Y0017910D02*
G01X0031276Y0017910D01*
G01X0031340Y0017989D02*
G01X0034225Y0017989D01*
G01X0034225Y0018067D02*
G01X0031340Y0018067D01*
G01X0031340Y0018146D02*
G01X0034225Y0018146D01*
G01X0034225Y0018224D02*
G01X0031340Y0018224D01*
G01X0031340Y0018303D02*
G01X0034225Y0018303D01*
G01X0034225Y0018381D02*
G01X0031265Y0018381D01*
G01X0031186Y0018460D02*
G01X0034225Y0018460D01*
G01X0034225Y0018538D02*
G01X0031108Y0018538D01*
G01X0030772Y0018538D02*
G01X0030108Y0018538D01*
G01X0030106Y0018540D02*
G01X0029774Y0018540D01*
G01X0029774Y0018540D02*
G01X0029540Y0018306D01*
G01X0029540Y0018306D02*
G01X0029540Y0017974D01*
G01X0029540Y0017974D02*
G01X0029774Y0017740D01*
G01X0029774Y0017740D02*
G01X0030106Y0017740D01*
G01X0030106Y0017740D02*
G01X0030340Y0017974D01*
G01X0030340Y0017974D02*
G01X0030340Y0018306D01*
G01X0030340Y0018306D02*
G01X0030106Y0018540D01*
G01X0030186Y0018460D02*
G01X0030694Y0018460D01*
G01X0030615Y0018381D02*
G01X0030265Y0018381D01*
G01X0030340Y0018303D02*
G01X0030540Y0018303D01*
G01X0030540Y0018224D02*
G01X0030340Y0018224D01*
G01X0030340Y0018146D02*
G01X0030540Y0018146D01*
G01X0030540Y0018067D02*
G01X0030340Y0018067D01*
G01X0030340Y0017989D02*
G01X0030540Y0017989D01*
G01X0030604Y0017910D02*
G01X0030276Y0017910D01*
G01X0030197Y0017832D02*
G01X0030683Y0017832D01*
G01X0030761Y0017753D02*
G01X0030119Y0017753D01*
G01X0029761Y0017753D02*
G01X0029175Y0017753D01*
G01X0029122Y0017700D02*
G01X0029380Y0017958D01*
G01X0029380Y0017958D02*
G01X0029380Y0018100D01*
G01X0029380Y0018100D02*
G01X0028980Y0018100D01*
G01X0028980Y0018100D02*
G01X0028980Y0018180D01*
G01X0028980Y0018180D02*
G01X0029380Y0018180D01*
G01X0029380Y0018180D02*
G01X0029380Y0018322D01*
G01X0029380Y0018322D02*
G01X0029122Y0018580D01*
G01X0029122Y0018580D02*
G01X0028980Y0018580D01*
G01X0028980Y0018580D02*
G01X0028980Y0018180D01*
G01X0028980Y0018180D02*
G01X0028900Y0018180D01*
G01X0028900Y0018180D02*
G01X0028900Y0018580D01*
G01X0028900Y0018580D02*
G01X0028758Y0018580D01*
G01X0028758Y0018580D02*
G01X0028500Y0018322D01*
G01X0028500Y0018322D02*
G01X0028500Y0018180D01*
G01X0028500Y0018180D02*
G01X0028900Y0018180D01*
G01X0028900Y0018180D02*
G01X0028900Y0018100D01*
G01X0028900Y0018100D02*
G01X0028980Y0018100D01*
G01X0028980Y0018100D02*
G01X0028980Y0017700D01*
G01X0028980Y0017700D02*
G01X0029122Y0017700D01*
G01X0028980Y0017753D02*
G01X0028900Y0017753D01*
G01X0028900Y0017700D02*
G01X0028900Y0018100D01*
G01X0028900Y0018100D02*
G01X0028500Y0018100D01*
G01X0028500Y0018100D02*
G01X0028500Y0017958D01*
G01X0028500Y0017958D02*
G01X0028758Y0017700D01*
G01X0028758Y0017700D02*
G01X0028900Y0017700D01*
G01X0028900Y0017832D02*
G01X0028980Y0017832D01*
G01X0028980Y0017910D02*
G01X0028900Y0017910D01*
G01X0028900Y0017989D02*
G01X0028980Y0017989D01*
G01X0028980Y0018067D02*
G01X0028900Y0018067D01*
G01X0028900Y0018146D02*
G01X0028340Y0018146D01*
G01X0028340Y0018224D02*
G01X0028500Y0018224D01*
G01X0028500Y0018303D02*
G01X0028340Y0018303D01*
G01X0028340Y0018306D02*
G01X0028106Y0018540D01*
G01X0028106Y0018540D02*
G01X0027774Y0018540D01*
G01X0027774Y0018540D02*
G01X0027540Y0018306D01*
G01X0027540Y0018306D02*
G01X0027540Y0017974D01*
G01X0027540Y0017974D02*
G01X0027774Y0017740D01*
G01X0027774Y0017740D02*
G01X0028106Y0017740D01*
G01X0028106Y0017740D02*
G01X0028340Y0017974D01*
G01X0028340Y0017974D02*
G01X0028340Y0018306D01*
G01X0028265Y0018381D02*
G01X0028559Y0018381D01*
G01X0028637Y0018460D02*
G01X0028186Y0018460D01*
G01X0028108Y0018538D02*
G01X0028716Y0018538D01*
G01X0028900Y0018538D02*
G01X0028980Y0018538D01*
G01X0028980Y0018460D02*
G01X0028900Y0018460D01*
G01X0028900Y0018381D02*
G01X0028980Y0018381D01*
G01X0028980Y0018303D02*
G01X0028900Y0018303D01*
G01X0028900Y0018224D02*
G01X0028980Y0018224D01*
G01X0028980Y0018146D02*
G01X0029540Y0018146D01*
G01X0029540Y0018224D02*
G01X0029380Y0018224D01*
G01X0029380Y0018303D02*
G01X0029540Y0018303D01*
G01X0029615Y0018381D02*
G01X0029321Y0018381D01*
G01X0029243Y0018460D02*
G01X0029694Y0018460D01*
G01X0029772Y0018538D02*
G01X0029164Y0018538D01*
G01X0029380Y0018067D02*
G01X0029540Y0018067D01*
G01X0029540Y0017989D02*
G01X0029380Y0017989D01*
G01X0029332Y0017910D02*
G01X0029604Y0017910D01*
G01X0029683Y0017832D02*
G01X0029254Y0017832D01*
G01X0028705Y0017753D02*
G01X0028119Y0017753D01*
G01X0028197Y0017832D02*
G01X0028626Y0017832D01*
G01X0028548Y0017910D02*
G01X0028276Y0017910D01*
G01X0028340Y0017989D02*
G01X0028500Y0017989D01*
G01X0028500Y0018067D02*
G01X0028340Y0018067D01*
G01X0027761Y0017753D02*
G01X0027119Y0017753D01*
G01X0027106Y0017740D02*
G01X0027340Y0017974D01*
G01X0027340Y0017974D02*
G01X0027340Y0018306D01*
G01X0027340Y0018306D02*
G01X0027106Y0018540D01*
G01X0027106Y0018540D02*
G01X0026774Y0018540D01*
G01X0026774Y0018540D02*
G01X0026540Y0018306D01*
G01X0026540Y0018306D02*
G01X0026540Y0017974D01*
G01X0026540Y0017974D02*
G01X0026774Y0017740D01*
G01X0026774Y0017740D02*
G01X0027106Y0017740D01*
G01X0027197Y0017832D02*
G01X0027683Y0017832D01*
G01X0027604Y0017910D02*
G01X0027276Y0017910D01*
G01X0027340Y0017989D02*
G01X0027540Y0017989D01*
G01X0027540Y0018067D02*
G01X0027340Y0018067D01*
G01X0027340Y0018146D02*
G01X0027540Y0018146D01*
G01X0027540Y0018224D02*
G01X0027340Y0018224D01*
G01X0027340Y0018303D02*
G01X0027540Y0018303D01*
G01X0027615Y0018381D02*
G01X0027265Y0018381D01*
G01X0027186Y0018460D02*
G01X0027694Y0018460D01*
G01X0027772Y0018538D02*
G01X0027108Y0018538D01*
G01X0026772Y0018538D02*
G01X0026108Y0018538D01*
G01X0026106Y0018540D02*
G01X0025774Y0018540D01*
G01X0025774Y0018540D02*
G01X0025540Y0018306D01*
G01X0025540Y0018306D02*
G01X0025540Y0017974D01*
G01X0025540Y0017974D02*
G01X0025774Y0017740D01*
G01X0025774Y0017740D02*
G01X0026106Y0017740D01*
G01X0026106Y0017740D02*
G01X0026340Y0017974D01*
G01X0026340Y0017974D02*
G01X0026340Y0018306D01*
G01X0026340Y0018306D02*
G01X0026106Y0018540D01*
G01X0026186Y0018460D02*
G01X0026694Y0018460D01*
G01X0026615Y0018381D02*
G01X0026265Y0018381D01*
G01X0026340Y0018303D02*
G01X0026540Y0018303D01*
G01X0026540Y0018224D02*
G01X0026340Y0018224D01*
G01X0026340Y0018146D02*
G01X0026540Y0018146D01*
G01X0026540Y0018067D02*
G01X0026340Y0018067D01*
G01X0026340Y0017989D02*
G01X0026540Y0017989D01*
G01X0026604Y0017910D02*
G01X0026276Y0017910D01*
G01X0026197Y0017832D02*
G01X0026683Y0017832D01*
G01X0026761Y0017753D02*
G01X0026119Y0017753D01*
G01X0025761Y0017753D02*
G01X0024119Y0017753D01*
G01X0024106Y0017740D02*
G01X0024340Y0017974D01*
G01X0024340Y0017974D02*
G01X0024340Y0018306D01*
G01X0024340Y0018306D02*
G01X0024106Y0018540D01*
G01X0024106Y0018540D02*
G01X0023774Y0018540D01*
G01X0023774Y0018540D02*
G01X0023540Y0018306D01*
G01X0023540Y0018306D02*
G01X0023540Y0017974D01*
G01X0023540Y0017974D02*
G01X0023774Y0017740D01*
G01X0023774Y0017740D02*
G01X0024106Y0017740D01*
G01X0024197Y0017832D02*
G01X0025683Y0017832D01*
G01X0025604Y0017910D02*
G01X0024276Y0017910D01*
G01X0024340Y0017989D02*
G01X0025540Y0017989D01*
G01X0025540Y0018067D02*
G01X0024340Y0018067D01*
G01X0024340Y0018146D02*
G01X0025540Y0018146D01*
G01X0025540Y0018224D02*
G01X0024340Y0018224D01*
G01X0024340Y0018303D02*
G01X0025540Y0018303D01*
G01X0025615Y0018381D02*
G01X0024265Y0018381D01*
G01X0024186Y0018460D02*
G01X0025694Y0018460D01*
G01X0025772Y0018538D02*
G01X0024108Y0018538D01*
G01X0023772Y0018538D02*
G01X0023108Y0018538D01*
G01X0023106Y0018540D02*
G01X0022774Y0018540D01*
G01X0022774Y0018540D02*
G01X0022540Y0018306D01*
G01X0022540Y0018306D02*
G01X0022540Y0017974D01*
G01X0022540Y0017974D02*
G01X0022774Y0017740D01*
G01X0022774Y0017740D02*
G01X0023106Y0017740D01*
G01X0023106Y0017740D02*
G01X0023340Y0017974D01*
G01X0023340Y0017974D02*
G01X0023340Y0018306D01*
G01X0023340Y0018306D02*
G01X0023106Y0018540D01*
G01X0023186Y0018460D02*
G01X0023694Y0018460D01*
G01X0023615Y0018381D02*
G01X0023265Y0018381D01*
G01X0023340Y0018303D02*
G01X0023540Y0018303D01*
G01X0023540Y0018224D02*
G01X0023340Y0018224D01*
G01X0023340Y0018146D02*
G01X0023540Y0018146D01*
G01X0023540Y0018067D02*
G01X0023340Y0018067D01*
G01X0023340Y0017989D02*
G01X0023540Y0017989D01*
G01X0023604Y0017910D02*
G01X0023276Y0017910D01*
G01X0023197Y0017832D02*
G01X0023683Y0017832D01*
G01X0023761Y0017753D02*
G01X0023119Y0017753D01*
G01X0022761Y0017753D02*
G01X0022119Y0017753D01*
G01X0022106Y0017740D02*
G01X0022340Y0017974D01*
G01X0022340Y0017974D02*
G01X0022340Y0018306D01*
G01X0022340Y0018306D02*
G01X0022106Y0018540D01*
G01X0022106Y0018540D02*
G01X0021774Y0018540D01*
G01X0021774Y0018540D02*
G01X0021540Y0018306D01*
G01X0021540Y0018306D02*
G01X0021540Y0017974D01*
G01X0021540Y0017974D02*
G01X0021774Y0017740D01*
G01X0021774Y0017740D02*
G01X0022106Y0017740D01*
G01X0022197Y0017832D02*
G01X0022683Y0017832D01*
G01X0022604Y0017910D02*
G01X0022276Y0017910D01*
G01X0022340Y0017989D02*
G01X0022540Y0017989D01*
G01X0022540Y0018067D02*
G01X0022340Y0018067D01*
G01X0022340Y0018146D02*
G01X0022540Y0018146D01*
G01X0022540Y0018224D02*
G01X0022340Y0018224D01*
G01X0022340Y0018303D02*
G01X0022540Y0018303D01*
G01X0022615Y0018381D02*
G01X0022265Y0018381D01*
G01X0022186Y0018460D02*
G01X0022694Y0018460D01*
G01X0022772Y0018538D02*
G01X0022108Y0018538D01*
G01X0021772Y0018538D02*
G01X0021108Y0018538D01*
G01X0021106Y0018540D02*
G01X0021340Y0018306D01*
G01X0021340Y0018306D02*
G01X0021340Y0017974D01*
G01X0021340Y0017974D02*
G01X0021106Y0017740D01*
G01X0021106Y0017740D02*
G01X0020774Y0017740D01*
G01X0020774Y0017740D02*
G01X0020540Y0017974D01*
G01X0020540Y0017974D02*
G01X0020540Y0018306D01*
G01X0020540Y0018306D02*
G01X0020774Y0018540D01*
G01X0020774Y0018540D02*
G01X0021106Y0018540D01*
G01X0021186Y0018460D02*
G01X0021694Y0018460D01*
G01X0021615Y0018381D02*
G01X0021265Y0018381D01*
G01X0021340Y0018303D02*
G01X0021540Y0018303D01*
G01X0021540Y0018224D02*
G01X0021340Y0018224D01*
G01X0021340Y0018146D02*
G01X0021540Y0018146D01*
G01X0021540Y0018067D02*
G01X0021340Y0018067D01*
G01X0021340Y0017989D02*
G01X0021540Y0017989D01*
G01X0021604Y0017910D02*
G01X0021276Y0017910D01*
G01X0021197Y0017832D02*
G01X0021683Y0017832D01*
G01X0021761Y0017753D02*
G01X0021119Y0017753D01*
G01X0020761Y0017753D02*
G01X0020119Y0017753D01*
G01X0020106Y0017740D02*
G01X0020340Y0017974D01*
G01X0020340Y0017974D02*
G01X0020340Y0018306D01*
G01X0020340Y0018306D02*
G01X0020106Y0018540D01*
G01X0020106Y0018540D02*
G01X0019774Y0018540D01*
G01X0019774Y0018540D02*
G01X0019540Y0018306D01*
G01X0019540Y0018306D02*
G01X0019540Y0017974D01*
G01X0019540Y0017974D02*
G01X0019774Y0017740D01*
G01X0019774Y0017740D02*
G01X0020106Y0017740D01*
G01X0020197Y0017832D02*
G01X0020683Y0017832D01*
G01X0020604Y0017910D02*
G01X0020276Y0017910D01*
G01X0020340Y0017989D02*
G01X0020540Y0017989D01*
G01X0020540Y0018067D02*
G01X0020340Y0018067D01*
G01X0020340Y0018146D02*
G01X0020540Y0018146D01*
G01X0020540Y0018224D02*
G01X0020340Y0018224D01*
G01X0020340Y0018303D02*
G01X0020540Y0018303D01*
G01X0020615Y0018381D02*
G01X0020265Y0018381D01*
G01X0020186Y0018460D02*
G01X0020694Y0018460D01*
G01X0020772Y0018538D02*
G01X0020108Y0018538D01*
G01X0019772Y0018538D02*
G01X0019108Y0018538D01*
G01X0019106Y0018540D02*
G01X0018774Y0018540D01*
G01X0018774Y0018540D02*
G01X0018540Y0018306D01*
G01X0018540Y0018306D02*
G01X0018540Y0017974D01*
G01X0018540Y0017974D02*
G01X0018774Y0017740D01*
G01X0018774Y0017740D02*
G01X0019106Y0017740D01*
G01X0019106Y0017740D02*
G01X0019340Y0017974D01*
G01X0019340Y0017974D02*
G01X0019340Y0018306D01*
G01X0019340Y0018306D02*
G01X0019106Y0018540D01*
G01X0019186Y0018460D02*
G01X0019694Y0018460D01*
G01X0019615Y0018381D02*
G01X0019265Y0018381D01*
G01X0019340Y0018303D02*
G01X0019540Y0018303D01*
G01X0019540Y0018224D02*
G01X0019340Y0018224D01*
G01X0019340Y0018146D02*
G01X0019540Y0018146D01*
G01X0019540Y0018067D02*
G01X0019340Y0018067D01*
G01X0019340Y0017989D02*
G01X0019540Y0017989D01*
G01X0019604Y0017910D02*
G01X0019276Y0017910D01*
G01X0019197Y0017832D02*
G01X0019683Y0017832D01*
G01X0019761Y0017753D02*
G01X0019119Y0017753D01*
G01X0018761Y0017753D02*
G01X0018119Y0017753D01*
G01X0018106Y0017740D02*
G01X0018340Y0017974D01*
G01X0018340Y0017974D02*
G01X0018340Y0018306D01*
G01X0018340Y0018306D02*
G01X0018106Y0018540D01*
G01X0018106Y0018540D02*
G01X0017774Y0018540D01*
G01X0017774Y0018540D02*
G01X0017540Y0018306D01*
G01X0017540Y0018306D02*
G01X0017540Y0017974D01*
G01X0017540Y0017974D02*
G01X0017774Y0017740D01*
G01X0017774Y0017740D02*
G01X0018106Y0017740D01*
G01X0018197Y0017832D02*
G01X0018683Y0017832D01*
G01X0018604Y0017910D02*
G01X0018276Y0017910D01*
G01X0018340Y0017989D02*
G01X0018540Y0017989D01*
G01X0018540Y0018067D02*
G01X0018340Y0018067D01*
G01X0018340Y0018146D02*
G01X0018540Y0018146D01*
G01X0018540Y0018224D02*
G01X0018340Y0018224D01*
G01X0018340Y0018303D02*
G01X0018540Y0018303D01*
G01X0018615Y0018381D02*
G01X0018265Y0018381D01*
G01X0018186Y0018460D02*
G01X0018694Y0018460D01*
G01X0018772Y0018538D02*
G01X0018108Y0018538D01*
G01X0017772Y0018538D02*
G01X0017108Y0018538D01*
G01X0017106Y0018540D02*
G01X0016774Y0018540D01*
G01X0016774Y0018540D02*
G01X0016540Y0018306D01*
G01X0016540Y0018306D02*
G01X0016540Y0017974D01*
G01X0016540Y0017974D02*
G01X0016774Y0017740D01*
G01X0016774Y0017740D02*
G01X0017106Y0017740D01*
G01X0017106Y0017740D02*
G01X0017340Y0017974D01*
G01X0017340Y0017974D02*
G01X0017340Y0018306D01*
G01X0017340Y0018306D02*
G01X0017106Y0018540D01*
G01X0017186Y0018460D02*
G01X0017694Y0018460D01*
G01X0017615Y0018381D02*
G01X0017265Y0018381D01*
G01X0017340Y0018303D02*
G01X0017540Y0018303D01*
G01X0017540Y0018224D02*
G01X0017340Y0018224D01*
G01X0017340Y0018146D02*
G01X0017540Y0018146D01*
G01X0017540Y0018067D02*
G01X0017340Y0018067D01*
G01X0017340Y0017989D02*
G01X0017540Y0017989D01*
G01X0017604Y0017910D02*
G01X0017276Y0017910D01*
G01X0017197Y0017832D02*
G01X0017683Y0017832D01*
G01X0017761Y0017753D02*
G01X0017119Y0017753D01*
G01X0016761Y0017753D02*
G01X0016119Y0017753D01*
G01X0016106Y0017740D02*
G01X0016340Y0017974D01*
G01X0016340Y0017974D02*
G01X0016340Y0018306D01*
G01X0016340Y0018306D02*
G01X0016106Y0018540D01*
G01X0016106Y0018540D02*
G01X0015774Y0018540D01*
G01X0015774Y0018540D02*
G01X0015540Y0018306D01*
G01X0015540Y0018306D02*
G01X0015540Y0017974D01*
G01X0015540Y0017974D02*
G01X0015774Y0017740D01*
G01X0015774Y0017740D02*
G01X0016106Y0017740D01*
G01X0016197Y0017832D02*
G01X0016683Y0017832D01*
G01X0016604Y0017910D02*
G01X0016276Y0017910D01*
G01X0016340Y0017989D02*
G01X0016540Y0017989D01*
G01X0016540Y0018067D02*
G01X0016340Y0018067D01*
G01X0016340Y0018146D02*
G01X0016540Y0018146D01*
G01X0016540Y0018224D02*
G01X0016340Y0018224D01*
G01X0016340Y0018303D02*
G01X0016540Y0018303D01*
G01X0016615Y0018381D02*
G01X0016265Y0018381D01*
G01X0016186Y0018460D02*
G01X0016694Y0018460D01*
G01X0016772Y0018538D02*
G01X0016108Y0018538D01*
G01X0015772Y0018538D02*
G01X0015108Y0018538D01*
G01X0015106Y0018540D02*
G01X0014774Y0018540D01*
G01X0014774Y0018540D02*
G01X0014540Y0018306D01*
G01X0014540Y0018306D02*
G01X0014540Y0017974D01*
G01X0014540Y0017974D02*
G01X0014774Y0017740D01*
G01X0014774Y0017740D02*
G01X0015106Y0017740D01*
G01X0015106Y0017740D02*
G01X0015340Y0017974D01*
G01X0015340Y0017974D02*
G01X0015340Y0018306D01*
G01X0015340Y0018306D02*
G01X0015106Y0018540D01*
G01X0015186Y0018460D02*
G01X0015694Y0018460D01*
G01X0015615Y0018381D02*
G01X0015265Y0018381D01*
G01X0015340Y0018303D02*
G01X0015540Y0018303D01*
G01X0015540Y0018224D02*
G01X0015340Y0018224D01*
G01X0015340Y0018146D02*
G01X0015540Y0018146D01*
G01X0015540Y0018067D02*
G01X0015340Y0018067D01*
G01X0015340Y0017989D02*
G01X0015540Y0017989D01*
G01X0015604Y0017910D02*
G01X0015276Y0017910D01*
G01X0015197Y0017832D02*
G01X0015683Y0017832D01*
G01X0015761Y0017753D02*
G01X0015119Y0017753D01*
G01X0014761Y0017753D02*
G01X0014119Y0017753D01*
G01X0014106Y0017740D02*
G01X0014340Y0017974D01*
G01X0014340Y0017974D02*
G01X0014340Y0018306D01*
G01X0014340Y0018306D02*
G01X0014106Y0018540D01*
G01X0014106Y0018540D02*
G01X0013774Y0018540D01*
G01X0013774Y0018540D02*
G01X0013540Y0018306D01*
G01X0013540Y0018306D02*
G01X0013540Y0017974D01*
G01X0013540Y0017974D02*
G01X0013774Y0017740D01*
G01X0013774Y0017740D02*
G01X0014106Y0017740D01*
G01X0014197Y0017832D02*
G01X0014683Y0017832D01*
G01X0014604Y0017910D02*
G01X0014276Y0017910D01*
G01X0014340Y0017989D02*
G01X0014540Y0017989D01*
G01X0014540Y0018067D02*
G01X0014340Y0018067D01*
G01X0014340Y0018146D02*
G01X0014540Y0018146D01*
G01X0014540Y0018224D02*
G01X0014340Y0018224D01*
G01X0014340Y0018303D02*
G01X0014540Y0018303D01*
G01X0014615Y0018381D02*
G01X0014265Y0018381D01*
G01X0014186Y0018460D02*
G01X0014694Y0018460D01*
G01X0014772Y0018538D02*
G01X0014108Y0018538D01*
G01X0013772Y0018538D02*
G01X0013108Y0018538D01*
G01X0013106Y0018540D02*
G01X0012774Y0018540D01*
G01X0012774Y0018540D02*
G01X0012540Y0018306D01*
G01X0012540Y0018306D02*
G01X0012540Y0017974D01*
G01X0012540Y0017974D02*
G01X0012774Y0017740D01*
G01X0012774Y0017740D02*
G01X0013106Y0017740D01*
G01X0013106Y0017740D02*
G01X0013340Y0017974D01*
G01X0013340Y0017974D02*
G01X0013340Y0018306D01*
G01X0013340Y0018306D02*
G01X0013106Y0018540D01*
G01X0013186Y0018460D02*
G01X0013694Y0018460D01*
G01X0013615Y0018381D02*
G01X0013265Y0018381D01*
G01X0013340Y0018303D02*
G01X0013540Y0018303D01*
G01X0013540Y0018224D02*
G01X0013340Y0018224D01*
G01X0013340Y0018146D02*
G01X0013540Y0018146D01*
G01X0013540Y0018067D02*
G01X0013340Y0018067D01*
G01X0013340Y0017989D02*
G01X0013540Y0017989D01*
G01X0013604Y0017910D02*
G01X0013276Y0017910D01*
G01X0013197Y0017832D02*
G01X0013683Y0017832D01*
G01X0013761Y0017753D02*
G01X0013119Y0017753D01*
G01X0012761Y0017753D02*
G01X0012119Y0017753D01*
G01X0012106Y0017740D02*
G01X0012340Y0017974D01*
G01X0012340Y0017974D02*
G01X0012340Y0018306D01*
G01X0012340Y0018306D02*
G01X0012106Y0018540D01*
G01X0012106Y0018540D02*
G01X0011774Y0018540D01*
G01X0011774Y0018540D02*
G01X0011540Y0018306D01*
G01X0011540Y0018306D02*
G01X0011540Y0017974D01*
G01X0011540Y0017974D02*
G01X0011774Y0017740D01*
G01X0011774Y0017740D02*
G01X0012106Y0017740D01*
G01X0012197Y0017832D02*
G01X0012683Y0017832D01*
G01X0012604Y0017910D02*
G01X0012276Y0017910D01*
G01X0012340Y0017989D02*
G01X0012540Y0017989D01*
G01X0012540Y0018067D02*
G01X0012340Y0018067D01*
G01X0012340Y0018146D02*
G01X0012540Y0018146D01*
G01X0012540Y0018224D02*
G01X0012340Y0018224D01*
G01X0012340Y0018303D02*
G01X0012540Y0018303D01*
G01X0012615Y0018381D02*
G01X0012265Y0018381D01*
G01X0012186Y0018460D02*
G01X0012694Y0018460D01*
G01X0012772Y0018538D02*
G01X0012108Y0018538D01*
G01X0011772Y0018538D02*
G01X0011108Y0018538D01*
G01X0011106Y0018540D02*
G01X0010774Y0018540D01*
G01X0010774Y0018540D02*
G01X0010540Y0018306D01*
G01X0010540Y0018306D02*
G01X0010540Y0017974D01*
G01X0010540Y0017974D02*
G01X0010774Y0017740D01*
G01X0010774Y0017740D02*
G01X0011106Y0017740D01*
G01X0011106Y0017740D02*
G01X0011340Y0017974D01*
G01X0011340Y0017974D02*
G01X0011340Y0018306D01*
G01X0011340Y0018306D02*
G01X0011106Y0018540D01*
G01X0011186Y0018460D02*
G01X0011694Y0018460D01*
G01X0011615Y0018381D02*
G01X0011265Y0018381D01*
G01X0011340Y0018303D02*
G01X0011540Y0018303D01*
G01X0011540Y0018224D02*
G01X0011340Y0018224D01*
G01X0011340Y0018146D02*
G01X0011540Y0018146D01*
G01X0011540Y0018067D02*
G01X0011340Y0018067D01*
G01X0011340Y0017989D02*
G01X0011540Y0017989D01*
G01X0011604Y0017910D02*
G01X0011276Y0017910D01*
G01X0011197Y0017832D02*
G01X0011683Y0017832D01*
G01X0011761Y0017753D02*
G01X0011119Y0017753D01*
G01X0010761Y0017753D02*
G01X0010119Y0017753D01*
G01X0010106Y0017740D02*
G01X0010340Y0017974D01*
G01X0010340Y0017974D02*
G01X0010340Y0018306D01*
G01X0010340Y0018306D02*
G01X0010106Y0018540D01*
G01X0010106Y0018540D02*
G01X0009774Y0018540D01*
G01X0009774Y0018540D02*
G01X0009540Y0018306D01*
G01X0009540Y0018306D02*
G01X0009540Y0017974D01*
G01X0009540Y0017974D02*
G01X0009774Y0017740D01*
G01X0009774Y0017740D02*
G01X0010106Y0017740D01*
G01X0010197Y0017832D02*
G01X0010683Y0017832D01*
G01X0010604Y0017910D02*
G01X0010276Y0017910D01*
G01X0010340Y0017989D02*
G01X0010540Y0017989D01*
G01X0010540Y0018067D02*
G01X0010340Y0018067D01*
G01X0010340Y0018146D02*
G01X0010540Y0018146D01*
G01X0010540Y0018224D02*
G01X0010340Y0018224D01*
G01X0010340Y0018303D02*
G01X0010540Y0018303D01*
G01X0010615Y0018381D02*
G01X0010265Y0018381D01*
G01X0010186Y0018460D02*
G01X0010694Y0018460D01*
G01X0010772Y0018538D02*
G01X0010108Y0018538D01*
G01X0009772Y0018538D02*
G01X0009108Y0018538D01*
G01X0009106Y0018540D02*
G01X0008774Y0018540D01*
G01X0008774Y0018540D02*
G01X0008540Y0018306D01*
G01X0008540Y0018306D02*
G01X0008540Y0017974D01*
G01X0008540Y0017974D02*
G01X0008774Y0017740D01*
G01X0008774Y0017740D02*
G01X0009106Y0017740D01*
G01X0009106Y0017740D02*
G01X0009340Y0017974D01*
G01X0009340Y0017974D02*
G01X0009340Y0018306D01*
G01X0009340Y0018306D02*
G01X0009106Y0018540D01*
G01X0009186Y0018460D02*
G01X0009694Y0018460D01*
G01X0009615Y0018381D02*
G01X0009265Y0018381D01*
G01X0009340Y0018303D02*
G01X0009540Y0018303D01*
G01X0009540Y0018224D02*
G01X0009340Y0018224D01*
G01X0009340Y0018146D02*
G01X0009540Y0018146D01*
G01X0009540Y0018067D02*
G01X0009340Y0018067D01*
G01X0009340Y0017989D02*
G01X0009540Y0017989D01*
G01X0009604Y0017910D02*
G01X0009276Y0017910D01*
G01X0009197Y0017832D02*
G01X0009683Y0017832D01*
G01X0009761Y0017753D02*
G01X0009119Y0017753D01*
G01X0008761Y0017753D02*
G01X0008119Y0017753D01*
G01X0008106Y0017740D02*
G01X0008340Y0017974D01*
G01X0008340Y0017974D02*
G01X0008340Y0018306D01*
G01X0008340Y0018306D02*
G01X0008106Y0018540D01*
G01X0008106Y0018540D02*
G01X0007774Y0018540D01*
G01X0007774Y0018540D02*
G01X0007540Y0018306D01*
G01X0007540Y0018306D02*
G01X0007540Y0017974D01*
G01X0007540Y0017974D02*
G01X0007774Y0017740D01*
G01X0007774Y0017740D02*
G01X0008106Y0017740D01*
G01X0008197Y0017832D02*
G01X0008683Y0017832D01*
G01X0008604Y0017910D02*
G01X0008276Y0017910D01*
G01X0008340Y0017989D02*
G01X0008540Y0017989D01*
G01X0008540Y0018067D02*
G01X0008340Y0018067D01*
G01X0008340Y0018146D02*
G01X0008540Y0018146D01*
G01X0008540Y0018224D02*
G01X0008340Y0018224D01*
G01X0008340Y0018303D02*
G01X0008540Y0018303D01*
G01X0008615Y0018381D02*
G01X0008265Y0018381D01*
G01X0008186Y0018460D02*
G01X0008694Y0018460D01*
G01X0008772Y0018538D02*
G01X0008108Y0018538D01*
G01X0007772Y0018538D02*
G01X0007108Y0018538D01*
G01X0007106Y0018540D02*
G01X0006774Y0018540D01*
G01X0006774Y0018540D02*
G01X0006540Y0018306D01*
G01X0006540Y0018306D02*
G01X0006540Y0017974D01*
G01X0006540Y0017974D02*
G01X0006774Y0017740D01*
G01X0006774Y0017740D02*
G01X0007106Y0017740D01*
G01X0007106Y0017740D02*
G01X0007340Y0017974D01*
G01X0007340Y0017974D02*
G01X0007340Y0018306D01*
G01X0007340Y0018306D02*
G01X0007106Y0018540D01*
G01X0007186Y0018460D02*
G01X0007694Y0018460D01*
G01X0007615Y0018381D02*
G01X0007265Y0018381D01*
G01X0007340Y0018303D02*
G01X0007540Y0018303D01*
G01X0007540Y0018224D02*
G01X0007340Y0018224D01*
G01X0007340Y0018146D02*
G01X0007540Y0018146D01*
G01X0007540Y0018067D02*
G01X0007340Y0018067D01*
G01X0007340Y0017989D02*
G01X0007540Y0017989D01*
G01X0007604Y0017910D02*
G01X0007276Y0017910D01*
G01X0007197Y0017832D02*
G01X0007683Y0017832D01*
G01X0007761Y0017753D02*
G01X0007119Y0017753D01*
G01X0006761Y0017753D02*
G01X0006119Y0017753D01*
G01X0006106Y0017740D02*
G01X0006340Y0017974D01*
G01X0006340Y0017974D02*
G01X0006340Y0018306D01*
G01X0006340Y0018306D02*
G01X0006106Y0018540D01*
G01X0006106Y0018540D02*
G01X0005774Y0018540D01*
G01X0005774Y0018540D02*
G01X0005540Y0018306D01*
G01X0005540Y0018306D02*
G01X0005540Y0017974D01*
G01X0005540Y0017974D02*
G01X0005774Y0017740D01*
G01X0005774Y0017740D02*
G01X0006106Y0017740D01*
G01X0006197Y0017832D02*
G01X0006683Y0017832D01*
G01X0006604Y0017910D02*
G01X0006276Y0017910D01*
G01X0006340Y0017989D02*
G01X0006540Y0017989D01*
G01X0006540Y0018067D02*
G01X0006340Y0018067D01*
G01X0006340Y0018146D02*
G01X0006540Y0018146D01*
G01X0006540Y0018224D02*
G01X0006340Y0018224D01*
G01X0006340Y0018303D02*
G01X0006540Y0018303D01*
G01X0006615Y0018381D02*
G01X0006265Y0018381D01*
G01X0006186Y0018460D02*
G01X0006694Y0018460D01*
G01X0006772Y0018538D02*
G01X0006108Y0018538D01*
G01X0005772Y0018538D02*
G01X0005108Y0018538D01*
G01X0005106Y0018540D02*
G01X0004774Y0018540D01*
G01X0004774Y0018540D02*
G01X0004540Y0018306D01*
G01X0004540Y0018306D02*
G01X0004540Y0017974D01*
G01X0004540Y0017974D02*
G01X0004774Y0017740D01*
G01X0004774Y0017740D02*
G01X0005106Y0017740D01*
G01X0005106Y0017740D02*
G01X0005340Y0017974D01*
G01X0005340Y0017974D02*
G01X0005340Y0018306D01*
G01X0005340Y0018306D02*
G01X0005106Y0018540D01*
G01X0005186Y0018460D02*
G01X0005694Y0018460D01*
G01X0005615Y0018381D02*
G01X0005265Y0018381D01*
G01X0005340Y0018303D02*
G01X0005540Y0018303D01*
G01X0005540Y0018224D02*
G01X0005340Y0018224D01*
G01X0005340Y0018146D02*
G01X0005540Y0018146D01*
G01X0005540Y0018067D02*
G01X0005340Y0018067D01*
G01X0005340Y0017989D02*
G01X0005540Y0017989D01*
G01X0005604Y0017910D02*
G01X0005276Y0017910D01*
G01X0005197Y0017832D02*
G01X0005683Y0017832D01*
G01X0005761Y0017753D02*
G01X0005119Y0017753D01*
G01X0004761Y0017753D02*
G01X0000655Y0017753D01*
G01X0000655Y0017832D02*
G01X0004683Y0017832D01*
G01X0004604Y0017910D02*
G01X0000655Y0017910D01*
G01X0000655Y0017989D02*
G01X0004540Y0017989D01*
G01X0004540Y0018067D02*
G01X0000655Y0018067D01*
G01X0000655Y0018146D02*
G01X0004540Y0018146D01*
G01X0004540Y0018224D02*
G01X0000655Y0018224D01*
G01X0000655Y0018303D02*
G01X0004540Y0018303D01*
G01X0004615Y0018381D02*
G01X0000655Y0018381D01*
G01X0000655Y0018460D02*
G01X0004694Y0018460D01*
G01X0004772Y0018538D02*
G01X0000655Y0018538D01*
G01X0000655Y0018617D02*
G01X0034225Y0018617D01*
G01X0034225Y0018695D02*
G01X0000655Y0018695D01*
G01X0000655Y0018774D02*
G01X0034225Y0018774D01*
G01X0034225Y0018852D02*
G01X0000655Y0018852D01*
G01X0000655Y0018931D02*
G01X0034225Y0018931D01*
G01X0034225Y0019009D02*
G01X0000655Y0019009D01*
G01X0000655Y0019088D02*
G01X0034225Y0019088D01*
G01X0034225Y0019166D02*
G01X0000655Y0019166D01*
G01X0000655Y0019245D02*
G01X0034225Y0019245D01*
G01X0034225Y0019323D02*
G01X0000655Y0019323D01*
G01X0000655Y0019402D02*
G01X0034225Y0019402D01*
G01X0034225Y0019480D02*
G01X0000655Y0019480D01*
G01X0000655Y0019559D02*
G01X0034225Y0019559D01*
G01X0034225Y0019637D02*
G01X0000655Y0019637D01*
G01X0000655Y0019716D02*
G01X0034225Y0019716D01*
G01X0034225Y0019794D02*
G01X0000655Y0019794D01*
G01X0000655Y0019873D02*
G01X0034225Y0019873D01*
G01X0034225Y0019951D02*
G01X0000655Y0019951D01*
G01X0000655Y0020030D02*
G01X0034225Y0020030D01*
G01X0034225Y0020108D02*
G01X0000655Y0020108D01*
G01X0000655Y0020187D02*
G01X0034225Y0020187D01*
G01X0034225Y0020265D02*
G01X0000655Y0020265D01*
G01X0000655Y0020344D02*
G01X0034225Y0020344D01*
G01X0034225Y0020422D02*
G01X0000655Y0020422D01*
G01X0000655Y0020501D02*
G01X0034225Y0020501D01*
G01X0034225Y0020579D02*
G01X0000655Y0020579D01*
G01X0000655Y0020658D02*
G01X0034225Y0020658D01*
G01X0034225Y0020736D02*
G01X0029158Y0020736D01*
G01X0029122Y0020700D02*
G01X0029380Y0020958D01*
G01X0029380Y0020958D02*
G01X0029380Y0021100D01*
G01X0029380Y0021100D02*
G01X0028980Y0021100D01*
G01X0028980Y0021100D02*
G01X0028980Y0021180D01*
G01X0028980Y0021180D02*
G01X0028900Y0021180D01*
G01X0028900Y0021180D02*
G01X0028900Y0021580D01*
G01X0028900Y0021580D02*
G01X0028758Y0021580D01*
G01X0028758Y0021580D02*
G01X0028500Y0021322D01*
G01X0028500Y0021322D02*
G01X0028500Y0021180D01*
G01X0028500Y0021180D02*
G01X0028900Y0021180D01*
G01X0028900Y0021180D02*
G01X0028900Y0021100D01*
G01X0028900Y0021100D02*
G01X0028500Y0021100D01*
G01X0028500Y0021100D02*
G01X0028500Y0020958D01*
G01X0028500Y0020958D02*
G01X0028758Y0020700D01*
G01X0028758Y0020700D02*
G01X0028900Y0020700D01*
G01X0028900Y0020700D02*
G01X0028900Y0021100D01*
G01X0028900Y0021100D02*
G01X0028980Y0021100D01*
G01X0028980Y0021100D02*
G01X0028980Y0020700D01*
G01X0028980Y0020700D02*
G01X0029122Y0020700D01*
G01X0028980Y0020736D02*
G01X0028900Y0020736D01*
G01X0028900Y0020815D02*
G01X0028980Y0020815D01*
G01X0028980Y0020893D02*
G01X0028900Y0020893D01*
G01X0028900Y0020972D02*
G01X0028980Y0020972D01*
G01X0028980Y0021050D02*
G01X0028900Y0021050D01*
G01X0028900Y0021129D02*
G01X0028340Y0021129D01*
G01X0028340Y0021207D02*
G01X0028500Y0021207D01*
G01X0028500Y0021286D02*
G01X0028340Y0021286D01*
G01X0028340Y0021306D02*
G01X0028106Y0021540D01*
G01X0028106Y0021540D02*
G01X0027774Y0021540D01*
G01X0027774Y0021540D02*
G01X0027540Y0021306D01*
G01X0027540Y0021306D02*
G01X0027540Y0020974D01*
G01X0027540Y0020974D02*
G01X0027774Y0020740D01*
G01X0027774Y0020740D02*
G01X0028106Y0020740D01*
G01X0028106Y0020740D02*
G01X0028340Y0020974D01*
G01X0028340Y0020974D02*
G01X0028340Y0021306D01*
G01X0028282Y0021364D02*
G01X0028542Y0021364D01*
G01X0028620Y0021443D02*
G01X0028203Y0021443D01*
G01X0028125Y0021521D02*
G01X0028699Y0021521D01*
G01X0028900Y0021521D02*
G01X0028980Y0021521D01*
G01X0028980Y0021580D02*
G01X0028980Y0021180D01*
G01X0028980Y0021180D02*
G01X0029380Y0021180D01*
G01X0029380Y0021180D02*
G01X0029380Y0021322D01*
G01X0029380Y0021322D02*
G01X0029122Y0021580D01*
G01X0029122Y0021580D02*
G01X0028980Y0021580D01*
G01X0028980Y0021443D02*
G01X0028900Y0021443D01*
G01X0028900Y0021364D02*
G01X0028980Y0021364D01*
G01X0028980Y0021286D02*
G01X0028900Y0021286D01*
G01X0028900Y0021207D02*
G01X0028980Y0021207D01*
G01X0028980Y0021129D02*
G01X0029540Y0021129D01*
G01X0029540Y0021207D02*
G01X0029380Y0021207D01*
G01X0029380Y0021286D02*
G01X0029540Y0021286D01*
G01X0029540Y0021306D02*
G01X0029540Y0020974D01*
G01X0029540Y0020974D02*
G01X0029774Y0020740D01*
G01X0029774Y0020740D02*
G01X0030106Y0020740D01*
G01X0030106Y0020740D02*
G01X0030340Y0020974D01*
G01X0030340Y0020974D02*
G01X0030340Y0021306D01*
G01X0030340Y0021306D02*
G01X0030106Y0021540D01*
G01X0030106Y0021540D02*
G01X0029774Y0021540D01*
G01X0029774Y0021540D02*
G01X0029540Y0021306D01*
G01X0029598Y0021364D02*
G01X0029338Y0021364D01*
G01X0029260Y0021443D02*
G01X0029677Y0021443D01*
G01X0029755Y0021521D02*
G01X0029181Y0021521D01*
G01X0029380Y0021050D02*
G01X0029540Y0021050D01*
G01X0029543Y0020972D02*
G01X0029380Y0020972D01*
G01X0029315Y0020893D02*
G01X0029621Y0020893D01*
G01X0029700Y0020815D02*
G01X0029237Y0020815D01*
G01X0028722Y0020736D02*
G01X0000655Y0020736D01*
G01X0000655Y0020815D02*
G01X0001790Y0020815D01*
G01X0001950Y0020815D02*
G01X0025700Y0020815D01*
G01X0025774Y0020740D02*
G01X0026106Y0020740D01*
G01X0026106Y0020740D02*
G01X0026340Y0020974D01*
G01X0026340Y0020974D02*
G01X0026340Y0021306D01*
G01X0026340Y0021306D02*
G01X0026106Y0021540D01*
G01X0026106Y0021540D02*
G01X0025774Y0021540D01*
G01X0025774Y0021540D02*
G01X0025540Y0021306D01*
G01X0025540Y0021306D02*
G01X0025540Y0020974D01*
G01X0025540Y0020974D02*
G01X0025774Y0020740D01*
G01X0025621Y0020893D02*
G01X0002388Y0020893D01*
G01X0002567Y0020972D02*
G01X0025543Y0020972D01*
G01X0025540Y0021050D02*
G01X0002708Y0021050D01*
G01X0002793Y0021129D02*
G01X0025540Y0021129D01*
G01X0025540Y0021207D02*
G01X0002878Y0021207D01*
G01X0002963Y0021286D02*
G01X0025540Y0021286D01*
G01X0025598Y0021364D02*
G01X0003023Y0021364D01*
G01X0003065Y0021443D02*
G01X0025677Y0021443D01*
G01X0025755Y0021521D02*
G01X0003108Y0021521D01*
G01X0003150Y0021600D02*
G01X0031728Y0021600D01*
G01X0031701Y0021678D02*
G01X0003193Y0021678D01*
G01X0003216Y0021757D02*
G01X0031674Y0021757D01*
G01X0031647Y0021835D02*
G01X0003229Y0021835D01*
G01X0003242Y0021914D02*
G01X0031620Y0021914D01*
G01X0031618Y0021992D02*
G01X0003255Y0021992D01*
G01X0003268Y0022071D02*
G01X0031618Y0022071D01*
G01X0031618Y0022149D02*
G01X0003278Y0022149D01*
G01X0003265Y0022228D02*
G01X0031618Y0022228D01*
G01X0031618Y0022306D02*
G01X0003252Y0022306D01*
G01X0003239Y0022385D02*
G01X0031627Y0022385D01*
G01X0031653Y0022463D02*
G01X0003226Y0022463D01*
G01X0003213Y0022542D02*
G01X0031680Y0022542D01*
G01X0031707Y0022620D02*
G01X0003183Y0022620D01*
G01X0003141Y0022699D02*
G01X0031734Y0022699D01*
G01X0031761Y0022777D02*
G01X0003098Y0022777D01*
G01X0003056Y0022856D02*
G01X0031822Y0022856D01*
G01X0031883Y0022934D02*
G01X0003013Y0022934D01*
G01X0002944Y0023013D02*
G01X0031944Y0023013D01*
G01X0032005Y0023091D02*
G01X0002858Y0023091D01*
G01X0002773Y0023170D02*
G01X0032099Y0023170D01*
G01X0032219Y0023248D02*
G01X0002688Y0023248D01*
G01X0002525Y0023327D02*
G01X0032340Y0023327D01*
G01X0032552Y0023405D02*
G01X0002346Y0023405D01*
G01X0000674Y0021757D02*
G01X0000655Y0021757D01*
G01X0000655Y0021678D02*
G01X0000701Y0021678D01*
G01X0000728Y0021600D02*
G01X0000655Y0021600D01*
G01X0000655Y0021521D02*
G01X0000755Y0021521D01*
G01X0000808Y0021443D02*
G01X0000655Y0021443D01*
G01X0000655Y0021364D02*
G01X0000869Y0021364D01*
G01X0000930Y0021286D02*
G01X0000655Y0021286D01*
G01X0000655Y0021207D02*
G01X0000991Y0021207D01*
G01X0001072Y0021129D02*
G01X0000655Y0021129D01*
G01X0000655Y0021050D02*
G01X0001192Y0021050D01*
G01X0001312Y0020972D02*
G01X0000655Y0020972D01*
G01X0000655Y0020893D02*
G01X0001480Y0020893D01*
G01X0020118Y0006528D02*
G01X0020705Y0006528D01*
G01X0020627Y0006449D02*
G01X0020197Y0006449D01*
G01X0020275Y0006371D02*
G01X0020548Y0006371D01*
G01X0020500Y0006292D02*
G01X0020340Y0006292D01*
G01X0020340Y0006214D02*
G01X0020500Y0006214D01*
G01X0020500Y0006057D02*
G01X0020340Y0006057D01*
G01X0020340Y0006135D02*
G01X0020900Y0006135D01*
G01X0020900Y0006214D02*
G01X0020980Y0006214D01*
G01X0020980Y0006292D02*
G01X0020900Y0006292D01*
G01X0020900Y0006371D02*
G01X0020980Y0006371D01*
G01X0020980Y0006449D02*
G01X0020900Y0006449D01*
G01X0020900Y0006528D02*
G01X0020980Y0006528D01*
G01X0020500Y0005978D02*
G01X0020340Y0005978D01*
G01X0020265Y0005900D02*
G01X0020558Y0005900D01*
G01X0020637Y0005821D02*
G01X0020187Y0005821D01*
G01X0025500Y0003074D02*
G01X0002877Y0003074D01*
G01X0002963Y0002995D02*
G01X0025500Y0002995D01*
G01X0025541Y0002917D02*
G01X0003023Y0002917D01*
G01X0003065Y0002838D02*
G01X0025620Y0002838D01*
G01X0027125Y0002760D02*
G01X0027755Y0002760D01*
G01X0027774Y0002740D02*
G01X0028106Y0002740D01*
G01X0028106Y0002740D02*
G01X0028340Y0002974D01*
G01X0028340Y0002974D02*
G01X0028340Y0003306D01*
G01X0028340Y0003306D02*
G01X0028106Y0003540D01*
G01X0028106Y0003540D02*
G01X0027774Y0003540D01*
G01X0027774Y0003540D02*
G01X0027540Y0003306D01*
G01X0027540Y0003306D02*
G01X0027540Y0002974D01*
G01X0027540Y0002974D02*
G01X0027774Y0002740D01*
G01X0027676Y0002838D02*
G01X0027204Y0002838D01*
G01X0027282Y0002917D02*
G01X0027598Y0002917D01*
G01X0027540Y0002995D02*
G01X0027340Y0002995D01*
G01X0027340Y0003074D02*
G01X0027540Y0003074D01*
G01X0027540Y0003152D02*
G01X0027340Y0003152D01*
G01X0027340Y0003231D02*
G01X0027540Y0003231D01*
G01X0027543Y0003309D02*
G01X0027337Y0003309D01*
G01X0027258Y0003388D02*
G01X0027622Y0003388D01*
G01X0027700Y0003466D02*
G01X0027180Y0003466D01*
G01X0028180Y0003466D02*
G01X0028700Y0003466D01*
G01X0028774Y0003540D02*
G01X0028540Y0003306D01*
G01X0028540Y0003306D02*
G01X0028540Y0002974D01*
G01X0028540Y0002974D02*
G01X0028774Y0002740D01*
G01X0028774Y0002740D02*
G01X0029106Y0002740D01*
G01X0029106Y0002740D02*
G01X0029340Y0002974D01*
G01X0029340Y0002974D02*
G01X0029340Y0003306D01*
G01X0029340Y0003306D02*
G01X0029106Y0003540D01*
G01X0029106Y0003540D02*
G01X0028774Y0003540D01*
G01X0028622Y0003388D02*
G01X0028258Y0003388D01*
G01X0028337Y0003309D02*
G01X0028543Y0003309D01*
G01X0028540Y0003231D02*
G01X0028340Y0003231D01*
G01X0028340Y0003152D02*
G01X0028540Y0003152D01*
G01X0028540Y0003074D02*
G01X0028340Y0003074D01*
G01X0028340Y0002995D02*
G01X0028540Y0002995D01*
G01X0028598Y0002917D02*
G01X0028282Y0002917D01*
G01X0028204Y0002838D02*
G01X0028676Y0002838D01*
G01X0028755Y0002760D02*
G01X0028125Y0002760D01*
G01X0029125Y0002760D02*
G01X0029755Y0002760D01*
G01X0029774Y0002740D02*
G01X0029540Y0002974D01*
G01X0029540Y0002974D02*
G01X0029540Y0003306D01*
G01X0029540Y0003306D02*
G01X0029774Y0003540D01*
G01X0029774Y0003540D02*
G01X0030106Y0003540D01*
G01X0030106Y0003540D02*
G01X0030340Y0003306D01*
G01X0030340Y0003306D02*
G01X0030340Y0002974D01*
G01X0030340Y0002974D02*
G01X0030106Y0002740D01*
G01X0030106Y0002740D02*
G01X0029774Y0002740D01*
G01X0029676Y0002838D02*
G01X0029204Y0002838D01*
G01X0029282Y0002917D02*
G01X0029598Y0002917D01*
G01X0029540Y0002995D02*
G01X0029340Y0002995D01*
G01X0029340Y0003074D02*
G01X0029540Y0003074D01*
G01X0029540Y0003152D02*
G01X0029340Y0003152D01*
G01X0029340Y0003231D02*
G01X0029540Y0003231D01*
G01X0029543Y0003309D02*
G01X0029337Y0003309D01*
G01X0029258Y0003388D02*
G01X0029622Y0003388D01*
G01X0029700Y0003466D02*
G01X0029180Y0003466D01*
G01X0030180Y0003466D02*
G01X0030700Y0003466D01*
G01X0030774Y0003540D02*
G01X0030540Y0003306D01*
G01X0030540Y0003306D02*
G01X0030540Y0002974D01*
G01X0030540Y0002974D02*
G01X0030774Y0002740D01*
G01X0030774Y0002740D02*
G01X0031106Y0002740D01*
G01X0031106Y0002740D02*
G01X0031340Y0002974D01*
G01X0031340Y0002974D02*
G01X0031340Y0003306D01*
G01X0031340Y0003306D02*
G01X0031106Y0003540D01*
G01X0031106Y0003540D02*
G01X0030774Y0003540D01*
G01X0030622Y0003388D02*
G01X0030258Y0003388D01*
G01X0030337Y0003309D02*
G01X0030543Y0003309D01*
G01X0030540Y0003231D02*
G01X0030340Y0003231D01*
G01X0030340Y0003152D02*
G01X0030540Y0003152D01*
G01X0030540Y0003074D02*
G01X0030340Y0003074D01*
G01X0030340Y0002995D02*
G01X0030540Y0002995D01*
G01X0030598Y0002917D02*
G01X0030282Y0002917D01*
G01X0030204Y0002838D02*
G01X0030676Y0002838D01*
G01X0030755Y0002760D02*
G01X0030125Y0002760D01*
G01X0031125Y0002760D02*
G01X0031755Y0002760D01*
G01X0031808Y0002838D02*
G01X0031204Y0002838D01*
G01X0031282Y0002917D02*
G01X0031869Y0002917D01*
G01X0031931Y0002995D02*
G01X0031340Y0002995D01*
G01X0031340Y0003074D02*
G01X0031992Y0003074D01*
G01X0032072Y0003152D02*
G01X0031340Y0003152D01*
G01X0031340Y0003231D02*
G01X0032193Y0003231D01*
G01X0032313Y0003309D02*
G01X0031337Y0003309D01*
G01X0031258Y0003388D02*
G01X0032482Y0003388D01*
G01X0032792Y0003466D02*
G01X0031180Y0003466D01*
G01X0032943Y0003466D02*
G01X0034225Y0003466D01*
G01X0034225Y0003388D02*
G01X0033386Y0003388D01*
G01X0033565Y0003309D02*
G01X0034225Y0003309D01*
G01X0034225Y0003231D02*
G01X0033707Y0003231D01*
G01X0033792Y0003152D02*
G01X0034225Y0003152D01*
G01X0034225Y0003074D02*
G01X0033877Y0003074D01*
G01X0033963Y0002995D02*
G01X0034225Y0002995D01*
G01X0034225Y0002917D02*
G01X0034023Y0002917D01*
G01X0034065Y0002838D02*
G01X0034225Y0002838D01*
G01X0034225Y0002760D02*
G01X0034108Y0002760D01*
G01X0034150Y0002681D02*
G01X0034225Y0002681D01*
G01X0034225Y0002603D02*
G01X0034193Y0002603D01*
G01X0034216Y0002524D02*
G01X0034225Y0002524D01*
G01X0034225Y0005743D02*
G01X0031108Y0005743D01*
G01X0031187Y0005821D02*
G01X0034225Y0005821D01*
G01X0034225Y0005900D02*
G01X0031265Y0005900D01*
G01X0031340Y0005978D02*
G01X0034225Y0005978D01*
G01X0034225Y0006057D02*
G01X0031340Y0006057D01*
G01X0031340Y0006135D02*
G01X0034225Y0006135D01*
G01X0034225Y0006214D02*
G01X0031340Y0006214D01*
G01X0031340Y0006292D02*
G01X0034225Y0006292D01*
G01X0034225Y0006371D02*
G01X0031275Y0006371D01*
G01X0031197Y0006449D02*
G01X0034225Y0006449D01*
G01X0034225Y0020815D02*
G01X0032950Y0020815D01*
G01X0032790Y0020815D02*
G01X0031180Y0020815D01*
G01X0031106Y0020740D02*
G01X0031340Y0020974D01*
G01X0031340Y0020974D02*
G01X0031340Y0021306D01*
G01X0031340Y0021306D02*
G01X0031106Y0021540D01*
G01X0031106Y0021540D02*
G01X0030774Y0021540D01*
G01X0030774Y0021540D02*
G01X0030540Y0021306D01*
G01X0030540Y0021306D02*
G01X0030540Y0020974D01*
G01X0030540Y0020974D02*
G01X0030774Y0020740D01*
G01X0030774Y0020740D02*
G01X0031106Y0020740D01*
G01X0031259Y0020893D02*
G01X0032480Y0020893D01*
G01X0032312Y0020972D02*
G01X0031337Y0020972D01*
G01X0031340Y0021050D02*
G01X0032192Y0021050D01*
G01X0032072Y0021129D02*
G01X0031340Y0021129D01*
G01X0031340Y0021207D02*
G01X0031991Y0021207D01*
G01X0031930Y0021286D02*
G01X0031340Y0021286D01*
G01X0031282Y0021364D02*
G01X0031869Y0021364D01*
G01X0031808Y0021443D02*
G01X0031203Y0021443D01*
G01X0031125Y0021521D02*
G01X0031755Y0021521D01*
G01X0030755Y0021521D02*
G01X0030125Y0021521D01*
G01X0030203Y0021443D02*
G01X0030677Y0021443D01*
G01X0030598Y0021364D02*
G01X0030282Y0021364D01*
G01X0030340Y0021286D02*
G01X0030540Y0021286D01*
G01X0030540Y0021207D02*
G01X0030340Y0021207D01*
G01X0030340Y0021129D02*
G01X0030540Y0021129D01*
G01X0030540Y0021050D02*
G01X0030340Y0021050D01*
G01X0030337Y0020972D02*
G01X0030543Y0020972D01*
G01X0030621Y0020893D02*
G01X0030259Y0020893D01*
G01X0030180Y0020815D02*
G01X0030700Y0020815D01*
G01X0028643Y0020815D02*
G01X0028180Y0020815D01*
G01X0028259Y0020893D02*
G01X0028565Y0020893D01*
G01X0028500Y0020972D02*
G01X0028337Y0020972D01*
G01X0028340Y0021050D02*
G01X0028500Y0021050D01*
G01X0027700Y0020815D02*
G01X0027180Y0020815D01*
G01X0027106Y0020740D02*
G01X0027340Y0020974D01*
G01X0027340Y0020974D02*
G01X0027340Y0021306D01*
G01X0027340Y0021306D02*
G01X0027106Y0021540D01*
G01X0027106Y0021540D02*
G01X0026774Y0021540D01*
G01X0026774Y0021540D02*
G01X0026540Y0021306D01*
G01X0026540Y0021306D02*
G01X0026540Y0020974D01*
G01X0026540Y0020974D02*
G01X0026774Y0020740D01*
G01X0026774Y0020740D02*
G01X0027106Y0020740D01*
G01X0027259Y0020893D02*
G01X0027621Y0020893D01*
G01X0027543Y0020972D02*
G01X0027337Y0020972D01*
G01X0027340Y0021050D02*
G01X0027540Y0021050D01*
G01X0027540Y0021129D02*
G01X0027340Y0021129D01*
G01X0027340Y0021207D02*
G01X0027540Y0021207D01*
G01X0027540Y0021286D02*
G01X0027340Y0021286D01*
G01X0027282Y0021364D02*
G01X0027598Y0021364D01*
G01X0027677Y0021443D02*
G01X0027203Y0021443D01*
G01X0027125Y0021521D02*
G01X0027755Y0021521D01*
G01X0026755Y0021521D02*
G01X0026125Y0021521D01*
G01X0026203Y0021443D02*
G01X0026677Y0021443D01*
G01X0026598Y0021364D02*
G01X0026282Y0021364D01*
G01X0026340Y0021286D02*
G01X0026540Y0021286D01*
G01X0026540Y0021207D02*
G01X0026340Y0021207D01*
G01X0026340Y0021129D02*
G01X0026540Y0021129D01*
G01X0026540Y0021050D02*
G01X0026340Y0021050D01*
G01X0026337Y0020972D02*
G01X0026543Y0020972D01*
G01X0026621Y0020893D02*
G01X0026259Y0020893D01*
G01X0026180Y0020815D02*
G01X0026700Y0020815D01*
G01X0033388Y0020893D02*
G01X0034225Y0020893D01*
G01X0034225Y0020972D02*
G01X0033567Y0020972D01*
G01X0033708Y0021050D02*
G01X0034225Y0021050D01*
G01X0034225Y0021129D02*
G01X0033793Y0021129D01*
G01X0033878Y0021207D02*
G01X0034225Y0021207D01*
G01X0034225Y0021286D02*
G01X0033963Y0021286D01*
G01X0034023Y0021364D02*
G01X0034225Y0021364D01*
G01X0034225Y0021443D02*
G01X0034065Y0021443D01*
G01X0034108Y0021521D02*
G01X0034225Y0021521D01*
G01X0034225Y0021600D02*
G01X0034150Y0021600D01*
G01X0034193Y0021678D02*
G01X0034225Y0021678D01*
G01X0034216Y0021757D02*
G01X0034225Y0021757D01*
M02*
