M48
INCH,TZ
T10C0.040
%
T10
X004940Y006140
X005940Y006140
X006940Y006140
X007940Y006140
X008940Y006140
X009940Y006140
X010940Y006140
X011940Y006140
X012940Y006140
X013940Y006140
X014940Y006140
X015940Y006140
X016940Y006140
X017940Y006140
X018940Y006140
X019940Y006140
X020940Y006140
X021940Y006140
X022940Y006140
X023940Y006140
X025940Y006140
X026940Y006140
X027940Y006140
X028940Y006140
X029940Y006140
X030940Y006140
X030940Y003140
X029940Y003140
X028940Y003140
X027940Y003140
X026940Y003140
X025940Y003140
X025940Y018140
X026940Y018140
X027940Y018140
X028940Y018140
X029940Y018140
X030940Y018140
X030940Y021140
X029940Y021140
X028940Y021140
X027940Y021140
X026940Y021140
X025940Y021140
X023940Y018140
X022940Y018140
X021940Y018140
X020940Y018140
X019940Y018140
X018940Y018140
X017940Y018140
X016940Y018140
X015940Y018140
X014940Y018140
X013940Y018140
X012940Y018140
X011940Y018140
X010940Y018140
X009940Y018140
X008940Y018140
X007940Y018140
X006940Y018140
X005940Y018140
X004940Y018140
M30

