G04 This is an RS-274x file exported by *
G04 gerbv version 2.6.0 *
G04 More information is available about gerbv at *
G04 http://gerbv.gpleda.org/ *
G04 --End of header info--*
%MOIN*%
%FSLAX34Y34*%
%IPPOS*%
G04 --Define apertures--*
%ADD10R,0.0472X0.0315*%
%ADD11R,0.0591X0.0591*%
G04 --Start main section--*
G54D10*
G01X0004940Y0004286D03*
G01X0004940Y0004994D03*
G01X0005940Y0004994D03*
G01X0005940Y0004286D03*
G01X0006940Y0004286D03*
G01X0007940Y0004286D03*
G01X0007940Y0004994D03*
G01X0006940Y0004994D03*
G01X0008940Y0004994D03*
G01X0008940Y0004286D03*
G01X0009940Y0004286D03*
G01X0009940Y0004994D03*
G01X0010940Y0004994D03*
G01X0010940Y0004286D03*
G01X0011940Y0004286D03*
G01X0011940Y0004994D03*
G01X0012940Y0004994D03*
G01X0012940Y0004286D03*
G01X0013940Y0004286D03*
G01X0013940Y0004994D03*
G01X0014940Y0004994D03*
G01X0014940Y0004286D03*
G01X0015940Y0004286D03*
G01X0016940Y0004286D03*
G01X0016940Y0004994D03*
G01X0015940Y0004994D03*
G01X0017940Y0004994D03*
G01X0017940Y0004286D03*
G01X0018940Y0004286D03*
G01X0018940Y0004994D03*
G01X0019940Y0004994D03*
G01X0019940Y0004286D03*
G01X0019940Y0019286D03*
G01X0019940Y0019994D03*
G01X0018940Y0019994D03*
G01X0018940Y0019286D03*
G01X0017940Y0019286D03*
G01X0017940Y0019994D03*
G01X0016940Y0019994D03*
G01X0015940Y0019994D03*
G01X0015940Y0019286D03*
G01X0016940Y0019286D03*
G01X0014940Y0019286D03*
G01X0014940Y0019994D03*
G01X0013940Y0019994D03*
G01X0013940Y0019286D03*
G01X0012940Y0019286D03*
G01X0012940Y0019994D03*
G01X0011940Y0019994D03*
G01X0011940Y0019286D03*
G01X0010940Y0019286D03*
G01X0010940Y0019994D03*
G01X0009940Y0019994D03*
G01X0009940Y0019286D03*
G01X0008940Y0019286D03*
G01X0008940Y0019994D03*
G01X0007940Y0019994D03*
G01X0006940Y0019994D03*
G01X0006940Y0019286D03*
G01X0007940Y0019286D03*
G01X0005940Y0019286D03*
G01X0005940Y0019994D03*
G01X0004940Y0019994D03*
G01X0004940Y0019286D03*
G01X0020940Y0019286D03*
G01X0020940Y0019994D03*
G01X0021940Y0019994D03*
G01X0021940Y0019286D03*
G01X0022940Y0019286D03*
G01X0022940Y0019994D03*
G01X0023940Y0019994D03*
G01X0023940Y0019286D03*
G54D11*
G01X0004940Y0002051D03*
G01X0005940Y0002051D03*
G01X0006940Y0002051D03*
G01X0007940Y0002051D03*
G01X0008940Y0002051D03*
G01X0009940Y0002051D03*
G01X0010940Y0002051D03*
G01X0011940Y0002051D03*
G01X0012940Y0002051D03*
G01X0013940Y0002051D03*
G01X0014940Y0002051D03*
G01X0015940Y0002051D03*
G01X0016940Y0002051D03*
G01X0017940Y0002051D03*
G01X0018940Y0002051D03*
G01X0019940Y0002051D03*
G01X0019940Y0003229D03*
G01X0018940Y0003229D03*
G01X0017940Y0003229D03*
G01X0016940Y0003229D03*
G01X0015940Y0003229D03*
G01X0014940Y0003229D03*
G01X0013940Y0003229D03*
G01X0012940Y0003229D03*
G01X0011940Y0003229D03*
G01X0010940Y0003229D03*
G01X0009940Y0003229D03*
G01X0008940Y0003229D03*
G01X0007940Y0003229D03*
G01X0006940Y0003229D03*
G01X0005940Y0003229D03*
G01X0004940Y0003229D03*
G01X0004940Y0021051D03*
G01X0005940Y0021051D03*
G01X0006940Y0021051D03*
G01X0007940Y0021051D03*
G01X0008940Y0021051D03*
G01X0009940Y0021051D03*
G01X0010940Y0021051D03*
G01X0011940Y0021051D03*
G01X0012940Y0021051D03*
G01X0013940Y0021051D03*
G01X0014940Y0021051D03*
G01X0015940Y0021051D03*
G01X0016940Y0021051D03*
G01X0017940Y0021051D03*
G01X0018940Y0021051D03*
G01X0019940Y0021051D03*
G01X0020940Y0021051D03*
G01X0021940Y0021051D03*
G01X0022940Y0021051D03*
G01X0023940Y0021051D03*
G01X0023940Y0022229D03*
G01X0022940Y0022229D03*
G01X0021940Y0022229D03*
G01X0020940Y0022229D03*
G01X0019940Y0022229D03*
G01X0018940Y0022229D03*
G01X0017940Y0022229D03*
G01X0016940Y0022229D03*
G01X0015940Y0022229D03*
G01X0014940Y0022229D03*
G01X0013940Y0022229D03*
G01X0012940Y0022229D03*
G01X0011940Y0022229D03*
G01X0010940Y0022229D03*
G01X0009940Y0022229D03*
G01X0008940Y0022229D03*
G01X0007940Y0022229D03*
G01X0006940Y0022229D03*
G01X0005940Y0022229D03*
G01X0004940Y0022229D03*
M02*
