G04 This is an RS-274x file exported by *
G04 gerbv version 2.6.0 *
G04 More information is available about gerbv at *
G04 http://gerbv.gpleda.org/ *
G04 --End of header info--*
%MOIN*%
%FSLAX34Y34*%
%IPPOS*%
G04 --Define apertures--*
%ADD10C,0.0050*%
%ADD11C,0.0040*%
%ADD12C,0.0030*%
%ADD13C,0.0020*%
%ADD14C,0.0080*%
%ADD15R,0.0050X0.0050*%
%ADD16R,0.0100X0.0050*%
%ADD17R,0.0150X0.0050*%
%ADD18R,0.0200X0.0050*%
%ADD19R,0.0500X0.0050*%
%ADD20R,0.0550X0.0050*%
%ADD21R,0.0450X0.0050*%
%ADD22R,0.0250X0.0050*%
%ADD23R,0.0600X0.0050*%
%ADD24R,0.0750X0.0050*%
%ADD25R,0.0950X0.0050*%
%ADD26R,0.0700X0.0050*%
%ADD27R,0.0300X0.0050*%
%ADD28R,0.0650X0.0050*%
%ADD29R,0.1600X0.0050*%
%ADD30R,0.1550X0.0050*%
%ADD31R,0.1500X0.0050*%
%ADD32R,0.1800X0.0050*%
%ADD33R,0.1750X0.0050*%
%ADD34R,0.0800X0.0050*%
%ADD35R,0.0850X0.0050*%
%ADD36R,0.1450X0.0050*%
%ADD37R,0.0900X0.0050*%
%ADD38R,0.1400X0.0050*%
%ADD39R,0.2400X0.0050*%
%ADD40R,0.2350X0.0050*%
%ADD41R,0.2300X0.0050*%
%ADD42R,0.0350X0.0050*%
%ADD43R,0.1200X0.0050*%
%ADD44R,0.1100X0.0050*%
%ADD45R,0.2650X0.0050*%
%ADD46R,0.1000X0.0050*%
%ADD47R,0.1050X0.0050*%
%ADD48R,0.0400X0.0050*%
%ADD49R,0.2700X0.0050*%
%ADD50R,0.1700X0.0050*%
%ADD51R,0.2800X0.0050*%
%ADD52R,0.3250X0.0050*%
%ADD53R,0.1150X0.0050*%
%ADD54R,0.2850X0.0050*%
%ADD55R,0.2250X0.0050*%
%ADD56R,0.1300X0.0050*%
%ADD57R,0.3400X0.0050*%
%ADD58R,0.2150X0.0050*%
%ADD59R,0.2900X0.0050*%
%ADD60R,0.4050X0.0050*%
%ADD61R,0.4850X0.0050*%
%ADD62R,0.2200X0.0050*%
%ADD63R,0.4650X0.0050*%
%ADD64R,0.2750X0.0050*%
%ADD65R,0.4200X0.0050*%
%ADD66R,0.3650X0.0050*%
%ADD67R,0.3050X0.0050*%
%ADD68R,0.2950X0.0050*%
%ADD69R,0.3550X0.0050*%
%ADD70R,0.2100X0.0050*%
%ADD71R,0.2500X0.0050*%
%ADD72R,0.2000X0.0050*%
%ADD73R,0.3850X0.0050*%
%ADD74R,0.1950X0.0050*%
%ADD75R,0.3800X0.0050*%
%ADD76R,0.3700X0.0050*%
%ADD77R,0.1650X0.0050*%
%ADD78R,0.3500X0.0050*%
%ADD79R,0.3300X0.0050*%
%ADD80R,0.1900X0.0050*%
%ADD81R,0.2050X0.0050*%
%ADD82R,0.3150X0.0050*%
%ADD83R,0.3200X0.0050*%
%ADD84R,0.2550X0.0050*%
%ADD85R,0.3100X0.0050*%
%ADD86R,0.4800X0.0050*%
%ADD87R,0.4300X0.0050*%
%ADD88R,0.6150X0.0050*%
%ADD89R,0.1350X0.0050*%
%ADD90R,0.4500X0.0050*%
%ADD91R,0.1850X0.0050*%
%ADD92R,0.3600X0.0050*%
%ADD93R,0.5200X0.0050*%
%ADD94R,0.5150X0.0050*%
%ADD95R,0.4450X0.0050*%
%ADD96R,0.1250X0.0050*%
%ADD97R,0.2600X0.0050*%
%ADD98R,0.2450X0.0050*%
%ADD99R,0.4250X0.0050*%
%ADD100R,0.4100X0.0050*%
%ADD101R,0.4000X0.0050*%
%ADD102R,0.3900X0.0050*%
%ADD103R,0.3000X0.0050*%
%ADD104R,0.4950X0.0050*%
%ADD105R,0.5000X0.0050*%
%ADD106R,0.5050X0.0050*%
%ADD107R,0.5100X0.0050*%
%ADD108R,0.7000X0.0050*%
%ADD109R,0.7200X0.0050*%
%ADD110R,0.4750X0.0050*%
%ADD111R,0.4700X0.0050*%
%ADD112R,0.4600X0.0050*%
%ADD113R,0.8300X0.0050*%
%ADD114R,0.8400X0.0050*%
%ADD115R,0.8500X0.0050*%
%ADD116R,0.8700X0.0050*%
%ADD117R,0.9000X0.0050*%
%ADD118R,0.7400X0.0050*%
%ADD119R,0.5550X0.0050*%
%ADD120R,0.5400X0.0050*%
%ADD121R,0.5250X0.0050*%
%ADD122R,0.4400X0.0050*%
%ADD123R,0.4350X0.0050*%
%ADD124R,0.3350X0.0050*%
%ADD125C,0.0060*%
%ADD126C,0.0000*%
G04 --Start main section--*
G54D10*
G01X0001440Y0000640D02*
G01X0033440Y0000640D01*
G01X0033440Y0000640D02*
G01X0033500Y0000642D01*
G01X0033500Y0000642D02*
G01X0033561Y0000647D01*
G01X0033561Y0000647D02*
G01X0033620Y0000656D01*
G01X0033620Y0000656D02*
G01X0033679Y0000669D01*
G01X0033679Y0000669D02*
G01X0033738Y0000685D01*
G01X0033738Y0000685D02*
G01X0033795Y0000705D01*
G01X0033795Y0000705D02*
G01X0033850Y0000728D01*
G01X0033850Y0000728D02*
G01X0033905Y0000755D01*
G01X0033905Y0000755D02*
G01X0033957Y0000784D01*
G01X0033957Y0000784D02*
G01X0034008Y0000817D01*
G01X0034008Y0000817D02*
G01X0034057Y0000853D01*
G01X0034057Y0000853D02*
G01X0034103Y0000891D01*
G01X0034103Y0000891D02*
G01X0034147Y0000933D01*
G01X0034147Y0000933D02*
G01X0034189Y0000977D01*
G01X0034189Y0000977D02*
G01X0034227Y0001023D01*
G01X0034227Y0001023D02*
G01X0034263Y0001072D01*
G01X0034263Y0001072D02*
G01X0034296Y0001123D01*
G01X0034296Y0001123D02*
G01X0034325Y0001175D01*
G01X0034325Y0001175D02*
G01X0034352Y0001230D01*
G01X0034352Y0001230D02*
G01X0034375Y0001285D01*
G01X0034375Y0001285D02*
G01X0034395Y0001342D01*
G01X0034395Y0001342D02*
G01X0034411Y0001401D01*
G01X0034411Y0001401D02*
G01X0034424Y0001460D01*
G01X0034424Y0001460D02*
G01X0034433Y0001519D01*
G01X0034433Y0001519D02*
G01X0034438Y0001580D01*
G01X0034438Y0001580D02*
G01X0034440Y0001640D01*
G01X0034440Y0001640D02*
G01X0034440Y0022640D01*
G01X0034440Y0022640D02*
G01X0034438Y0022700D01*
G01X0034438Y0022700D02*
G01X0034433Y0022761D01*
G01X0034433Y0022761D02*
G01X0034424Y0022820D01*
G01X0034424Y0022820D02*
G01X0034411Y0022879D01*
G01X0034411Y0022879D02*
G01X0034395Y0022938D01*
G01X0034395Y0022938D02*
G01X0034375Y0022995D01*
G01X0034375Y0022995D02*
G01X0034352Y0023050D01*
G01X0034352Y0023050D02*
G01X0034325Y0023105D01*
G01X0034325Y0023105D02*
G01X0034296Y0023157D01*
G01X0034296Y0023157D02*
G01X0034263Y0023208D01*
G01X0034263Y0023208D02*
G01X0034227Y0023257D01*
G01X0034227Y0023257D02*
G01X0034189Y0023303D01*
G01X0034189Y0023303D02*
G01X0034147Y0023347D01*
G01X0034147Y0023347D02*
G01X0034103Y0023389D01*
G01X0034103Y0023389D02*
G01X0034057Y0023427D01*
G01X0034057Y0023427D02*
G01X0034008Y0023463D01*
G01X0034008Y0023463D02*
G01X0033957Y0023496D01*
G01X0033957Y0023496D02*
G01X0033905Y0023525D01*
G01X0033905Y0023525D02*
G01X0033850Y0023552D01*
G01X0033850Y0023552D02*
G01X0033795Y0023575D01*
G01X0033795Y0023575D02*
G01X0033738Y0023595D01*
G01X0033738Y0023595D02*
G01X0033679Y0023611D01*
G01X0033679Y0023611D02*
G01X0033620Y0023624D01*
G01X0033620Y0023624D02*
G01X0033561Y0023633D01*
G01X0033561Y0023633D02*
G01X0033500Y0023638D01*
G01X0033500Y0023638D02*
G01X0033440Y0023640D01*
G01X0033440Y0023640D02*
G01X0001440Y0023640D01*
G01X0001440Y0023640D02*
G01X0001380Y0023638D01*
G01X0001380Y0023638D02*
G01X0001319Y0023633D01*
G01X0001319Y0023633D02*
G01X0001260Y0023624D01*
G01X0001260Y0023624D02*
G01X0001201Y0023611D01*
G01X0001201Y0023611D02*
G01X0001142Y0023595D01*
G01X0001142Y0023595D02*
G01X0001085Y0023575D01*
G01X0001085Y0023575D02*
G01X0001030Y0023552D01*
G01X0001030Y0023552D02*
G01X0000975Y0023525D01*
G01X0000975Y0023525D02*
G01X0000923Y0023496D01*
G01X0000923Y0023496D02*
G01X0000872Y0023463D01*
G01X0000872Y0023463D02*
G01X0000823Y0023427D01*
G01X0000823Y0023427D02*
G01X0000777Y0023389D01*
G01X0000777Y0023389D02*
G01X0000733Y0023347D01*
G01X0000733Y0023347D02*
G01X0000691Y0023303D01*
G01X0000691Y0023303D02*
G01X0000653Y0023257D01*
G01X0000653Y0023257D02*
G01X0000617Y0023208D01*
G01X0000617Y0023208D02*
G01X0000584Y0023157D01*
G01X0000584Y0023157D02*
G01X0000555Y0023105D01*
G01X0000555Y0023105D02*
G01X0000528Y0023050D01*
G01X0000528Y0023050D02*
G01X0000505Y0022995D01*
G01X0000505Y0022995D02*
G01X0000485Y0022938D01*
G01X0000485Y0022938D02*
G01X0000469Y0022879D01*
G01X0000469Y0022879D02*
G01X0000456Y0022820D01*
G01X0000456Y0022820D02*
G01X0000447Y0022761D01*
G01X0000447Y0022761D02*
G01X0000442Y0022700D01*
G01X0000442Y0022700D02*
G01X0000440Y0022640D01*
G01X0000440Y0022640D02*
G01X0000440Y0001640D01*
G01X0000440Y0001640D02*
G01X0000442Y0001580D01*
G01X0000442Y0001580D02*
G01X0000447Y0001519D01*
G01X0000447Y0001519D02*
G01X0000456Y0001460D01*
G01X0000456Y0001460D02*
G01X0000469Y0001401D01*
G01X0000469Y0001401D02*
G01X0000485Y0001342D01*
G01X0000485Y0001342D02*
G01X0000505Y0001285D01*
G01X0000505Y0001285D02*
G01X0000528Y0001230D01*
G01X0000528Y0001230D02*
G01X0000555Y0001175D01*
G01X0000555Y0001175D02*
G01X0000584Y0001123D01*
G01X0000584Y0001123D02*
G01X0000617Y0001072D01*
G01X0000617Y0001072D02*
G01X0000653Y0001023D01*
G01X0000653Y0001023D02*
G01X0000691Y0000977D01*
G01X0000691Y0000977D02*
G01X0000733Y0000933D01*
G01X0000733Y0000933D02*
G01X0000777Y0000891D01*
G01X0000777Y0000891D02*
G01X0000823Y0000853D01*
G01X0000823Y0000853D02*
G01X0000872Y0000817D01*
G01X0000872Y0000817D02*
G01X0000923Y0000784D01*
G01X0000923Y0000784D02*
G01X0000975Y0000755D01*
G01X0000975Y0000755D02*
G01X0001030Y0000728D01*
G01X0001030Y0000728D02*
G01X0001085Y0000705D01*
G01X0001085Y0000705D02*
G01X0001142Y0000685D01*
G01X0001142Y0000685D02*
G01X0001201Y0000669D01*
G01X0001201Y0000669D02*
G01X0001260Y0000656D01*
G01X0001260Y0000656D02*
G01X0001319Y0000647D01*
G01X0001319Y0000647D02*
G01X0001380Y0000642D01*
G01X0001380Y0000642D02*
G01X0001440Y0000640D01*
G01X0004546Y0001656D02*
G01X0004546Y0001656D01*
G01X0004546Y0001656D02*
G01X0004546Y0003614D01*
G01X0004546Y0003614D02*
G01X0004786Y0003614D01*
G01X0004786Y0003614D02*
G01X0005334Y0003614D01*
G01X0005334Y0003614D02*
G01X0005334Y0001656D01*
G01X0005334Y0001656D02*
G01X0004546Y0001656D01*
G01X0004546Y0001656D02*
G01X0004546Y0001656D01*
G01X0005546Y0001656D02*
G01X0005546Y0001656D01*
G01X0005546Y0001656D02*
G01X0005546Y0003614D01*
G01X0005546Y0003614D02*
G01X0005786Y0003614D01*
G01X0005786Y0003614D02*
G01X0006334Y0003614D01*
G01X0006334Y0003614D02*
G01X0006334Y0001656D01*
G01X0006334Y0001656D02*
G01X0005546Y0001656D01*
G01X0005546Y0001656D02*
G01X0005546Y0001656D01*
G01X0006546Y0001656D02*
G01X0006546Y0001656D01*
G01X0006546Y0001656D02*
G01X0006546Y0003614D01*
G01X0006546Y0003614D02*
G01X0006786Y0003614D01*
G01X0006786Y0003614D02*
G01X0007334Y0003614D01*
G01X0007334Y0003614D02*
G01X0007334Y0001656D01*
G01X0007334Y0001656D02*
G01X0006546Y0001656D01*
G01X0006546Y0001656D02*
G01X0006546Y0001656D01*
G01X0007546Y0001656D02*
G01X0007546Y0001656D01*
G01X0007546Y0001656D02*
G01X0007546Y0003614D01*
G01X0007546Y0003614D02*
G01X0007786Y0003614D01*
G01X0007786Y0003614D02*
G01X0008334Y0003614D01*
G01X0008334Y0003614D02*
G01X0008334Y0001656D01*
G01X0008334Y0001656D02*
G01X0007546Y0001656D01*
G01X0007546Y0001656D02*
G01X0007546Y0001656D01*
G01X0008546Y0001656D02*
G01X0008546Y0001656D01*
G01X0008546Y0001656D02*
G01X0008546Y0003614D01*
G01X0008546Y0003614D02*
G01X0008786Y0003614D01*
G01X0008786Y0003614D02*
G01X0009334Y0003614D01*
G01X0009334Y0003614D02*
G01X0009334Y0001656D01*
G01X0009334Y0001656D02*
G01X0008546Y0001656D01*
G01X0008546Y0001656D02*
G01X0008546Y0001656D01*
G01X0009546Y0001656D02*
G01X0009546Y0001656D01*
G01X0009546Y0001656D02*
G01X0009546Y0003614D01*
G01X0009546Y0003614D02*
G01X0009786Y0003614D01*
G01X0009786Y0003614D02*
G01X0010334Y0003614D01*
G01X0010334Y0003614D02*
G01X0010334Y0001656D01*
G01X0010334Y0001656D02*
G01X0009546Y0001656D01*
G01X0009546Y0001656D02*
G01X0009546Y0001656D01*
G01X0010546Y0001656D02*
G01X0010546Y0001656D01*
G01X0010546Y0001656D02*
G01X0010546Y0003614D01*
G01X0010546Y0003614D02*
G01X0010786Y0003614D01*
G01X0010786Y0003614D02*
G01X0011334Y0003614D01*
G01X0011334Y0003614D02*
G01X0011334Y0001656D01*
G01X0011334Y0001656D02*
G01X0010546Y0001656D01*
G01X0010546Y0001656D02*
G01X0010546Y0001656D01*
G01X0011546Y0001656D02*
G01X0011546Y0001656D01*
G01X0011546Y0001656D02*
G01X0011546Y0003614D01*
G01X0011546Y0003614D02*
G01X0011786Y0003614D01*
G01X0011786Y0003614D02*
G01X0012334Y0003614D01*
G01X0012334Y0003614D02*
G01X0012334Y0001656D01*
G01X0012334Y0001656D02*
G01X0011546Y0001656D01*
G01X0011546Y0001656D02*
G01X0011546Y0001656D01*
G01X0012546Y0001656D02*
G01X0012546Y0001656D01*
G01X0012546Y0001656D02*
G01X0012546Y0003614D01*
G01X0012546Y0003614D02*
G01X0012786Y0003614D01*
G01X0012786Y0003614D02*
G01X0013334Y0003614D01*
G01X0013334Y0003614D02*
G01X0013334Y0001656D01*
G01X0013334Y0001656D02*
G01X0012546Y0001656D01*
G01X0012546Y0001656D02*
G01X0012546Y0001656D01*
G01X0013546Y0001656D02*
G01X0013546Y0001656D01*
G01X0013546Y0001656D02*
G01X0013546Y0003614D01*
G01X0013546Y0003614D02*
G01X0013786Y0003614D01*
G01X0013786Y0003614D02*
G01X0014334Y0003614D01*
G01X0014334Y0003614D02*
G01X0014334Y0001656D01*
G01X0014334Y0001656D02*
G01X0013546Y0001656D01*
G01X0013546Y0001656D02*
G01X0013546Y0001656D01*
G01X0014546Y0001656D02*
G01X0014546Y0001656D01*
G01X0014546Y0001656D02*
G01X0014546Y0003614D01*
G01X0014546Y0003614D02*
G01X0014786Y0003614D01*
G01X0014786Y0003614D02*
G01X0015334Y0003614D01*
G01X0015334Y0003614D02*
G01X0015334Y0001656D01*
G01X0015334Y0001656D02*
G01X0014546Y0001656D01*
G01X0014546Y0001656D02*
G01X0014546Y0001656D01*
G01X0015546Y0001656D02*
G01X0015546Y0001656D01*
G01X0015546Y0001656D02*
G01X0015546Y0003614D01*
G01X0015546Y0003614D02*
G01X0015786Y0003614D01*
G01X0015786Y0003614D02*
G01X0016334Y0003614D01*
G01X0016334Y0003614D02*
G01X0016334Y0001656D01*
G01X0016334Y0001656D02*
G01X0015546Y0001656D01*
G01X0015546Y0001656D02*
G01X0015546Y0001656D01*
G01X0016546Y0001656D02*
G01X0016546Y0001656D01*
G01X0016546Y0001656D02*
G01X0016546Y0003614D01*
G01X0016546Y0003614D02*
G01X0016786Y0003614D01*
G01X0016786Y0003614D02*
G01X0017334Y0003614D01*
G01X0017334Y0003614D02*
G01X0017334Y0001656D01*
G01X0017334Y0001656D02*
G01X0016546Y0001656D01*
G01X0016546Y0001656D02*
G01X0016546Y0001656D01*
G01X0017546Y0001656D02*
G01X0017546Y0001656D01*
G01X0017546Y0001656D02*
G01X0017546Y0003614D01*
G01X0017546Y0003614D02*
G01X0017786Y0003614D01*
G01X0017786Y0003614D02*
G01X0018334Y0003614D01*
G01X0018334Y0003614D02*
G01X0018334Y0001656D01*
G01X0018334Y0001656D02*
G01X0017546Y0001656D01*
G01X0017546Y0001656D02*
G01X0017546Y0001656D01*
G01X0018546Y0001656D02*
G01X0018546Y0001656D01*
G01X0018546Y0001656D02*
G01X0018546Y0003614D01*
G01X0018546Y0003614D02*
G01X0018786Y0003614D01*
G01X0018786Y0003614D02*
G01X0019334Y0003614D01*
G01X0019334Y0003614D02*
G01X0019334Y0001656D01*
G01X0019334Y0001656D02*
G01X0018546Y0001656D01*
G01X0018546Y0001656D02*
G01X0018546Y0001656D01*
G01X0019546Y0001656D02*
G01X0019546Y0001656D01*
G01X0019546Y0001656D02*
G01X0019546Y0003614D01*
G01X0019546Y0003614D02*
G01X0019786Y0003614D01*
G01X0019786Y0003614D02*
G01X0020334Y0003614D01*
G01X0020334Y0003614D02*
G01X0020334Y0001656D01*
G01X0020334Y0001656D02*
G01X0019546Y0001656D01*
G01X0019546Y0001656D02*
G01X0019546Y0001656D01*
G01X0019704Y0002464D02*
G01X0019940Y0002464D01*
G01X0019940Y0002464D02*
G01X0019704Y0002701D01*
G01X0019704Y0002701D02*
G01X0020176Y0002701D01*
G01X0020176Y0002701D02*
G01X0019940Y0002464D01*
G01X0019940Y0002464D02*
G01X0020176Y0002464D01*
G01X0019176Y0002464D02*
G01X0018940Y0002464D01*
G01X0018940Y0002464D02*
G01X0018704Y0002701D01*
G01X0018704Y0002701D02*
G01X0019176Y0002701D01*
G01X0019176Y0002701D02*
G01X0018940Y0002464D01*
G01X0018940Y0002464D02*
G01X0018704Y0002464D01*
G01X0018176Y0002464D02*
G01X0017940Y0002464D01*
G01X0017940Y0002464D02*
G01X0017704Y0002701D01*
G01X0017704Y0002701D02*
G01X0018176Y0002701D01*
G01X0018176Y0002701D02*
G01X0017940Y0002464D01*
G01X0017940Y0002464D02*
G01X0017704Y0002464D01*
G01X0017176Y0002464D02*
G01X0016940Y0002464D01*
G01X0016940Y0002464D02*
G01X0016704Y0002701D01*
G01X0016704Y0002701D02*
G01X0017176Y0002701D01*
G01X0017176Y0002701D02*
G01X0016940Y0002464D01*
G01X0016940Y0002464D02*
G01X0016704Y0002464D01*
G01X0016176Y0002464D02*
G01X0015940Y0002464D01*
G01X0015940Y0002464D02*
G01X0015704Y0002701D01*
G01X0015704Y0002701D02*
G01X0016176Y0002701D01*
G01X0016176Y0002701D02*
G01X0015940Y0002464D01*
G01X0015940Y0002464D02*
G01X0015704Y0002464D01*
G01X0015176Y0002464D02*
G01X0014940Y0002464D01*
G01X0014940Y0002464D02*
G01X0014704Y0002701D01*
G01X0014704Y0002701D02*
G01X0015176Y0002701D01*
G01X0015176Y0002701D02*
G01X0014940Y0002464D01*
G01X0014940Y0002464D02*
G01X0014704Y0002464D01*
G01X0014176Y0002464D02*
G01X0013940Y0002464D01*
G01X0013940Y0002464D02*
G01X0013704Y0002701D01*
G01X0013704Y0002701D02*
G01X0014176Y0002701D01*
G01X0014176Y0002701D02*
G01X0013940Y0002464D01*
G01X0013940Y0002464D02*
G01X0013704Y0002464D01*
G01X0013176Y0002464D02*
G01X0012940Y0002464D01*
G01X0012940Y0002464D02*
G01X0012704Y0002701D01*
G01X0012704Y0002701D02*
G01X0013176Y0002701D01*
G01X0013176Y0002701D02*
G01X0012940Y0002464D01*
G01X0012940Y0002464D02*
G01X0012704Y0002464D01*
G01X0012176Y0002464D02*
G01X0011940Y0002464D01*
G01X0011940Y0002464D02*
G01X0011704Y0002701D01*
G01X0011704Y0002701D02*
G01X0012176Y0002701D01*
G01X0012176Y0002701D02*
G01X0011940Y0002464D01*
G01X0011940Y0002464D02*
G01X0011704Y0002464D01*
G01X0011176Y0002464D02*
G01X0010940Y0002464D01*
G01X0010940Y0002464D02*
G01X0010704Y0002701D01*
G01X0010704Y0002701D02*
G01X0011176Y0002701D01*
G01X0011176Y0002701D02*
G01X0010940Y0002464D01*
G01X0010940Y0002464D02*
G01X0010704Y0002464D01*
G01X0010176Y0002464D02*
G01X0009940Y0002464D01*
G01X0009940Y0002464D02*
G01X0009704Y0002701D01*
G01X0009704Y0002701D02*
G01X0010176Y0002701D01*
G01X0010176Y0002701D02*
G01X0009940Y0002464D01*
G01X0009940Y0002464D02*
G01X0009704Y0002464D01*
G01X0009176Y0002464D02*
G01X0008940Y0002464D01*
G01X0008940Y0002464D02*
G01X0008704Y0002701D01*
G01X0008704Y0002701D02*
G01X0009176Y0002701D01*
G01X0009176Y0002701D02*
G01X0008940Y0002464D01*
G01X0008940Y0002464D02*
G01X0008704Y0002464D01*
G01X0008176Y0002464D02*
G01X0007940Y0002464D01*
G01X0007940Y0002464D02*
G01X0007704Y0002701D01*
G01X0007704Y0002701D02*
G01X0008176Y0002701D01*
G01X0008176Y0002701D02*
G01X0007940Y0002464D01*
G01X0007940Y0002464D02*
G01X0007704Y0002464D01*
G01X0007176Y0002464D02*
G01X0006940Y0002464D01*
G01X0006940Y0002464D02*
G01X0006704Y0002701D01*
G01X0006704Y0002701D02*
G01X0007176Y0002701D01*
G01X0007176Y0002701D02*
G01X0006940Y0002464D01*
G01X0006940Y0002464D02*
G01X0006704Y0002464D01*
G01X0006176Y0002464D02*
G01X0005940Y0002464D01*
G01X0005940Y0002464D02*
G01X0005704Y0002701D01*
G01X0005704Y0002701D02*
G01X0006176Y0002701D01*
G01X0006176Y0002701D02*
G01X0005940Y0002464D01*
G01X0005940Y0002464D02*
G01X0005704Y0002464D01*
G01X0005176Y0002464D02*
G01X0004940Y0002464D01*
G01X0004940Y0002464D02*
G01X0004704Y0002701D01*
G01X0004704Y0002701D02*
G01X0005176Y0002701D01*
G01X0005176Y0002701D02*
G01X0004940Y0002464D01*
G01X0004940Y0002464D02*
G01X0004704Y0002464D01*
G01X0001311Y0004509D02*
G01X0000944Y0004509D01*
G01X0000944Y0004509D02*
G01X0000761Y0004692D01*
G01X0000761Y0004692D02*
G01X0000944Y0004876D01*
G01X0000944Y0004876D02*
G01X0001311Y0004876D01*
G01X0001311Y0005061D02*
G01X0000761Y0005061D01*
G01X0000761Y0005061D02*
G01X0000761Y0005337D01*
G01X0000761Y0005337D02*
G01X0000852Y0005428D01*
G01X0000852Y0005428D02*
G01X0001036Y0005428D01*
G01X0001036Y0005428D02*
G01X0001128Y0005337D01*
G01X0001128Y0005337D02*
G01X0001128Y0005061D01*
G01X0001128Y0005245D02*
G01X0001311Y0005428D01*
G01X0001311Y0005614D02*
G01X0000761Y0005614D01*
G01X0000761Y0005614D02*
G01X0000944Y0005797D01*
G01X0000944Y0005797D02*
G01X0000761Y0005981D01*
G01X0000761Y0005981D02*
G01X0001311Y0005981D01*
G01X0001311Y0006166D02*
G01X0001311Y0006441D01*
G01X0001311Y0006441D02*
G01X0001219Y0006533D01*
G01X0001219Y0006533D02*
G01X0001128Y0006441D01*
G01X0001128Y0006441D02*
G01X0001128Y0006258D01*
G01X0001128Y0006258D02*
G01X0001036Y0006166D01*
G01X0001036Y0006166D02*
G01X0000944Y0006258D01*
G01X0000944Y0006258D02*
G01X0000944Y0006533D01*
G01X0000944Y0006719D02*
G01X0000944Y0006902D01*
G01X0000852Y0006810D02*
G01X0001219Y0006810D01*
G01X0001219Y0006810D02*
G01X0001311Y0006902D01*
G01X0001311Y0007087D02*
G01X0000944Y0007087D01*
G01X0000944Y0007271D02*
G01X0000944Y0007362D01*
G01X0000944Y0007271D02*
G01X0001128Y0007087D01*
G01X0001219Y0007547D02*
G01X0001128Y0007639D01*
G01X0001128Y0007639D02*
G01X0001128Y0007914D01*
G01X0001036Y0007914D02*
G01X0001311Y0007914D01*
G01X0001311Y0007914D02*
G01X0001311Y0007639D01*
G01X0001311Y0007639D02*
G01X0001219Y0007547D01*
G01X0000944Y0007639D02*
G01X0000944Y0007823D01*
G01X0000944Y0007823D02*
G01X0001036Y0007914D01*
G01X0000944Y0008100D02*
G01X0000944Y0008375D01*
G01X0000944Y0008375D02*
G01X0001036Y0008467D01*
G01X0001036Y0008467D02*
G01X0001219Y0008467D01*
G01X0001219Y0008467D02*
G01X0001311Y0008375D01*
G01X0001311Y0008375D02*
G01X0001311Y0008100D01*
G01X0001495Y0008100D02*
G01X0000944Y0008100D01*
G01X0001036Y0009205D02*
G01X0001036Y0009388D01*
G01X0000761Y0009205D02*
G01X0001311Y0009205D01*
G01X0001311Y0009205D02*
G01X0001311Y0009572D01*
G01X0001311Y0009757D02*
G01X0000944Y0009757D01*
G01X0000944Y0009757D02*
G01X0000761Y0009941D01*
G01X0000761Y0009941D02*
G01X0000944Y0010124D01*
G01X0000944Y0010124D02*
G01X0001311Y0010124D01*
G01X0001219Y0010310D02*
G01X0000852Y0010310D01*
G01X0000852Y0010310D02*
G01X0000761Y0010402D01*
G01X0000761Y0010402D02*
G01X0000761Y0010585D01*
G01X0000761Y0010585D02*
G01X0000852Y0010677D01*
G01X0001036Y0010677D02*
G01X0001036Y0010493D01*
G01X0001036Y0010677D02*
G01X0001219Y0010677D01*
G01X0001219Y0010677D02*
G01X0001311Y0010585D01*
G01X0001311Y0010585D02*
G01X0001311Y0010402D01*
G01X0001311Y0010402D02*
G01X0001219Y0010310D01*
G01X0001036Y0010124D02*
G01X0001036Y0009757D01*
G01X0000761Y0009572D02*
G01X0000761Y0009205D01*
G01X0000761Y0010862D02*
G01X0001311Y0010862D01*
G01X0001311Y0010862D02*
G01X0001311Y0011229D01*
G01X0001311Y0011415D02*
G01X0000761Y0011415D01*
G01X0000761Y0011415D02*
G01X0000761Y0011782D01*
G01X0001036Y0011598D02*
G01X0001036Y0011415D01*
G01X0001311Y0011415D02*
G01X0001311Y0011782D01*
G01X0000761Y0012520D02*
G01X0000761Y0012887D01*
G01X0000761Y0012703D02*
G01X0001311Y0012703D01*
G01X0001219Y0013072D02*
G01X0001036Y0013072D01*
G01X0001036Y0013072D02*
G01X0000944Y0013164D01*
G01X0000944Y0013164D02*
G01X0000944Y0013347D01*
G01X0000944Y0013347D02*
G01X0001036Y0013439D01*
G01X0001036Y0013439D02*
G01X0001128Y0013439D01*
G01X0001128Y0013439D02*
G01X0001128Y0013072D01*
G01X0001219Y0013072D02*
G01X0001311Y0013164D01*
G01X0001311Y0013164D02*
G01X0001311Y0013347D01*
G01X0001311Y0013625D02*
G01X0001311Y0013900D01*
G01X0001311Y0013900D02*
G01X0001219Y0013992D01*
G01X0001219Y0013992D02*
G01X0001128Y0013900D01*
G01X0001128Y0013900D02*
G01X0001128Y0013716D01*
G01X0001128Y0013716D02*
G01X0001036Y0013625D01*
G01X0001036Y0013625D02*
G01X0000944Y0013716D01*
G01X0000944Y0013716D02*
G01X0000944Y0013992D01*
G01X0000944Y0014177D02*
G01X0000944Y0014361D01*
G01X0000852Y0014269D02*
G01X0001219Y0014269D01*
G01X0001219Y0014269D02*
G01X0001311Y0014361D01*
G01X0001219Y0014545D02*
G01X0001036Y0014545D01*
G01X0001036Y0014545D02*
G01X0000944Y0014637D01*
G01X0000944Y0014637D02*
G01X0000944Y0014821D01*
G01X0000944Y0014821D02*
G01X0001036Y0014912D01*
G01X0001036Y0014912D02*
G01X0001128Y0014912D01*
G01X0001128Y0014912D02*
G01X0001128Y0014545D01*
G01X0001219Y0014545D02*
G01X0001311Y0014637D01*
G01X0001311Y0014637D02*
G01X0001311Y0014821D01*
G01X0001311Y0015098D02*
G01X0000944Y0015098D01*
G01X0000944Y0015281D02*
G01X0000944Y0015373D01*
G01X0000944Y0015281D02*
G01X0001128Y0015098D01*
G01X0004546Y0020666D02*
G01X0005094Y0020666D01*
G01X0005094Y0020666D02*
G01X0005334Y0020666D01*
G01X0005334Y0020666D02*
G01X0005334Y0022624D01*
G01X0005334Y0022624D02*
G01X0005334Y0022624D01*
G01X0005334Y0022624D02*
G01X0004546Y0022624D01*
G01X0004546Y0022624D02*
G01X0004546Y0020666D01*
G01X0004704Y0021579D02*
G01X0005176Y0021579D01*
G01X0005176Y0021579D02*
G01X0004940Y0021816D01*
G01X0004940Y0021816D02*
G01X0004704Y0021579D01*
G01X0004704Y0021816D02*
G01X0004940Y0021816D01*
G01X0004940Y0021816D02*
G01X0005176Y0021816D01*
G01X0005704Y0021816D02*
G01X0005940Y0021816D01*
G01X0005940Y0021816D02*
G01X0006176Y0021579D01*
G01X0006176Y0021579D02*
G01X0005704Y0021579D01*
G01X0005704Y0021579D02*
G01X0005940Y0021816D01*
G01X0005940Y0021816D02*
G01X0006176Y0021816D01*
G01X0006704Y0021816D02*
G01X0006940Y0021816D01*
G01X0006940Y0021816D02*
G01X0007176Y0021579D01*
G01X0007176Y0021579D02*
G01X0006704Y0021579D01*
G01X0006704Y0021579D02*
G01X0006940Y0021816D01*
G01X0006940Y0021816D02*
G01X0007176Y0021816D01*
G01X0007704Y0021816D02*
G01X0007940Y0021816D01*
G01X0007940Y0021816D02*
G01X0008176Y0021579D01*
G01X0008176Y0021579D02*
G01X0007704Y0021579D01*
G01X0007704Y0021579D02*
G01X0007940Y0021816D01*
G01X0007940Y0021816D02*
G01X0008176Y0021816D01*
G01X0008704Y0021816D02*
G01X0008940Y0021816D01*
G01X0008940Y0021816D02*
G01X0009176Y0021579D01*
G01X0009176Y0021579D02*
G01X0008704Y0021579D01*
G01X0008704Y0021579D02*
G01X0008940Y0021816D01*
G01X0008940Y0021816D02*
G01X0009176Y0021816D01*
G01X0009704Y0021816D02*
G01X0009940Y0021816D01*
G01X0009940Y0021816D02*
G01X0010176Y0021579D01*
G01X0010176Y0021579D02*
G01X0009704Y0021579D01*
G01X0009704Y0021579D02*
G01X0009940Y0021816D01*
G01X0009940Y0021816D02*
G01X0010176Y0021816D01*
G01X0010704Y0021816D02*
G01X0010940Y0021816D01*
G01X0010940Y0021816D02*
G01X0011176Y0021579D01*
G01X0011176Y0021579D02*
G01X0010704Y0021579D01*
G01X0010704Y0021579D02*
G01X0010940Y0021816D01*
G01X0010940Y0021816D02*
G01X0011176Y0021816D01*
G01X0011704Y0021816D02*
G01X0011940Y0021816D01*
G01X0011940Y0021816D02*
G01X0012176Y0021579D01*
G01X0012176Y0021579D02*
G01X0011704Y0021579D01*
G01X0011704Y0021579D02*
G01X0011940Y0021816D01*
G01X0011940Y0021816D02*
G01X0012176Y0021816D01*
G01X0012704Y0021816D02*
G01X0012940Y0021816D01*
G01X0012940Y0021816D02*
G01X0013176Y0021579D01*
G01X0013176Y0021579D02*
G01X0012704Y0021579D01*
G01X0012704Y0021579D02*
G01X0012940Y0021816D01*
G01X0012940Y0021816D02*
G01X0013176Y0021816D01*
G01X0013704Y0021816D02*
G01X0013940Y0021816D01*
G01X0013940Y0021816D02*
G01X0014176Y0021579D01*
G01X0014176Y0021579D02*
G01X0013704Y0021579D01*
G01X0013704Y0021579D02*
G01X0013940Y0021816D01*
G01X0013940Y0021816D02*
G01X0014176Y0021816D01*
G01X0014704Y0021816D02*
G01X0014940Y0021816D01*
G01X0014940Y0021816D02*
G01X0015176Y0021579D01*
G01X0015176Y0021579D02*
G01X0014704Y0021579D01*
G01X0014704Y0021579D02*
G01X0014940Y0021816D01*
G01X0014940Y0021816D02*
G01X0015176Y0021816D01*
G01X0015704Y0021816D02*
G01X0015940Y0021816D01*
G01X0015940Y0021816D02*
G01X0016176Y0021579D01*
G01X0016176Y0021579D02*
G01X0015704Y0021579D01*
G01X0015704Y0021579D02*
G01X0015940Y0021816D01*
G01X0015940Y0021816D02*
G01X0016176Y0021816D01*
G01X0016704Y0021816D02*
G01X0016940Y0021816D01*
G01X0016940Y0021816D02*
G01X0017176Y0021579D01*
G01X0017176Y0021579D02*
G01X0016704Y0021579D01*
G01X0016704Y0021579D02*
G01X0016940Y0021816D01*
G01X0016940Y0021816D02*
G01X0017176Y0021816D01*
G01X0017704Y0021816D02*
G01X0017940Y0021816D01*
G01X0017940Y0021816D02*
G01X0018176Y0021579D01*
G01X0018176Y0021579D02*
G01X0017704Y0021579D01*
G01X0017704Y0021579D02*
G01X0017940Y0021816D01*
G01X0017940Y0021816D02*
G01X0018176Y0021816D01*
G01X0018704Y0021816D02*
G01X0018940Y0021816D01*
G01X0018940Y0021816D02*
G01X0019176Y0021579D01*
G01X0019176Y0021579D02*
G01X0018704Y0021579D01*
G01X0018704Y0021579D02*
G01X0018940Y0021816D01*
G01X0018940Y0021816D02*
G01X0019176Y0021816D01*
G01X0019704Y0021816D02*
G01X0019940Y0021816D01*
G01X0019940Y0021816D02*
G01X0020176Y0021579D01*
G01X0020176Y0021579D02*
G01X0019704Y0021579D01*
G01X0019704Y0021579D02*
G01X0019940Y0021816D01*
G01X0019940Y0021816D02*
G01X0020176Y0021816D01*
G01X0020704Y0021816D02*
G01X0020940Y0021816D01*
G01X0020940Y0021816D02*
G01X0021176Y0021579D01*
G01X0021176Y0021579D02*
G01X0020704Y0021579D01*
G01X0020704Y0021579D02*
G01X0020940Y0021816D01*
G01X0020940Y0021816D02*
G01X0021176Y0021816D01*
G01X0021704Y0021816D02*
G01X0021940Y0021816D01*
G01X0021940Y0021816D02*
G01X0022176Y0021579D01*
G01X0022176Y0021579D02*
G01X0021704Y0021579D01*
G01X0021704Y0021579D02*
G01X0021940Y0021816D01*
G01X0021940Y0021816D02*
G01X0022176Y0021816D01*
G01X0022704Y0021816D02*
G01X0022940Y0021816D01*
G01X0022940Y0021816D02*
G01X0023176Y0021579D01*
G01X0023176Y0021579D02*
G01X0022704Y0021579D01*
G01X0022704Y0021579D02*
G01X0022940Y0021816D01*
G01X0022940Y0021816D02*
G01X0023176Y0021816D01*
G01X0023704Y0021816D02*
G01X0023940Y0021816D01*
G01X0023940Y0021816D02*
G01X0024176Y0021579D01*
G01X0024176Y0021579D02*
G01X0023704Y0021579D01*
G01X0023704Y0021579D02*
G01X0023940Y0021816D01*
G01X0023940Y0021816D02*
G01X0024176Y0021816D01*
G01X0024334Y0022624D02*
G01X0023546Y0022624D01*
G01X0023546Y0022624D02*
G01X0023546Y0020666D01*
G01X0023546Y0020666D02*
G01X0024094Y0020666D01*
G01X0024094Y0020666D02*
G01X0024334Y0020666D01*
G01X0024334Y0020666D02*
G01X0024334Y0022624D01*
G01X0024334Y0022624D02*
G01X0024334Y0022624D01*
G01X0024334Y0022624D02*
G01X0024334Y0022624D01*
G01X0023334Y0022624D02*
G01X0023334Y0022624D01*
G01X0023334Y0022624D02*
G01X0023334Y0020666D01*
G01X0023334Y0020666D02*
G01X0023094Y0020666D01*
G01X0023094Y0020666D02*
G01X0022546Y0020666D01*
G01X0022546Y0020666D02*
G01X0022546Y0022624D01*
G01X0022546Y0022624D02*
G01X0023334Y0022624D01*
G01X0023334Y0022624D02*
G01X0023334Y0022624D01*
G01X0022334Y0022624D02*
G01X0022334Y0022624D01*
G01X0022334Y0022624D02*
G01X0022334Y0020666D01*
G01X0022334Y0020666D02*
G01X0022094Y0020666D01*
G01X0022094Y0020666D02*
G01X0021546Y0020666D01*
G01X0021546Y0020666D02*
G01X0021546Y0022624D01*
G01X0021546Y0022624D02*
G01X0022334Y0022624D01*
G01X0022334Y0022624D02*
G01X0022334Y0022624D01*
G01X0021334Y0022624D02*
G01X0021334Y0022624D01*
G01X0021334Y0022624D02*
G01X0021334Y0020666D01*
G01X0021334Y0020666D02*
G01X0021094Y0020666D01*
G01X0021094Y0020666D02*
G01X0020546Y0020666D01*
G01X0020546Y0020666D02*
G01X0020546Y0022624D01*
G01X0020546Y0022624D02*
G01X0021334Y0022624D01*
G01X0021334Y0022624D02*
G01X0021334Y0022624D01*
G01X0020334Y0022624D02*
G01X0020334Y0022624D01*
G01X0020334Y0022624D02*
G01X0020334Y0020666D01*
G01X0020334Y0020666D02*
G01X0020094Y0020666D01*
G01X0020094Y0020666D02*
G01X0019546Y0020666D01*
G01X0019546Y0020666D02*
G01X0019546Y0022624D01*
G01X0019546Y0022624D02*
G01X0020334Y0022624D01*
G01X0020334Y0022624D02*
G01X0020334Y0022624D01*
G01X0019334Y0022624D02*
G01X0019334Y0022624D01*
G01X0019334Y0022624D02*
G01X0019334Y0020666D01*
G01X0019334Y0020666D02*
G01X0019094Y0020666D01*
G01X0019094Y0020666D02*
G01X0018546Y0020666D01*
G01X0018546Y0020666D02*
G01X0018546Y0022624D01*
G01X0018546Y0022624D02*
G01X0019334Y0022624D01*
G01X0019334Y0022624D02*
G01X0019334Y0022624D01*
G01X0018334Y0022624D02*
G01X0018334Y0022624D01*
G01X0018334Y0022624D02*
G01X0018334Y0020666D01*
G01X0018334Y0020666D02*
G01X0018094Y0020666D01*
G01X0018094Y0020666D02*
G01X0017546Y0020666D01*
G01X0017546Y0020666D02*
G01X0017546Y0022624D01*
G01X0017546Y0022624D02*
G01X0018334Y0022624D01*
G01X0018334Y0022624D02*
G01X0018334Y0022624D01*
G01X0017334Y0022624D02*
G01X0017334Y0022624D01*
G01X0017334Y0022624D02*
G01X0017334Y0020666D01*
G01X0017334Y0020666D02*
G01X0017094Y0020666D01*
G01X0017094Y0020666D02*
G01X0016546Y0020666D01*
G01X0016546Y0020666D02*
G01X0016546Y0022624D01*
G01X0016546Y0022624D02*
G01X0017334Y0022624D01*
G01X0017334Y0022624D02*
G01X0017334Y0022624D01*
G01X0016334Y0022624D02*
G01X0016334Y0022624D01*
G01X0016334Y0022624D02*
G01X0016334Y0020666D01*
G01X0016334Y0020666D02*
G01X0016094Y0020666D01*
G01X0016094Y0020666D02*
G01X0015546Y0020666D01*
G01X0015546Y0020666D02*
G01X0015546Y0022624D01*
G01X0015546Y0022624D02*
G01X0016334Y0022624D01*
G01X0016334Y0022624D02*
G01X0016334Y0022624D01*
G01X0015334Y0022624D02*
G01X0015334Y0022624D01*
G01X0015334Y0022624D02*
G01X0015334Y0020666D01*
G01X0015334Y0020666D02*
G01X0015094Y0020666D01*
G01X0015094Y0020666D02*
G01X0014546Y0020666D01*
G01X0014546Y0020666D02*
G01X0014546Y0022624D01*
G01X0014546Y0022624D02*
G01X0015334Y0022624D01*
G01X0015334Y0022624D02*
G01X0015334Y0022624D01*
G01X0014334Y0022624D02*
G01X0014334Y0022624D01*
G01X0014334Y0022624D02*
G01X0014334Y0020666D01*
G01X0014334Y0020666D02*
G01X0014094Y0020666D01*
G01X0014094Y0020666D02*
G01X0013546Y0020666D01*
G01X0013546Y0020666D02*
G01X0013546Y0022624D01*
G01X0013546Y0022624D02*
G01X0014334Y0022624D01*
G01X0014334Y0022624D02*
G01X0014334Y0022624D01*
G01X0013334Y0022624D02*
G01X0013334Y0022624D01*
G01X0013334Y0022624D02*
G01X0013334Y0020666D01*
G01X0013334Y0020666D02*
G01X0013094Y0020666D01*
G01X0013094Y0020666D02*
G01X0012546Y0020666D01*
G01X0012546Y0020666D02*
G01X0012546Y0022624D01*
G01X0012546Y0022624D02*
G01X0013334Y0022624D01*
G01X0013334Y0022624D02*
G01X0013334Y0022624D01*
G01X0012334Y0022624D02*
G01X0012334Y0022624D01*
G01X0012334Y0022624D02*
G01X0012334Y0020666D01*
G01X0012334Y0020666D02*
G01X0012094Y0020666D01*
G01X0012094Y0020666D02*
G01X0011546Y0020666D01*
G01X0011546Y0020666D02*
G01X0011546Y0022624D01*
G01X0011546Y0022624D02*
G01X0012334Y0022624D01*
G01X0012334Y0022624D02*
G01X0012334Y0022624D01*
G01X0011334Y0022624D02*
G01X0011334Y0022624D01*
G01X0011334Y0022624D02*
G01X0011334Y0020666D01*
G01X0011334Y0020666D02*
G01X0011094Y0020666D01*
G01X0011094Y0020666D02*
G01X0010546Y0020666D01*
G01X0010546Y0020666D02*
G01X0010546Y0022624D01*
G01X0010546Y0022624D02*
G01X0011334Y0022624D01*
G01X0011334Y0022624D02*
G01X0011334Y0022624D01*
G01X0010334Y0022624D02*
G01X0010334Y0022624D01*
G01X0010334Y0022624D02*
G01X0010334Y0020666D01*
G01X0010334Y0020666D02*
G01X0010094Y0020666D01*
G01X0010094Y0020666D02*
G01X0009546Y0020666D01*
G01X0009546Y0020666D02*
G01X0009546Y0022624D01*
G01X0009546Y0022624D02*
G01X0010334Y0022624D01*
G01X0010334Y0022624D02*
G01X0010334Y0022624D01*
G01X0009334Y0022624D02*
G01X0009334Y0022624D01*
G01X0009334Y0022624D02*
G01X0009334Y0020666D01*
G01X0009334Y0020666D02*
G01X0009094Y0020666D01*
G01X0009094Y0020666D02*
G01X0008546Y0020666D01*
G01X0008546Y0020666D02*
G01X0008546Y0022624D01*
G01X0008546Y0022624D02*
G01X0009334Y0022624D01*
G01X0009334Y0022624D02*
G01X0009334Y0022624D01*
G01X0008334Y0022624D02*
G01X0008334Y0022624D01*
G01X0008334Y0022624D02*
G01X0008334Y0020666D01*
G01X0008334Y0020666D02*
G01X0008094Y0020666D01*
G01X0008094Y0020666D02*
G01X0007546Y0020666D01*
G01X0007546Y0020666D02*
G01X0007546Y0022624D01*
G01X0007546Y0022624D02*
G01X0008334Y0022624D01*
G01X0008334Y0022624D02*
G01X0008334Y0022624D01*
G01X0007334Y0022624D02*
G01X0007334Y0022624D01*
G01X0007334Y0022624D02*
G01X0007334Y0020666D01*
G01X0007334Y0020666D02*
G01X0007094Y0020666D01*
G01X0007094Y0020666D02*
G01X0006546Y0020666D01*
G01X0006546Y0020666D02*
G01X0006546Y0022624D01*
G01X0006546Y0022624D02*
G01X0007334Y0022624D01*
G01X0007334Y0022624D02*
G01X0007334Y0022624D01*
G01X0006334Y0022624D02*
G01X0006334Y0022624D01*
G01X0006334Y0022624D02*
G01X0006334Y0020666D01*
G01X0006334Y0020666D02*
G01X0006094Y0020666D01*
G01X0006094Y0020666D02*
G01X0005546Y0020666D01*
G01X0005546Y0020666D02*
G01X0005546Y0022624D01*
G01X0005546Y0022624D02*
G01X0006334Y0022624D01*
G01X0006334Y0022624D02*
G01X0006334Y0022624D01*
G01X0005334Y0022624D02*
G01X0005334Y0022624D01*
G01X0001036Y0004876D02*
G01X0001036Y0004509D01*
G54D11*
G01X0001013Y0017460D02*
G01X0000860Y0017613D01*
G01X0000860Y0017613D02*
G01X0001320Y0017613D01*
G01X0001320Y0017460D02*
G01X0001320Y0017767D01*
G01X0001320Y0017920D02*
G01X0001320Y0017997D01*
G01X0001320Y0017997D02*
G01X0001243Y0017997D01*
G01X0001243Y0017997D02*
G01X0001243Y0017920D01*
G01X0001243Y0017920D02*
G01X0001320Y0017920D01*
G01X0001243Y0018151D02*
G01X0000936Y0018151D01*
G01X0000936Y0018151D02*
G01X0000860Y0018227D01*
G01X0000860Y0018227D02*
G01X0000860Y0018381D01*
G01X0000860Y0018381D02*
G01X0000936Y0018458D01*
G01X0000936Y0018458D02*
G01X0001243Y0018151D01*
G01X0001243Y0018151D02*
G01X0001320Y0018227D01*
G01X0001320Y0018227D02*
G01X0001320Y0018381D01*
G01X0001320Y0018381D02*
G01X0001243Y0018458D01*
G01X0001243Y0018458D02*
G01X0000936Y0018458D01*
G01X0001243Y0018611D02*
G01X0001243Y0018688D01*
G01X0001243Y0018688D02*
G01X0001320Y0018688D01*
G01X0001320Y0018688D02*
G01X0001320Y0018611D01*
G01X0001320Y0018611D02*
G01X0001243Y0018611D01*
G01X0001243Y0018841D02*
G01X0000936Y0018841D01*
G01X0000936Y0018841D02*
G01X0000860Y0018918D01*
G01X0000860Y0018918D02*
G01X0000860Y0019071D01*
G01X0000860Y0019071D02*
G01X0000936Y0019148D01*
G01X0000936Y0019148D02*
G01X0001243Y0018841D01*
G01X0001243Y0018841D02*
G01X0001320Y0018918D01*
G01X0001320Y0018918D02*
G01X0001320Y0019071D01*
G01X0001320Y0019071D02*
G01X0001243Y0019148D01*
G01X0001243Y0019148D02*
G01X0000936Y0019148D01*
G01X0028101Y0020029D02*
G01X0028178Y0019953D01*
G01X0028178Y0019953D02*
G01X0028331Y0019953D01*
G01X0028331Y0019953D02*
G01X0028408Y0020029D01*
G01X0028408Y0020029D02*
G01X0028408Y0020106D01*
G01X0028408Y0020106D02*
G01X0028331Y0020183D01*
G01X0028331Y0020183D02*
G01X0028178Y0020183D01*
G01X0028178Y0020183D02*
G01X0028101Y0020260D01*
G01X0028101Y0020260D02*
G01X0028101Y0020336D01*
G01X0028101Y0020336D02*
G01X0028178Y0020413D01*
G01X0028178Y0020413D02*
G01X0028331Y0020413D01*
G01X0028331Y0020413D02*
G01X0028408Y0020336D01*
G01X0028561Y0020413D02*
G01X0028561Y0019953D01*
G01X0028561Y0019953D02*
G01X0028715Y0020106D01*
G01X0028715Y0020106D02*
G01X0028868Y0019953D01*
G01X0028868Y0019953D02*
G01X0028868Y0020413D01*
G01X0029022Y0020413D02*
G01X0029252Y0020413D01*
G01X0029252Y0020413D02*
G01X0029329Y0020336D01*
G01X0029329Y0020336D02*
G01X0029329Y0020029D01*
G01X0029329Y0020029D02*
G01X0029252Y0019953D01*
G01X0029252Y0019953D02*
G01X0029022Y0019953D01*
G01X0029022Y0019953D02*
G01X0029022Y0020413D01*
G01X0029088Y0004269D02*
G01X0028781Y0004269D01*
G01X0028628Y0004269D02*
G01X0028321Y0004269D01*
G01X0028321Y0004269D02*
G01X0028321Y0003808D01*
G01X0028321Y0004038D02*
G01X0028474Y0004038D01*
G01X0028935Y0003808D02*
G01X0028935Y0004269D01*
G01X0029242Y0004269D02*
G01X0029472Y0004269D01*
G01X0029472Y0004269D02*
G01X0029548Y0004192D01*
G01X0029548Y0004192D02*
G01X0029548Y0003885D01*
G01X0029548Y0003885D02*
G01X0029472Y0003808D01*
G01X0029472Y0003808D02*
G01X0029242Y0003808D01*
G01X0029242Y0003808D02*
G01X0029242Y0004269D01*
G01X0029702Y0004269D02*
G01X0029855Y0004269D01*
G01X0029779Y0004269D02*
G01X0029779Y0003808D01*
G01X0029855Y0003808D02*
G01X0029702Y0003808D01*
G01X0030469Y0003885D02*
G01X0030546Y0003808D01*
G01X0030546Y0003808D02*
G01X0030699Y0003808D01*
G01X0030699Y0003808D02*
G01X0030776Y0003885D01*
G01X0030776Y0003885D02*
G01X0030776Y0003962D01*
G01X0030776Y0003962D02*
G01X0030699Y0004038D01*
G01X0030699Y0004038D02*
G01X0030623Y0004038D01*
G01X0030699Y0004038D02*
G01X0030776Y0004115D01*
G01X0030776Y0004115D02*
G01X0030776Y0004192D01*
G01X0030776Y0004192D02*
G01X0030699Y0004269D01*
G01X0030699Y0004269D02*
G01X0030546Y0004269D01*
G01X0030546Y0004269D02*
G01X0030469Y0004192D01*
G01X0030930Y0004115D02*
G01X0031083Y0003808D01*
G01X0031083Y0003808D02*
G01X0031237Y0004115D01*
G01X0031390Y0004192D02*
G01X0031467Y0004269D01*
G01X0031467Y0004269D02*
G01X0031620Y0004269D01*
G01X0031620Y0004269D02*
G01X0031697Y0004192D01*
G01X0031697Y0004192D02*
G01X0031697Y0004115D01*
G01X0031697Y0004115D02*
G01X0031620Y0004038D01*
G01X0031620Y0004038D02*
G01X0031697Y0003962D01*
G01X0031697Y0003962D02*
G01X0031697Y0003885D01*
G01X0031697Y0003885D02*
G01X0031620Y0003808D01*
G01X0031620Y0003808D02*
G01X0031467Y0003808D01*
G01X0031467Y0003808D02*
G01X0031390Y0003885D01*
G01X0031543Y0004038D02*
G01X0031620Y0004038D01*
G54D12*
G01X0031654Y0003634D02*
G01X0032024Y0003634D01*
G01X0032024Y0003634D02*
G01X0031654Y0003387D01*
G01X0031654Y0003387D02*
G01X0032024Y0003387D01*
G01X0032024Y0003266D02*
G01X0031901Y0003142D01*
G01X0031901Y0003204D02*
G01X0031901Y0003019D01*
G01X0032024Y0003019D02*
G01X0031654Y0003019D01*
G01X0031654Y0003019D02*
G01X0031654Y0003204D01*
G01X0031654Y0003204D02*
G01X0031716Y0003266D01*
G01X0031716Y0003266D02*
G01X0031839Y0003266D01*
G01X0031839Y0003266D02*
G01X0031901Y0003204D01*
G01X0031839Y0002898D02*
G01X0031839Y0002774D01*
G01X0031839Y0002898D02*
G01X0031963Y0002898D01*
G01X0031963Y0002898D02*
G01X0032024Y0002836D01*
G01X0032024Y0002836D02*
G01X0032024Y0002712D01*
G01X0032024Y0002712D02*
G01X0031963Y0002651D01*
G01X0031963Y0002651D02*
G01X0031716Y0002651D01*
G01X0031716Y0002651D02*
G01X0031654Y0002712D01*
G01X0031654Y0002712D02*
G01X0031654Y0002836D01*
G01X0031654Y0002836D02*
G01X0031716Y0002898D01*
G01X0030188Y0002437D02*
G01X0029817Y0002190D01*
G01X0029817Y0002069D02*
G01X0029817Y0001822D01*
G01X0029817Y0001945D02*
G01X0030188Y0001945D01*
G01X0030188Y0002190D02*
G01X0029817Y0002437D01*
G01X0029188Y0002437D02*
G01X0028817Y0002190D01*
G01X0028879Y0002069D02*
G01X0029003Y0002069D01*
G01X0029003Y0002069D02*
G01X0029064Y0002007D01*
G01X0029064Y0002007D02*
G01X0029064Y0001822D01*
G01X0029064Y0001945D02*
G01X0029188Y0002069D01*
G01X0029188Y0002190D02*
G01X0028817Y0002437D01*
G01X0028879Y0002069D02*
G01X0028817Y0002007D01*
G01X0028817Y0002007D02*
G01X0028817Y0001822D01*
G01X0028817Y0001822D02*
G01X0029188Y0001822D01*
G01X0025258Y0002552D02*
G01X0025258Y0002737D01*
G01X0025258Y0002737D02*
G01X0025196Y0002799D01*
G01X0025196Y0002799D02*
G01X0025135Y0002799D01*
G01X0025135Y0002799D02*
G01X0025073Y0002737D01*
G01X0025073Y0002737D02*
G01X0025073Y0002552D01*
G01X0025258Y0002552D02*
G01X0024888Y0002552D01*
G01X0024888Y0002552D02*
G01X0024888Y0002737D01*
G01X0024888Y0002737D02*
G01X0024949Y0002799D01*
G01X0024949Y0002799D02*
G01X0025011Y0002799D01*
G01X0025011Y0002799D02*
G01X0025073Y0002737D01*
G01X0024888Y0002920D02*
G01X0025258Y0002920D01*
G01X0025258Y0002920D02*
G01X0025258Y0003167D01*
G01X0025258Y0003289D02*
G01X0024888Y0003289D01*
G01X0025073Y0003350D02*
G01X0025258Y0003536D01*
G01X0025135Y0003289D02*
G01X0024888Y0003536D01*
G01X0014168Y0001437D02*
G01X0014168Y0001190D01*
G01X0014168Y0001314D02*
G01X0013797Y0001314D01*
G01X0013797Y0001314D02*
G01X0013921Y0001190D01*
G01X0013921Y0001069D02*
G01X0013983Y0001007D01*
G01X0013983Y0001007D02*
G01X0013983Y0000822D01*
G01X0014168Y0000822D02*
G01X0014168Y0001007D01*
G01X0014168Y0001007D02*
G01X0014106Y0001069D01*
G01X0014106Y0001069D02*
G01X0014044Y0001069D01*
G01X0014044Y0001069D02*
G01X0013983Y0001007D01*
G01X0013921Y0001069D02*
G01X0013859Y0001069D01*
G01X0013859Y0001069D02*
G01X0013797Y0001007D01*
G01X0013797Y0001007D02*
G01X0013797Y0000822D01*
G01X0013797Y0000822D02*
G01X0014168Y0000822D01*
G01X0013168Y0000822D02*
G01X0013168Y0001007D01*
G01X0013168Y0001007D02*
G01X0013106Y0001069D01*
G01X0013106Y0001069D02*
G01X0013044Y0001069D01*
G01X0013044Y0001069D02*
G01X0012983Y0001007D01*
G01X0012983Y0001007D02*
G01X0012983Y0000822D01*
G01X0013168Y0000822D02*
G01X0012797Y0000822D01*
G01X0012797Y0000822D02*
G01X0012797Y0001007D01*
G01X0012797Y0001007D02*
G01X0012859Y0001069D01*
G01X0012859Y0001069D02*
G01X0012921Y0001069D01*
G01X0012921Y0001069D02*
G01X0012983Y0001007D01*
G01X0013106Y0001190D02*
G01X0012859Y0001437D01*
G01X0012859Y0001437D02*
G01X0013106Y0001437D01*
G01X0013106Y0001437D02*
G01X0013168Y0001375D01*
G01X0013168Y0001375D02*
G01X0013168Y0001252D01*
G01X0013168Y0001252D02*
G01X0013106Y0001190D01*
G01X0013106Y0001190D02*
G01X0012859Y0001190D01*
G01X0012859Y0001190D02*
G01X0012797Y0001252D01*
G01X0012797Y0001252D02*
G01X0012797Y0001375D01*
G01X0012797Y0001375D02*
G01X0012859Y0001437D01*
G01X0012168Y0001190D02*
G01X0012106Y0001190D01*
G01X0012106Y0001190D02*
G01X0011859Y0001437D01*
G01X0011859Y0001437D02*
G01X0011797Y0001437D01*
G01X0011797Y0001437D02*
G01X0011797Y0001190D01*
G01X0011921Y0001069D02*
G01X0012168Y0001069D01*
G01X0011983Y0001069D02*
G01X0011983Y0000822D01*
G01X0011921Y0000822D02*
G01X0011797Y0000945D01*
G01X0011797Y0000945D02*
G01X0011921Y0001069D01*
G01X0011921Y0000822D02*
G01X0012168Y0000822D01*
G01X0011168Y0000822D02*
G01X0010921Y0000822D01*
G01X0010921Y0000822D02*
G01X0010797Y0000945D01*
G01X0010797Y0000945D02*
G01X0010921Y0001069D01*
G01X0010921Y0001069D02*
G01X0011168Y0001069D01*
G01X0011106Y0001190D02*
G01X0011168Y0001252D01*
G01X0011168Y0001252D02*
G01X0011168Y0001375D01*
G01X0011168Y0001375D02*
G01X0011106Y0001437D01*
G01X0011106Y0001437D02*
G01X0011044Y0001437D01*
G01X0011044Y0001437D02*
G01X0010983Y0001375D01*
G01X0010983Y0001375D02*
G01X0010983Y0001190D01*
G01X0010983Y0001190D02*
G01X0011106Y0001190D01*
G01X0010983Y0001190D02*
G01X0010859Y0001314D01*
G01X0010859Y0001314D02*
G01X0010797Y0001437D01*
G01X0010983Y0001069D02*
G01X0010983Y0000822D01*
G01X0010168Y0000822D02*
G01X0009921Y0000822D01*
G01X0009921Y0000822D02*
G01X0009797Y0000945D01*
G01X0009797Y0000945D02*
G01X0009921Y0001069D01*
G01X0009921Y0001069D02*
G01X0010168Y0001069D01*
G01X0010106Y0001190D02*
G01X0010168Y0001252D01*
G01X0010168Y0001252D02*
G01X0010168Y0001375D01*
G01X0010168Y0001375D02*
G01X0010106Y0001437D01*
G01X0010106Y0001437D02*
G01X0009983Y0001437D01*
G01X0009983Y0001437D02*
G01X0009921Y0001375D01*
G01X0009921Y0001375D02*
G01X0009921Y0001314D01*
G01X0009921Y0001314D02*
G01X0009983Y0001190D01*
G01X0009983Y0001190D02*
G01X0009797Y0001190D01*
G01X0009797Y0001190D02*
G01X0009797Y0001437D01*
G01X0009983Y0001069D02*
G01X0009983Y0000822D01*
G01X0009168Y0000822D02*
G01X0008921Y0000822D01*
G01X0008921Y0000822D02*
G01X0008797Y0000945D01*
G01X0008797Y0000945D02*
G01X0008921Y0001069D01*
G01X0008921Y0001069D02*
G01X0009168Y0001069D01*
G01X0008983Y0001069D02*
G01X0008983Y0000822D01*
G01X0008983Y0001190D02*
G01X0008983Y0001437D01*
G01X0009168Y0001375D02*
G01X0008797Y0001375D01*
G01X0008797Y0001375D02*
G01X0008983Y0001190D01*
G01X0008168Y0001252D02*
G01X0008106Y0001190D01*
G01X0008168Y0001252D02*
G01X0008168Y0001375D01*
G01X0008168Y0001375D02*
G01X0008106Y0001437D01*
G01X0008106Y0001437D02*
G01X0008044Y0001437D01*
G01X0008044Y0001437D02*
G01X0007983Y0001375D01*
G01X0007983Y0001375D02*
G01X0007983Y0001314D01*
G01X0007983Y0001375D02*
G01X0007921Y0001437D01*
G01X0007921Y0001437D02*
G01X0007859Y0001437D01*
G01X0007859Y0001437D02*
G01X0007797Y0001375D01*
G01X0007797Y0001375D02*
G01X0007797Y0001252D01*
G01X0007797Y0001252D02*
G01X0007859Y0001190D01*
G01X0007921Y0001069D02*
G01X0008168Y0001069D01*
G01X0007983Y0001069D02*
G01X0007983Y0000822D01*
G01X0007921Y0000822D02*
G01X0008168Y0000822D01*
G01X0007921Y0000822D02*
G01X0007797Y0000945D01*
G01X0007797Y0000945D02*
G01X0007921Y0001069D01*
G01X0007168Y0001069D02*
G01X0006921Y0001069D01*
G01X0006921Y0001069D02*
G01X0006797Y0000945D01*
G01X0006797Y0000945D02*
G01X0006921Y0000822D01*
G01X0006921Y0000822D02*
G01X0007168Y0000822D01*
G01X0006983Y0000822D02*
G01X0006983Y0001069D01*
G01X0006859Y0001190D02*
G01X0006797Y0001252D01*
G01X0006797Y0001252D02*
G01X0006797Y0001375D01*
G01X0006797Y0001375D02*
G01X0006859Y0001437D01*
G01X0006859Y0001437D02*
G01X0006921Y0001437D01*
G01X0006921Y0001437D02*
G01X0007168Y0001190D01*
G01X0007168Y0001190D02*
G01X0007168Y0001437D01*
G01X0006168Y0001437D02*
G01X0006168Y0001190D01*
G01X0006168Y0001069D02*
G01X0005921Y0001069D01*
G01X0005921Y0001069D02*
G01X0005797Y0000945D01*
G01X0005797Y0000945D02*
G01X0005921Y0000822D01*
G01X0005921Y0000822D02*
G01X0006168Y0000822D01*
G01X0005983Y0000822D02*
G01X0005983Y0001069D01*
G01X0005921Y0001190D02*
G01X0005797Y0001314D01*
G01X0005797Y0001314D02*
G01X0006168Y0001314D01*
G01X0005168Y0001375D02*
G01X0005168Y0001252D01*
G01X0005168Y0001252D02*
G01X0005106Y0001190D01*
G01X0005106Y0001190D02*
G01X0004859Y0001437D01*
G01X0004859Y0001437D02*
G01X0005106Y0001437D01*
G01X0005106Y0001437D02*
G01X0005168Y0001375D01*
G01X0005106Y0001190D02*
G01X0004859Y0001190D01*
G01X0004859Y0001190D02*
G01X0004797Y0001252D01*
G01X0004797Y0001252D02*
G01X0004797Y0001375D01*
G01X0004797Y0001375D02*
G01X0004859Y0001437D01*
G01X0004921Y0001069D02*
G01X0005168Y0001069D01*
G01X0004983Y0001069D02*
G01X0004983Y0000822D01*
G01X0004921Y0000822D02*
G01X0004797Y0000945D01*
G01X0004797Y0000945D02*
G01X0004921Y0001069D01*
G01X0004921Y0000822D02*
G01X0005168Y0000822D01*
G01X0005712Y0022752D02*
G01X0005712Y0022937D01*
G01X0005712Y0022937D02*
G01X0005774Y0022998D01*
G01X0005774Y0022998D02*
G01X0005835Y0022998D01*
G01X0005835Y0022998D02*
G01X0005897Y0022937D01*
G01X0005897Y0022937D02*
G01X0005897Y0022752D01*
G01X0005897Y0022937D02*
G01X0005959Y0022998D01*
G01X0005959Y0022998D02*
G01X0006021Y0022998D01*
G01X0006021Y0022998D02*
G01X0006082Y0022937D01*
G01X0006082Y0022937D02*
G01X0006082Y0022752D01*
G01X0006082Y0022752D02*
G01X0005712Y0022752D01*
G01X0005774Y0023120D02*
G01X0005835Y0023120D01*
G01X0005835Y0023120D02*
G01X0005897Y0023182D01*
G01X0005897Y0023182D02*
G01X0005897Y0023367D01*
G01X0005774Y0023367D02*
G01X0006021Y0023367D01*
G01X0006021Y0023367D02*
G01X0006082Y0023305D01*
G01X0006082Y0023305D02*
G01X0006082Y0023182D01*
G01X0006082Y0023182D02*
G01X0006021Y0023120D01*
G01X0005774Y0023120D02*
G01X0005712Y0023182D01*
G01X0005712Y0023182D02*
G01X0005712Y0023305D01*
G01X0005712Y0023305D02*
G01X0005774Y0023367D01*
G01X0006712Y0023305D02*
G01X0006774Y0023367D01*
G01X0006774Y0023367D02*
G01X0006835Y0023367D01*
G01X0006835Y0023367D02*
G01X0006897Y0023305D01*
G01X0006897Y0023305D02*
G01X0006897Y0023182D01*
G01X0006897Y0023182D02*
G01X0006835Y0023120D01*
G01X0006835Y0023120D02*
G01X0006774Y0023120D01*
G01X0006774Y0023120D02*
G01X0006712Y0023182D01*
G01X0006712Y0023182D02*
G01X0006712Y0023305D01*
G01X0006897Y0023305D02*
G01X0006959Y0023367D01*
G01X0006959Y0023367D02*
G01X0007021Y0023367D01*
G01X0007021Y0023367D02*
G01X0007082Y0023305D01*
G01X0007082Y0023305D02*
G01X0007082Y0023182D01*
G01X0007082Y0023182D02*
G01X0007021Y0023120D01*
G01X0007021Y0023120D02*
G01X0006959Y0023120D01*
G01X0006959Y0023120D02*
G01X0006897Y0023182D01*
G01X0006835Y0022998D02*
G01X0006897Y0022937D01*
G01X0006897Y0022937D02*
G01X0006897Y0022752D01*
G01X0006897Y0022937D02*
G01X0006959Y0022998D01*
G01X0006959Y0022998D02*
G01X0007021Y0022998D01*
G01X0007021Y0022998D02*
G01X0007082Y0022937D01*
G01X0007082Y0022937D02*
G01X0007082Y0022752D01*
G01X0007082Y0022752D02*
G01X0006712Y0022752D01*
G01X0006712Y0022752D02*
G01X0006712Y0022937D01*
G01X0006712Y0022937D02*
G01X0006774Y0022998D01*
G01X0006774Y0022998D02*
G01X0006835Y0022998D01*
G01X0007712Y0022937D02*
G01X0007712Y0022752D01*
G01X0007712Y0022752D02*
G01X0008082Y0022752D01*
G01X0008082Y0022752D02*
G01X0008082Y0022937D01*
G01X0008082Y0022937D02*
G01X0008021Y0022998D01*
G01X0008021Y0022998D02*
G01X0007959Y0022998D01*
G01X0007959Y0022998D02*
G01X0007897Y0022937D01*
G01X0007897Y0022937D02*
G01X0007897Y0022752D01*
G01X0007897Y0022937D02*
G01X0007835Y0022998D01*
G01X0007835Y0022998D02*
G01X0007774Y0022998D01*
G01X0007774Y0022998D02*
G01X0007712Y0022937D01*
G01X0007712Y0023120D02*
G01X0007712Y0023367D01*
G01X0007712Y0023367D02*
G01X0007774Y0023367D01*
G01X0007774Y0023367D02*
G01X0008021Y0023120D01*
G01X0008021Y0023120D02*
G01X0008082Y0023120D01*
G01X0008712Y0022937D02*
G01X0008712Y0022752D01*
G01X0008712Y0022752D02*
G01X0009082Y0022752D01*
G01X0009082Y0022752D02*
G01X0009082Y0022937D01*
G01X0009082Y0022937D02*
G01X0009021Y0022998D01*
G01X0009021Y0022998D02*
G01X0008959Y0022998D01*
G01X0008959Y0022998D02*
G01X0008897Y0022937D01*
G01X0008897Y0022937D02*
G01X0008897Y0022752D01*
G01X0008897Y0022937D02*
G01X0008835Y0022998D01*
G01X0008835Y0022998D02*
G01X0008774Y0022998D01*
G01X0008774Y0022998D02*
G01X0008712Y0022937D01*
G01X0008897Y0023120D02*
G01X0008897Y0023305D01*
G01X0008897Y0023305D02*
G01X0008959Y0023367D01*
G01X0008959Y0023367D02*
G01X0009021Y0023367D01*
G01X0009021Y0023367D02*
G01X0009082Y0023305D01*
G01X0009082Y0023305D02*
G01X0009082Y0023182D01*
G01X0009082Y0023182D02*
G01X0009021Y0023120D01*
G01X0009021Y0023120D02*
G01X0008897Y0023120D01*
G01X0008897Y0023120D02*
G01X0008774Y0023243D01*
G01X0008774Y0023243D02*
G01X0008712Y0023367D01*
G01X0009712Y0023367D02*
G01X0009712Y0023120D01*
G01X0009712Y0023120D02*
G01X0009897Y0023120D01*
G01X0009897Y0023120D02*
G01X0009835Y0023243D01*
G01X0009835Y0023243D02*
G01X0009835Y0023305D01*
G01X0009835Y0023305D02*
G01X0009897Y0023367D01*
G01X0009897Y0023367D02*
G01X0010021Y0023367D01*
G01X0010021Y0023367D02*
G01X0010082Y0023305D01*
G01X0010082Y0023305D02*
G01X0010082Y0023182D01*
G01X0010082Y0023182D02*
G01X0010021Y0023120D01*
G01X0010021Y0022998D02*
G01X0010082Y0022937D01*
G01X0010082Y0022937D02*
G01X0010082Y0022752D01*
G01X0010082Y0022752D02*
G01X0009712Y0022752D01*
G01X0009712Y0022752D02*
G01X0009712Y0022937D01*
G01X0009712Y0022937D02*
G01X0009774Y0022998D01*
G01X0009774Y0022998D02*
G01X0009835Y0022998D01*
G01X0009835Y0022998D02*
G01X0009897Y0022937D01*
G01X0009897Y0022937D02*
G01X0009897Y0022752D01*
G01X0009897Y0022937D02*
G01X0009959Y0022998D01*
G01X0009959Y0022998D02*
G01X0010021Y0022998D01*
G01X0010712Y0022937D02*
G01X0010712Y0022752D01*
G01X0010712Y0022752D02*
G01X0011082Y0022752D01*
G01X0011082Y0022752D02*
G01X0011082Y0022937D01*
G01X0011082Y0022937D02*
G01X0011021Y0022998D01*
G01X0011021Y0022998D02*
G01X0010959Y0022998D01*
G01X0010959Y0022998D02*
G01X0010897Y0022937D01*
G01X0010897Y0022937D02*
G01X0010897Y0022752D01*
G01X0010897Y0022937D02*
G01X0010835Y0022998D01*
G01X0010835Y0022998D02*
G01X0010774Y0022998D01*
G01X0010774Y0022998D02*
G01X0010712Y0022937D01*
G01X0010897Y0023120D02*
G01X0010712Y0023305D01*
G01X0010712Y0023305D02*
G01X0011082Y0023305D01*
G01X0010897Y0023367D02*
G01X0010897Y0023120D01*
G01X0011712Y0023182D02*
G01X0011774Y0023120D01*
G01X0011712Y0023182D02*
G01X0011712Y0023305D01*
G01X0011712Y0023305D02*
G01X0011774Y0023367D01*
G01X0011774Y0023367D02*
G01X0011835Y0023367D01*
G01X0011835Y0023367D02*
G01X0012082Y0023120D01*
G01X0012082Y0023120D02*
G01X0012082Y0023367D01*
G01X0012021Y0022998D02*
G01X0011774Y0022998D01*
G01X0011774Y0022998D02*
G01X0011712Y0022937D01*
G01X0011712Y0022937D02*
G01X0011712Y0022752D01*
G01X0011712Y0022752D02*
G01X0012082Y0022752D01*
G01X0012082Y0022752D02*
G01X0012082Y0022937D01*
G01X0012082Y0022937D02*
G01X0012021Y0022998D01*
G01X0018712Y0022875D02*
G01X0018835Y0022752D01*
G01X0018835Y0022752D02*
G01X0019082Y0022752D01*
G01X0018897Y0022752D02*
G01X0018897Y0022998D01*
G01X0018835Y0022998D02*
G01X0019082Y0022998D01*
G01X0019021Y0023120D02*
G01X0019082Y0023182D01*
G01X0019082Y0023182D02*
G01X0019082Y0023305D01*
G01X0019082Y0023305D02*
G01X0019021Y0023367D01*
G01X0019021Y0023367D02*
G01X0018774Y0023367D01*
G01X0018774Y0023367D02*
G01X0018712Y0023305D01*
G01X0018712Y0023305D02*
G01X0018712Y0023182D01*
G01X0018712Y0023182D02*
G01X0018774Y0023120D01*
G01X0018774Y0023120D02*
G01X0018835Y0023120D01*
G01X0018835Y0023120D02*
G01X0018897Y0023182D01*
G01X0018897Y0023182D02*
G01X0018897Y0023367D01*
G01X0018835Y0022998D02*
G01X0018712Y0022875D01*
G01X0019712Y0022875D02*
G01X0019835Y0022998D01*
G01X0019835Y0022998D02*
G01X0020082Y0022998D01*
G01X0020021Y0023120D02*
G01X0019959Y0023120D01*
G01X0019959Y0023120D02*
G01X0019897Y0023182D01*
G01X0019897Y0023182D02*
G01X0019897Y0023305D01*
G01X0019897Y0023305D02*
G01X0019959Y0023367D01*
G01X0019959Y0023367D02*
G01X0020021Y0023367D01*
G01X0020021Y0023367D02*
G01X0020082Y0023305D01*
G01X0020082Y0023305D02*
G01X0020082Y0023182D01*
G01X0020082Y0023182D02*
G01X0020021Y0023120D01*
G01X0019897Y0023182D02*
G01X0019835Y0023120D01*
G01X0019835Y0023120D02*
G01X0019774Y0023120D01*
G01X0019774Y0023120D02*
G01X0019712Y0023182D01*
G01X0019712Y0023182D02*
G01X0019712Y0023305D01*
G01X0019712Y0023305D02*
G01X0019774Y0023367D01*
G01X0019774Y0023367D02*
G01X0019835Y0023367D01*
G01X0019835Y0023367D02*
G01X0019897Y0023305D01*
G01X0019897Y0022998D02*
G01X0019897Y0022752D01*
G01X0019835Y0022752D02*
G01X0019712Y0022875D01*
G01X0019835Y0022752D02*
G01X0020082Y0022752D01*
G01X0020712Y0022813D02*
G01X0020712Y0022937D01*
G01X0020712Y0022937D02*
G01X0020774Y0022998D01*
G01X0020774Y0023120D02*
G01X0020712Y0023182D01*
G01X0020712Y0023182D02*
G01X0020712Y0023305D01*
G01X0020712Y0023305D02*
G01X0020774Y0023367D01*
G01X0020774Y0023367D02*
G01X0021021Y0023367D01*
G01X0021021Y0023367D02*
G01X0021082Y0023305D01*
G01X0021082Y0023305D02*
G01X0021082Y0023182D01*
G01X0021082Y0023182D02*
G01X0021021Y0023120D01*
G01X0021021Y0022998D02*
G01X0021082Y0022937D01*
G01X0021082Y0022937D02*
G01X0021082Y0022813D01*
G01X0021082Y0022813D02*
G01X0021021Y0022752D01*
G01X0021021Y0022752D02*
G01X0020774Y0022752D01*
G01X0020774Y0022752D02*
G01X0020712Y0022813D01*
G01X0020774Y0023120D02*
G01X0020835Y0023120D01*
G01X0020835Y0023120D02*
G01X0020897Y0023182D01*
G01X0020897Y0023182D02*
G01X0020897Y0023367D01*
G01X0021712Y0023305D02*
G01X0021774Y0023367D01*
G01X0021774Y0023367D02*
G01X0021835Y0023367D01*
G01X0021835Y0023367D02*
G01X0021897Y0023305D01*
G01X0021897Y0023305D02*
G01X0021897Y0023182D01*
G01X0021897Y0023182D02*
G01X0021835Y0023120D01*
G01X0021835Y0023120D02*
G01X0021774Y0023120D01*
G01X0021774Y0023120D02*
G01X0021712Y0023182D01*
G01X0021712Y0023182D02*
G01X0021712Y0023305D01*
G01X0021897Y0023305D02*
G01X0021959Y0023367D01*
G01X0021959Y0023367D02*
G01X0022021Y0023367D01*
G01X0022021Y0023367D02*
G01X0022082Y0023305D01*
G01X0022082Y0023305D02*
G01X0022082Y0023182D01*
G01X0022082Y0023182D02*
G01X0022021Y0023120D01*
G01X0022021Y0023120D02*
G01X0021959Y0023120D01*
G01X0021959Y0023120D02*
G01X0021897Y0023182D01*
G01X0021774Y0022998D02*
G01X0021712Y0022937D01*
G01X0021712Y0022937D02*
G01X0021712Y0022813D01*
G01X0021712Y0022813D02*
G01X0021774Y0022752D01*
G01X0021774Y0022752D02*
G01X0022021Y0022752D01*
G01X0022021Y0022752D02*
G01X0022082Y0022813D01*
G01X0022082Y0022813D02*
G01X0022082Y0022937D01*
G01X0022082Y0022937D02*
G01X0022021Y0022998D01*
G01X0022712Y0022937D02*
G01X0022712Y0022813D01*
G01X0022712Y0022813D02*
G01X0022774Y0022752D01*
G01X0022774Y0022752D02*
G01X0023021Y0022752D01*
G01X0023021Y0022752D02*
G01X0023082Y0022813D01*
G01X0023082Y0022813D02*
G01X0023082Y0022937D01*
G01X0023082Y0022937D02*
G01X0023021Y0022998D01*
G01X0023021Y0023120D02*
G01X0023082Y0023120D01*
G01X0023021Y0023120D02*
G01X0022774Y0023367D01*
G01X0022774Y0023367D02*
G01X0022712Y0023367D01*
G01X0022712Y0023367D02*
G01X0022712Y0023120D01*
G01X0022774Y0022998D02*
G01X0022712Y0022937D01*
G01X0023712Y0022937D02*
G01X0023712Y0022813D01*
G01X0023712Y0022813D02*
G01X0023774Y0022752D01*
G01X0023774Y0022752D02*
G01X0024021Y0022752D01*
G01X0024021Y0022752D02*
G01X0024082Y0022813D01*
G01X0024082Y0022813D02*
G01X0024082Y0022937D01*
G01X0024082Y0022937D02*
G01X0024021Y0022998D01*
G01X0024021Y0023120D02*
G01X0024082Y0023182D01*
G01X0024082Y0023182D02*
G01X0024082Y0023305D01*
G01X0024082Y0023305D02*
G01X0024021Y0023367D01*
G01X0024021Y0023367D02*
G01X0023959Y0023367D01*
G01X0023959Y0023367D02*
G01X0023897Y0023305D01*
G01X0023897Y0023305D02*
G01X0023897Y0023120D01*
G01X0023897Y0023120D02*
G01X0024021Y0023120D01*
G01X0023897Y0023120D02*
G01X0023774Y0023243D01*
G01X0023774Y0023243D02*
G01X0023712Y0023367D01*
G01X0023774Y0022998D02*
G01X0023712Y0022937D01*
G54D13*
G01X0025807Y0022439D02*
G01X0025854Y0022486D01*
G01X0025854Y0022486D02*
G01X0026041Y0022486D01*
G01X0026041Y0022486D02*
G01X0026087Y0022439D01*
G01X0026087Y0022439D02*
G01X0026087Y0022346D01*
G01X0026087Y0022346D02*
G01X0026041Y0022299D01*
G01X0026041Y0022299D02*
G01X0025854Y0022299D01*
G01X0025854Y0022299D02*
G01X0025807Y0022346D01*
G01X0025807Y0022346D02*
G01X0025807Y0022439D01*
G01X0025807Y0022210D02*
G01X0026087Y0022210D01*
G01X0026087Y0022210D02*
G01X0025994Y0022116D01*
G01X0025994Y0022116D02*
G01X0026087Y0022023D01*
G01X0026087Y0022023D02*
G01X0025807Y0022023D01*
G01X0025854Y0021933D02*
G01X0025807Y0021887D01*
G01X0025807Y0021887D02*
G01X0025807Y0021793D01*
G01X0025807Y0021793D02*
G01X0025854Y0021747D01*
G01X0025854Y0021747D02*
G01X0025900Y0021747D01*
G01X0025900Y0021747D02*
G01X0025947Y0021793D01*
G01X0025947Y0021793D02*
G01X0025947Y0021887D01*
G01X0025947Y0021887D02*
G01X0025994Y0021933D01*
G01X0025994Y0021933D02*
G01X0026041Y0021933D01*
G01X0026041Y0021933D02*
G01X0026087Y0021887D01*
G01X0026087Y0021887D02*
G01X0026087Y0021793D01*
G01X0026087Y0021793D02*
G01X0026041Y0021747D01*
G01X0026807Y0021747D02*
G01X0026807Y0021887D01*
G01X0026807Y0021887D02*
G01X0026854Y0021933D01*
G01X0026854Y0021933D02*
G01X0026947Y0021933D01*
G01X0026947Y0021933D02*
G01X0026994Y0021887D01*
G01X0026994Y0021887D02*
G01X0026994Y0021747D01*
G01X0026994Y0021840D02*
G01X0027087Y0021933D01*
G01X0027041Y0022023D02*
G01X0027087Y0022070D01*
G01X0027087Y0022070D02*
G01X0027087Y0022163D01*
G01X0027087Y0022163D02*
G01X0027041Y0022210D01*
G01X0027041Y0022210D02*
G01X0026994Y0022210D01*
G01X0026994Y0022210D02*
G01X0026947Y0022163D01*
G01X0026947Y0022163D02*
G01X0026947Y0022070D01*
G01X0026947Y0022070D02*
G01X0026900Y0022023D01*
G01X0026900Y0022023D02*
G01X0026854Y0022023D01*
G01X0026854Y0022023D02*
G01X0026807Y0022070D01*
G01X0026807Y0022070D02*
G01X0026807Y0022163D01*
G01X0026807Y0022163D02*
G01X0026854Y0022210D01*
G01X0026807Y0022299D02*
G01X0026807Y0022486D01*
G01X0026807Y0022392D02*
G01X0027087Y0022392D01*
G01X0027807Y0022439D02*
G01X0027807Y0022299D01*
G01X0027807Y0022299D02*
G01X0028087Y0022299D01*
G01X0028087Y0022299D02*
G01X0028087Y0022439D01*
G01X0028087Y0022439D02*
G01X0028041Y0022486D01*
G01X0028041Y0022486D02*
G01X0027854Y0022486D01*
G01X0027854Y0022486D02*
G01X0027807Y0022439D01*
G01X0027807Y0022210D02*
G01X0028087Y0022210D01*
G01X0028087Y0022210D02*
G01X0027994Y0022116D01*
G01X0027994Y0022116D02*
G01X0028087Y0022023D01*
G01X0028087Y0022023D02*
G01X0027807Y0022023D01*
G01X0027854Y0021933D02*
G01X0027807Y0021887D01*
G01X0027807Y0021887D02*
G01X0027807Y0021793D01*
G01X0027807Y0021793D02*
G01X0027854Y0021747D01*
G01X0027854Y0021747D02*
G01X0027900Y0021747D01*
G01X0027900Y0021747D02*
G01X0027947Y0021793D01*
G01X0027947Y0021793D02*
G01X0027947Y0021887D01*
G01X0027947Y0021887D02*
G01X0027994Y0021933D01*
G01X0027994Y0021933D02*
G01X0028041Y0021933D01*
G01X0028041Y0021933D02*
G01X0028087Y0021887D01*
G01X0028087Y0021887D02*
G01X0028087Y0021793D01*
G01X0028087Y0021793D02*
G01X0028041Y0021747D01*
G01X0028807Y0021793D02*
G01X0028854Y0021747D01*
G01X0028854Y0021747D02*
G01X0029041Y0021747D01*
G01X0029041Y0021747D02*
G01X0029087Y0021793D01*
G01X0029087Y0021793D02*
G01X0029087Y0021887D01*
G01X0029087Y0021887D02*
G01X0029041Y0021933D01*
G01X0029041Y0021933D02*
G01X0028947Y0021933D01*
G01X0028947Y0021933D02*
G01X0028947Y0021840D01*
G01X0028854Y0021933D02*
G01X0028807Y0021887D01*
G01X0028807Y0021887D02*
G01X0028807Y0021793D01*
G01X0028807Y0022023D02*
G01X0029087Y0022210D01*
G01X0029087Y0022210D02*
G01X0028807Y0022210D01*
G01X0028807Y0022299D02*
G01X0028807Y0022439D01*
G01X0028807Y0022439D02*
G01X0028854Y0022486D01*
G01X0028854Y0022486D02*
G01X0029041Y0022486D01*
G01X0029041Y0022486D02*
G01X0029087Y0022439D01*
G01X0029087Y0022439D02*
G01X0029087Y0022299D01*
G01X0029087Y0022299D02*
G01X0028807Y0022299D01*
G01X0028807Y0022023D02*
G01X0029087Y0022023D01*
G01X0029807Y0022023D02*
G01X0030087Y0022023D01*
G01X0030087Y0022023D02*
G01X0029994Y0022116D01*
G01X0029994Y0022116D02*
G01X0030087Y0022210D01*
G01X0030087Y0022210D02*
G01X0029807Y0022210D01*
G01X0029854Y0022299D02*
G01X0030041Y0022299D01*
G01X0030041Y0022299D02*
G01X0030087Y0022346D01*
G01X0030087Y0022346D02*
G01X0030087Y0022439D01*
G01X0030087Y0022439D02*
G01X0030041Y0022486D01*
G01X0029854Y0022486D02*
G01X0029807Y0022439D01*
G01X0029807Y0022439D02*
G01X0029807Y0022346D01*
G01X0029807Y0022346D02*
G01X0029854Y0022299D01*
G01X0029854Y0021933D02*
G01X0029807Y0021887D01*
G01X0029807Y0021887D02*
G01X0029807Y0021793D01*
G01X0029807Y0021793D02*
G01X0029854Y0021747D01*
G01X0029854Y0021747D02*
G01X0029900Y0021747D01*
G01X0029900Y0021747D02*
G01X0029947Y0021793D01*
G01X0029947Y0021793D02*
G01X0029947Y0021887D01*
G01X0029947Y0021887D02*
G01X0029994Y0021933D01*
G01X0029994Y0021933D02*
G01X0030041Y0021933D01*
G01X0030041Y0021933D02*
G01X0030087Y0021887D01*
G01X0030087Y0021887D02*
G01X0030087Y0021793D01*
G01X0030087Y0021793D02*
G01X0030041Y0021747D01*
G01X0030807Y0021747D02*
G01X0030994Y0021747D01*
G01X0030994Y0021747D02*
G01X0031087Y0021840D01*
G01X0031087Y0021840D02*
G01X0030994Y0021933D01*
G01X0030994Y0021933D02*
G01X0030807Y0021933D01*
G01X0030900Y0022023D02*
G01X0031087Y0022023D01*
G01X0030994Y0022023D02*
G01X0030900Y0022116D01*
G01X0030900Y0022116D02*
G01X0030900Y0022163D01*
G01X0030947Y0022253D02*
G01X0030900Y0022300D01*
G01X0030900Y0022300D02*
G01X0030900Y0022393D01*
G01X0030900Y0022393D02*
G01X0030947Y0022440D01*
G01X0030947Y0022440D02*
G01X0030994Y0022440D01*
G01X0030994Y0022440D02*
G01X0030994Y0022253D01*
G01X0031041Y0022253D02*
G01X0030947Y0022253D01*
G01X0031041Y0022253D02*
G01X0031087Y0022300D01*
G01X0031087Y0022300D02*
G01X0031087Y0022393D01*
G01X0031087Y0022576D02*
G01X0030854Y0022576D01*
G01X0030854Y0022576D02*
G01X0030807Y0022623D01*
G01X0030947Y0022623D02*
G01X0030947Y0022529D01*
G01X0027087Y0021747D02*
G01X0026807Y0021747D01*
G01X0018087Y0022747D02*
G01X0017900Y0022747D01*
G01X0017900Y0022747D02*
G01X0017807Y0022840D01*
G01X0017807Y0022840D02*
G01X0017900Y0022933D01*
G01X0017900Y0022933D02*
G01X0018087Y0022933D01*
G01X0018087Y0023023D02*
G01X0018087Y0023210D01*
G01X0018087Y0023116D02*
G01X0017807Y0023116D01*
G01X0017807Y0023116D02*
G01X0017900Y0023023D01*
G01X0017947Y0022933D02*
G01X0017947Y0022747D01*
G01X0017854Y0023299D02*
G01X0017807Y0023346D01*
G01X0017807Y0023346D02*
G01X0017807Y0023439D01*
G01X0017807Y0023439D02*
G01X0017854Y0023486D01*
G01X0017854Y0023486D02*
G01X0018041Y0023299D01*
G01X0018041Y0023299D02*
G01X0018087Y0023346D01*
G01X0018087Y0023346D02*
G01X0018087Y0023439D01*
G01X0018087Y0023439D02*
G01X0018041Y0023486D01*
G01X0018041Y0023486D02*
G01X0017854Y0023486D01*
G01X0017854Y0023299D02*
G01X0018041Y0023299D01*
G01X0017087Y0023299D02*
G01X0017087Y0023486D01*
G01X0017087Y0023392D02*
G01X0016807Y0023392D01*
G01X0016807Y0023392D02*
G01X0016900Y0023299D01*
G01X0016807Y0023116D02*
G01X0017087Y0023116D01*
G01X0017087Y0023023D02*
G01X0017087Y0023210D01*
G01X0016900Y0023023D02*
G01X0016807Y0023116D01*
G01X0016900Y0022933D02*
G01X0017087Y0022933D01*
G01X0016947Y0022933D02*
G01X0016947Y0022747D01*
G01X0016900Y0022747D02*
G01X0016807Y0022840D01*
G01X0016807Y0022840D02*
G01X0016900Y0022933D01*
G01X0016900Y0022747D02*
G01X0017087Y0022747D01*
G01X0016087Y0022747D02*
G01X0015900Y0022747D01*
G01X0015900Y0022747D02*
G01X0015807Y0022840D01*
G01X0015807Y0022840D02*
G01X0015900Y0022933D01*
G01X0015900Y0022933D02*
G01X0016087Y0022933D01*
G01X0016087Y0023023D02*
G01X0016087Y0023210D01*
G01X0016087Y0023299D02*
G01X0015900Y0023486D01*
G01X0015900Y0023486D02*
G01X0015854Y0023486D01*
G01X0015854Y0023486D02*
G01X0015807Y0023439D01*
G01X0015807Y0023439D02*
G01X0015807Y0023346D01*
G01X0015807Y0023346D02*
G01X0015854Y0023299D01*
G01X0015807Y0023116D02*
G01X0016087Y0023116D01*
G01X0016087Y0023299D02*
G01X0016087Y0023486D01*
G01X0015807Y0023116D02*
G01X0015900Y0023023D01*
G01X0015947Y0022933D02*
G01X0015947Y0022747D01*
G01X0015087Y0022793D02*
G01X0015087Y0022887D01*
G01X0015087Y0022887D02*
G01X0015041Y0022933D01*
G01X0015087Y0023023D02*
G01X0015087Y0023210D01*
G01X0015087Y0023116D02*
G01X0014807Y0023116D01*
G01X0014807Y0023116D02*
G01X0014900Y0023023D01*
G01X0014854Y0022933D02*
G01X0014807Y0022887D01*
G01X0014807Y0022887D02*
G01X0014807Y0022793D01*
G01X0014807Y0022793D02*
G01X0014854Y0022747D01*
G01X0014854Y0022747D02*
G01X0015041Y0022747D01*
G01X0015041Y0022747D02*
G01X0015087Y0022793D01*
G01X0015041Y0023299D02*
G01X0014854Y0023299D01*
G01X0014854Y0023299D02*
G01X0014807Y0023346D01*
G01X0014807Y0023346D02*
G01X0014807Y0023439D01*
G01X0014807Y0023439D02*
G01X0014854Y0023486D01*
G01X0014854Y0023486D02*
G01X0015041Y0023299D01*
G01X0015041Y0023299D02*
G01X0015087Y0023346D01*
G01X0015087Y0023346D02*
G01X0015087Y0023439D01*
G01X0015087Y0023439D02*
G01X0015041Y0023486D01*
G01X0015041Y0023486D02*
G01X0014854Y0023486D01*
G01X0014087Y0023486D02*
G01X0014087Y0023299D01*
G01X0014087Y0023210D02*
G01X0014087Y0023023D01*
G01X0014087Y0023116D02*
G01X0013807Y0023116D01*
G01X0013807Y0023116D02*
G01X0013900Y0023023D01*
G01X0013854Y0022933D02*
G01X0013807Y0022887D01*
G01X0013807Y0022887D02*
G01X0013807Y0022793D01*
G01X0013807Y0022793D02*
G01X0013854Y0022747D01*
G01X0013854Y0022747D02*
G01X0014041Y0022747D01*
G01X0014041Y0022747D02*
G01X0014087Y0022793D01*
G01X0014087Y0022793D02*
G01X0014087Y0022887D01*
G01X0014087Y0022887D02*
G01X0014041Y0022933D01*
G01X0013900Y0023299D02*
G01X0013807Y0023392D01*
G01X0013807Y0023392D02*
G01X0014087Y0023392D01*
G01X0013087Y0023299D02*
G01X0012900Y0023486D01*
G01X0012900Y0023486D02*
G01X0012854Y0023486D01*
G01X0012854Y0023486D02*
G01X0012807Y0023439D01*
G01X0012807Y0023439D02*
G01X0012807Y0023346D01*
G01X0012807Y0023346D02*
G01X0012854Y0023299D01*
G01X0012807Y0023116D02*
G01X0013087Y0023116D01*
G01X0013087Y0023023D02*
G01X0013087Y0023210D01*
G01X0013087Y0023299D02*
G01X0013087Y0023486D01*
G01X0012807Y0023116D02*
G01X0012900Y0023023D01*
G01X0012854Y0022933D02*
G01X0012807Y0022887D01*
G01X0012807Y0022887D02*
G01X0012807Y0022793D01*
G01X0012807Y0022793D02*
G01X0012854Y0022747D01*
G01X0012854Y0022747D02*
G01X0013041Y0022747D01*
G01X0013041Y0022747D02*
G01X0013087Y0022793D01*
G01X0013087Y0022793D02*
G01X0013087Y0022887D01*
G01X0013087Y0022887D02*
G01X0013041Y0022933D01*
G01X0005087Y0022933D02*
G01X0004994Y0022840D01*
G01X0004994Y0022887D02*
G01X0004994Y0022747D01*
G01X0005087Y0022747D02*
G01X0004807Y0022747D01*
G01X0004807Y0022747D02*
G01X0004807Y0022887D01*
G01X0004807Y0022887D02*
G01X0004854Y0022933D01*
G01X0004854Y0022933D02*
G01X0004947Y0022933D01*
G01X0004947Y0022933D02*
G01X0004994Y0022887D01*
G01X0005041Y0023023D02*
G01X0005087Y0023070D01*
G01X0005087Y0023070D02*
G01X0005087Y0023163D01*
G01X0005087Y0023163D02*
G01X0005041Y0023210D01*
G01X0005041Y0023210D02*
G01X0004994Y0023210D01*
G01X0004994Y0023210D02*
G01X0004947Y0023163D01*
G01X0004947Y0023163D02*
G01X0004947Y0023070D01*
G01X0004947Y0023070D02*
G01X0004900Y0023023D01*
G01X0004900Y0023023D02*
G01X0004854Y0023023D01*
G01X0004854Y0023023D02*
G01X0004807Y0023070D01*
G01X0004807Y0023070D02*
G01X0004807Y0023163D01*
G01X0004807Y0023163D02*
G01X0004854Y0023210D01*
G01X0004807Y0023299D02*
G01X0004807Y0023486D01*
G01X0004807Y0023392D02*
G01X0005087Y0023392D01*
G01X0020839Y0005464D02*
G01X0020793Y0005417D01*
G01X0020793Y0005417D02*
G01X0020793Y0005277D01*
G01X0020793Y0005277D02*
G01X0021073Y0005277D01*
G01X0021073Y0005277D02*
G01X0021073Y0005417D01*
G01X0021073Y0005417D02*
G01X0021026Y0005464D01*
G01X0021026Y0005464D02*
G01X0020839Y0005464D01*
G01X0020793Y0005188D02*
G01X0021073Y0005188D01*
G01X0021073Y0005188D02*
G01X0020793Y0005001D01*
G01X0020793Y0005001D02*
G01X0021073Y0005001D01*
G01X0021026Y0004912D02*
G01X0020933Y0004912D01*
G01X0020933Y0004912D02*
G01X0020933Y0004818D01*
G01X0021026Y0004725D02*
G01X0021073Y0004771D01*
G01X0021073Y0004771D02*
G01X0021073Y0004865D01*
G01X0021073Y0004865D02*
G01X0021026Y0004912D01*
G01X0020839Y0004912D02*
G01X0020793Y0004865D01*
G01X0020793Y0004865D02*
G01X0020793Y0004771D01*
G01X0020793Y0004771D02*
G01X0020839Y0004725D01*
G01X0020839Y0004725D02*
G01X0021026Y0004725D01*
G01X0021793Y0004771D02*
G01X0021839Y0004725D01*
G01X0021839Y0004725D02*
G01X0022026Y0004725D01*
G01X0022026Y0004725D02*
G01X0022073Y0004771D01*
G01X0022073Y0004771D02*
G01X0022073Y0004865D01*
G01X0022073Y0004865D02*
G01X0022026Y0004912D01*
G01X0022026Y0004912D02*
G01X0021933Y0004912D01*
G01X0021933Y0004912D02*
G01X0021933Y0004818D01*
G01X0021839Y0004912D02*
G01X0021793Y0004865D01*
G01X0021793Y0004865D02*
G01X0021793Y0004771D01*
G01X0021793Y0005001D02*
G01X0022073Y0005188D01*
G01X0022073Y0005188D02*
G01X0021793Y0005188D01*
G01X0021793Y0005277D02*
G01X0021793Y0005417D01*
G01X0021793Y0005417D02*
G01X0021839Y0005464D01*
G01X0021839Y0005464D02*
G01X0022026Y0005464D01*
G01X0022026Y0005464D02*
G01X0022073Y0005417D01*
G01X0022073Y0005417D02*
G01X0022073Y0005277D01*
G01X0022073Y0005277D02*
G01X0021793Y0005277D01*
G01X0021793Y0005001D02*
G01X0022073Y0005001D01*
G01X0022793Y0004865D02*
G01X0022793Y0004771D01*
G01X0022793Y0004771D02*
G01X0022839Y0004725D01*
G01X0022933Y0004818D02*
G01X0022933Y0004865D01*
G01X0022933Y0004865D02*
G01X0022979Y0004912D01*
G01X0022979Y0004912D02*
G01X0023026Y0004912D01*
G01X0023026Y0004912D02*
G01X0023073Y0004865D01*
G01X0023073Y0004865D02*
G01X0023073Y0004771D01*
G01X0023073Y0004771D02*
G01X0023026Y0004725D01*
G01X0022933Y0004865D02*
G01X0022886Y0004912D01*
G01X0022886Y0004912D02*
G01X0022839Y0004912D01*
G01X0022839Y0004912D02*
G01X0022793Y0004865D01*
G01X0022886Y0005001D02*
G01X0023073Y0005094D01*
G01X0023073Y0005094D02*
G01X0022886Y0005188D01*
G01X0022839Y0005277D02*
G01X0022793Y0005324D01*
G01X0022793Y0005324D02*
G01X0022793Y0005417D01*
G01X0022793Y0005417D02*
G01X0022839Y0005464D01*
G01X0022839Y0005464D02*
G01X0022886Y0005464D01*
G01X0022886Y0005464D02*
G01X0022933Y0005417D01*
G01X0022933Y0005417D02*
G01X0022979Y0005464D01*
G01X0022979Y0005464D02*
G01X0023026Y0005464D01*
G01X0023026Y0005464D02*
G01X0023073Y0005417D01*
G01X0023073Y0005417D02*
G01X0023073Y0005324D01*
G01X0023073Y0005324D02*
G01X0023026Y0005277D01*
G01X0022933Y0005371D02*
G01X0022933Y0005417D01*
G01X0023793Y0005464D02*
G01X0023979Y0005464D01*
G01X0023979Y0005464D02*
G01X0024073Y0005371D01*
G01X0024073Y0005371D02*
G01X0023979Y0005277D01*
G01X0023979Y0005277D02*
G01X0023793Y0005277D01*
G01X0023793Y0005188D02*
G01X0023793Y0005001D01*
G01X0023793Y0005001D02*
G01X0023933Y0005001D01*
G01X0023933Y0005001D02*
G01X0023886Y0005094D01*
G01X0023886Y0005094D02*
G01X0023886Y0005141D01*
G01X0023886Y0005141D02*
G01X0023933Y0005188D01*
G01X0023933Y0005188D02*
G01X0024026Y0005188D01*
G01X0024026Y0005188D02*
G01X0024073Y0005141D01*
G01X0024073Y0005141D02*
G01X0024073Y0005048D01*
G01X0024073Y0005048D02*
G01X0024026Y0005001D01*
G01X0025859Y0002464D02*
G01X0025813Y0002417D01*
G01X0025813Y0002417D02*
G01X0025813Y0002277D01*
G01X0025813Y0002277D02*
G01X0026093Y0002277D01*
G01X0026093Y0002277D02*
G01X0026093Y0002417D01*
G01X0026093Y0002417D02*
G01X0026046Y0002464D01*
G01X0026046Y0002464D02*
G01X0025859Y0002464D01*
G01X0025813Y0002188D02*
G01X0026093Y0002188D01*
G01X0026093Y0002188D02*
G01X0025813Y0002001D01*
G01X0025813Y0002001D02*
G01X0026093Y0002001D01*
G01X0026046Y0001912D02*
G01X0025953Y0001912D01*
G01X0025953Y0001912D02*
G01X0025953Y0001818D01*
G01X0026046Y0001725D02*
G01X0026093Y0001771D01*
G01X0026093Y0001771D02*
G01X0026093Y0001865D01*
G01X0026093Y0001865D02*
G01X0026046Y0001912D01*
G01X0025859Y0001912D02*
G01X0025813Y0001865D01*
G01X0025813Y0001865D02*
G01X0025813Y0001771D01*
G01X0025813Y0001771D02*
G01X0025859Y0001725D01*
G01X0025859Y0001725D02*
G01X0026046Y0001725D01*
G01X0020073Y0001417D02*
G01X0020073Y0001324D01*
G01X0020073Y0001324D02*
G01X0020026Y0001277D01*
G01X0019933Y0001277D02*
G01X0019886Y0001371D01*
G01X0019886Y0001371D02*
G01X0019886Y0001417D01*
G01X0019886Y0001417D02*
G01X0019933Y0001464D01*
G01X0019933Y0001464D02*
G01X0020026Y0001464D01*
G01X0020026Y0001464D02*
G01X0020073Y0001417D01*
G01X0019933Y0001277D02*
G01X0019793Y0001277D01*
G01X0019793Y0001277D02*
G01X0019793Y0001464D01*
G01X0019793Y0001094D02*
G01X0020073Y0001094D01*
G01X0020073Y0001001D02*
G01X0020073Y0001188D01*
G01X0019886Y0001001D02*
G01X0019793Y0001094D01*
G01X0019839Y0000912D02*
G01X0019886Y0000912D01*
G01X0019886Y0000912D02*
G01X0019933Y0000865D01*
G01X0019933Y0000865D02*
G01X0019933Y0000725D01*
G01X0020073Y0000725D02*
G01X0019793Y0000725D01*
G01X0019793Y0000725D02*
G01X0019793Y0000865D01*
G01X0019793Y0000865D02*
G01X0019839Y0000912D01*
G01X0019933Y0000865D02*
G01X0019979Y0000912D01*
G01X0019979Y0000912D02*
G01X0020026Y0000912D01*
G01X0020026Y0000912D02*
G01X0020073Y0000865D01*
G01X0020073Y0000865D02*
G01X0020073Y0000725D01*
G01X0019073Y0000725D02*
G01X0019073Y0000865D01*
G01X0019073Y0000865D02*
G01X0019026Y0000912D01*
G01X0019026Y0000912D02*
G01X0018979Y0000912D01*
G01X0018979Y0000912D02*
G01X0018933Y0000865D01*
G01X0018933Y0000865D02*
G01X0018933Y0000725D01*
G01X0019073Y0000725D02*
G01X0018793Y0000725D01*
G01X0018793Y0000725D02*
G01X0018793Y0000865D01*
G01X0018793Y0000865D02*
G01X0018839Y0000912D01*
G01X0018839Y0000912D02*
G01X0018886Y0000912D01*
G01X0018886Y0000912D02*
G01X0018933Y0000865D01*
G01X0018886Y0001001D02*
G01X0018793Y0001094D01*
G01X0018793Y0001094D02*
G01X0019073Y0001094D01*
G01X0019073Y0001001D02*
G01X0019073Y0001188D01*
G01X0018933Y0001277D02*
G01X0018933Y0001464D01*
G01X0019073Y0001417D02*
G01X0018793Y0001417D01*
G01X0018793Y0001417D02*
G01X0018933Y0001277D01*
G01X0018073Y0001324D02*
G01X0018026Y0001277D01*
G01X0018073Y0001324D02*
G01X0018073Y0001417D01*
G01X0018073Y0001417D02*
G01X0018026Y0001464D01*
G01X0018026Y0001464D02*
G01X0017979Y0001464D01*
G01X0017979Y0001464D02*
G01X0017933Y0001417D01*
G01X0017933Y0001417D02*
G01X0017933Y0001371D01*
G01X0017933Y0001417D02*
G01X0017886Y0001464D01*
G01X0017886Y0001464D02*
G01X0017839Y0001464D01*
G01X0017839Y0001464D02*
G01X0017793Y0001417D01*
G01X0017793Y0001417D02*
G01X0017793Y0001324D01*
G01X0017793Y0001324D02*
G01X0017839Y0001277D01*
G01X0017793Y0001094D02*
G01X0018073Y0001094D01*
G01X0018073Y0001001D02*
G01X0018073Y0001188D01*
G01X0017886Y0001001D02*
G01X0017793Y0001094D01*
G01X0017839Y0000912D02*
G01X0017886Y0000912D01*
G01X0017886Y0000912D02*
G01X0017933Y0000865D01*
G01X0017933Y0000865D02*
G01X0017933Y0000725D01*
G01X0018073Y0000725D02*
G01X0017793Y0000725D01*
G01X0017793Y0000725D02*
G01X0017793Y0000865D01*
G01X0017793Y0000865D02*
G01X0017839Y0000912D01*
G01X0017933Y0000865D02*
G01X0017979Y0000912D01*
G01X0017979Y0000912D02*
G01X0018026Y0000912D01*
G01X0018026Y0000912D02*
G01X0018073Y0000865D01*
G01X0018073Y0000865D02*
G01X0018073Y0000725D01*
G01X0017073Y0000725D02*
G01X0017073Y0000865D01*
G01X0017073Y0000865D02*
G01X0017026Y0000912D01*
G01X0017026Y0000912D02*
G01X0016979Y0000912D01*
G01X0016979Y0000912D02*
G01X0016933Y0000865D01*
G01X0016933Y0000865D02*
G01X0016933Y0000725D01*
G01X0017073Y0000725D02*
G01X0016793Y0000725D01*
G01X0016793Y0000725D02*
G01X0016793Y0000865D01*
G01X0016793Y0000865D02*
G01X0016839Y0000912D01*
G01X0016839Y0000912D02*
G01X0016886Y0000912D01*
G01X0016886Y0000912D02*
G01X0016933Y0000865D01*
G01X0016886Y0001001D02*
G01X0016793Y0001094D01*
G01X0016793Y0001094D02*
G01X0017073Y0001094D01*
G01X0017073Y0001001D02*
G01X0017073Y0001188D01*
G01X0017073Y0001277D02*
G01X0016886Y0001464D01*
G01X0016886Y0001464D02*
G01X0016839Y0001464D01*
G01X0016839Y0001464D02*
G01X0016793Y0001417D01*
G01X0016793Y0001417D02*
G01X0016793Y0001324D01*
G01X0016793Y0001324D02*
G01X0016839Y0001277D01*
G01X0017073Y0001277D02*
G01X0017073Y0001464D01*
G01X0016073Y0001464D02*
G01X0016073Y0001277D01*
G01X0016073Y0001188D02*
G01X0016073Y0001001D01*
G01X0016073Y0001094D02*
G01X0015793Y0001094D01*
G01X0015793Y0001094D02*
G01X0015886Y0001001D01*
G01X0015886Y0000912D02*
G01X0015933Y0000865D01*
G01X0015933Y0000865D02*
G01X0015933Y0000725D01*
G01X0016073Y0000725D02*
G01X0016073Y0000865D01*
G01X0016073Y0000865D02*
G01X0016026Y0000912D01*
G01X0016026Y0000912D02*
G01X0015979Y0000912D01*
G01X0015979Y0000912D02*
G01X0015933Y0000865D01*
G01X0015886Y0000912D02*
G01X0015839Y0000912D01*
G01X0015839Y0000912D02*
G01X0015793Y0000865D01*
G01X0015793Y0000865D02*
G01X0015793Y0000725D01*
G01X0015793Y0000725D02*
G01X0016073Y0000725D01*
G01X0015886Y0001277D02*
G01X0015793Y0001371D01*
G01X0015793Y0001371D02*
G01X0016073Y0001371D01*
G01X0015073Y0001417D02*
G01X0015073Y0001324D01*
G01X0015073Y0001324D02*
G01X0015026Y0001277D01*
G01X0015026Y0001277D02*
G01X0014839Y0001464D01*
G01X0014839Y0001464D02*
G01X0015026Y0001464D01*
G01X0015026Y0001464D02*
G01X0015073Y0001417D01*
G01X0015026Y0001277D02*
G01X0014839Y0001277D01*
G01X0014839Y0001277D02*
G01X0014793Y0001324D01*
G01X0014793Y0001324D02*
G01X0014793Y0001417D01*
G01X0014793Y0001417D02*
G01X0014839Y0001464D01*
G01X0015073Y0001188D02*
G01X0015073Y0001001D01*
G01X0015073Y0001094D02*
G01X0014793Y0001094D01*
G01X0014793Y0001094D02*
G01X0014886Y0001001D01*
G01X0014886Y0000912D02*
G01X0014839Y0000912D01*
G01X0014839Y0000912D02*
G01X0014793Y0000865D01*
G01X0014793Y0000865D02*
G01X0014793Y0000725D01*
G01X0014793Y0000725D02*
G01X0015073Y0000725D01*
G01X0015073Y0000725D02*
G01X0015073Y0000865D01*
G01X0015073Y0000865D02*
G01X0015026Y0000912D01*
G01X0015026Y0000912D02*
G01X0014979Y0000912D01*
G01X0014979Y0000912D02*
G01X0014933Y0000865D01*
G01X0014933Y0000865D02*
G01X0014933Y0000725D01*
G01X0014933Y0000865D02*
G01X0014886Y0000912D01*
G54D14*
G01X0030787Y0017224D02*
G01X0030953Y0017602D01*
G01X0030953Y0017602D02*
G01X0031113Y0017224D01*
G01X0031113Y0017224D02*
G01X0030787Y0017224D01*
G01X0030812Y0017282D02*
G01X0031088Y0017282D01*
G01X0031055Y0017361D02*
G01X0030847Y0017361D01*
G01X0030881Y0017439D02*
G01X0031022Y0017439D01*
G01X0030989Y0017518D02*
G01X0030915Y0017518D01*
G01X0030950Y0017596D02*
G01X0030955Y0017596D01*
G54D15*
G01X0027490Y0017840D03*
G01X0027590Y0018690D03*
G01X0025590Y0016440D03*
G01X0025640Y0014340D03*
G01X0022790Y0012340D03*
G01X0020090Y0012190D03*
G01X0020090Y0012890D03*
G01X0017590Y0015940D03*
G01X0018190Y0016740D03*
G01X0018240Y0016840D03*
G01X0017590Y0016940D03*
G01X0019040Y0017990D03*
G01X0022040Y0016690D03*
G01X0023840Y0018390D03*
G01X0015090Y0014490D03*
G01X0014090Y0009540D03*
G01X0014140Y0009490D03*
G01X0013940Y0009340D03*
G01X0014040Y0009090D03*
G01X0014090Y0009040D03*
G01X0013140Y0008290D03*
G01X0012990Y0008290D03*
G01X0011240Y0008040D03*
G01X0011240Y0007990D03*
G01X0011240Y0007940D03*
G01X0011040Y0009090D03*
G01X0010940Y0009590D03*
G01X0010840Y0009640D03*
G01X0010790Y0009590D03*
G01X0011740Y0009640D03*
G01X0015540Y0007640D03*
G01X0016240Y0008290D03*
G01X0017940Y0006190D03*
G01X0015340Y0005990D03*
G01X0015140Y0005640D03*
G01X0014140Y0005740D03*
G54D16*
G01X0014115Y0005790D03*
G01X0014065Y0005840D03*
G01X0014015Y0005890D03*
G01X0014015Y0005940D03*
G01X0013965Y0005990D03*
G01X0015065Y0005690D03*
G01X0015265Y0006040D03*
G01X0015215Y0006090D03*
G01X0015165Y0006140D03*
G01X0015115Y0006190D03*
G01X0016165Y0006390D03*
G01X0016115Y0007890D03*
G01X0016315Y0007890D03*
G01X0016565Y0008240D03*
G01X0014665Y0009390D03*
G01X0014315Y0009390D03*
G01X0014215Y0009440D03*
G01X0014165Y0009340D03*
G01X0014265Y0009290D03*
G01X0013765Y0010090D03*
G01X0013065Y0011290D03*
G01X0013865Y0011490D03*
G01X0010765Y0009540D03*
G01X0012265Y0008840D03*
G01X0013115Y0008340D03*
G01X0011865Y0008190D03*
G01X0011865Y0008140D03*
G01X0011815Y0008090D03*
G01X0011815Y0007690D03*
G01X0011215Y0008090D03*
G01X0011215Y0008140D03*
G01X0011215Y0008190D03*
G01X0010665Y0008090D03*
G01X0010565Y0008140D03*
G01X0010565Y0008290D03*
G01X0010565Y0008340D03*
G01X0010615Y0008390D03*
G01X0013665Y0006940D03*
G01X0018665Y0009440D03*
G01X0020615Y0010690D03*
G01X0020715Y0010640D03*
G01X0022615Y0012190D03*
G01X0022665Y0012240D03*
G01X0022715Y0012290D03*
G01X0022665Y0013990D03*
G01X0022315Y0014190D03*
G01X0025015Y0015240D03*
G01X0024965Y0015540D03*
G01X0025415Y0016340D03*
G01X0025515Y0016390D03*
G01X0025965Y0017190D03*
G01X0025565Y0018040D03*
G01X0024765Y0017090D03*
G01X0023965Y0017040D03*
G01X0023915Y0018440D03*
G01X0022065Y0018540D03*
G01X0020415Y0019090D03*
G01X0019665Y0018540D03*
G01X0019015Y0017940D03*
G01X0018365Y0017440D03*
G01X0018215Y0016790D03*
G01X0018165Y0016690D03*
G01X0017515Y0016890D03*
G01X0017465Y0016840D03*
G01X0017365Y0016790D03*
G01X0017515Y0015890D03*
G01X0017465Y0015840D03*
G01X0017415Y0015790D03*
G01X0017365Y0015740D03*
G01X0017215Y0015640D03*
G01X0016865Y0015890D03*
G01X0017015Y0015040D03*
G01X0016915Y0014990D03*
G01X0016865Y0014940D03*
G01X0016565Y0014440D03*
G01X0015115Y0014540D03*
G01X0018165Y0015490D03*
G01X0018215Y0015540D03*
G01X0025465Y0014240D03*
G01X0025565Y0014290D03*
G01X0026315Y0015790D03*
G01X0027415Y0017890D03*
G01X0027965Y0018890D03*
G54D17*
G01X0027840Y0018940D03*
G01X0025690Y0017640D03*
G01X0025340Y0017940D03*
G01X0025440Y0017990D03*
G01X0024640Y0017040D03*
G01X0025290Y0016290D03*
G01X0025190Y0016240D03*
G01X0024890Y0015490D03*
G01X0026240Y0015740D03*
G01X0027040Y0016390D03*
G01X0025340Y0014190D03*
G01X0025240Y0014140D03*
G01X0023890Y0013990D03*
G01X0023790Y0013940D03*
G01X0022690Y0014240D03*
G01X0022840Y0014690D03*
G01X0022540Y0012140D03*
G01X0020790Y0012240D03*
G01X0020490Y0010740D03*
G01X0019090Y0010290D03*
G01X0019140Y0009690D03*
G01X0017940Y0008740D03*
G01X0016940Y0008690D03*
G01X0016290Y0008240D03*
G01X0016190Y0007840D03*
G01X0015590Y0007590D03*
G01X0016890Y0006990D03*
G01X0015040Y0006240D03*
G01X0014990Y0006290D03*
G01X0014990Y0005740D03*
G01X0014640Y0005790D03*
G01X0013940Y0006040D03*
G01X0013940Y0006090D03*
G01X0011890Y0008240D03*
G01X0011890Y0008290D03*
G01X0011240Y0008290D03*
G01X0011240Y0008240D03*
G01X0010690Y0008490D03*
G01X0010640Y0008440D03*
G01X0010540Y0008240D03*
G01X0010540Y0008190D03*
G01X0012890Y0008840D03*
G01X0012990Y0008440D03*
G01X0013040Y0008390D03*
G01X0013940Y0009190D03*
G01X0013990Y0009140D03*
G01X0014040Y0009290D03*
G01X0014140Y0009240D03*
G01X0014390Y0009340D03*
G01X0014440Y0009290D03*
G01X0014540Y0009240D03*
G01X0015390Y0010490D03*
G01X0016490Y0014390D03*
G01X0016640Y0014790D03*
G01X0016790Y0014890D03*
G01X0016990Y0015490D03*
G01X0017090Y0015540D03*
G01X0017140Y0015590D03*
G01X0017290Y0015690D03*
G01X0016790Y0015840D03*
G01X0016690Y0015790D03*
G01X0017140Y0016640D03*
G01X0017240Y0016690D03*
G01X0017290Y0016740D03*
G01X0018090Y0016590D03*
G01X0018090Y0016540D03*
G01X0018140Y0016640D03*
G01X0018440Y0017490D03*
G01X0019740Y0018590D03*
G01X0020340Y0019040D03*
G01X0021240Y0018590D03*
G01X0021340Y0018640D03*
G01X0022090Y0018590D03*
G01X0023440Y0017990D03*
G01X0023990Y0018490D03*
G01X0024090Y0018540D03*
G54D18*
G01X0024165Y0018590D03*
G01X0025065Y0017790D03*
G01X0025165Y0017840D03*
G01X0025215Y0017890D03*
G01X0025715Y0017090D03*
G01X0025865Y0017140D03*
G01X0024265Y0016340D03*
G01X0024165Y0015790D03*
G01X0024615Y0015340D03*
G01X0024715Y0015390D03*
G01X0024815Y0015440D03*
G01X0025115Y0015290D03*
G01X0026115Y0015690D03*
G01X0025165Y0014090D03*
G01X0025065Y0014040D03*
G01X0022465Y0012090D03*
G01X0021815Y0011340D03*
G01X0020665Y0012290D03*
G01X0020215Y0012140D03*
G01X0020415Y0010790D03*
G01X0019015Y0010340D03*
G01X0018165Y0009040D03*
G01X0017365Y0008690D03*
G01X0017015Y0008640D03*
G01X0016365Y0008190D03*
G01X0016765Y0007040D03*
G01X0014965Y0006340D03*
G01X0014915Y0006390D03*
G01X0014915Y0005790D03*
G01X0013915Y0006140D03*
G01X0013865Y0006190D03*
G01X0013865Y0006240D03*
G01X0013865Y0006290D03*
G01X0013815Y0006340D03*
G01X0013815Y0006390D03*
G01X0012415Y0007740D03*
G01X0011865Y0008340D03*
G01X0010965Y0009140D03*
G01X0011115Y0009740D03*
G01X0013865Y0009240D03*
G01X0014065Y0009390D03*
G01X0014265Y0009190D03*
G01X0014615Y0009190D03*
G01X0014665Y0009140D03*
G01X0014765Y0009340D03*
G01X0016515Y0014690D03*
G01X0016565Y0014740D03*
G01X0016715Y0014840D03*
G01X0016815Y0015390D03*
G01X0016915Y0015440D03*
G01X0016615Y0015740D03*
G01X0016765Y0016390D03*
G01X0016915Y0016490D03*
G01X0017015Y0016540D03*
G01X0017065Y0016590D03*
G01X0018065Y0016490D03*
G01X0018065Y0016440D03*
G01X0018265Y0015590D03*
G01X0018515Y0017540D03*
G01X0018615Y0017590D03*
G01X0018965Y0017890D03*
G01X0019865Y0018640D03*
G01X0019965Y0018690D03*
G01X0020265Y0018990D03*
G01X0022115Y0018640D03*
G01X0022715Y0018090D03*
G01X0021865Y0017640D03*
G01X0021765Y0017590D03*
G01X0024015Y0017090D03*
G01X0027715Y0018990D03*
G54D19*
G01X0026415Y0017890D03*
G01X0024915Y0016740D03*
G01X0022765Y0016340D03*
G01X0022665Y0016290D03*
G01X0021665Y0016440D03*
G01X0021565Y0016390D03*
G01X0022515Y0017490D03*
G01X0022115Y0018190D03*
G01X0022215Y0018240D03*
G01X0023365Y0018840D03*
G01X0020865Y0017990D03*
G01X0017915Y0015790D03*
G01X0017865Y0015740D03*
G01X0017815Y0015640D03*
G01X0017815Y0015590D03*
G01X0017765Y0015490D03*
G01X0017715Y0015390D03*
G01X0017665Y0015240D03*
G01X0017615Y0015140D03*
G01X0017565Y0015040D03*
G01X0017315Y0014540D03*
G01X0016165Y0015390D03*
G01X0016115Y0015340D03*
G01X0015565Y0014590D03*
G01X0015415Y0014390D03*
G01X0015365Y0014340D03*
G01X0015315Y0014290D03*
G01X0015265Y0014190D03*
G01X0015215Y0014140D03*
G01X0015165Y0014040D03*
G01X0014215Y0011290D03*
G01X0010815Y0009290D03*
G01X0012765Y0008740D03*
G01X0012615Y0008290D03*
G01X0014415Y0006290D03*
G01X0014465Y0006190D03*
G01X0014515Y0006090D03*
G01X0014565Y0005990D03*
G01X0014615Y0005940D03*
G01X0014665Y0005890D03*
G01X0014715Y0005840D03*
G01X0016665Y0006540D03*
G01X0016915Y0006440D03*
G01X0017065Y0006390D03*
G01X0017215Y0006340D03*
G01X0017415Y0006290D03*
G01X0016015Y0007590D03*
G01X0015965Y0007640D03*
G01X0019715Y0010140D03*
G01X0019815Y0010090D03*
G01X0021915Y0011840D03*
G01X0020465Y0012040D03*
G01X0020365Y0012490D03*
G01X0020865Y0012940D03*
G54D20*
G01X0020990Y0012890D03*
G01X0020690Y0011840D03*
G01X0020740Y0011790D03*
G01X0020840Y0011740D03*
G01X0021790Y0011790D03*
G01X0024190Y0013740D03*
G01X0025540Y0015490D03*
G01X0025640Y0015540D03*
G01X0024090Y0016890D03*
G01X0023190Y0017790D03*
G01X0022740Y0017540D03*
G01X0022040Y0018140D03*
G01X0020790Y0017940D03*
G01X0023840Y0019340D03*
G01X0026540Y0017940D03*
G01X0016240Y0014340D03*
G01X0016190Y0014290D03*
G01X0016140Y0014240D03*
G01X0016090Y0014190D03*
G01X0016040Y0014140D03*
G01X0015990Y0014090D03*
G01X0015940Y0014040D03*
G01X0015890Y0013990D03*
G01X0015190Y0013990D03*
G01X0015140Y0013940D03*
G01X0015140Y0013890D03*
G01X0014090Y0011240D03*
G01X0014590Y0009090D03*
G01X0015790Y0007790D03*
G01X0015840Y0007740D03*
G01X0015890Y0007690D03*
G01X0016790Y0007440D03*
G01X0016540Y0006590D03*
G01X0016790Y0006490D03*
G01X0014540Y0006040D03*
G01X0014490Y0006140D03*
G01X0014440Y0006240D03*
G01X0014390Y0006340D03*
G01X0014390Y0006390D03*
G01X0014340Y0006490D03*
G01X0014340Y0006540D03*
G01X0012140Y0007640D03*
G01X0012540Y0008340D03*
G01X0017390Y0008740D03*
G01X0018790Y0009490D03*
G54D21*
G01X0018540Y0009740D03*
G01X0019490Y0010340D03*
G01X0019540Y0010290D03*
G01X0019590Y0010240D03*
G01X0019640Y0010190D03*
G01X0020640Y0011140D03*
G01X0021440Y0011490D03*
G01X0022040Y0011890D03*
G01X0022340Y0014090D03*
G01X0023640Y0014640D03*
G01X0025440Y0015440D03*
G01X0024290Y0016390D03*
G01X0024440Y0017440D03*
G01X0024190Y0017790D03*
G01X0024740Y0018090D03*
G01X0026740Y0017690D03*
G01X0026890Y0018040D03*
G01X0022590Y0016240D03*
G01X0022540Y0016190D03*
G01X0021890Y0016090D03*
G01X0021740Y0016490D03*
G01X0020940Y0018040D03*
G01X0020990Y0018090D03*
G01X0022290Y0018290D03*
G01X0022340Y0018340D03*
G01X0022440Y0018390D03*
G01X0017840Y0015690D03*
G01X0017790Y0015540D03*
G01X0017740Y0015440D03*
G01X0017690Y0015340D03*
G01X0017690Y0015290D03*
G01X0017640Y0015190D03*
G01X0017590Y0015090D03*
G01X0017540Y0014990D03*
G01X0017540Y0014940D03*
G01X0017490Y0014890D03*
G01X0017490Y0014840D03*
G01X0017440Y0014790D03*
G01X0017440Y0014740D03*
G01X0017390Y0014690D03*
G01X0017390Y0014640D03*
G01X0017340Y0014590D03*
G01X0017290Y0014490D03*
G01X0016240Y0015440D03*
G01X0015540Y0014540D03*
G01X0015490Y0014490D03*
G01X0015440Y0014440D03*
G01X0015290Y0014240D03*
G01X0015190Y0014090D03*
G01X0014640Y0014090D03*
G01X0014640Y0014140D03*
G01X0014640Y0014190D03*
G01X0014690Y0014340D03*
G01X0014590Y0013990D03*
G01X0014590Y0013940D03*
G01X0014590Y0013890D03*
G01X0013940Y0009890D03*
G01X0011490Y0009590D03*
G01X0017640Y0006240D03*
G01X0019190Y0007140D03*
G01X0019240Y0007090D03*
G01X0019290Y0007040D03*
G54D22*
G01X0019390Y0006990D03*
G01X0017090Y0008590D03*
G01X0016240Y0007940D03*
G01X0016290Y0007790D03*
G01X0014840Y0006540D03*
G01X0014840Y0006490D03*
G01X0014890Y0006440D03*
G01X0013790Y0006440D03*
G01X0013790Y0006490D03*
G01X0013790Y0006540D03*
G01X0013790Y0006590D03*
G01X0012340Y0007690D03*
G01X0012490Y0007790D03*
G01X0012940Y0008490D03*
G01X0013790Y0009290D03*
G01X0014340Y0009140D03*
G01X0013640Y0010140D03*
G01X0014540Y0011390D03*
G01X0013740Y0011440D03*
G01X0011190Y0009840D03*
G01X0011140Y0009790D03*
G01X0011240Y0008340D03*
G01X0016340Y0014540D03*
G01X0016390Y0014590D03*
G01X0016440Y0014640D03*
G01X0016690Y0015340D03*
G01X0016490Y0015640D03*
G01X0016540Y0015690D03*
G01X0016540Y0016240D03*
G01X0016690Y0016340D03*
G01X0016840Y0016440D03*
G01X0018340Y0015640D03*
G01X0018690Y0017640D03*
G01X0020040Y0018740D03*
G01X0020190Y0018940D03*
G01X0021140Y0018540D03*
G01X0021640Y0017540D03*
G01X0021540Y0017490D03*
G01X0021990Y0016640D03*
G01X0023340Y0017940D03*
G01X0024490Y0016990D03*
G01X0024890Y0017690D03*
G01X0024990Y0017740D03*
G01X0025840Y0017690D03*
G01X0025590Y0017040D03*
G01X0025490Y0016990D03*
G01X0025390Y0016940D03*
G01X0025040Y0016190D03*
G01X0025890Y0015840D03*
G01X0025940Y0015890D03*
G01X0026040Y0015940D03*
G01X0026090Y0015990D03*
G01X0026190Y0016040D03*
G01X0026290Y0016090D03*
G01X0026390Y0016140D03*
G01X0026490Y0016190D03*
G01X0026590Y0016240D03*
G01X0026740Y0016290D03*
G01X0026890Y0016340D03*
G01X0024940Y0013990D03*
G01X0024790Y0013940D03*
G01X0023690Y0013890D03*
G01X0023640Y0013840D03*
G01X0020840Y0011090D03*
G01X0020340Y0010840D03*
G01X0020240Y0010890D03*
G01X0020190Y0010940D03*
G01X0027540Y0019040D03*
G01X0024190Y0019390D03*
G54D23*
G01X0024465Y0018790D03*
G01X0023515Y0019290D03*
G01X0023265Y0019240D03*
G01X0023065Y0019190D03*
G01X0022915Y0019140D03*
G01X0022765Y0019090D03*
G01X0022515Y0018990D03*
G01X0022415Y0018940D03*
G01X0022315Y0018890D03*
G01X0022165Y0018790D03*
G01X0022065Y0018740D03*
G01X0022015Y0018690D03*
G01X0021965Y0018090D03*
G01X0022315Y0017440D03*
G01X0022865Y0016390D03*
G01X0021465Y0016340D03*
G01X0021915Y0015140D03*
G01X0022565Y0014040D03*
G01X0020865Y0012990D03*
G01X0020565Y0011990D03*
G01X0020615Y0011940D03*
G01X0020665Y0011890D03*
G01X0019165Y0009740D03*
G01X0018265Y0009090D03*
G01X0016665Y0010740D03*
G01X0017215Y0012190D03*
G01X0015865Y0013940D03*
G01X0016065Y0015290D03*
G01X0017965Y0015840D03*
G01X0018015Y0014690D03*
G01X0017965Y0014640D03*
G01X0018915Y0017690D03*
G01X0020715Y0017890D03*
G01X0024665Y0016090D03*
G01X0025715Y0015590D03*
G01X0014665Y0009040D03*
G01X0012465Y0008390D03*
G01X0012065Y0008790D03*
G01X0012915Y0007340D03*
G01X0014365Y0006440D03*
G01X0016365Y0006690D03*
G01X0016465Y0006640D03*
G01X0013965Y0011190D03*
G54D24*
G01X0013240Y0011190D03*
G01X0013690Y0009440D03*
G01X0016690Y0008340D03*
G01X0016140Y0006840D03*
G01X0015790Y0006440D03*
G01X0015640Y0006490D03*
G01X0015490Y0006540D03*
G01X0020040Y0007090D03*
G01X0021140Y0012840D03*
G01X0018190Y0014840D03*
G01X0022140Y0016990D03*
G01X0022990Y0016440D03*
G01X0023390Y0015290D03*
G01X0026390Y0019290D03*
G54D25*
G01X0026890Y0019140D03*
G01X0024540Y0018140D03*
G01X0021840Y0017940D03*
G01X0024140Y0015940D03*
G01X0021790Y0015090D03*
G01X0018440Y0015040D03*
G01X0016090Y0015190D03*
G01X0015990Y0015140D03*
G01X0015840Y0015040D03*
G01X0014840Y0013790D03*
G01X0015790Y0011840D03*
G01X0019640Y0010440D03*
G01X0015840Y0007040D03*
G01X0014490Y0006640D03*
G01X0014490Y0006590D03*
G54D26*
G01X0015415Y0006590D03*
G01X0016215Y0006790D03*
G01X0010915Y0009340D03*
G01X0015765Y0013790D03*
G01X0014915Y0014590D03*
G01X0018065Y0014740D03*
G01X0018115Y0014790D03*
G01X0019465Y0012890D03*
G01X0023065Y0015390D03*
G01X0023215Y0015340D03*
G01X0023815Y0014990D03*
G01X0023915Y0016840D03*
G01X0024265Y0017390D03*
G01X0020615Y0017840D03*
G54D27*
G01X0021415Y0018390D03*
G01X0021565Y0018490D03*
G01X0021065Y0018490D03*
G01X0023265Y0017890D03*
G01X0024265Y0018640D03*
G01X0024815Y0017640D03*
G01X0024715Y0017590D03*
G01X0025165Y0016840D03*
G01X0025265Y0016890D03*
G01X0025815Y0015790D03*
G01X0025765Y0015740D03*
G01X0025715Y0015690D03*
G01X0025215Y0015340D03*
G01X0024465Y0015290D03*
G01X0024665Y0013890D03*
G01X0023565Y0013790D03*
G01X0022765Y0014340D03*
G01X0022715Y0014290D03*
G01X0020565Y0012340D03*
G01X0021665Y0011390D03*
G01X0022265Y0011990D03*
G01X0022365Y0012040D03*
G01X0020115Y0010990D03*
G01X0016265Y0014490D03*
G01X0016215Y0014440D03*
G01X0016165Y0014390D03*
G01X0016415Y0015590D03*
G01X0016165Y0015990D03*
G01X0016315Y0016090D03*
G01X0016365Y0016140D03*
G01X0016465Y0016190D03*
G01X0016615Y0016290D03*
G01X0018415Y0015690D03*
G01X0022215Y0016340D03*
G01X0022265Y0016390D03*
G01X0022315Y0016440D03*
G01X0022365Y0016490D03*
G01X0022415Y0016540D03*
G01X0022465Y0016590D03*
G01X0026765Y0019040D03*
G01X0026865Y0018990D03*
G01X0027165Y0018840D03*
G01X0027265Y0017940D03*
G01X0014865Y0009290D03*
G01X0013715Y0009340D03*
G01X0012815Y0008790D03*
G01X0011865Y0008390D03*
G01X0011265Y0008390D03*
G01X0010915Y0009190D03*
G01X0013615Y0011390D03*
G01X0016715Y0007390D03*
G01X0016615Y0007140D03*
G01X0016665Y0007090D03*
G01X0013765Y0006790D03*
G01X0013765Y0006740D03*
G01X0013765Y0006690D03*
G01X0013765Y0006640D03*
G54D28*
G01X0015340Y0006640D03*
G01X0016290Y0006740D03*
G01X0017890Y0008640D03*
G01X0019890Y0007140D03*
G01X0021290Y0011540D03*
G01X0021640Y0011740D03*
G01X0022640Y0014740D03*
G01X0021840Y0015190D03*
G01X0022590Y0016140D03*
G01X0024190Y0015890D03*
G01X0024290Y0016440D03*
G01X0025790Y0015640D03*
G01X0026340Y0017840D03*
G01X0026140Y0019340D03*
G01X0022640Y0019040D03*
G01X0022240Y0018840D03*
G01X0018990Y0017740D03*
G01X0015840Y0013890D03*
G01X0015790Y0013840D03*
G01X0013290Y0011240D03*
G01X0011290Y0009540D03*
G54D29*
G01X0013015Y0010790D03*
G01X0013265Y0008090D03*
G01X0014815Y0006690D03*
G01X0018115Y0008340D03*
G01X0018965Y0009840D03*
G01X0020565Y0012690D03*
G01X0021265Y0013140D03*
G01X0019715Y0014840D03*
G01X0019115Y0015390D03*
G01X0023665Y0017290D03*
G54D30*
G01X0025490Y0018490D03*
G01X0021190Y0016840D03*
G01X0020790Y0017690D03*
G01X0020890Y0017740D03*
G01X0021240Y0015390D03*
G01X0016090Y0011640D03*
G01X0017890Y0008440D03*
G01X0017990Y0008390D03*
G01X0014790Y0006740D03*
G01X0014590Y0006940D03*
G54D31*
G01X0014715Y0006790D03*
G01X0018365Y0010140D03*
G01X0018465Y0010090D03*
G01X0015915Y0012140D03*
G01X0013315Y0010990D03*
G01X0013065Y0010840D03*
G01X0019365Y0013240D03*
G01X0019515Y0013140D03*
G01X0019815Y0014890D03*
G01X0022915Y0016090D03*
G01X0022965Y0017140D03*
G01X0020715Y0017640D03*
G01X0020615Y0017590D03*
G54D32*
G01X0024315Y0018940D03*
G01X0025465Y0018440D03*
G01X0021365Y0013190D03*
G01X0018965Y0012190D03*
G01X0012465Y0009890D03*
G01X0014515Y0006840D03*
G54D33*
G01X0014490Y0006890D03*
G01X0011790Y0008440D03*
G01X0011740Y0008490D03*
G01X0012890Y0009640D03*
G01X0013590Y0011090D03*
G01X0015840Y0011140D03*
G01X0016190Y0011540D03*
G01X0018090Y0010640D03*
G01X0015240Y0013740D03*
G01X0019290Y0015440D03*
G01X0021190Y0015340D03*
G01X0021690Y0014890D03*
G01X0021390Y0016940D03*
G01X0023490Y0017240D03*
G01X0024140Y0018890D03*
G01X0024490Y0018990D03*
G54D34*
G01X0026565Y0019240D03*
G01X0026865Y0017990D03*
G01X0026315Y0017790D03*
G01X0023765Y0016790D03*
G01X0022865Y0015440D03*
G01X0023665Y0014890D03*
G01X0023865Y0015040D03*
G01X0021065Y0013990D03*
G01X0019565Y0012840D03*
G01X0019415Y0010640D03*
G01X0019465Y0010590D03*
G01X0018765Y0009540D03*
G01X0016865Y0007490D03*
G01X0016065Y0006890D03*
G01X0015915Y0007540D03*
G01X0020215Y0007040D03*
G01X0020865Y0007340D03*
G01X0018215Y0014890D03*
G01X0019115Y0017790D03*
G01X0019515Y0017890D03*
G01X0020665Y0018390D03*
G54D35*
G01X0021690Y0017890D03*
G01X0019590Y0017940D03*
G01X0018290Y0014940D03*
G01X0021190Y0013940D03*
G01X0021290Y0013840D03*
G01X0020440Y0012540D03*
G01X0021240Y0011590D03*
G01X0019540Y0010540D03*
G01X0018640Y0009590D03*
G01X0017340Y0008790D03*
G01X0016690Y0008390D03*
G01X0016540Y0008490D03*
G01X0015990Y0006940D03*
G01X0010990Y0009390D03*
G01X0024440Y0018840D03*
G01X0026740Y0019190D03*
G54D36*
G01X0023590Y0017740D03*
G01X0023490Y0017690D03*
G01X0023390Y0017640D03*
G01X0023290Y0017590D03*
G01X0020540Y0017540D03*
G01X0018990Y0015340D03*
G01X0019440Y0013190D03*
G01X0016040Y0011690D03*
G01X0013540Y0011140D03*
G01X0013190Y0008140D03*
G01X0014590Y0006990D03*
G01X0015490Y0008140D03*
G01X0017790Y0008490D03*
G01X0015540Y0014990D03*
G54D37*
G01X0018365Y0014990D03*
G01X0021515Y0017840D03*
G01X0019665Y0017990D03*
G01X0023865Y0015090D03*
G01X0023665Y0014940D03*
G01X0023615Y0014590D03*
G01X0019565Y0010490D03*
G01X0017865Y0008590D03*
G01X0016615Y0008440D03*
G01X0015915Y0006990D03*
G01X0012815Y0008240D03*
G01X0013565Y0009490D03*
G01X0011115Y0009490D03*
G01X0020415Y0006990D03*
G54D38*
G01X0018615Y0007540D03*
G01X0017715Y0008540D03*
G01X0014565Y0007040D03*
G01X0011715Y0008740D03*
G01X0013115Y0010890D03*
G01X0013215Y0010940D03*
G01X0019565Y0013090D03*
G01X0021165Y0013090D03*
G01X0023065Y0013590D03*
G01X0023415Y0013640D03*
G01X0023865Y0015240D03*
G01X0021315Y0015440D03*
G01X0022615Y0017040D03*
G01X0020465Y0017490D03*
G01X0020415Y0017440D03*
G54D39*
G01X0019865Y0014740D03*
G01X0019715Y0014690D03*
G01X0018215Y0011040D03*
G01X0015115Y0007090D03*
G01X0011865Y0008540D03*
G01X0012415Y0010040D03*
G54D40*
G01X0012540Y0010190D03*
G01X0011840Y0008590D03*
G01X0014240Y0007790D03*
G01X0015090Y0007140D03*
G01X0016140Y0012390D03*
G01X0021940Y0015490D03*
G54D41*
G01X0016265Y0012240D03*
G01X0018965Y0010040D03*
G01X0019065Y0009990D03*
G01X0019115Y0009940D03*
G01X0018065Y0008240D03*
G01X0021065Y0007440D03*
G01X0015065Y0007240D03*
G01X0015065Y0007190D03*
G01X0011865Y0008640D03*
G01X0012465Y0009740D03*
G01X0012815Y0010440D03*
G54D42*
G01X0013540Y0011340D03*
G01X0011090Y0009640D03*
G01X0012590Y0007840D03*
G01X0012890Y0007290D03*
G01X0013640Y0009390D03*
G01X0014940Y0009240D03*
G01X0016490Y0007240D03*
G01X0016540Y0007190D03*
G01X0020040Y0011040D03*
G01X0019990Y0011090D03*
G01X0020340Y0012090D03*
G01X0020440Y0012390D03*
G01X0020390Y0012440D03*
G01X0022140Y0011940D03*
G01X0022290Y0014140D03*
G01X0022840Y0014390D03*
G01X0023090Y0014490D03*
G01X0022040Y0016190D03*
G01X0022090Y0016240D03*
G01X0022140Y0016290D03*
G01X0021890Y0016590D03*
G01X0022540Y0016640D03*
G01X0022590Y0016690D03*
G01X0022640Y0016740D03*
G01X0022690Y0016790D03*
G01X0022790Y0016840D03*
G01X0022840Y0016890D03*
G01X0023190Y0017840D03*
G01X0022690Y0018540D03*
G01X0021790Y0018640D03*
G01X0021740Y0018590D03*
G01X0021640Y0018540D03*
G01X0021490Y0018440D03*
G01X0021340Y0018340D03*
G01X0021290Y0018290D03*
G01X0021190Y0018240D03*
G01X0021140Y0018190D03*
G01X0021440Y0017440D03*
G01X0019990Y0018040D03*
G01X0019390Y0018040D03*
G01X0020140Y0018890D03*
G01X0024340Y0018690D03*
G01X0024690Y0018040D03*
G01X0024590Y0017990D03*
G01X0024490Y0017940D03*
G01X0024390Y0017890D03*
G01X0024540Y0017490D03*
G01X0024640Y0017540D03*
G01X0025040Y0016790D03*
G01X0024890Y0016140D03*
G01X0025340Y0015390D03*
G01X0026990Y0017640D03*
G01X0027290Y0018790D03*
G01X0027440Y0018740D03*
G01X0027340Y0019090D03*
G01X0027040Y0018890D03*
G01X0026940Y0018940D03*
G01X0026690Y0019090D03*
G01X0025440Y0018590D03*
G01X0016590Y0015290D03*
G01X0016340Y0015540D03*
G01X0016040Y0015890D03*
G01X0016090Y0015940D03*
G01X0015940Y0015840D03*
G01X0015890Y0015790D03*
G01X0015690Y0015640D03*
G01X0015640Y0015590D03*
G01X0016240Y0016040D03*
G54D43*
G01X0018765Y0015240D03*
G01X0021865Y0014940D03*
G01X0023865Y0015190D03*
G01X0021615Y0017290D03*
G01X0021515Y0017240D03*
G01X0020315Y0018290D03*
G01X0020165Y0018240D03*
G01X0024965Y0018340D03*
G01X0015915Y0011790D03*
G01X0016515Y0010640D03*
G01X0014815Y0010640D03*
G01X0014715Y0010590D03*
G01X0014615Y0010540D03*
G01X0014615Y0010490D03*
G01X0015515Y0008240D03*
G01X0019465Y0007190D03*
G54D44*
G01X0019365Y0007240D03*
G01X0018965Y0007440D03*
G01X0015515Y0008340D03*
G01X0015515Y0008390D03*
G01X0015465Y0008440D03*
G01X0015465Y0008490D03*
G01X0012965Y0008190D03*
G01X0016515Y0010690D03*
G01X0015815Y0011990D03*
G01X0020165Y0015040D03*
G01X0020265Y0015090D03*
G01X0020365Y0015140D03*
G01X0020465Y0015190D03*
G01X0021765Y0015040D03*
G01X0023865Y0015140D03*
G01X0021165Y0016990D03*
G01X0021215Y0017040D03*
G01X0024815Y0018290D03*
G01X0025465Y0018540D03*
G54D45*
G01X0015440Y0010940D03*
G01X0012290Y0009690D03*
G01X0015190Y0007340D03*
G01X0015240Y0007290D03*
G01X0018090Y0008190D03*
G54D46*
G01X0019265Y0007290D03*
G01X0019715Y0010390D03*
G01X0020065Y0011290D03*
G01X0020015Y0011340D03*
G01X0019915Y0011390D03*
G01X0019865Y0011440D03*
G01X0019815Y0011490D03*
G01X0019765Y0011540D03*
G01X0019715Y0011590D03*
G01X0021115Y0013790D03*
G01X0018515Y0015090D03*
G01X0016165Y0015240D03*
G01X0015915Y0015090D03*
G01X0014865Y0013840D03*
G01X0015765Y0011890D03*
G01X0023715Y0016740D03*
G01X0024615Y0018190D03*
G01X0026315Y0017740D03*
G01X0022015Y0017990D03*
G01X0019815Y0018140D03*
G54D47*
G01X0019340Y0017840D03*
G01X0020440Y0018340D03*
G01X0022140Y0018040D03*
G01X0024740Y0018240D03*
G01X0022240Y0014790D03*
G01X0021390Y0013890D03*
G01X0018590Y0015140D03*
G01X0015790Y0011940D03*
G01X0018390Y0009640D03*
G01X0018090Y0009240D03*
G01X0019090Y0007390D03*
G01X0019190Y0007340D03*
G01X0020190Y0011190D03*
G01X0020140Y0011240D03*
G01X0019640Y0011640D03*
G01X0019590Y0011690D03*
G01X0019540Y0011740D03*
G01X0019490Y0011790D03*
G01X0019440Y0011840D03*
G01X0021240Y0011640D03*
G01X0011140Y0009440D03*
G54D48*
G01X0010865Y0009240D03*
G01X0011315Y0009890D03*
G01X0013465Y0011290D03*
G01X0014365Y0011340D03*
G01X0015015Y0009190D03*
G01X0016615Y0008290D03*
G01X0017915Y0008690D03*
G01X0019965Y0011140D03*
G01X0021565Y0011440D03*
G01X0023465Y0013740D03*
G01X0023215Y0014540D03*
G01X0022965Y0014440D03*
G01X0024365Y0013790D03*
G01X0024515Y0013840D03*
G01X0024215Y0015840D03*
G01X0024315Y0016940D03*
G01X0024015Y0017140D03*
G01X0024315Y0017840D03*
G01X0024415Y0018740D03*
G01X0023215Y0018790D03*
G01X0023065Y0018740D03*
G01X0022965Y0018690D03*
G01X0022865Y0018640D03*
G01X0022765Y0018590D03*
G01X0022615Y0018490D03*
G01X0022515Y0018440D03*
G01X0021065Y0018140D03*
G01X0020915Y0018440D03*
G01X0020065Y0018840D03*
G01X0020015Y0018790D03*
G01X0019465Y0018090D03*
G01X0021815Y0016540D03*
G01X0021965Y0016140D03*
G01X0022915Y0016940D03*
G01X0022965Y0016990D03*
G01X0018515Y0015740D03*
G01X0016315Y0015490D03*
G01X0015815Y0015740D03*
G01X0015765Y0015690D03*
G01X0015565Y0015540D03*
G01X0015515Y0015490D03*
G01X0015465Y0015440D03*
G01X0015415Y0015390D03*
G01X0015365Y0015340D03*
G01X0015315Y0015290D03*
G01X0015265Y0015240D03*
G01X0015215Y0015190D03*
G01X0015165Y0015140D03*
G01X0015115Y0015090D03*
G01X0015065Y0015040D03*
G01X0014765Y0014540D03*
G01X0014765Y0014490D03*
G01X0014715Y0014440D03*
G01X0014715Y0014390D03*
G01X0014665Y0014290D03*
G01X0014665Y0014240D03*
G01X0014615Y0014040D03*
G01X0012115Y0007590D03*
G01X0013165Y0007390D03*
G01X0013265Y0007440D03*
G54D49*
G01X0015115Y0007390D03*
G01X0016215Y0012490D03*
G54D50*
G01X0016015Y0012190D03*
G01X0015215Y0013640D03*
G01X0015215Y0013690D03*
G01X0018165Y0010590D03*
G01X0018165Y0010540D03*
G01X0020965Y0007390D03*
G54D51*
G01X0017615Y0007690D03*
G01X0015015Y0007440D03*
G01X0019915Y0016490D03*
G01X0020015Y0016540D03*
G01X0020165Y0016640D03*
G01X0020265Y0016690D03*
G01X0020315Y0016740D03*
G01X0020415Y0016790D03*
G54D52*
G01X0019540Y0016390D03*
G01X0019340Y0015990D03*
G01X0023090Y0015990D03*
G01X0018290Y0011940D03*
G01X0016790Y0009290D03*
G01X0014740Y0007490D03*
G54D53*
G01X0015540Y0008290D03*
G01X0018440Y0009140D03*
G01X0018840Y0007490D03*
G01X0020490Y0012590D03*
G01X0021040Y0013040D03*
G01X0021840Y0014990D03*
G01X0020090Y0014990D03*
G01X0018690Y0015190D03*
G01X0021290Y0017090D03*
G01X0021340Y0017140D03*
G01X0021440Y0017190D03*
G01X0019990Y0018190D03*
G54D54*
G01X0019840Y0016440D03*
G01X0015390Y0010890D03*
G01X0017690Y0007640D03*
G01X0021190Y0007490D03*
G54D55*
G01X0017690Y0007790D03*
G01X0014340Y0007540D03*
G01X0014290Y0007740D03*
G01X0012390Y0010090D03*
G01X0016140Y0012340D03*
G01X0016190Y0012290D03*
G01X0018690Y0012390D03*
G54D56*
G01X0019565Y0013040D03*
G01X0019615Y0012990D03*
G01X0023665Y0013690D03*
G01X0019865Y0016990D03*
G01X0019815Y0016940D03*
G01X0019765Y0016890D03*
G01X0019715Y0016840D03*
G01X0019915Y0017040D03*
G01X0019965Y0017090D03*
G01X0020165Y0017240D03*
G01X0020215Y0017290D03*
G01X0021815Y0017390D03*
G01X0023865Y0017340D03*
G01X0025115Y0018390D03*
G01X0015365Y0014790D03*
G01X0015315Y0014740D03*
G01X0015265Y0010440D03*
G01X0015515Y0008190D03*
G01X0017015Y0007540D03*
G01X0018365Y0009190D03*
G54D57*
G01X0015965Y0009640D03*
G01X0021315Y0007540D03*
G54D58*
G01X0019690Y0007940D03*
G01X0015640Y0011040D03*
G01X0013040Y0010640D03*
G01X0012590Y0010290D03*
G01X0012840Y0009540D03*
G01X0011940Y0008690D03*
G01X0014340Y0007640D03*
G01X0014340Y0007590D03*
G01X0018740Y0012340D03*
G01X0021290Y0013240D03*
G54D59*
G01X0019165Y0015890D03*
G01X0017615Y0010440D03*
G01X0017765Y0007590D03*
G54D60*
G01X0021490Y0007590D03*
G01X0017240Y0011290D03*
G01X0018440Y0013790D03*
G01X0018490Y0013840D03*
G54D61*
G01X0016290Y0012990D03*
G01X0016140Y0013040D03*
G01X0016040Y0013240D03*
G01X0021790Y0007640D03*
G54D62*
G01X0017615Y0007840D03*
G01X0014315Y0007690D03*
G01X0012565Y0010240D03*
G01X0013165Y0010690D03*
G01X0018665Y0012440D03*
G54D63*
G01X0021540Y0007690D03*
G54D64*
G01X0017540Y0007740D03*
G01X0015490Y0010840D03*
G01X0012990Y0010390D03*
G01X0020090Y0016590D03*
G54D65*
G01X0020765Y0015590D03*
G01X0018965Y0014240D03*
G01X0021215Y0007740D03*
G54D66*
G01X0020790Y0007790D03*
G54D67*
G01X0018390Y0012090D03*
G01X0014490Y0007840D03*
G54D68*
G01X0017590Y0010490D03*
G01X0020340Y0007840D03*
G54D69*
G01X0016040Y0009940D03*
G01X0015940Y0009990D03*
G01X0014190Y0007940D03*
G01X0014190Y0007890D03*
G01X0019590Y0016140D03*
G54D70*
G01X0018315Y0011140D03*
G01X0016315Y0009240D03*
G01X0016365Y0009190D03*
G01X0017515Y0007890D03*
G01X0012965Y0010590D03*
G01X0012865Y0010540D03*
G01X0012615Y0010340D03*
G01X0012365Y0010140D03*
G54D71*
G01X0012415Y0009990D03*
G01X0012365Y0009940D03*
G01X0016165Y0012440D03*
G01X0018215Y0010990D03*
G01X0019965Y0007890D03*
G54D72*
G01X0017465Y0007940D03*
G01X0015865Y0008590D03*
G01X0015815Y0008640D03*
G01X0015765Y0008690D03*
G01X0015715Y0008740D03*
G01X0012815Y0009590D03*
G01X0017915Y0011790D03*
G01X0019515Y0015490D03*
G01X0019365Y0015840D03*
G01X0023715Y0016490D03*
G01X0023965Y0016640D03*
G01X0024065Y0016690D03*
G54D73*
G01X0017190Y0011490D03*
G01X0017190Y0011440D03*
G01X0014390Y0007990D03*
G54D74*
G01X0017390Y0007990D03*
G01X0019390Y0007990D03*
G01X0018090Y0011540D03*
G01X0018090Y0011590D03*
G01X0018040Y0011640D03*
G01X0017990Y0011690D03*
G01X0017940Y0011740D03*
G01X0021140Y0015290D03*
G54D75*
G01X0020765Y0015690D03*
G01X0019765Y0016290D03*
G01X0018565Y0013990D03*
G01X0014365Y0008040D03*
G54D76*
G01X0018215Y0008040D03*
G01X0020815Y0015740D03*
G01X0019715Y0016240D03*
G01X0019665Y0016190D03*
G54D77*
G01X0021290Y0016890D03*
G01X0020990Y0017790D03*
G01X0016140Y0011590D03*
G01X0013490Y0011040D03*
G01X0012340Y0009840D03*
G01X0015440Y0008090D03*
G54D78*
G01X0016115Y0009890D03*
G01X0018065Y0008090D03*
G01X0019515Y0016090D03*
G54D79*
G01X0023215Y0016040D03*
G01X0018265Y0011990D03*
G01X0017965Y0008140D03*
G54D80*
G01X0018115Y0008290D03*
G01X0018465Y0011090D03*
G01X0018915Y0012240D03*
G01X0022015Y0015890D03*
G01X0022265Y0015940D03*
G01X0023365Y0017190D03*
G54D81*
G01X0023790Y0016540D03*
G01X0023890Y0016590D03*
G01X0021790Y0015840D03*
G01X0021090Y0015240D03*
G01X0021640Y0014840D03*
G01X0018840Y0012290D03*
G01X0017840Y0011840D03*
G01X0015690Y0008790D03*
G01X0015890Y0008540D03*
G01X0013190Y0010740D03*
G01X0012790Y0010490D03*
G54D82*
G01X0016190Y0009540D03*
G01X0016440Y0009440D03*
G01X0016540Y0009390D03*
G01X0016090Y0008940D03*
G01X0016140Y0008890D03*
G01X0016190Y0008840D03*
G54D83*
G01X0016015Y0008990D03*
G01X0016065Y0009590D03*
G01X0016665Y0009340D03*
G01X0018365Y0011890D03*
G01X0018315Y0012040D03*
G01X0019215Y0014540D03*
G01X0019215Y0014590D03*
G01X0019515Y0016340D03*
G54D84*
G01X0018240Y0010940D03*
G01X0018290Y0010890D03*
G01X0018340Y0010840D03*
G01X0016290Y0009040D03*
G01X0016240Y0009090D03*
G01X0016190Y0009140D03*
G01X0015640Y0010790D03*
G54D85*
G01X0016315Y0009490D03*
G01X0019265Y0015940D03*
G54D86*
G01X0016565Y0012890D03*
G01X0016665Y0012840D03*
G01X0016415Y0012940D03*
G01X0016465Y0009690D03*
G54D87*
G01X0015865Y0009740D03*
G01X0016915Y0010390D03*
G54D88*
G01X0014490Y0009790D03*
G54D89*
G01X0015090Y0010740D03*
G01X0015990Y0011740D03*
G01X0015890Y0012090D03*
G01X0018940Y0009790D03*
G01X0020540Y0012640D03*
G01X0019940Y0014940D03*
G01X0018890Y0015290D03*
G01X0020040Y0017140D03*
G01X0020090Y0017190D03*
G01X0020290Y0017340D03*
G01X0020340Y0017390D03*
G01X0022740Y0017090D03*
G01X0015490Y0014940D03*
G01X0015440Y0014890D03*
G01X0015390Y0014840D03*
G54D90*
G01X0019215Y0014390D03*
G01X0015565Y0009840D03*
G54D91*
G01X0015740Y0011090D03*
G01X0018840Y0012490D03*
G01X0018990Y0009890D03*
G54D92*
G01X0015865Y0010040D03*
G01X0015765Y0010090D03*
G01X0015715Y0010140D03*
G54D93*
G01X0016365Y0010240D03*
G01X0016415Y0010190D03*
G54D94*
G01X0016340Y0010290D03*
G54D95*
G01X0016640Y0010340D03*
G01X0016340Y0013190D03*
G54D96*
G01X0015840Y0012040D03*
G01X0014940Y0010690D03*
G01X0016590Y0010590D03*
G01X0016640Y0010540D03*
G01X0019690Y0012940D03*
G01X0021240Y0011690D03*
G01X0015290Y0014690D03*
G01X0015240Y0014640D03*
G01X0021740Y0017340D03*
G54D97*
G01X0020065Y0014790D03*
G01X0018365Y0010790D03*
G01X0018415Y0010740D03*
G01X0018465Y0010690D03*
G54D98*
G01X0015540Y0010990D03*
G01X0019590Y0014640D03*
G54D99*
G01X0019040Y0014290D03*
G01X0018940Y0014190D03*
G01X0018940Y0014140D03*
G01X0017190Y0011190D03*
G54D100*
G01X0017215Y0011240D03*
G01X0018615Y0013890D03*
G01X0019065Y0014440D03*
G54D101*
G01X0018615Y0013940D03*
G01X0020515Y0013290D03*
G01X0020765Y0015640D03*
G01X0017215Y0011340D03*
G54D102*
G01X0017215Y0011390D03*
G54D103*
G01X0018415Y0012140D03*
G54D104*
G01X0017240Y0012540D03*
G54D105*
G01X0017215Y0012590D03*
G54D106*
G01X0017140Y0012640D03*
G54D107*
G01X0017115Y0012690D03*
G54D108*
G01X0017965Y0012740D03*
G54D109*
G01X0017965Y0012790D03*
G54D110*
G01X0016140Y0013090D03*
G54D111*
G01X0016265Y0013140D03*
G54D112*
G01X0016065Y0013290D03*
G01X0019015Y0014040D03*
G54D113*
G01X0018465Y0013340D03*
G54D114*
G01X0018515Y0013390D03*
G54D115*
G01X0018615Y0013440D03*
G54D116*
G01X0018715Y0013490D03*
G54D117*
G01X0018865Y0013540D03*
G54D118*
G01X0018065Y0013590D03*
G54D119*
G01X0018890Y0013640D03*
G54D120*
G01X0018915Y0013690D03*
G54D121*
G01X0018940Y0013740D03*
G54D122*
G01X0018965Y0014090D03*
G01X0020765Y0015540D03*
G54D123*
G01X0020540Y0015790D03*
G01X0019140Y0014340D03*
G54D124*
G01X0019240Y0014490D03*
G01X0019440Y0016040D03*
G54D125*
G01X0019190Y0017640D02*
G01X0018690Y0017640D01*
G01X0018690Y0017640D02*
G01X0018440Y0017890D01*
G01X0018440Y0017890D02*
G01X0018190Y0017640D01*
G01X0018190Y0017640D02*
G01X0017690Y0017640D01*
G01X0017690Y0017640D02*
G01X0017440Y0017890D01*
G01X0017440Y0017890D02*
G01X0017190Y0017640D01*
G01X0017190Y0017640D02*
G01X0016690Y0017640D01*
G01X0016690Y0017640D02*
G01X0016440Y0017890D01*
G01X0016440Y0017890D02*
G01X0016190Y0017640D01*
G01X0016190Y0017640D02*
G01X0015690Y0017640D01*
G01X0015690Y0017640D02*
G01X0015440Y0017890D01*
G01X0015440Y0017890D02*
G01X0015190Y0017640D01*
G01X0015190Y0017640D02*
G01X0014690Y0017640D01*
G01X0014690Y0017640D02*
G01X0014440Y0017890D01*
G01X0014440Y0017890D02*
G01X0014190Y0017640D01*
G01X0014190Y0017640D02*
G01X0013690Y0017640D01*
G01X0013690Y0017640D02*
G01X0013440Y0017890D01*
G01X0013440Y0017890D02*
G01X0013190Y0017640D01*
G01X0013190Y0017640D02*
G01X0012690Y0017640D01*
G01X0012690Y0017640D02*
G01X0012440Y0017890D01*
G01X0012440Y0017890D02*
G01X0012190Y0017640D01*
G01X0012190Y0017640D02*
G01X0011690Y0017640D01*
G01X0011690Y0017640D02*
G01X0011440Y0017890D01*
G01X0011440Y0017890D02*
G01X0011190Y0017640D01*
G01X0011190Y0017640D02*
G01X0010690Y0017640D01*
G01X0010690Y0017640D02*
G01X0010440Y0017890D01*
G01X0010440Y0017890D02*
G01X0010190Y0017640D01*
G01X0010190Y0017640D02*
G01X0009690Y0017640D01*
G01X0009690Y0017640D02*
G01X0009440Y0017890D01*
G01X0009440Y0017890D02*
G01X0009190Y0017640D01*
G01X0009190Y0017640D02*
G01X0008690Y0017640D01*
G01X0008690Y0017640D02*
G01X0008440Y0017890D01*
G01X0008440Y0017890D02*
G01X0008190Y0017640D01*
G01X0008190Y0017640D02*
G01X0007690Y0017640D01*
G01X0007690Y0017640D02*
G01X0007440Y0017890D01*
G01X0007440Y0017890D02*
G01X0007190Y0017640D01*
G01X0007190Y0017640D02*
G01X0006690Y0017640D01*
G01X0006690Y0017640D02*
G01X0006440Y0017890D01*
G01X0006440Y0017890D02*
G01X0006190Y0017640D01*
G01X0006190Y0017640D02*
G01X0005690Y0017640D01*
G01X0005690Y0017640D02*
G01X0005440Y0017890D01*
G01X0005440Y0017890D02*
G01X0005190Y0017640D01*
G01X0005190Y0017640D02*
G01X0004690Y0017640D01*
G01X0004690Y0017640D02*
G01X0004440Y0017890D01*
G01X0004440Y0017890D02*
G01X0004440Y0018390D01*
G01X0004440Y0018390D02*
G01X0004690Y0018640D01*
G01X0004690Y0018640D02*
G01X0005190Y0018640D01*
G01X0005190Y0018640D02*
G01X0005440Y0018390D01*
G01X0005440Y0018390D02*
G01X0005440Y0017890D01*
G01X0005440Y0017890D02*
G01X0005440Y0018390D01*
G01X0005440Y0018390D02*
G01X0005690Y0018640D01*
G01X0005690Y0018640D02*
G01X0006190Y0018640D01*
G01X0006190Y0018640D02*
G01X0006440Y0018390D01*
G01X0006440Y0018390D02*
G01X0006440Y0017890D01*
G01X0006440Y0017890D02*
G01X0006440Y0018390D01*
G01X0006440Y0018390D02*
G01X0006690Y0018640D01*
G01X0006690Y0018640D02*
G01X0007190Y0018640D01*
G01X0007190Y0018640D02*
G01X0007440Y0018390D01*
G01X0007440Y0018390D02*
G01X0007440Y0017890D01*
G01X0007440Y0017890D02*
G01X0007440Y0018390D01*
G01X0007440Y0018390D02*
G01X0007690Y0018640D01*
G01X0007690Y0018640D02*
G01X0008190Y0018640D01*
G01X0008190Y0018640D02*
G01X0008440Y0018390D01*
G01X0008440Y0018390D02*
G01X0008440Y0017890D01*
G01X0008440Y0017890D02*
G01X0008440Y0018390D01*
G01X0008440Y0018390D02*
G01X0008690Y0018640D01*
G01X0008690Y0018640D02*
G01X0009190Y0018640D01*
G01X0009190Y0018640D02*
G01X0009440Y0018390D01*
G01X0009440Y0018390D02*
G01X0009440Y0017890D01*
G01X0009440Y0017890D02*
G01X0009440Y0018390D01*
G01X0009440Y0018390D02*
G01X0009690Y0018640D01*
G01X0009690Y0018640D02*
G01X0010190Y0018640D01*
G01X0010190Y0018640D02*
G01X0010440Y0018390D01*
G01X0010440Y0018390D02*
G01X0010440Y0017890D01*
G01X0010440Y0017890D02*
G01X0010440Y0018390D01*
G01X0010440Y0018390D02*
G01X0010690Y0018640D01*
G01X0010690Y0018640D02*
G01X0011190Y0018640D01*
G01X0011190Y0018640D02*
G01X0011440Y0018390D01*
G01X0011440Y0018390D02*
G01X0011440Y0017890D01*
G01X0011440Y0017890D02*
G01X0011440Y0018390D01*
G01X0011440Y0018390D02*
G01X0011690Y0018640D01*
G01X0011690Y0018640D02*
G01X0012190Y0018640D01*
G01X0012190Y0018640D02*
G01X0012440Y0018390D01*
G01X0012440Y0018390D02*
G01X0012440Y0017890D01*
G01X0012440Y0017890D02*
G01X0012440Y0018390D01*
G01X0012440Y0018390D02*
G01X0012690Y0018640D01*
G01X0012690Y0018640D02*
G01X0013190Y0018640D01*
G01X0013190Y0018640D02*
G01X0013440Y0018390D01*
G01X0013440Y0018390D02*
G01X0013440Y0017890D01*
G01X0013440Y0017890D02*
G01X0013440Y0018390D01*
G01X0013440Y0018390D02*
G01X0013690Y0018640D01*
G01X0013690Y0018640D02*
G01X0014190Y0018640D01*
G01X0014190Y0018640D02*
G01X0014440Y0018390D01*
G01X0014440Y0018390D02*
G01X0014440Y0017890D01*
G01X0014440Y0017890D02*
G01X0014440Y0018390D01*
G01X0014440Y0018390D02*
G01X0014690Y0018640D01*
G01X0014690Y0018640D02*
G01X0015190Y0018640D01*
G01X0015190Y0018640D02*
G01X0015440Y0018390D01*
G01X0015440Y0018390D02*
G01X0015440Y0017890D01*
G01X0015440Y0017890D02*
G01X0015440Y0018390D01*
G01X0015440Y0018390D02*
G01X0015690Y0018640D01*
G01X0015690Y0018640D02*
G01X0016190Y0018640D01*
G01X0016190Y0018640D02*
G01X0016440Y0018390D01*
G01X0016440Y0018390D02*
G01X0016440Y0017890D01*
G01X0016440Y0017890D02*
G01X0016440Y0018390D01*
G01X0016440Y0018390D02*
G01X0016690Y0018640D01*
G01X0016690Y0018640D02*
G01X0017190Y0018640D01*
G01X0017190Y0018640D02*
G01X0017440Y0018390D01*
G01X0017440Y0018390D02*
G01X0017440Y0017890D01*
G01X0017440Y0017890D02*
G01X0017440Y0018390D01*
G01X0017440Y0018390D02*
G01X0017690Y0018640D01*
G01X0017690Y0018640D02*
G01X0018190Y0018640D01*
G01X0018190Y0018640D02*
G01X0018440Y0018390D01*
G01X0018440Y0018390D02*
G01X0018440Y0017890D01*
G01X0018440Y0017890D02*
G01X0018440Y0018390D01*
G01X0018440Y0018390D02*
G01X0018690Y0018640D01*
G01X0018690Y0018640D02*
G01X0019190Y0018640D01*
G01X0019190Y0018640D02*
G01X0019440Y0018390D01*
G01X0019440Y0018390D02*
G01X0019440Y0017890D01*
G01X0019440Y0017890D02*
G01X0019190Y0017640D01*
G01X0019440Y0017890D02*
G01X0019690Y0017640D01*
G01X0019690Y0017640D02*
G01X0020190Y0017640D01*
G01X0020190Y0017640D02*
G01X0020440Y0017890D01*
G01X0020440Y0017890D02*
G01X0020440Y0018390D01*
G01X0020440Y0018390D02*
G01X0020190Y0018640D01*
G01X0020190Y0018640D02*
G01X0019690Y0018640D01*
G01X0019690Y0018640D02*
G01X0019440Y0018390D01*
G01X0019440Y0018390D02*
G01X0019440Y0017890D01*
G01X0020440Y0017890D02*
G01X0020690Y0017640D01*
G01X0020690Y0017640D02*
G01X0021190Y0017640D01*
G01X0021190Y0017640D02*
G01X0021440Y0017890D01*
G01X0021440Y0017890D02*
G01X0021440Y0018390D01*
G01X0021440Y0018390D02*
G01X0021190Y0018640D01*
G01X0021190Y0018640D02*
G01X0020690Y0018640D01*
G01X0020690Y0018640D02*
G01X0020440Y0018390D01*
G01X0020440Y0018390D02*
G01X0020440Y0017890D01*
G01X0021440Y0017890D02*
G01X0021440Y0018390D01*
G01X0021440Y0018390D02*
G01X0021690Y0018640D01*
G01X0021690Y0018640D02*
G01X0022190Y0018640D01*
G01X0022190Y0018640D02*
G01X0022440Y0018390D01*
G01X0022440Y0018390D02*
G01X0022440Y0017890D01*
G01X0022440Y0017890D02*
G01X0022190Y0017640D01*
G01X0022190Y0017640D02*
G01X0021690Y0017640D01*
G01X0021690Y0017640D02*
G01X0021440Y0017890D01*
G01X0022440Y0017890D02*
G01X0022690Y0017640D01*
G01X0022690Y0017640D02*
G01X0023190Y0017640D01*
G01X0023190Y0017640D02*
G01X0023440Y0017890D01*
G01X0023440Y0017890D02*
G01X0023440Y0018390D01*
G01X0023440Y0018390D02*
G01X0023190Y0018640D01*
G01X0023190Y0018640D02*
G01X0022690Y0018640D01*
G01X0022690Y0018640D02*
G01X0022440Y0018390D01*
G01X0022440Y0018390D02*
G01X0022440Y0017890D01*
G01X0023440Y0017890D02*
G01X0023690Y0017640D01*
G01X0023690Y0017640D02*
G01X0024190Y0017640D01*
G01X0024190Y0017640D02*
G01X0024440Y0017890D01*
G01X0024440Y0017890D02*
G01X0024440Y0018390D01*
G01X0024440Y0018390D02*
G01X0024190Y0018640D01*
G01X0024190Y0018640D02*
G01X0023690Y0018640D01*
G01X0023690Y0018640D02*
G01X0023440Y0018390D01*
G01X0023440Y0018390D02*
G01X0023440Y0017890D01*
G01X0025440Y0017890D02*
G01X0025690Y0017640D01*
G01X0025690Y0017640D02*
G01X0026190Y0017640D01*
G01X0026190Y0017640D02*
G01X0026440Y0017890D01*
G01X0026440Y0017890D02*
G01X0026440Y0018390D01*
G01X0026440Y0018390D02*
G01X0026190Y0018640D01*
G01X0026190Y0018640D02*
G01X0025690Y0018640D01*
G01X0025690Y0018640D02*
G01X0025440Y0018390D01*
G01X0025440Y0018390D02*
G01X0025440Y0017890D01*
G01X0026440Y0017890D02*
G01X0026690Y0017640D01*
G01X0026690Y0017640D02*
G01X0027190Y0017640D01*
G01X0027190Y0017640D02*
G01X0027440Y0017890D01*
G01X0027440Y0017890D02*
G01X0027440Y0018390D01*
G01X0027440Y0018390D02*
G01X0027190Y0018640D01*
G01X0027190Y0018640D02*
G01X0026690Y0018640D01*
G01X0026690Y0018640D02*
G01X0026440Y0018390D01*
G01X0026440Y0018390D02*
G01X0026440Y0017890D01*
G01X0027440Y0017890D02*
G01X0027690Y0017640D01*
G01X0027690Y0017640D02*
G01X0028190Y0017640D01*
G01X0028190Y0017640D02*
G01X0028440Y0017890D01*
G01X0028440Y0017890D02*
G01X0028440Y0018390D01*
G01X0028440Y0018390D02*
G01X0028190Y0018640D01*
G01X0028190Y0018640D02*
G01X0027690Y0018640D01*
G01X0027690Y0018640D02*
G01X0027440Y0018390D01*
G01X0027440Y0018390D02*
G01X0027440Y0017890D01*
G01X0028440Y0017890D02*
G01X0028690Y0017640D01*
G01X0028690Y0017640D02*
G01X0029190Y0017640D01*
G01X0029190Y0017640D02*
G01X0029440Y0017890D01*
G01X0029440Y0017890D02*
G01X0029440Y0018390D01*
G01X0029440Y0018390D02*
G01X0029190Y0018640D01*
G01X0029190Y0018640D02*
G01X0028690Y0018640D01*
G01X0028690Y0018640D02*
G01X0028440Y0018390D01*
G01X0028440Y0018390D02*
G01X0028440Y0017890D01*
G01X0029440Y0017890D02*
G01X0029690Y0017640D01*
G01X0029690Y0017640D02*
G01X0030190Y0017640D01*
G01X0030190Y0017640D02*
G01X0030440Y0017890D01*
G01X0030440Y0017890D02*
G01X0030440Y0018390D01*
G01X0030440Y0018390D02*
G01X0030190Y0018640D01*
G01X0030190Y0018640D02*
G01X0029690Y0018640D01*
G01X0029690Y0018640D02*
G01X0029440Y0018390D01*
G01X0029440Y0018390D02*
G01X0029440Y0017890D01*
G01X0030440Y0017890D02*
G01X0030440Y0018390D01*
G01X0030440Y0018390D02*
G01X0030690Y0018640D01*
G01X0030690Y0018640D02*
G01X0031190Y0018640D01*
G01X0031190Y0018640D02*
G01X0031440Y0018390D01*
G01X0031440Y0018390D02*
G01X0031440Y0017890D01*
G01X0031440Y0017890D02*
G01X0031190Y0017640D01*
G01X0031190Y0017640D02*
G01X0030690Y0017640D01*
G01X0030690Y0017640D02*
G01X0030440Y0017890D01*
G01X0030190Y0020640D02*
G01X0029690Y0020640D01*
G01X0029690Y0020640D02*
G01X0029440Y0020890D01*
G01X0029440Y0020890D02*
G01X0029440Y0021390D01*
G01X0029440Y0021390D02*
G01X0029690Y0021640D01*
G01X0029690Y0021640D02*
G01X0030190Y0021640D01*
G01X0030190Y0021640D02*
G01X0030440Y0021390D01*
G01X0030440Y0021390D02*
G01X0030690Y0021640D01*
G01X0030690Y0021640D02*
G01X0031190Y0021640D01*
G01X0031190Y0021640D02*
G01X0031440Y0021390D01*
G01X0031440Y0021390D02*
G01X0031440Y0020890D01*
G01X0031440Y0020890D02*
G01X0031190Y0020640D01*
G01X0031190Y0020640D02*
G01X0030690Y0020640D01*
G01X0030690Y0020640D02*
G01X0030440Y0020890D01*
G01X0030440Y0020890D02*
G01X0030440Y0021390D01*
G01X0030440Y0021390D02*
G01X0030440Y0020890D01*
G01X0030440Y0020890D02*
G01X0030190Y0020640D01*
G01X0029440Y0020890D02*
G01X0029440Y0021390D01*
G01X0029440Y0021390D02*
G01X0029190Y0021640D01*
G01X0029190Y0021640D02*
G01X0028690Y0021640D01*
G01X0028690Y0021640D02*
G01X0028440Y0021390D01*
G01X0028440Y0021390D02*
G01X0028440Y0020890D01*
G01X0028440Y0020890D02*
G01X0028690Y0020640D01*
G01X0028690Y0020640D02*
G01X0029190Y0020640D01*
G01X0029190Y0020640D02*
G01X0029440Y0020890D01*
G01X0028440Y0020890D02*
G01X0028440Y0021390D01*
G01X0028440Y0021390D02*
G01X0028190Y0021640D01*
G01X0028190Y0021640D02*
G01X0027690Y0021640D01*
G01X0027690Y0021640D02*
G01X0027440Y0021390D01*
G01X0027440Y0021390D02*
G01X0027440Y0020890D01*
G01X0027440Y0020890D02*
G01X0027690Y0020640D01*
G01X0027690Y0020640D02*
G01X0028190Y0020640D01*
G01X0028190Y0020640D02*
G01X0028440Y0020890D01*
G01X0027440Y0020890D02*
G01X0027440Y0021390D01*
G01X0027440Y0021390D02*
G01X0027190Y0021640D01*
G01X0027190Y0021640D02*
G01X0026690Y0021640D01*
G01X0026690Y0021640D02*
G01X0026440Y0021390D01*
G01X0026440Y0021390D02*
G01X0026440Y0020890D01*
G01X0026440Y0020890D02*
G01X0026690Y0020640D01*
G01X0026690Y0020640D02*
G01X0027190Y0020640D01*
G01X0027190Y0020640D02*
G01X0027440Y0020890D01*
G01X0026440Y0020890D02*
G01X0026190Y0020640D01*
G01X0026190Y0020640D02*
G01X0025690Y0020640D01*
G01X0025690Y0020640D02*
G01X0025440Y0020890D01*
G01X0025440Y0020890D02*
G01X0025440Y0021390D01*
G01X0025440Y0021390D02*
G01X0025690Y0021640D01*
G01X0025690Y0021640D02*
G01X0026190Y0021640D01*
G01X0026190Y0021640D02*
G01X0026440Y0021390D01*
G01X0026440Y0021390D02*
G01X0026440Y0020890D01*
G01X0024176Y0019758D02*
G01X0024176Y0019522D01*
G01X0023704Y0019522D02*
G01X0023704Y0019758D01*
G01X0023176Y0019758D02*
G01X0023176Y0019522D01*
G01X0022704Y0019522D02*
G01X0022704Y0019758D01*
G01X0022176Y0019758D02*
G01X0022176Y0019522D01*
G01X0021704Y0019522D02*
G01X0021704Y0019758D01*
G01X0021176Y0019758D02*
G01X0021176Y0019522D01*
G01X0020704Y0019522D02*
G01X0020704Y0019758D01*
G01X0020176Y0019758D02*
G01X0020176Y0019522D01*
G01X0019704Y0019522D02*
G01X0019704Y0019758D01*
G01X0019176Y0019758D02*
G01X0019176Y0019522D01*
G01X0018704Y0019522D02*
G01X0018704Y0019758D01*
G01X0018176Y0019758D02*
G01X0018176Y0019522D01*
G01X0017704Y0019522D02*
G01X0017704Y0019758D01*
G01X0017176Y0019758D02*
G01X0017176Y0019522D01*
G01X0016704Y0019522D02*
G01X0016704Y0019758D01*
G01X0016176Y0019758D02*
G01X0016176Y0019522D01*
G01X0015704Y0019522D02*
G01X0015704Y0019758D01*
G01X0015176Y0019758D02*
G01X0015176Y0019522D01*
G01X0014704Y0019522D02*
G01X0014704Y0019758D01*
G01X0014176Y0019758D02*
G01X0014176Y0019522D01*
G01X0013704Y0019522D02*
G01X0013704Y0019758D01*
G01X0013176Y0019758D02*
G01X0013176Y0019522D01*
G01X0012704Y0019522D02*
G01X0012704Y0019758D01*
G01X0012176Y0019758D02*
G01X0012176Y0019522D01*
G01X0011704Y0019522D02*
G01X0011704Y0019758D01*
G01X0011176Y0019758D02*
G01X0011176Y0019522D01*
G01X0010704Y0019522D02*
G01X0010704Y0019758D01*
G01X0010176Y0019758D02*
G01X0010176Y0019522D01*
G01X0009704Y0019522D02*
G01X0009704Y0019758D01*
G01X0009176Y0019758D02*
G01X0009176Y0019522D01*
G01X0008704Y0019522D02*
G01X0008704Y0019758D01*
G01X0008176Y0019758D02*
G01X0008176Y0019522D01*
G01X0007704Y0019522D02*
G01X0007704Y0019758D01*
G01X0007176Y0019758D02*
G01X0007176Y0019522D01*
G01X0006704Y0019522D02*
G01X0006704Y0019758D01*
G01X0006176Y0019758D02*
G01X0006176Y0019522D01*
G01X0005704Y0019522D02*
G01X0005704Y0019758D01*
G01X0005176Y0019758D02*
G01X0005176Y0019522D01*
G01X0004704Y0019522D02*
G01X0004704Y0019758D01*
G01X0004690Y0006640D02*
G01X0004440Y0006390D01*
G01X0004440Y0006390D02*
G01X0004440Y0005890D01*
G01X0004440Y0005890D02*
G01X0004690Y0005640D01*
G01X0004690Y0005640D02*
G01X0005190Y0005640D01*
G01X0005190Y0005640D02*
G01X0005440Y0005890D01*
G01X0005440Y0005890D02*
G01X0005690Y0005640D01*
G01X0005690Y0005640D02*
G01X0006190Y0005640D01*
G01X0006190Y0005640D02*
G01X0006440Y0005890D01*
G01X0006440Y0005890D02*
G01X0006690Y0005640D01*
G01X0006690Y0005640D02*
G01X0007190Y0005640D01*
G01X0007190Y0005640D02*
G01X0007440Y0005890D01*
G01X0007440Y0005890D02*
G01X0007690Y0005640D01*
G01X0007690Y0005640D02*
G01X0008190Y0005640D01*
G01X0008190Y0005640D02*
G01X0008440Y0005890D01*
G01X0008440Y0005890D02*
G01X0008690Y0005640D01*
G01X0008690Y0005640D02*
G01X0009190Y0005640D01*
G01X0009190Y0005640D02*
G01X0009440Y0005890D01*
G01X0009440Y0005890D02*
G01X0009690Y0005640D01*
G01X0009690Y0005640D02*
G01X0010190Y0005640D01*
G01X0010190Y0005640D02*
G01X0010440Y0005890D01*
G01X0010440Y0005890D02*
G01X0010690Y0005640D01*
G01X0010690Y0005640D02*
G01X0011190Y0005640D01*
G01X0011190Y0005640D02*
G01X0011440Y0005890D01*
G01X0011440Y0005890D02*
G01X0011690Y0005640D01*
G01X0011690Y0005640D02*
G01X0012190Y0005640D01*
G01X0012190Y0005640D02*
G01X0012440Y0005890D01*
G01X0012440Y0005890D02*
G01X0012690Y0005640D01*
G01X0012690Y0005640D02*
G01X0013190Y0005640D01*
G01X0013190Y0005640D02*
G01X0013440Y0005890D01*
G01X0013440Y0005890D02*
G01X0013690Y0005640D01*
G01X0013690Y0005640D02*
G01X0014190Y0005640D01*
G01X0014190Y0005640D02*
G01X0014440Y0005890D01*
G01X0014440Y0005890D02*
G01X0014690Y0005640D01*
G01X0014690Y0005640D02*
G01X0015190Y0005640D01*
G01X0015190Y0005640D02*
G01X0015440Y0005890D01*
G01X0015440Y0005890D02*
G01X0015690Y0005640D01*
G01X0015690Y0005640D02*
G01X0016190Y0005640D01*
G01X0016190Y0005640D02*
G01X0016440Y0005890D01*
G01X0016440Y0005890D02*
G01X0016690Y0005640D01*
G01X0016690Y0005640D02*
G01X0017190Y0005640D01*
G01X0017190Y0005640D02*
G01X0017440Y0005890D01*
G01X0017440Y0005890D02*
G01X0017690Y0005640D01*
G01X0017690Y0005640D02*
G01X0018190Y0005640D01*
G01X0018190Y0005640D02*
G01X0018440Y0005890D01*
G01X0018440Y0005890D02*
G01X0018690Y0005640D01*
G01X0018690Y0005640D02*
G01X0019190Y0005640D01*
G01X0019190Y0005640D02*
G01X0019440Y0005890D01*
G01X0019440Y0005890D02*
G01X0019690Y0005640D01*
G01X0019690Y0005640D02*
G01X0020190Y0005640D01*
G01X0020190Y0005640D02*
G01X0020440Y0005890D01*
G01X0020440Y0005890D02*
G01X0020690Y0005640D01*
G01X0020690Y0005640D02*
G01X0021190Y0005640D01*
G01X0021190Y0005640D02*
G01X0021440Y0005890D01*
G01X0021440Y0005890D02*
G01X0021690Y0005640D01*
G01X0021690Y0005640D02*
G01X0022190Y0005640D01*
G01X0022190Y0005640D02*
G01X0022440Y0005890D01*
G01X0022440Y0005890D02*
G01X0022690Y0005640D01*
G01X0022690Y0005640D02*
G01X0023190Y0005640D01*
G01X0023190Y0005640D02*
G01X0023440Y0005890D01*
G01X0023440Y0005890D02*
G01X0023690Y0005640D01*
G01X0023690Y0005640D02*
G01X0024190Y0005640D01*
G01X0024190Y0005640D02*
G01X0024440Y0005890D01*
G01X0024440Y0005890D02*
G01X0024440Y0006390D01*
G01X0024440Y0006390D02*
G01X0024190Y0006640D01*
G01X0024190Y0006640D02*
G01X0023690Y0006640D01*
G01X0023690Y0006640D02*
G01X0023440Y0006390D01*
G01X0023440Y0006390D02*
G01X0023440Y0005890D01*
G01X0023440Y0005890D02*
G01X0023440Y0006390D01*
G01X0023440Y0006390D02*
G01X0023190Y0006640D01*
G01X0023190Y0006640D02*
G01X0022690Y0006640D01*
G01X0022690Y0006640D02*
G01X0022440Y0006390D01*
G01X0022440Y0006390D02*
G01X0022440Y0005890D01*
G01X0022440Y0005890D02*
G01X0022440Y0006390D01*
G01X0022440Y0006390D02*
G01X0022190Y0006640D01*
G01X0022190Y0006640D02*
G01X0021690Y0006640D01*
G01X0021690Y0006640D02*
G01X0021440Y0006390D01*
G01X0021440Y0006390D02*
G01X0021440Y0005890D01*
G01X0021440Y0005890D02*
G01X0021440Y0006390D01*
G01X0021440Y0006390D02*
G01X0021190Y0006640D01*
G01X0021190Y0006640D02*
G01X0020690Y0006640D01*
G01X0020690Y0006640D02*
G01X0020440Y0006390D01*
G01X0020440Y0006390D02*
G01X0020440Y0005890D01*
G01X0020440Y0005890D02*
G01X0020440Y0006390D01*
G01X0020440Y0006390D02*
G01X0020190Y0006640D01*
G01X0020190Y0006640D02*
G01X0019690Y0006640D01*
G01X0019690Y0006640D02*
G01X0019440Y0006390D01*
G01X0019440Y0006390D02*
G01X0019440Y0005890D01*
G01X0019440Y0005890D02*
G01X0019440Y0006390D01*
G01X0019440Y0006390D02*
G01X0019190Y0006640D01*
G01X0019190Y0006640D02*
G01X0018690Y0006640D01*
G01X0018690Y0006640D02*
G01X0018440Y0006390D01*
G01X0018440Y0006390D02*
G01X0018440Y0005890D01*
G01X0018440Y0005890D02*
G01X0018440Y0006390D01*
G01X0018440Y0006390D02*
G01X0018190Y0006640D01*
G01X0018190Y0006640D02*
G01X0017690Y0006640D01*
G01X0017690Y0006640D02*
G01X0017440Y0006390D01*
G01X0017440Y0006390D02*
G01X0017440Y0005890D01*
G01X0017440Y0005890D02*
G01X0017440Y0006390D01*
G01X0017440Y0006390D02*
G01X0017190Y0006640D01*
G01X0017190Y0006640D02*
G01X0016690Y0006640D01*
G01X0016690Y0006640D02*
G01X0016440Y0006390D01*
G01X0016440Y0006390D02*
G01X0016440Y0005890D01*
G01X0016440Y0005890D02*
G01X0016440Y0006390D01*
G01X0016440Y0006390D02*
G01X0016190Y0006640D01*
G01X0016190Y0006640D02*
G01X0015690Y0006640D01*
G01X0015690Y0006640D02*
G01X0015440Y0006390D01*
G01X0015440Y0006390D02*
G01X0015440Y0005890D01*
G01X0015440Y0005890D02*
G01X0015440Y0006390D01*
G01X0015440Y0006390D02*
G01X0015190Y0006640D01*
G01X0015190Y0006640D02*
G01X0014690Y0006640D01*
G01X0014690Y0006640D02*
G01X0014440Y0006390D01*
G01X0014440Y0006390D02*
G01X0014440Y0005890D01*
G01X0014440Y0005890D02*
G01X0014440Y0006390D01*
G01X0014440Y0006390D02*
G01X0014190Y0006640D01*
G01X0014190Y0006640D02*
G01X0013690Y0006640D01*
G01X0013690Y0006640D02*
G01X0013440Y0006390D01*
G01X0013440Y0006390D02*
G01X0013440Y0005890D01*
G01X0013440Y0005890D02*
G01X0013440Y0006390D01*
G01X0013440Y0006390D02*
G01X0013190Y0006640D01*
G01X0013190Y0006640D02*
G01X0012690Y0006640D01*
G01X0012690Y0006640D02*
G01X0012440Y0006390D01*
G01X0012440Y0006390D02*
G01X0012440Y0005890D01*
G01X0012440Y0005890D02*
G01X0012440Y0006390D01*
G01X0012440Y0006390D02*
G01X0012190Y0006640D01*
G01X0012190Y0006640D02*
G01X0011690Y0006640D01*
G01X0011690Y0006640D02*
G01X0011440Y0006390D01*
G01X0011440Y0006390D02*
G01X0011440Y0005890D01*
G01X0011440Y0005890D02*
G01X0011440Y0006390D01*
G01X0011440Y0006390D02*
G01X0011190Y0006640D01*
G01X0011190Y0006640D02*
G01X0010690Y0006640D01*
G01X0010690Y0006640D02*
G01X0010440Y0006390D01*
G01X0010440Y0006390D02*
G01X0010440Y0005890D01*
G01X0010440Y0005890D02*
G01X0010440Y0006390D01*
G01X0010440Y0006390D02*
G01X0010190Y0006640D01*
G01X0010190Y0006640D02*
G01X0009690Y0006640D01*
G01X0009690Y0006640D02*
G01X0009440Y0006390D01*
G01X0009440Y0006390D02*
G01X0009440Y0005890D01*
G01X0009440Y0005890D02*
G01X0009440Y0006390D01*
G01X0009440Y0006390D02*
G01X0009190Y0006640D01*
G01X0009190Y0006640D02*
G01X0008690Y0006640D01*
G01X0008690Y0006640D02*
G01X0008440Y0006390D01*
G01X0008440Y0006390D02*
G01X0008440Y0005890D01*
G01X0008440Y0005890D02*
G01X0008440Y0006390D01*
G01X0008440Y0006390D02*
G01X0008190Y0006640D01*
G01X0008190Y0006640D02*
G01X0007690Y0006640D01*
G01X0007690Y0006640D02*
G01X0007440Y0006390D01*
G01X0007440Y0006390D02*
G01X0007440Y0005890D01*
G01X0007440Y0005890D02*
G01X0007440Y0006390D01*
G01X0007440Y0006390D02*
G01X0007190Y0006640D01*
G01X0007190Y0006640D02*
G01X0006690Y0006640D01*
G01X0006690Y0006640D02*
G01X0006440Y0006390D01*
G01X0006440Y0006390D02*
G01X0006440Y0005890D01*
G01X0006440Y0005890D02*
G01X0006440Y0006390D01*
G01X0006440Y0006390D02*
G01X0006190Y0006640D01*
G01X0006190Y0006640D02*
G01X0005690Y0006640D01*
G01X0005690Y0006640D02*
G01X0005440Y0006390D01*
G01X0005440Y0006390D02*
G01X0005440Y0005890D01*
G01X0005440Y0005890D02*
G01X0005440Y0006390D01*
G01X0005440Y0006390D02*
G01X0005190Y0006640D01*
G01X0005190Y0006640D02*
G01X0004690Y0006640D01*
G01X0004704Y0004758D02*
G01X0004704Y0004522D01*
G01X0005176Y0004522D02*
G01X0005176Y0004758D01*
G01X0005704Y0004758D02*
G01X0005704Y0004522D01*
G01X0006176Y0004522D02*
G01X0006176Y0004758D01*
G01X0006704Y0004758D02*
G01X0006704Y0004522D01*
G01X0007176Y0004522D02*
G01X0007176Y0004758D01*
G01X0007704Y0004758D02*
G01X0007704Y0004522D01*
G01X0008176Y0004522D02*
G01X0008176Y0004758D01*
G01X0008704Y0004758D02*
G01X0008704Y0004522D01*
G01X0009176Y0004522D02*
G01X0009176Y0004758D01*
G01X0009704Y0004758D02*
G01X0009704Y0004522D01*
G01X0010176Y0004522D02*
G01X0010176Y0004758D01*
G01X0010704Y0004758D02*
G01X0010704Y0004522D01*
G01X0011176Y0004522D02*
G01X0011176Y0004758D01*
G01X0011704Y0004758D02*
G01X0011704Y0004522D01*
G01X0012176Y0004522D02*
G01X0012176Y0004758D01*
G01X0012704Y0004758D02*
G01X0012704Y0004522D01*
G01X0013176Y0004522D02*
G01X0013176Y0004758D01*
G01X0013704Y0004758D02*
G01X0013704Y0004522D01*
G01X0014176Y0004522D02*
G01X0014176Y0004758D01*
G01X0014704Y0004758D02*
G01X0014704Y0004522D01*
G01X0015176Y0004522D02*
G01X0015176Y0004758D01*
G01X0015704Y0004758D02*
G01X0015704Y0004522D01*
G01X0016176Y0004522D02*
G01X0016176Y0004758D01*
G01X0016704Y0004758D02*
G01X0016704Y0004522D01*
G01X0017176Y0004522D02*
G01X0017176Y0004758D01*
G01X0017704Y0004758D02*
G01X0017704Y0004522D01*
G01X0018176Y0004522D02*
G01X0018176Y0004758D01*
G01X0018704Y0004758D02*
G01X0018704Y0004522D01*
G01X0019176Y0004522D02*
G01X0019176Y0004758D01*
G01X0019704Y0004758D02*
G01X0019704Y0004522D01*
G01X0020176Y0004522D02*
G01X0020176Y0004758D01*
G01X0025440Y0005890D02*
G01X0025690Y0005640D01*
G01X0025690Y0005640D02*
G01X0026190Y0005640D01*
G01X0026190Y0005640D02*
G01X0026440Y0005890D01*
G01X0026440Y0005890D02*
G01X0026690Y0005640D01*
G01X0026690Y0005640D02*
G01X0027190Y0005640D01*
G01X0027190Y0005640D02*
G01X0027440Y0005890D01*
G01X0027440Y0005890D02*
G01X0027690Y0005640D01*
G01X0027690Y0005640D02*
G01X0028190Y0005640D01*
G01X0028190Y0005640D02*
G01X0028440Y0005890D01*
G01X0028440Y0005890D02*
G01X0028690Y0005640D01*
G01X0028690Y0005640D02*
G01X0029190Y0005640D01*
G01X0029190Y0005640D02*
G01X0029440Y0005890D01*
G01X0029440Y0005890D02*
G01X0029690Y0005640D01*
G01X0029690Y0005640D02*
G01X0030190Y0005640D01*
G01X0030190Y0005640D02*
G01X0030440Y0005890D01*
G01X0030440Y0005890D02*
G01X0030690Y0005640D01*
G01X0030690Y0005640D02*
G01X0031190Y0005640D01*
G01X0031190Y0005640D02*
G01X0031440Y0005890D01*
G01X0031440Y0005890D02*
G01X0031440Y0006390D01*
G01X0031440Y0006390D02*
G01X0031190Y0006640D01*
G01X0031190Y0006640D02*
G01X0030690Y0006640D01*
G01X0030690Y0006640D02*
G01X0030440Y0006390D01*
G01X0030440Y0006390D02*
G01X0030440Y0005890D01*
G01X0030440Y0005890D02*
G01X0030440Y0006390D01*
G01X0030440Y0006390D02*
G01X0030190Y0006640D01*
G01X0030190Y0006640D02*
G01X0029690Y0006640D01*
G01X0029690Y0006640D02*
G01X0029440Y0006390D01*
G01X0029440Y0006390D02*
G01X0029440Y0005890D01*
G01X0029440Y0005890D02*
G01X0029440Y0006390D01*
G01X0029440Y0006390D02*
G01X0029190Y0006640D01*
G01X0029190Y0006640D02*
G01X0028690Y0006640D01*
G01X0028690Y0006640D02*
G01X0028440Y0006390D01*
G01X0028440Y0006390D02*
G01X0028440Y0005890D01*
G01X0028440Y0005890D02*
G01X0028440Y0006390D01*
G01X0028440Y0006390D02*
G01X0028190Y0006640D01*
G01X0028190Y0006640D02*
G01X0027690Y0006640D01*
G01X0027690Y0006640D02*
G01X0027440Y0006390D01*
G01X0027440Y0006390D02*
G01X0027440Y0005890D01*
G01X0027440Y0005890D02*
G01X0027440Y0006390D01*
G01X0027440Y0006390D02*
G01X0027190Y0006640D01*
G01X0027190Y0006640D02*
G01X0026690Y0006640D01*
G01X0026690Y0006640D02*
G01X0026440Y0006390D01*
G01X0026440Y0006390D02*
G01X0026440Y0005890D01*
G01X0026440Y0005890D02*
G01X0026440Y0006390D01*
G01X0026440Y0006390D02*
G01X0026190Y0006640D01*
G01X0026190Y0006640D02*
G01X0025690Y0006640D01*
G01X0025690Y0006640D02*
G01X0025440Y0006390D01*
G01X0025440Y0006390D02*
G01X0025440Y0005890D01*
G01X0025690Y0003640D02*
G01X0026190Y0003640D01*
G01X0026190Y0003640D02*
G01X0026440Y0003390D01*
G01X0026440Y0003390D02*
G01X0026690Y0003640D01*
G01X0026690Y0003640D02*
G01X0027190Y0003640D01*
G01X0027190Y0003640D02*
G01X0027440Y0003390D01*
G01X0027440Y0003390D02*
G01X0027690Y0003640D01*
G01X0027690Y0003640D02*
G01X0028190Y0003640D01*
G01X0028190Y0003640D02*
G01X0028440Y0003390D01*
G01X0028440Y0003390D02*
G01X0028690Y0003640D01*
G01X0028690Y0003640D02*
G01X0029190Y0003640D01*
G01X0029190Y0003640D02*
G01X0029440Y0003390D01*
G01X0029440Y0003390D02*
G01X0029690Y0003640D01*
G01X0029690Y0003640D02*
G01X0030190Y0003640D01*
G01X0030190Y0003640D02*
G01X0030440Y0003390D01*
G01X0030440Y0003390D02*
G01X0030690Y0003640D01*
G01X0030690Y0003640D02*
G01X0031190Y0003640D01*
G01X0031190Y0003640D02*
G01X0031440Y0003390D01*
G01X0031440Y0003390D02*
G01X0031440Y0002890D01*
G01X0031440Y0002890D02*
G01X0031190Y0002640D01*
G01X0031190Y0002640D02*
G01X0030690Y0002640D01*
G01X0030690Y0002640D02*
G01X0030440Y0002890D01*
G01X0030440Y0002890D02*
G01X0030440Y0003390D01*
G01X0030440Y0003390D02*
G01X0030440Y0002890D01*
G01X0030440Y0002890D02*
G01X0030190Y0002640D01*
G01X0030190Y0002640D02*
G01X0029690Y0002640D01*
G01X0029690Y0002640D02*
G01X0029440Y0002890D01*
G01X0029440Y0002890D02*
G01X0029440Y0003390D01*
G01X0029440Y0003390D02*
G01X0029440Y0002890D01*
G01X0029440Y0002890D02*
G01X0029190Y0002640D01*
G01X0029190Y0002640D02*
G01X0028690Y0002640D01*
G01X0028690Y0002640D02*
G01X0028440Y0002890D01*
G01X0028440Y0002890D02*
G01X0028440Y0003390D01*
G01X0028440Y0003390D02*
G01X0028440Y0002890D01*
G01X0028440Y0002890D02*
G01X0028190Y0002640D01*
G01X0028190Y0002640D02*
G01X0027690Y0002640D01*
G01X0027690Y0002640D02*
G01X0027440Y0002890D01*
G01X0027440Y0002890D02*
G01X0027440Y0003390D01*
G01X0027440Y0003390D02*
G01X0027440Y0002890D01*
G01X0027440Y0002890D02*
G01X0027190Y0002640D01*
G01X0027190Y0002640D02*
G01X0026690Y0002640D01*
G01X0026690Y0002640D02*
G01X0026440Y0002890D01*
G01X0026440Y0002890D02*
G01X0026440Y0003390D01*
G01X0026440Y0003390D02*
G01X0026440Y0002890D01*
G01X0026440Y0002890D02*
G01X0026190Y0002640D01*
G01X0026190Y0002640D02*
G01X0025690Y0002640D01*
G01X0025690Y0002640D02*
G01X0025440Y0002890D01*
G01X0025440Y0002890D02*
G01X0025440Y0003390D01*
G01X0025440Y0003390D02*
G01X0025690Y0003640D01*
G54D126*
G01X0032310Y0002140D02*
G01X0032312Y0002190D01*
G01X0032312Y0002190D02*
G01X0032318Y0002240D01*
G01X0032318Y0002240D02*
G01X0032328Y0002289D01*
G01X0032328Y0002289D02*
G01X0032342Y0002337D01*
G01X0032342Y0002337D02*
G01X0032359Y0002384D01*
G01X0032359Y0002384D02*
G01X0032380Y0002429D01*
G01X0032380Y0002429D02*
G01X0032405Y0002473D01*
G01X0032405Y0002473D02*
G01X0032433Y0002514D01*
G01X0032433Y0002514D02*
G01X0032465Y0002553D01*
G01X0032465Y0002553D02*
G01X0032499Y0002590D01*
G01X0032499Y0002590D02*
G01X0032536Y0002624D01*
G01X0032536Y0002624D02*
G01X0032576Y0002654D01*
G01X0032576Y0002654D02*
G01X0032618Y0002681D01*
G01X0032618Y0002681D02*
G01X0032662Y0002705D01*
G01X0032662Y0002705D02*
G01X0032708Y0002726D01*
G01X0032708Y0002726D02*
G01X0032755Y0002742D01*
G01X0032755Y0002742D02*
G01X0032803Y0002755D01*
G01X0032803Y0002755D02*
G01X0032853Y0002764D01*
G01X0032853Y0002764D02*
G01X0032902Y0002769D01*
G01X0032902Y0002769D02*
G01X0032953Y0002770D01*
G01X0032953Y0002770D02*
G01X0033003Y0002767D01*
G01X0033003Y0002767D02*
G01X0033052Y0002760D01*
G01X0033052Y0002760D02*
G01X0033101Y0002749D01*
G01X0033101Y0002749D02*
G01X0033149Y0002734D01*
G01X0033149Y0002734D02*
G01X0033195Y0002716D01*
G01X0033195Y0002716D02*
G01X0033240Y0002694D01*
G01X0033240Y0002694D02*
G01X0033283Y0002668D01*
G01X0033283Y0002668D02*
G01X0033324Y0002639D01*
G01X0033324Y0002639D02*
G01X0033363Y0002607D01*
G01X0033363Y0002607D02*
G01X0033399Y0002572D01*
G01X0033399Y0002572D02*
G01X0033431Y0002534D01*
G01X0033431Y0002534D02*
G01X0033461Y0002494D01*
G01X0033461Y0002494D02*
G01X0033488Y0002451D01*
G01X0033488Y0002451D02*
G01X0033511Y0002407D01*
G01X0033511Y0002407D02*
G01X0033530Y0002361D01*
G01X0033530Y0002361D02*
G01X0033546Y0002313D01*
G01X0033546Y0002313D02*
G01X0033558Y0002264D01*
G01X0033558Y0002264D02*
G01X0033566Y0002215D01*
G01X0033566Y0002215D02*
G01X0033570Y0002165D01*
G01X0033570Y0002165D02*
G01X0033570Y0002115D01*
G01X0033570Y0002115D02*
G01X0033566Y0002065D01*
G01X0033566Y0002065D02*
G01X0033558Y0002016D01*
G01X0033558Y0002016D02*
G01X0033546Y0001967D01*
G01X0033546Y0001967D02*
G01X0033530Y0001919D01*
G01X0033530Y0001919D02*
G01X0033511Y0001873D01*
G01X0033511Y0001873D02*
G01X0033488Y0001829D01*
G01X0033488Y0001829D02*
G01X0033461Y0001786D01*
G01X0033461Y0001786D02*
G01X0033431Y0001746D01*
G01X0033431Y0001746D02*
G01X0033399Y0001708D01*
G01X0033399Y0001708D02*
G01X0033363Y0001673D01*
G01X0033363Y0001673D02*
G01X0033324Y0001641D01*
G01X0033324Y0001641D02*
G01X0033283Y0001612D01*
G01X0033283Y0001612D02*
G01X0033240Y0001586D01*
G01X0033240Y0001586D02*
G01X0033195Y0001564D01*
G01X0033195Y0001564D02*
G01X0033149Y0001546D01*
G01X0033149Y0001546D02*
G01X0033101Y0001531D01*
G01X0033101Y0001531D02*
G01X0033052Y0001520D01*
G01X0033052Y0001520D02*
G01X0033003Y0001513D01*
G01X0033003Y0001513D02*
G01X0032953Y0001510D01*
G01X0032953Y0001510D02*
G01X0032902Y0001511D01*
G01X0032902Y0001511D02*
G01X0032853Y0001516D01*
G01X0032853Y0001516D02*
G01X0032803Y0001525D01*
G01X0032803Y0001525D02*
G01X0032755Y0001538D01*
G01X0032755Y0001538D02*
G01X0032708Y0001554D01*
G01X0032708Y0001554D02*
G01X0032662Y0001575D01*
G01X0032662Y0001575D02*
G01X0032618Y0001599D01*
G01X0032618Y0001599D02*
G01X0032576Y0001626D01*
G01X0032576Y0001626D02*
G01X0032536Y0001656D01*
G01X0032536Y0001656D02*
G01X0032499Y0001690D01*
G01X0032499Y0001690D02*
G01X0032465Y0001727D01*
G01X0032465Y0001727D02*
G01X0032433Y0001766D01*
G01X0032433Y0001766D02*
G01X0032405Y0001807D01*
G01X0032405Y0001807D02*
G01X0032380Y0001851D01*
G01X0032380Y0001851D02*
G01X0032359Y0001896D01*
G01X0032359Y0001896D02*
G01X0032342Y0001943D01*
G01X0032342Y0001943D02*
G01X0032328Y0001991D01*
G01X0032328Y0001991D02*
G01X0032318Y0002040D01*
G01X0032318Y0002040D02*
G01X0032312Y0002090D01*
G01X0032312Y0002090D02*
G01X0032310Y0002140D01*
G01X0032310Y0022140D02*
G01X0032312Y0022190D01*
G01X0032312Y0022190D02*
G01X0032318Y0022240D01*
G01X0032318Y0022240D02*
G01X0032328Y0022289D01*
G01X0032328Y0022289D02*
G01X0032342Y0022337D01*
G01X0032342Y0022337D02*
G01X0032359Y0022384D01*
G01X0032359Y0022384D02*
G01X0032380Y0022429D01*
G01X0032380Y0022429D02*
G01X0032405Y0022473D01*
G01X0032405Y0022473D02*
G01X0032433Y0022514D01*
G01X0032433Y0022514D02*
G01X0032465Y0022553D01*
G01X0032465Y0022553D02*
G01X0032499Y0022590D01*
G01X0032499Y0022590D02*
G01X0032536Y0022624D01*
G01X0032536Y0022624D02*
G01X0032576Y0022654D01*
G01X0032576Y0022654D02*
G01X0032618Y0022681D01*
G01X0032618Y0022681D02*
G01X0032662Y0022705D01*
G01X0032662Y0022705D02*
G01X0032708Y0022726D01*
G01X0032708Y0022726D02*
G01X0032755Y0022742D01*
G01X0032755Y0022742D02*
G01X0032803Y0022755D01*
G01X0032803Y0022755D02*
G01X0032853Y0022764D01*
G01X0032853Y0022764D02*
G01X0032902Y0022769D01*
G01X0032902Y0022769D02*
G01X0032953Y0022770D01*
G01X0032953Y0022770D02*
G01X0033003Y0022767D01*
G01X0033003Y0022767D02*
G01X0033052Y0022760D01*
G01X0033052Y0022760D02*
G01X0033101Y0022749D01*
G01X0033101Y0022749D02*
G01X0033149Y0022734D01*
G01X0033149Y0022734D02*
G01X0033195Y0022716D01*
G01X0033195Y0022716D02*
G01X0033240Y0022694D01*
G01X0033240Y0022694D02*
G01X0033283Y0022668D01*
G01X0033283Y0022668D02*
G01X0033324Y0022639D01*
G01X0033324Y0022639D02*
G01X0033363Y0022607D01*
G01X0033363Y0022607D02*
G01X0033399Y0022572D01*
G01X0033399Y0022572D02*
G01X0033431Y0022534D01*
G01X0033431Y0022534D02*
G01X0033461Y0022494D01*
G01X0033461Y0022494D02*
G01X0033488Y0022451D01*
G01X0033488Y0022451D02*
G01X0033511Y0022407D01*
G01X0033511Y0022407D02*
G01X0033530Y0022361D01*
G01X0033530Y0022361D02*
G01X0033546Y0022313D01*
G01X0033546Y0022313D02*
G01X0033558Y0022264D01*
G01X0033558Y0022264D02*
G01X0033566Y0022215D01*
G01X0033566Y0022215D02*
G01X0033570Y0022165D01*
G01X0033570Y0022165D02*
G01X0033570Y0022115D01*
G01X0033570Y0022115D02*
G01X0033566Y0022065D01*
G01X0033566Y0022065D02*
G01X0033558Y0022016D01*
G01X0033558Y0022016D02*
G01X0033546Y0021967D01*
G01X0033546Y0021967D02*
G01X0033530Y0021919D01*
G01X0033530Y0021919D02*
G01X0033511Y0021873D01*
G01X0033511Y0021873D02*
G01X0033488Y0021829D01*
G01X0033488Y0021829D02*
G01X0033461Y0021786D01*
G01X0033461Y0021786D02*
G01X0033431Y0021746D01*
G01X0033431Y0021746D02*
G01X0033399Y0021708D01*
G01X0033399Y0021708D02*
G01X0033363Y0021673D01*
G01X0033363Y0021673D02*
G01X0033324Y0021641D01*
G01X0033324Y0021641D02*
G01X0033283Y0021612D01*
G01X0033283Y0021612D02*
G01X0033240Y0021586D01*
G01X0033240Y0021586D02*
G01X0033195Y0021564D01*
G01X0033195Y0021564D02*
G01X0033149Y0021546D01*
G01X0033149Y0021546D02*
G01X0033101Y0021531D01*
G01X0033101Y0021531D02*
G01X0033052Y0021520D01*
G01X0033052Y0021520D02*
G01X0033003Y0021513D01*
G01X0033003Y0021513D02*
G01X0032953Y0021510D01*
G01X0032953Y0021510D02*
G01X0032902Y0021511D01*
G01X0032902Y0021511D02*
G01X0032853Y0021516D01*
G01X0032853Y0021516D02*
G01X0032803Y0021525D01*
G01X0032803Y0021525D02*
G01X0032755Y0021538D01*
G01X0032755Y0021538D02*
G01X0032708Y0021554D01*
G01X0032708Y0021554D02*
G01X0032662Y0021575D01*
G01X0032662Y0021575D02*
G01X0032618Y0021599D01*
G01X0032618Y0021599D02*
G01X0032576Y0021626D01*
G01X0032576Y0021626D02*
G01X0032536Y0021656D01*
G01X0032536Y0021656D02*
G01X0032499Y0021690D01*
G01X0032499Y0021690D02*
G01X0032465Y0021727D01*
G01X0032465Y0021727D02*
G01X0032433Y0021766D01*
G01X0032433Y0021766D02*
G01X0032405Y0021807D01*
G01X0032405Y0021807D02*
G01X0032380Y0021851D01*
G01X0032380Y0021851D02*
G01X0032359Y0021896D01*
G01X0032359Y0021896D02*
G01X0032342Y0021943D01*
G01X0032342Y0021943D02*
G01X0032328Y0021991D01*
G01X0032328Y0021991D02*
G01X0032318Y0022040D01*
G01X0032318Y0022040D02*
G01X0032312Y0022090D01*
G01X0032312Y0022090D02*
G01X0032310Y0022140D01*
G01X0001310Y0022140D02*
G01X0001312Y0022190D01*
G01X0001312Y0022190D02*
G01X0001318Y0022240D01*
G01X0001318Y0022240D02*
G01X0001328Y0022289D01*
G01X0001328Y0022289D02*
G01X0001342Y0022337D01*
G01X0001342Y0022337D02*
G01X0001359Y0022384D01*
G01X0001359Y0022384D02*
G01X0001380Y0022429D01*
G01X0001380Y0022429D02*
G01X0001405Y0022473D01*
G01X0001405Y0022473D02*
G01X0001433Y0022514D01*
G01X0001433Y0022514D02*
G01X0001465Y0022553D01*
G01X0001465Y0022553D02*
G01X0001499Y0022590D01*
G01X0001499Y0022590D02*
G01X0001536Y0022624D01*
G01X0001536Y0022624D02*
G01X0001576Y0022654D01*
G01X0001576Y0022654D02*
G01X0001618Y0022681D01*
G01X0001618Y0022681D02*
G01X0001662Y0022705D01*
G01X0001662Y0022705D02*
G01X0001708Y0022726D01*
G01X0001708Y0022726D02*
G01X0001755Y0022742D01*
G01X0001755Y0022742D02*
G01X0001803Y0022755D01*
G01X0001803Y0022755D02*
G01X0001853Y0022764D01*
G01X0001853Y0022764D02*
G01X0001902Y0022769D01*
G01X0001902Y0022769D02*
G01X0001953Y0022770D01*
G01X0001953Y0022770D02*
G01X0002003Y0022767D01*
G01X0002003Y0022767D02*
G01X0002052Y0022760D01*
G01X0002052Y0022760D02*
G01X0002101Y0022749D01*
G01X0002101Y0022749D02*
G01X0002149Y0022734D01*
G01X0002149Y0022734D02*
G01X0002195Y0022716D01*
G01X0002195Y0022716D02*
G01X0002240Y0022694D01*
G01X0002240Y0022694D02*
G01X0002283Y0022668D01*
G01X0002283Y0022668D02*
G01X0002324Y0022639D01*
G01X0002324Y0022639D02*
G01X0002363Y0022607D01*
G01X0002363Y0022607D02*
G01X0002399Y0022572D01*
G01X0002399Y0022572D02*
G01X0002431Y0022534D01*
G01X0002431Y0022534D02*
G01X0002461Y0022494D01*
G01X0002461Y0022494D02*
G01X0002488Y0022451D01*
G01X0002488Y0022451D02*
G01X0002511Y0022407D01*
G01X0002511Y0022407D02*
G01X0002530Y0022361D01*
G01X0002530Y0022361D02*
G01X0002546Y0022313D01*
G01X0002546Y0022313D02*
G01X0002558Y0022264D01*
G01X0002558Y0022264D02*
G01X0002566Y0022215D01*
G01X0002566Y0022215D02*
G01X0002570Y0022165D01*
G01X0002570Y0022165D02*
G01X0002570Y0022115D01*
G01X0002570Y0022115D02*
G01X0002566Y0022065D01*
G01X0002566Y0022065D02*
G01X0002558Y0022016D01*
G01X0002558Y0022016D02*
G01X0002546Y0021967D01*
G01X0002546Y0021967D02*
G01X0002530Y0021919D01*
G01X0002530Y0021919D02*
G01X0002511Y0021873D01*
G01X0002511Y0021873D02*
G01X0002488Y0021829D01*
G01X0002488Y0021829D02*
G01X0002461Y0021786D01*
G01X0002461Y0021786D02*
G01X0002431Y0021746D01*
G01X0002431Y0021746D02*
G01X0002399Y0021708D01*
G01X0002399Y0021708D02*
G01X0002363Y0021673D01*
G01X0002363Y0021673D02*
G01X0002324Y0021641D01*
G01X0002324Y0021641D02*
G01X0002283Y0021612D01*
G01X0002283Y0021612D02*
G01X0002240Y0021586D01*
G01X0002240Y0021586D02*
G01X0002195Y0021564D01*
G01X0002195Y0021564D02*
G01X0002149Y0021546D01*
G01X0002149Y0021546D02*
G01X0002101Y0021531D01*
G01X0002101Y0021531D02*
G01X0002052Y0021520D01*
G01X0002052Y0021520D02*
G01X0002003Y0021513D01*
G01X0002003Y0021513D02*
G01X0001953Y0021510D01*
G01X0001953Y0021510D02*
G01X0001902Y0021511D01*
G01X0001902Y0021511D02*
G01X0001853Y0021516D01*
G01X0001853Y0021516D02*
G01X0001803Y0021525D01*
G01X0001803Y0021525D02*
G01X0001755Y0021538D01*
G01X0001755Y0021538D02*
G01X0001708Y0021554D01*
G01X0001708Y0021554D02*
G01X0001662Y0021575D01*
G01X0001662Y0021575D02*
G01X0001618Y0021599D01*
G01X0001618Y0021599D02*
G01X0001576Y0021626D01*
G01X0001576Y0021626D02*
G01X0001536Y0021656D01*
G01X0001536Y0021656D02*
G01X0001499Y0021690D01*
G01X0001499Y0021690D02*
G01X0001465Y0021727D01*
G01X0001465Y0021727D02*
G01X0001433Y0021766D01*
G01X0001433Y0021766D02*
G01X0001405Y0021807D01*
G01X0001405Y0021807D02*
G01X0001380Y0021851D01*
G01X0001380Y0021851D02*
G01X0001359Y0021896D01*
G01X0001359Y0021896D02*
G01X0001342Y0021943D01*
G01X0001342Y0021943D02*
G01X0001328Y0021991D01*
G01X0001328Y0021991D02*
G01X0001318Y0022040D01*
G01X0001318Y0022040D02*
G01X0001312Y0022090D01*
G01X0001312Y0022090D02*
G01X0001310Y0022140D01*
G01X0001310Y0002140D02*
G01X0001312Y0002190D01*
G01X0001312Y0002190D02*
G01X0001318Y0002240D01*
G01X0001318Y0002240D02*
G01X0001328Y0002289D01*
G01X0001328Y0002289D02*
G01X0001342Y0002337D01*
G01X0001342Y0002337D02*
G01X0001359Y0002384D01*
G01X0001359Y0002384D02*
G01X0001380Y0002429D01*
G01X0001380Y0002429D02*
G01X0001405Y0002473D01*
G01X0001405Y0002473D02*
G01X0001433Y0002514D01*
G01X0001433Y0002514D02*
G01X0001465Y0002553D01*
G01X0001465Y0002553D02*
G01X0001499Y0002590D01*
G01X0001499Y0002590D02*
G01X0001536Y0002624D01*
G01X0001536Y0002624D02*
G01X0001576Y0002654D01*
G01X0001576Y0002654D02*
G01X0001618Y0002681D01*
G01X0001618Y0002681D02*
G01X0001662Y0002705D01*
G01X0001662Y0002705D02*
G01X0001708Y0002726D01*
G01X0001708Y0002726D02*
G01X0001755Y0002742D01*
G01X0001755Y0002742D02*
G01X0001803Y0002755D01*
G01X0001803Y0002755D02*
G01X0001853Y0002764D01*
G01X0001853Y0002764D02*
G01X0001902Y0002769D01*
G01X0001902Y0002769D02*
G01X0001953Y0002770D01*
G01X0001953Y0002770D02*
G01X0002003Y0002767D01*
G01X0002003Y0002767D02*
G01X0002052Y0002760D01*
G01X0002052Y0002760D02*
G01X0002101Y0002749D01*
G01X0002101Y0002749D02*
G01X0002149Y0002734D01*
G01X0002149Y0002734D02*
G01X0002195Y0002716D01*
G01X0002195Y0002716D02*
G01X0002240Y0002694D01*
G01X0002240Y0002694D02*
G01X0002283Y0002668D01*
G01X0002283Y0002668D02*
G01X0002324Y0002639D01*
G01X0002324Y0002639D02*
G01X0002363Y0002607D01*
G01X0002363Y0002607D02*
G01X0002399Y0002572D01*
G01X0002399Y0002572D02*
G01X0002431Y0002534D01*
G01X0002431Y0002534D02*
G01X0002461Y0002494D01*
G01X0002461Y0002494D02*
G01X0002488Y0002451D01*
G01X0002488Y0002451D02*
G01X0002511Y0002407D01*
G01X0002511Y0002407D02*
G01X0002530Y0002361D01*
G01X0002530Y0002361D02*
G01X0002546Y0002313D01*
G01X0002546Y0002313D02*
G01X0002558Y0002264D01*
G01X0002558Y0002264D02*
G01X0002566Y0002215D01*
G01X0002566Y0002215D02*
G01X0002570Y0002165D01*
G01X0002570Y0002165D02*
G01X0002570Y0002115D01*
G01X0002570Y0002115D02*
G01X0002566Y0002065D01*
G01X0002566Y0002065D02*
G01X0002558Y0002016D01*
G01X0002558Y0002016D02*
G01X0002546Y0001967D01*
G01X0002546Y0001967D02*
G01X0002530Y0001919D01*
G01X0002530Y0001919D02*
G01X0002511Y0001873D01*
G01X0002511Y0001873D02*
G01X0002488Y0001829D01*
G01X0002488Y0001829D02*
G01X0002461Y0001786D01*
G01X0002461Y0001786D02*
G01X0002431Y0001746D01*
G01X0002431Y0001746D02*
G01X0002399Y0001708D01*
G01X0002399Y0001708D02*
G01X0002363Y0001673D01*
G01X0002363Y0001673D02*
G01X0002324Y0001641D01*
G01X0002324Y0001641D02*
G01X0002283Y0001612D01*
G01X0002283Y0001612D02*
G01X0002240Y0001586D01*
G01X0002240Y0001586D02*
G01X0002195Y0001564D01*
G01X0002195Y0001564D02*
G01X0002149Y0001546D01*
G01X0002149Y0001546D02*
G01X0002101Y0001531D01*
G01X0002101Y0001531D02*
G01X0002052Y0001520D01*
G01X0002052Y0001520D02*
G01X0002003Y0001513D01*
G01X0002003Y0001513D02*
G01X0001953Y0001510D01*
G01X0001953Y0001510D02*
G01X0001902Y0001511D01*
G01X0001902Y0001511D02*
G01X0001853Y0001516D01*
G01X0001853Y0001516D02*
G01X0001803Y0001525D01*
G01X0001803Y0001525D02*
G01X0001755Y0001538D01*
G01X0001755Y0001538D02*
G01X0001708Y0001554D01*
G01X0001708Y0001554D02*
G01X0001662Y0001575D01*
G01X0001662Y0001575D02*
G01X0001618Y0001599D01*
G01X0001618Y0001599D02*
G01X0001576Y0001626D01*
G01X0001576Y0001626D02*
G01X0001536Y0001656D01*
G01X0001536Y0001656D02*
G01X0001499Y0001690D01*
G01X0001499Y0001690D02*
G01X0001465Y0001727D01*
G01X0001465Y0001727D02*
G01X0001433Y0001766D01*
G01X0001433Y0001766D02*
G01X0001405Y0001807D01*
G01X0001405Y0001807D02*
G01X0001380Y0001851D01*
G01X0001380Y0001851D02*
G01X0001359Y0001896D01*
G01X0001359Y0001896D02*
G01X0001342Y0001943D01*
G01X0001342Y0001943D02*
G01X0001328Y0001991D01*
G01X0001328Y0001991D02*
G01X0001318Y0002040D01*
G01X0001318Y0002040D02*
G01X0001312Y0002090D01*
G01X0001312Y0002090D02*
G01X0001310Y0002140D01*
M02*
