G75*
G70*
%OFA0B0*%
%FSLAX24Y24*%
%IPPOS*%
%LPD*%
%AMOC8*
5,1,8,0,0,1.08239X$1,22.5*
%
%ADD10C,0.0050*%
%ADD11C,0.0000*%
D10*
X001440Y000640D02*
X033440Y000640D01*
X033500Y000642D01*
X033561Y000647D01*
X033620Y000656D01*
X033679Y000669D01*
X033738Y000685D01*
X033795Y000705D01*
X033850Y000728D01*
X033905Y000755D01*
X033957Y000784D01*
X034008Y000817D01*
X034057Y000853D01*
X034103Y000891D01*
X034147Y000933D01*
X034189Y000977D01*
X034227Y001023D01*
X034263Y001072D01*
X034296Y001123D01*
X034325Y001175D01*
X034352Y001230D01*
X034375Y001285D01*
X034395Y001342D01*
X034411Y001401D01*
X034424Y001460D01*
X034433Y001519D01*
X034438Y001580D01*
X034440Y001640D01*
X034440Y022640D01*
X034438Y022700D01*
X034433Y022761D01*
X034424Y022820D01*
X034411Y022879D01*
X034395Y022938D01*
X034375Y022995D01*
X034352Y023050D01*
X034325Y023105D01*
X034296Y023157D01*
X034263Y023208D01*
X034227Y023257D01*
X034189Y023303D01*
X034147Y023347D01*
X034103Y023389D01*
X034057Y023427D01*
X034008Y023463D01*
X033957Y023496D01*
X033905Y023525D01*
X033850Y023552D01*
X033795Y023575D01*
X033738Y023595D01*
X033679Y023611D01*
X033620Y023624D01*
X033561Y023633D01*
X033500Y023638D01*
X033440Y023640D01*
X001440Y023640D01*
X001380Y023638D01*
X001319Y023633D01*
X001260Y023624D01*
X001201Y023611D01*
X001142Y023595D01*
X001085Y023575D01*
X001030Y023552D01*
X000975Y023525D01*
X000923Y023496D01*
X000872Y023463D01*
X000823Y023427D01*
X000777Y023389D01*
X000733Y023347D01*
X000691Y023303D01*
X000653Y023257D01*
X000617Y023208D01*
X000584Y023157D01*
X000555Y023105D01*
X000528Y023050D01*
X000505Y022995D01*
X000485Y022938D01*
X000469Y022879D01*
X000456Y022820D01*
X000447Y022761D01*
X000442Y022700D01*
X000440Y022640D01*
X000440Y001640D01*
X000442Y001580D01*
X000447Y001519D01*
X000456Y001460D01*
X000469Y001401D01*
X000485Y001342D01*
X000505Y001285D01*
X000528Y001230D01*
X000555Y001175D01*
X000584Y001123D01*
X000617Y001072D01*
X000653Y001023D01*
X000691Y000977D01*
X000733Y000933D01*
X000777Y000891D01*
X000823Y000853D01*
X000872Y000817D01*
X000923Y000784D01*
X000975Y000755D01*
X001030Y000728D01*
X001085Y000705D01*
X001142Y000685D01*
X001201Y000669D01*
X001260Y000656D01*
X001319Y000647D01*
X001380Y000642D01*
X001440Y000640D01*
D11*
X001310Y002140D02*
X001312Y002190D01*
X001318Y002240D01*
X001328Y002289D01*
X001342Y002337D01*
X001359Y002384D01*
X001380Y002429D01*
X001405Y002473D01*
X001433Y002514D01*
X001465Y002553D01*
X001499Y002590D01*
X001536Y002624D01*
X001576Y002654D01*
X001618Y002681D01*
X001662Y002705D01*
X001708Y002726D01*
X001755Y002742D01*
X001803Y002755D01*
X001853Y002764D01*
X001902Y002769D01*
X001953Y002770D01*
X002003Y002767D01*
X002052Y002760D01*
X002101Y002749D01*
X002149Y002734D01*
X002195Y002716D01*
X002240Y002694D01*
X002283Y002668D01*
X002324Y002639D01*
X002363Y002607D01*
X002399Y002572D01*
X002431Y002534D01*
X002461Y002494D01*
X002488Y002451D01*
X002511Y002407D01*
X002530Y002361D01*
X002546Y002313D01*
X002558Y002264D01*
X002566Y002215D01*
X002570Y002165D01*
X002570Y002115D01*
X002566Y002065D01*
X002558Y002016D01*
X002546Y001967D01*
X002530Y001919D01*
X002511Y001873D01*
X002488Y001829D01*
X002461Y001786D01*
X002431Y001746D01*
X002399Y001708D01*
X002363Y001673D01*
X002324Y001641D01*
X002283Y001612D01*
X002240Y001586D01*
X002195Y001564D01*
X002149Y001546D01*
X002101Y001531D01*
X002052Y001520D01*
X002003Y001513D01*
X001953Y001510D01*
X001902Y001511D01*
X001853Y001516D01*
X001803Y001525D01*
X001755Y001538D01*
X001708Y001554D01*
X001662Y001575D01*
X001618Y001599D01*
X001576Y001626D01*
X001536Y001656D01*
X001499Y001690D01*
X001465Y001727D01*
X001433Y001766D01*
X001405Y001807D01*
X001380Y001851D01*
X001359Y001896D01*
X001342Y001943D01*
X001328Y001991D01*
X001318Y002040D01*
X001312Y002090D01*
X001310Y002140D01*
X001310Y022140D02*
X001312Y022190D01*
X001318Y022240D01*
X001328Y022289D01*
X001342Y022337D01*
X001359Y022384D01*
X001380Y022429D01*
X001405Y022473D01*
X001433Y022514D01*
X001465Y022553D01*
X001499Y022590D01*
X001536Y022624D01*
X001576Y022654D01*
X001618Y022681D01*
X001662Y022705D01*
X001708Y022726D01*
X001755Y022742D01*
X001803Y022755D01*
X001853Y022764D01*
X001902Y022769D01*
X001953Y022770D01*
X002003Y022767D01*
X002052Y022760D01*
X002101Y022749D01*
X002149Y022734D01*
X002195Y022716D01*
X002240Y022694D01*
X002283Y022668D01*
X002324Y022639D01*
X002363Y022607D01*
X002399Y022572D01*
X002431Y022534D01*
X002461Y022494D01*
X002488Y022451D01*
X002511Y022407D01*
X002530Y022361D01*
X002546Y022313D01*
X002558Y022264D01*
X002566Y022215D01*
X002570Y022165D01*
X002570Y022115D01*
X002566Y022065D01*
X002558Y022016D01*
X002546Y021967D01*
X002530Y021919D01*
X002511Y021873D01*
X002488Y021829D01*
X002461Y021786D01*
X002431Y021746D01*
X002399Y021708D01*
X002363Y021673D01*
X002324Y021641D01*
X002283Y021612D01*
X002240Y021586D01*
X002195Y021564D01*
X002149Y021546D01*
X002101Y021531D01*
X002052Y021520D01*
X002003Y021513D01*
X001953Y021510D01*
X001902Y021511D01*
X001853Y021516D01*
X001803Y021525D01*
X001755Y021538D01*
X001708Y021554D01*
X001662Y021575D01*
X001618Y021599D01*
X001576Y021626D01*
X001536Y021656D01*
X001499Y021690D01*
X001465Y021727D01*
X001433Y021766D01*
X001405Y021807D01*
X001380Y021851D01*
X001359Y021896D01*
X001342Y021943D01*
X001328Y021991D01*
X001318Y022040D01*
X001312Y022090D01*
X001310Y022140D01*
X032310Y022140D02*
X032312Y022190D01*
X032318Y022240D01*
X032328Y022289D01*
X032342Y022337D01*
X032359Y022384D01*
X032380Y022429D01*
X032405Y022473D01*
X032433Y022514D01*
X032465Y022553D01*
X032499Y022590D01*
X032536Y022624D01*
X032576Y022654D01*
X032618Y022681D01*
X032662Y022705D01*
X032708Y022726D01*
X032755Y022742D01*
X032803Y022755D01*
X032853Y022764D01*
X032902Y022769D01*
X032953Y022770D01*
X033003Y022767D01*
X033052Y022760D01*
X033101Y022749D01*
X033149Y022734D01*
X033195Y022716D01*
X033240Y022694D01*
X033283Y022668D01*
X033324Y022639D01*
X033363Y022607D01*
X033399Y022572D01*
X033431Y022534D01*
X033461Y022494D01*
X033488Y022451D01*
X033511Y022407D01*
X033530Y022361D01*
X033546Y022313D01*
X033558Y022264D01*
X033566Y022215D01*
X033570Y022165D01*
X033570Y022115D01*
X033566Y022065D01*
X033558Y022016D01*
X033546Y021967D01*
X033530Y021919D01*
X033511Y021873D01*
X033488Y021829D01*
X033461Y021786D01*
X033431Y021746D01*
X033399Y021708D01*
X033363Y021673D01*
X033324Y021641D01*
X033283Y021612D01*
X033240Y021586D01*
X033195Y021564D01*
X033149Y021546D01*
X033101Y021531D01*
X033052Y021520D01*
X033003Y021513D01*
X032953Y021510D01*
X032902Y021511D01*
X032853Y021516D01*
X032803Y021525D01*
X032755Y021538D01*
X032708Y021554D01*
X032662Y021575D01*
X032618Y021599D01*
X032576Y021626D01*
X032536Y021656D01*
X032499Y021690D01*
X032465Y021727D01*
X032433Y021766D01*
X032405Y021807D01*
X032380Y021851D01*
X032359Y021896D01*
X032342Y021943D01*
X032328Y021991D01*
X032318Y022040D01*
X032312Y022090D01*
X032310Y022140D01*
X032310Y002140D02*
X032312Y002190D01*
X032318Y002240D01*
X032328Y002289D01*
X032342Y002337D01*
X032359Y002384D01*
X032380Y002429D01*
X032405Y002473D01*
X032433Y002514D01*
X032465Y002553D01*
X032499Y002590D01*
X032536Y002624D01*
X032576Y002654D01*
X032618Y002681D01*
X032662Y002705D01*
X032708Y002726D01*
X032755Y002742D01*
X032803Y002755D01*
X032853Y002764D01*
X032902Y002769D01*
X032953Y002770D01*
X033003Y002767D01*
X033052Y002760D01*
X033101Y002749D01*
X033149Y002734D01*
X033195Y002716D01*
X033240Y002694D01*
X033283Y002668D01*
X033324Y002639D01*
X033363Y002607D01*
X033399Y002572D01*
X033431Y002534D01*
X033461Y002494D01*
X033488Y002451D01*
X033511Y002407D01*
X033530Y002361D01*
X033546Y002313D01*
X033558Y002264D01*
X033566Y002215D01*
X033570Y002165D01*
X033570Y002115D01*
X033566Y002065D01*
X033558Y002016D01*
X033546Y001967D01*
X033530Y001919D01*
X033511Y001873D01*
X033488Y001829D01*
X033461Y001786D01*
X033431Y001746D01*
X033399Y001708D01*
X033363Y001673D01*
X033324Y001641D01*
X033283Y001612D01*
X033240Y001586D01*
X033195Y001564D01*
X033149Y001546D01*
X033101Y001531D01*
X033052Y001520D01*
X033003Y001513D01*
X032953Y001510D01*
X032902Y001511D01*
X032853Y001516D01*
X032803Y001525D01*
X032755Y001538D01*
X032708Y001554D01*
X032662Y001575D01*
X032618Y001599D01*
X032576Y001626D01*
X032536Y001656D01*
X032499Y001690D01*
X032465Y001727D01*
X032433Y001766D01*
X032405Y001807D01*
X032380Y001851D01*
X032359Y001896D01*
X032342Y001943D01*
X032328Y001991D01*
X032318Y002040D01*
X032312Y002090D01*
X032310Y002140D01*
M02*
