%
M48
M72
T01C0.0400
%
T01
X4940Y6140
X5940Y6140
X6940Y6140
X7940Y6140
X8940Y6140
X9940Y6140
X10940Y6140
X11940Y6140
X12940Y6140
X13940Y6140
X14940Y6140
X15940Y6140
X16940Y6140
X17940Y6140
X18940Y6140
X19940Y6140
X20940Y6140
X21940Y6140
X22940Y6140
X23940Y6140
X25940Y6140
X26940Y6140
X27940Y6140
X28940Y6140
X29940Y6140
X30940Y6140
X30940Y3140
X29940Y3140
X28940Y3140
X27940Y3140
X26940Y3140
X25940Y3140
X25940Y18140
X26940Y18140
X27940Y18140
X28940Y18140
X29940Y18140
X30940Y18140
X30940Y21140
X29940Y21140
X28940Y21140
X27940Y21140
X26940Y21140
X25940Y21140
X23940Y18140
X22940Y18140
X21940Y18140
X20940Y18140
X19940Y18140
X18940Y18140
X17940Y18140
X16940Y18140
X15940Y18140
X14940Y18140
X13940Y18140
X12940Y18140
X11940Y18140
X10940Y18140
X9940Y18140
X8940Y18140
X7940Y18140
X6940Y18140
X5940Y18140
X4940Y18140
M30
