G75*
G70*
%OFA0B0*%
%FSLAX24Y24*%
%IPPOS*%
%LPD*%
%AMOC8*
5,1,8,0,0,1.08239X$1,22.5*
%
%ADD10OC8,0.0600*%
%ADD11C,0.0394*%
%ADD12R,0.0472X0.0315*%
%ADD13R,0.0591X0.0591*%
%ADD14C,0.0320*%
%ADD15C,0.0160*%
%ADD16C,0.0080*%
D10*
X004940Y006140D03*
X005940Y006140D03*
X006940Y006140D03*
X007940Y006140D03*
X008940Y006140D03*
X009940Y006140D03*
X010940Y006140D03*
X011940Y006140D03*
X012940Y006140D03*
X013940Y006140D03*
X014940Y006140D03*
X015940Y006140D03*
X016940Y006140D03*
X017940Y006140D03*
X018940Y006140D03*
X019940Y006140D03*
X020940Y006140D03*
X021940Y006140D03*
X022940Y006140D03*
X023940Y006140D03*
X025940Y006140D03*
X026940Y006140D03*
X027940Y006140D03*
X028940Y006140D03*
X029940Y006140D03*
X030940Y006140D03*
X030940Y003140D03*
X029940Y003140D03*
X028940Y003140D03*
X027940Y003140D03*
X026940Y003140D03*
X025940Y003140D03*
X025940Y018140D03*
X026940Y018140D03*
X027940Y018140D03*
X028940Y018140D03*
X029940Y018140D03*
X030940Y018140D03*
X030940Y021140D03*
X029940Y021140D03*
X028940Y021140D03*
X027940Y021140D03*
X026940Y021140D03*
X025940Y021140D03*
X023940Y018140D03*
X022940Y018140D03*
X021940Y018140D03*
X020940Y018140D03*
X019940Y018140D03*
X018940Y018140D03*
X017940Y018140D03*
X016940Y018140D03*
X015940Y018140D03*
X014940Y018140D03*
X013940Y018140D03*
X012940Y018140D03*
X011940Y018140D03*
X010940Y018140D03*
X009940Y018140D03*
X008940Y018140D03*
X007940Y018140D03*
X006940Y018140D03*
X005940Y018140D03*
X004940Y018140D03*
D11*
X014440Y016640D03*
X005440Y007640D03*
X030440Y016640D03*
D12*
X023940Y019286D03*
X023940Y019994D03*
X022940Y019994D03*
X022940Y019286D03*
X021940Y019286D03*
X021940Y019994D03*
X020940Y019994D03*
X020940Y019286D03*
X019940Y019286D03*
X019940Y019994D03*
X018940Y019994D03*
X018940Y019286D03*
X017940Y019286D03*
X017940Y019994D03*
X016940Y019994D03*
X015940Y019994D03*
X015940Y019286D03*
X016940Y019286D03*
X014940Y019286D03*
X014940Y019994D03*
X013940Y019994D03*
X013940Y019286D03*
X012940Y019286D03*
X012940Y019994D03*
X011940Y019994D03*
X011940Y019286D03*
X010940Y019286D03*
X010940Y019994D03*
X009940Y019994D03*
X009940Y019286D03*
X008940Y019286D03*
X008940Y019994D03*
X007940Y019994D03*
X006940Y019994D03*
X006940Y019286D03*
X007940Y019286D03*
X005940Y019286D03*
X005940Y019994D03*
X004940Y019994D03*
X004940Y019286D03*
X004940Y004994D03*
X004940Y004286D03*
X005940Y004286D03*
X005940Y004994D03*
X006940Y004994D03*
X007940Y004994D03*
X007940Y004286D03*
X006940Y004286D03*
X008940Y004286D03*
X008940Y004994D03*
X009940Y004994D03*
X009940Y004286D03*
X010940Y004286D03*
X010940Y004994D03*
X011940Y004994D03*
X011940Y004286D03*
X012940Y004286D03*
X012940Y004994D03*
X013940Y004994D03*
X013940Y004286D03*
X014940Y004286D03*
X014940Y004994D03*
X015940Y004994D03*
X016940Y004994D03*
X016940Y004286D03*
X015940Y004286D03*
X017940Y004286D03*
X017940Y004994D03*
X018940Y004994D03*
X018940Y004286D03*
X019940Y004286D03*
X019940Y004994D03*
D13*
X019940Y003229D03*
X018940Y003229D03*
X017940Y003229D03*
X016940Y003229D03*
X015940Y003229D03*
X014940Y003229D03*
X013940Y003229D03*
X012940Y003229D03*
X011940Y003229D03*
X010940Y003229D03*
X009940Y003229D03*
X008940Y003229D03*
X007940Y003229D03*
X006940Y003229D03*
X005940Y003229D03*
X004940Y003229D03*
X004940Y002051D03*
X005940Y002051D03*
X006940Y002051D03*
X007940Y002051D03*
X008940Y002051D03*
X009940Y002051D03*
X010940Y002051D03*
X011940Y002051D03*
X012940Y002051D03*
X013940Y002051D03*
X014940Y002051D03*
X015940Y002051D03*
X016940Y002051D03*
X017940Y002051D03*
X018940Y002051D03*
X019940Y002051D03*
X019940Y021051D03*
X018940Y021051D03*
X017940Y021051D03*
X016940Y021051D03*
X015940Y021051D03*
X014940Y021051D03*
X013940Y021051D03*
X012940Y021051D03*
X011940Y021051D03*
X010940Y021051D03*
X009940Y021051D03*
X008940Y021051D03*
X007940Y021051D03*
X006940Y021051D03*
X005940Y021051D03*
X004940Y021051D03*
X004940Y022229D03*
X005940Y022229D03*
X006940Y022229D03*
X007940Y022229D03*
X008940Y022229D03*
X009940Y022229D03*
X010940Y022229D03*
X011940Y022229D03*
X012940Y022229D03*
X013940Y022229D03*
X014940Y022229D03*
X015940Y022229D03*
X016940Y022229D03*
X017940Y022229D03*
X018940Y022229D03*
X019940Y022229D03*
X020940Y022229D03*
X021940Y022229D03*
X022940Y022229D03*
X023940Y022229D03*
X023940Y021051D03*
X022940Y021051D03*
X021940Y021051D03*
X020940Y021051D03*
D14*
X020940Y022229D02*
X019940Y022229D01*
X018940Y022229D01*
X017940Y022229D01*
X016940Y022229D01*
X015940Y022229D01*
X014940Y022229D01*
X013940Y022229D01*
X012940Y022229D01*
X011940Y022229D01*
X010940Y022229D01*
X009940Y022229D01*
X008940Y022229D01*
X007940Y022229D01*
X006940Y022229D01*
X005940Y022229D01*
X004940Y022229D01*
X020940Y022229D02*
X021940Y022229D01*
X022940Y022229D01*
X023940Y022229D01*
X027851Y022229D01*
X028940Y021140D01*
X020940Y006140D02*
X020940Y002640D01*
X020440Y002140D01*
X020029Y002140D01*
X019940Y002051D01*
X018940Y002051D01*
X017940Y002051D01*
X016940Y002051D01*
X015940Y002051D01*
X014940Y002051D01*
X013940Y002051D01*
X012940Y002051D01*
X011940Y002051D01*
X010940Y002051D01*
X009940Y002051D01*
X008940Y002051D01*
X007940Y002051D01*
X006940Y002051D01*
X005940Y002051D01*
X004940Y002051D01*
D15*
X004940Y003229D02*
X004940Y004286D01*
X004940Y004994D02*
X004940Y006140D01*
X005940Y006140D02*
X005940Y004994D01*
X005940Y004286D02*
X005940Y003229D01*
X006940Y003229D02*
X006940Y004286D01*
X007940Y004286D02*
X007940Y003229D01*
X008940Y003229D02*
X008940Y004286D01*
X008940Y004994D02*
X008940Y006140D01*
X007940Y006140D02*
X007940Y004994D01*
X006940Y004994D02*
X006940Y006140D01*
X009940Y006140D02*
X009940Y004994D01*
X009940Y004286D02*
X009940Y003229D01*
X010940Y003229D02*
X010940Y004286D01*
X010940Y004994D02*
X010940Y006140D01*
X011940Y006140D02*
X011940Y004994D01*
X011940Y004286D02*
X011940Y003229D01*
X012940Y003229D02*
X012940Y004286D01*
X012940Y004994D02*
X012940Y006140D01*
X013940Y006140D02*
X013940Y004994D01*
X013940Y004286D02*
X013940Y003229D01*
X014940Y003229D02*
X014940Y004286D01*
X014940Y004994D02*
X014940Y006140D01*
X015940Y006140D02*
X015940Y004994D01*
X016940Y004994D02*
X016940Y006140D01*
X017940Y006140D02*
X017940Y004994D01*
X017940Y004286D02*
X017940Y003229D01*
X016940Y003229D02*
X016940Y004286D01*
X015940Y004286D02*
X015940Y003229D01*
X018940Y003229D02*
X018940Y004286D01*
X018940Y004994D02*
X018940Y006140D01*
X019940Y006140D02*
X019940Y004994D01*
X019940Y004286D02*
X019940Y003229D01*
X028940Y003140D02*
X028940Y006140D01*
X029940Y006140D02*
X029940Y003140D01*
X029940Y018140D02*
X029940Y021140D01*
X027940Y021140D02*
X027940Y018140D01*
X026940Y018140D02*
X026940Y021140D01*
X025940Y021140D02*
X025940Y018140D01*
X023940Y018140D02*
X023940Y019286D01*
X023940Y019994D02*
X023940Y021051D01*
X022940Y021051D02*
X022940Y019994D01*
X022940Y019286D02*
X022940Y018140D01*
X021940Y018140D02*
X021940Y019286D01*
X021940Y019994D02*
X021940Y021051D01*
X020940Y021051D02*
X020940Y019994D01*
X020940Y019286D02*
X020940Y018140D01*
X019940Y018140D02*
X019940Y019286D01*
X019940Y019994D02*
X019940Y021051D01*
X018940Y021051D02*
X018940Y019994D01*
X018940Y019286D02*
X018940Y018140D01*
X017940Y018140D02*
X017940Y019286D01*
X017940Y019994D02*
X017940Y021051D01*
X016940Y021051D02*
X016940Y019994D01*
X015940Y019994D02*
X015940Y021051D01*
X014940Y021051D02*
X014940Y019994D01*
X014940Y019286D02*
X014940Y018140D01*
X013940Y018140D02*
X013940Y019286D01*
X013940Y019994D02*
X013940Y021051D01*
X012940Y021051D02*
X012940Y019994D01*
X012940Y019286D02*
X012940Y018140D01*
X011940Y018140D02*
X011940Y019286D01*
X011940Y019994D02*
X011940Y021051D01*
X010940Y021051D02*
X010940Y019994D01*
X010940Y019286D02*
X010940Y018140D01*
X009940Y018140D02*
X009940Y019286D01*
X009940Y019994D02*
X009940Y021051D01*
X008940Y021051D02*
X008940Y019994D01*
X008940Y019286D02*
X008940Y018140D01*
X007940Y018140D02*
X007940Y019286D01*
X006940Y019286D02*
X006940Y018140D01*
X005940Y018140D02*
X005940Y019286D01*
X005940Y019994D02*
X005940Y021051D01*
X004940Y021051D02*
X004940Y019994D01*
X004940Y019286D02*
X004940Y018140D01*
X006940Y019994D02*
X006940Y021051D01*
X007940Y021051D02*
X007940Y019994D01*
X015940Y019286D02*
X015940Y018140D01*
X016940Y018140D02*
X016940Y019286D01*
D16*
X002673Y001018D02*
X002301Y000855D01*
X032630Y000855D01*
X032402Y000913D01*
X032402Y000913D01*
X032032Y001154D01*
X032032Y001154D01*
X031762Y001502D01*
X031762Y001502D01*
X031618Y001919D01*
X031618Y002361D01*
X031762Y002778D01*
X031762Y002778D01*
X032032Y003126D01*
X032032Y003126D01*
X032032Y003126D01*
X032402Y003367D01*
X032402Y003367D01*
X032829Y003475D01*
X032829Y003475D01*
X033269Y003439D01*
X033269Y003439D01*
X033673Y003262D01*
X033673Y003262D01*
X033997Y002963D01*
X033997Y002963D01*
X034207Y002575D01*
X034207Y002575D01*
X034225Y002470D01*
X034225Y021810D01*
X034207Y021705D01*
X034207Y021705D01*
X033997Y021317D01*
X033997Y021317D01*
X033673Y021018D01*
X033673Y021018D01*
X033269Y020841D01*
X033269Y020841D01*
X032829Y020805D01*
X032829Y020805D01*
X032402Y020913D01*
X032402Y020913D01*
X032032Y021154D01*
X032032Y021154D01*
X032032Y021154D01*
X031762Y021502D01*
X031762Y021502D01*
X031618Y021919D01*
X031618Y022361D01*
X031762Y022778D01*
X031762Y022778D01*
X032032Y023126D01*
X032032Y023126D01*
X032032Y023126D01*
X032402Y023367D01*
X032402Y023367D01*
X032630Y023425D01*
X002301Y023425D01*
X002673Y023262D01*
X002673Y023262D01*
X002997Y022963D01*
X002997Y022963D01*
X002997Y022963D01*
X003207Y022575D01*
X003207Y022575D01*
X003280Y022140D01*
X003207Y021705D01*
X003207Y021705D01*
X002997Y021317D01*
X002997Y021317D01*
X002673Y021018D01*
X002673Y021018D01*
X002269Y020841D01*
X002269Y020841D01*
X001829Y020805D01*
X001829Y020805D01*
X001402Y020913D01*
X001402Y020913D01*
X001032Y021154D01*
X001032Y021154D01*
X001032Y021154D01*
X000762Y021502D01*
X000762Y021502D01*
X000655Y021812D01*
X000655Y002468D01*
X000762Y002778D01*
X000762Y002778D01*
X001032Y003126D01*
X001032Y003126D01*
X001032Y003126D01*
X001402Y003367D01*
X001402Y003367D01*
X001829Y003475D01*
X001829Y003475D01*
X002269Y003439D01*
X002269Y003439D01*
X002673Y003262D01*
X002673Y003262D01*
X002997Y002963D01*
X002997Y002963D01*
X003207Y002575D01*
X003207Y002575D01*
X003280Y002140D01*
X003207Y001705D01*
X002997Y001317D01*
X002997Y001317D01*
X002673Y001018D01*
X002673Y001018D01*
X002688Y001033D02*
X032219Y001033D01*
X032339Y000954D02*
X002527Y000954D01*
X002348Y000876D02*
X032549Y000876D01*
X032098Y001111D02*
X002774Y001111D01*
X002859Y001190D02*
X032005Y001190D01*
X031944Y001268D02*
X002944Y001268D01*
X003013Y001347D02*
X031883Y001347D01*
X031822Y001425D02*
X003056Y001425D01*
X003098Y001504D02*
X031761Y001504D01*
X031734Y001582D02*
X003141Y001582D01*
X003183Y001661D02*
X004599Y001661D01*
X004603Y001656D02*
X005277Y001656D01*
X005335Y001714D01*
X005335Y001791D01*
X005545Y001791D01*
X005545Y001714D01*
X005603Y001656D01*
X006277Y001656D01*
X006335Y001714D01*
X006335Y001791D01*
X006545Y001791D01*
X006545Y001714D01*
X006603Y001656D01*
X007277Y001656D01*
X007335Y001714D01*
X007335Y001791D01*
X007545Y001791D01*
X007545Y001714D01*
X007603Y001656D01*
X008277Y001656D01*
X008335Y001714D01*
X008335Y001791D01*
X008545Y001791D01*
X008545Y001714D01*
X008603Y001656D01*
X009277Y001656D01*
X009335Y001714D01*
X009335Y001791D01*
X009545Y001791D01*
X009545Y001714D01*
X009603Y001656D01*
X010277Y001656D01*
X010335Y001714D01*
X010335Y001791D01*
X010545Y001791D01*
X010545Y001714D01*
X010603Y001656D01*
X011277Y001656D01*
X011335Y001714D01*
X011335Y001791D01*
X011545Y001791D01*
X011545Y001714D01*
X011603Y001656D01*
X012277Y001656D01*
X012335Y001714D01*
X012335Y001791D01*
X012545Y001791D01*
X012545Y001714D01*
X012603Y001656D01*
X013277Y001656D01*
X013335Y001714D01*
X013335Y001791D01*
X013545Y001791D01*
X013545Y001714D01*
X013603Y001656D01*
X014277Y001656D01*
X014335Y001714D01*
X014335Y001791D01*
X014545Y001791D01*
X014545Y001714D01*
X014603Y001656D01*
X015277Y001656D01*
X015335Y001714D01*
X015335Y001791D01*
X015545Y001791D01*
X015545Y001714D01*
X015603Y001656D01*
X016277Y001656D01*
X016335Y001714D01*
X016335Y001791D01*
X016545Y001791D01*
X016545Y001714D01*
X016603Y001656D01*
X017277Y001656D01*
X017335Y001714D01*
X017335Y001791D01*
X017545Y001791D01*
X017545Y001714D01*
X017603Y001656D01*
X018277Y001656D01*
X018335Y001714D01*
X018335Y001791D01*
X018545Y001791D01*
X018545Y001714D01*
X018603Y001656D01*
X019277Y001656D01*
X019335Y001714D01*
X019335Y001791D01*
X019545Y001791D01*
X019545Y001714D01*
X019603Y001656D01*
X020277Y001656D01*
X020335Y001714D01*
X020335Y001880D01*
X020492Y001880D01*
X020587Y001920D01*
X021087Y002420D01*
X021160Y002493D01*
X021200Y002588D01*
X021200Y005834D01*
X021340Y005974D01*
X021340Y006306D01*
X021106Y006540D01*
X020774Y006540D01*
X020540Y006306D01*
X020540Y005974D01*
X020680Y005834D01*
X020680Y002748D01*
X020332Y002400D01*
X020323Y002400D01*
X020277Y002446D01*
X019603Y002446D01*
X019545Y002388D01*
X019545Y002311D01*
X019335Y002311D01*
X019335Y002388D01*
X019277Y002446D01*
X018603Y002446D01*
X018545Y002388D01*
X018545Y002311D01*
X018335Y002311D01*
X018335Y002388D01*
X018277Y002446D01*
X017603Y002446D01*
X017545Y002388D01*
X017545Y002311D01*
X017335Y002311D01*
X017335Y002388D01*
X017277Y002446D01*
X016603Y002446D01*
X016545Y002388D01*
X016545Y002311D01*
X016335Y002311D01*
X016335Y002388D01*
X016277Y002446D01*
X015603Y002446D01*
X015545Y002388D01*
X015545Y002311D01*
X015335Y002311D01*
X015335Y002388D01*
X015277Y002446D01*
X014603Y002446D01*
X014545Y002388D01*
X014545Y002311D01*
X014335Y002311D01*
X014335Y002388D01*
X014277Y002446D01*
X013603Y002446D01*
X013545Y002388D01*
X013545Y002311D01*
X013335Y002311D01*
X013335Y002388D01*
X013277Y002446D01*
X012603Y002446D01*
X012545Y002388D01*
X012545Y002311D01*
X012335Y002311D01*
X012335Y002388D01*
X012277Y002446D01*
X011603Y002446D01*
X011545Y002388D01*
X011545Y002311D01*
X011335Y002311D01*
X011335Y002388D01*
X011277Y002446D01*
X010603Y002446D01*
X010545Y002388D01*
X010545Y002311D01*
X010335Y002311D01*
X010335Y002388D01*
X010277Y002446D01*
X009603Y002446D01*
X009545Y002388D01*
X009545Y002311D01*
X009335Y002311D01*
X009335Y002388D01*
X009277Y002446D01*
X008603Y002446D01*
X008545Y002388D01*
X008545Y002311D01*
X008335Y002311D01*
X008335Y002388D01*
X008277Y002446D01*
X007603Y002446D01*
X007545Y002388D01*
X007545Y002311D01*
X007335Y002311D01*
X007335Y002388D01*
X007277Y002446D01*
X006603Y002446D01*
X006545Y002388D01*
X006545Y002311D01*
X006335Y002311D01*
X006335Y002388D01*
X006277Y002446D01*
X005603Y002446D01*
X005545Y002388D01*
X005545Y002311D01*
X005335Y002311D01*
X005335Y002388D01*
X005277Y002446D01*
X004603Y002446D01*
X004545Y002388D01*
X004545Y001714D01*
X004603Y001656D01*
X004545Y001739D02*
X003213Y001739D01*
X003207Y001705D02*
X003207Y001705D01*
X003226Y001818D02*
X004545Y001818D01*
X004545Y001896D02*
X003239Y001896D01*
X003252Y001975D02*
X004545Y001975D01*
X004545Y002053D02*
X003265Y002053D01*
X003279Y002132D02*
X004545Y002132D01*
X004545Y002210D02*
X003268Y002210D01*
X003255Y002289D02*
X004545Y002289D01*
X004545Y002367D02*
X003242Y002367D01*
X003229Y002446D02*
X004603Y002446D01*
X004603Y002834D02*
X005277Y002834D01*
X005335Y002892D01*
X005335Y003566D01*
X005277Y003624D01*
X005120Y003624D01*
X005120Y004028D01*
X005218Y004028D01*
X005276Y004087D01*
X005276Y004485D01*
X005218Y004543D01*
X004662Y004543D01*
X004604Y004485D01*
X004604Y004087D01*
X004662Y004028D01*
X004760Y004028D01*
X004760Y003624D01*
X004603Y003624D01*
X004545Y003566D01*
X004545Y002892D01*
X004603Y002834D01*
X004599Y002838D02*
X003065Y002838D01*
X003023Y002917D02*
X004545Y002917D01*
X004545Y002995D02*
X002963Y002995D01*
X002877Y003074D02*
X004545Y003074D01*
X004545Y003152D02*
X002792Y003152D01*
X002707Y003231D02*
X004545Y003231D01*
X004545Y003309D02*
X002565Y003309D01*
X002386Y003388D02*
X004545Y003388D01*
X004545Y003466D02*
X001943Y003466D01*
X001792Y003466D02*
X000655Y003466D01*
X000655Y003388D02*
X001482Y003388D01*
X001313Y003309D02*
X000655Y003309D01*
X000655Y003231D02*
X001193Y003231D01*
X001072Y003152D02*
X000655Y003152D01*
X000655Y003074D02*
X000992Y003074D01*
X000931Y002995D02*
X000655Y002995D01*
X000655Y002917D02*
X000869Y002917D01*
X000808Y002838D02*
X000655Y002838D01*
X000655Y002760D02*
X000755Y002760D01*
X000728Y002681D02*
X000655Y002681D01*
X000655Y002603D02*
X000701Y002603D01*
X000674Y002524D02*
X000655Y002524D01*
X000655Y003545D02*
X004545Y003545D01*
X004602Y003623D02*
X000655Y003623D01*
X000655Y003702D02*
X004760Y003702D01*
X004760Y003780D02*
X000655Y003780D01*
X000655Y003859D02*
X004760Y003859D01*
X004760Y003937D02*
X000655Y003937D01*
X000655Y004016D02*
X004760Y004016D01*
X004604Y004094D02*
X000655Y004094D01*
X000655Y004173D02*
X004604Y004173D01*
X004604Y004251D02*
X000655Y004251D01*
X000655Y004330D02*
X004604Y004330D01*
X004604Y004408D02*
X000655Y004408D01*
X000655Y004487D02*
X004606Y004487D01*
X004662Y004737D02*
X004604Y004795D01*
X004604Y005193D01*
X000655Y005193D01*
X000655Y005115D02*
X004604Y005115D01*
X004604Y005193D02*
X004662Y005252D01*
X004760Y005252D01*
X004760Y005754D01*
X004540Y005974D01*
X004540Y006306D01*
X004774Y006540D01*
X005106Y006540D01*
X005340Y006306D01*
X005340Y005974D01*
X005120Y005754D01*
X005120Y005252D01*
X005218Y005252D01*
X005276Y005193D01*
X005604Y005193D01*
X005604Y004795D01*
X005662Y004737D01*
X006218Y004737D01*
X006276Y004795D01*
X006276Y005193D01*
X006604Y005193D01*
X006604Y004795D01*
X006662Y004737D01*
X007218Y004737D01*
X007276Y004795D01*
X007276Y005193D01*
X007604Y005193D01*
X007604Y004795D01*
X007662Y004737D01*
X008218Y004737D01*
X008276Y004795D01*
X008276Y005193D01*
X008604Y005193D01*
X008604Y004795D01*
X008662Y004737D01*
X009218Y004737D01*
X009276Y004795D01*
X009276Y005193D01*
X009604Y005193D01*
X009604Y004795D01*
X009662Y004737D01*
X010218Y004737D01*
X010276Y004795D01*
X010276Y005193D01*
X010604Y005193D01*
X010604Y004795D01*
X010662Y004737D01*
X011218Y004737D01*
X011276Y004795D01*
X011276Y005193D01*
X011604Y005193D01*
X011604Y004795D01*
X011662Y004737D01*
X012218Y004737D01*
X012276Y004795D01*
X012276Y005193D01*
X012604Y005193D01*
X012604Y004795D01*
X012662Y004737D01*
X013218Y004737D01*
X013276Y004795D01*
X013276Y005193D01*
X013604Y005193D01*
X013604Y004795D01*
X013662Y004737D01*
X014218Y004737D01*
X014276Y004795D01*
X014276Y005193D01*
X014604Y005193D01*
X014604Y004795D01*
X014662Y004737D01*
X015218Y004737D01*
X015276Y004795D01*
X015276Y005193D01*
X015604Y005193D01*
X015604Y004795D01*
X015662Y004737D01*
X016218Y004737D01*
X016276Y004795D01*
X016276Y005193D01*
X016604Y005193D01*
X016604Y004795D01*
X016662Y004737D01*
X017218Y004737D01*
X017276Y004795D01*
X017276Y005193D01*
X017604Y005193D01*
X017604Y004795D01*
X017662Y004737D01*
X018218Y004737D01*
X018276Y004795D01*
X018276Y005193D01*
X018604Y005193D01*
X018604Y004795D01*
X018662Y004737D01*
X019218Y004737D01*
X019276Y004795D01*
X019276Y005193D01*
X019604Y005193D01*
X019604Y004795D01*
X019662Y004737D01*
X020218Y004737D01*
X020276Y004795D01*
X020276Y005193D01*
X020680Y005193D01*
X020680Y005115D02*
X020276Y005115D01*
X020276Y005193D02*
X020218Y005252D01*
X020120Y005252D01*
X020120Y005754D01*
X020340Y005974D01*
X020340Y006306D01*
X020106Y006540D01*
X019774Y006540D01*
X019540Y006306D01*
X019540Y005974D01*
X019760Y005754D01*
X019760Y005252D01*
X019662Y005252D01*
X019604Y005193D01*
X019604Y005115D02*
X019276Y005115D01*
X019276Y005193D02*
X019218Y005252D01*
X019120Y005252D01*
X019120Y005754D01*
X019340Y005974D01*
X019340Y006306D01*
X019106Y006540D01*
X018774Y006540D01*
X018540Y006306D01*
X018540Y005974D01*
X018760Y005754D01*
X018760Y005252D01*
X018662Y005252D01*
X018604Y005193D01*
X018604Y005115D02*
X018276Y005115D01*
X018276Y005193D02*
X018218Y005252D01*
X018120Y005252D01*
X018120Y005754D01*
X018340Y005974D01*
X018340Y006306D01*
X018106Y006540D01*
X017774Y006540D01*
X017540Y006306D01*
X017540Y005974D01*
X017760Y005754D01*
X017760Y005252D01*
X017662Y005252D01*
X017604Y005193D01*
X017604Y005115D02*
X017276Y005115D01*
X017276Y005193D02*
X017218Y005252D01*
X017120Y005252D01*
X017120Y005754D01*
X017340Y005974D01*
X017340Y006306D01*
X017106Y006540D01*
X016774Y006540D01*
X016540Y006306D01*
X016540Y005974D01*
X016760Y005754D01*
X016760Y005252D01*
X016662Y005252D01*
X016604Y005193D01*
X016604Y005115D02*
X016276Y005115D01*
X016276Y005193D02*
X016218Y005252D01*
X016120Y005252D01*
X016120Y005754D01*
X016340Y005974D01*
X016340Y006306D01*
X016106Y006540D01*
X015774Y006540D01*
X015540Y006306D01*
X015540Y005974D01*
X015760Y005754D01*
X015760Y005252D01*
X015662Y005252D01*
X015604Y005193D01*
X015604Y005115D02*
X015276Y005115D01*
X015276Y005193D02*
X015218Y005252D01*
X015120Y005252D01*
X015120Y005754D01*
X015340Y005974D01*
X015340Y006306D01*
X015106Y006540D01*
X014774Y006540D01*
X014540Y006306D01*
X014540Y005974D01*
X014760Y005754D01*
X014760Y005252D01*
X014662Y005252D01*
X014604Y005193D01*
X014604Y005115D02*
X014276Y005115D01*
X014276Y005193D02*
X014218Y005252D01*
X014120Y005252D01*
X014120Y005754D01*
X014340Y005974D01*
X014340Y006306D01*
X014106Y006540D01*
X013774Y006540D01*
X013540Y006306D01*
X013540Y005974D01*
X013760Y005754D01*
X013760Y005252D01*
X013662Y005252D01*
X013604Y005193D01*
X013604Y005115D02*
X013276Y005115D01*
X013276Y005193D02*
X013218Y005252D01*
X013120Y005252D01*
X013120Y005754D01*
X013340Y005974D01*
X013340Y006306D01*
X013106Y006540D01*
X012774Y006540D01*
X012540Y006306D01*
X012540Y005974D01*
X012760Y005754D01*
X012760Y005252D01*
X012662Y005252D01*
X012604Y005193D01*
X012604Y005115D02*
X012276Y005115D01*
X012276Y005193D02*
X012218Y005252D01*
X012120Y005252D01*
X012120Y005754D01*
X012340Y005974D01*
X012340Y006306D01*
X012106Y006540D01*
X011774Y006540D01*
X011540Y006306D01*
X011540Y005974D01*
X011760Y005754D01*
X011760Y005252D01*
X011662Y005252D01*
X011604Y005193D01*
X011604Y005115D02*
X011276Y005115D01*
X011276Y005193D02*
X011218Y005252D01*
X011120Y005252D01*
X011120Y005754D01*
X011340Y005974D01*
X011340Y006306D01*
X011106Y006540D01*
X010774Y006540D01*
X010540Y006306D01*
X010540Y005974D01*
X010760Y005754D01*
X010760Y005252D01*
X010662Y005252D01*
X010604Y005193D01*
X010604Y005115D02*
X010276Y005115D01*
X010276Y005193D02*
X010218Y005252D01*
X010120Y005252D01*
X010120Y005754D01*
X010340Y005974D01*
X010340Y006306D01*
X010106Y006540D01*
X009774Y006540D01*
X009540Y006306D01*
X009540Y005974D01*
X009760Y005754D01*
X009760Y005252D01*
X009662Y005252D01*
X009604Y005193D01*
X009604Y005115D02*
X009276Y005115D01*
X009276Y005193D02*
X009218Y005252D01*
X009120Y005252D01*
X009120Y005754D01*
X009340Y005974D01*
X009340Y006306D01*
X009106Y006540D01*
X008774Y006540D01*
X008540Y006306D01*
X008540Y005974D01*
X008760Y005754D01*
X008760Y005252D01*
X008662Y005252D01*
X008604Y005193D01*
X008604Y005115D02*
X008276Y005115D01*
X008276Y005193D02*
X008218Y005252D01*
X008120Y005252D01*
X008120Y005754D01*
X008340Y005974D01*
X008340Y006306D01*
X008106Y006540D01*
X007774Y006540D01*
X007540Y006306D01*
X007540Y005974D01*
X007760Y005754D01*
X007760Y005252D01*
X007662Y005252D01*
X007604Y005193D01*
X007604Y005115D02*
X007276Y005115D01*
X007276Y005193D02*
X007218Y005252D01*
X007120Y005252D01*
X007120Y005754D01*
X007340Y005974D01*
X007340Y006306D01*
X007106Y006540D01*
X006774Y006540D01*
X006540Y006306D01*
X006540Y005974D01*
X006760Y005754D01*
X006760Y005252D01*
X006662Y005252D01*
X006604Y005193D01*
X006604Y005115D02*
X006276Y005115D01*
X006276Y005193D02*
X006218Y005252D01*
X006120Y005252D01*
X006120Y005754D01*
X006340Y005974D01*
X006340Y006306D01*
X006106Y006540D01*
X005774Y006540D01*
X005540Y006306D01*
X005540Y005974D01*
X005760Y005754D01*
X005760Y005252D01*
X005662Y005252D01*
X005604Y005193D01*
X005604Y005115D02*
X005276Y005115D01*
X005276Y005193D02*
X005276Y004795D01*
X005218Y004737D01*
X004662Y004737D01*
X004604Y004801D02*
X000655Y004801D01*
X000655Y004879D02*
X004604Y004879D01*
X004604Y004958D02*
X000655Y004958D01*
X000655Y005036D02*
X004604Y005036D01*
X004760Y005272D02*
X000655Y005272D01*
X000655Y005350D02*
X004760Y005350D01*
X004760Y005429D02*
X000655Y005429D01*
X000655Y005507D02*
X004760Y005507D01*
X004760Y005586D02*
X000655Y005586D01*
X000655Y005664D02*
X004760Y005664D01*
X004760Y005743D02*
X000655Y005743D01*
X000655Y005821D02*
X004693Y005821D01*
X004615Y005900D02*
X000655Y005900D01*
X000655Y005978D02*
X004540Y005978D01*
X004540Y006057D02*
X000655Y006057D01*
X000655Y006135D02*
X004540Y006135D01*
X004540Y006214D02*
X000655Y006214D01*
X000655Y006292D02*
X004540Y006292D01*
X004605Y006371D02*
X000655Y006371D01*
X000655Y006449D02*
X004683Y006449D01*
X004762Y006528D02*
X000655Y006528D01*
X000655Y006606D02*
X034225Y006606D01*
X034225Y006528D02*
X031118Y006528D01*
X031106Y006540D02*
X030774Y006540D01*
X030540Y006306D01*
X030540Y005974D01*
X030774Y005740D01*
X031106Y005740D01*
X031340Y005974D01*
X031340Y006306D01*
X031106Y006540D01*
X031197Y006449D02*
X034225Y006449D01*
X034225Y006371D02*
X031275Y006371D01*
X031340Y006292D02*
X034225Y006292D01*
X034225Y006214D02*
X031340Y006214D01*
X031340Y006135D02*
X034225Y006135D01*
X034225Y006057D02*
X031340Y006057D01*
X031340Y005978D02*
X034225Y005978D01*
X034225Y005900D02*
X031265Y005900D01*
X031187Y005821D02*
X034225Y005821D01*
X034225Y005743D02*
X031108Y005743D01*
X030772Y005743D02*
X030120Y005743D01*
X030120Y005754D02*
X030340Y005974D01*
X030340Y006306D01*
X030106Y006540D01*
X029774Y006540D01*
X029540Y006306D01*
X029540Y005974D01*
X029760Y005754D01*
X029760Y003526D01*
X029540Y003306D01*
X029540Y002974D01*
X029774Y002740D01*
X030106Y002740D01*
X030340Y002974D01*
X030340Y003306D01*
X030120Y003526D01*
X030120Y005754D01*
X030120Y005664D02*
X034225Y005664D01*
X034225Y005586D02*
X030120Y005586D01*
X030120Y005507D02*
X034225Y005507D01*
X034225Y005429D02*
X030120Y005429D01*
X030120Y005350D02*
X034225Y005350D01*
X034225Y005272D02*
X030120Y005272D01*
X030120Y005193D02*
X034225Y005193D01*
X034225Y005115D02*
X030120Y005115D01*
X030120Y005036D02*
X034225Y005036D01*
X034225Y004958D02*
X030120Y004958D01*
X030120Y004879D02*
X034225Y004879D01*
X034225Y004801D02*
X030120Y004801D01*
X030120Y004722D02*
X034225Y004722D01*
X034225Y004644D02*
X030120Y004644D01*
X030120Y004565D02*
X034225Y004565D01*
X034225Y004487D02*
X030120Y004487D01*
X030120Y004408D02*
X034225Y004408D01*
X034225Y004330D02*
X030120Y004330D01*
X030120Y004251D02*
X034225Y004251D01*
X034225Y004173D02*
X030120Y004173D01*
X030120Y004094D02*
X034225Y004094D01*
X034225Y004016D02*
X030120Y004016D01*
X030120Y003937D02*
X034225Y003937D01*
X034225Y003859D02*
X030120Y003859D01*
X030120Y003780D02*
X034225Y003780D01*
X034225Y003702D02*
X030120Y003702D01*
X030120Y003623D02*
X034225Y003623D01*
X034225Y003545D02*
X030120Y003545D01*
X030180Y003466D02*
X030700Y003466D01*
X030774Y003540D02*
X030540Y003306D01*
X030540Y002974D01*
X030774Y002740D01*
X031106Y002740D01*
X031340Y002974D01*
X031340Y003306D01*
X031106Y003540D01*
X030774Y003540D01*
X030622Y003388D02*
X030258Y003388D01*
X030337Y003309D02*
X030543Y003309D01*
X030540Y003231D02*
X030340Y003231D01*
X030340Y003152D02*
X030540Y003152D01*
X030540Y003074D02*
X030340Y003074D01*
X030340Y002995D02*
X030540Y002995D01*
X030598Y002917D02*
X030282Y002917D01*
X030204Y002838D02*
X030676Y002838D01*
X030755Y002760D02*
X030125Y002760D01*
X029755Y002760D02*
X029125Y002760D01*
X029106Y002740D02*
X029340Y002974D01*
X029340Y003306D01*
X029120Y003526D01*
X029120Y005754D01*
X029340Y005974D01*
X029340Y006306D01*
X029106Y006540D01*
X028774Y006540D01*
X028540Y006306D01*
X028540Y005974D01*
X028760Y005754D01*
X028760Y003526D01*
X028540Y003306D01*
X028540Y002974D01*
X028774Y002740D01*
X029106Y002740D01*
X029204Y002838D02*
X029676Y002838D01*
X029598Y002917D02*
X029282Y002917D01*
X029340Y002995D02*
X029540Y002995D01*
X029540Y003074D02*
X029340Y003074D01*
X029340Y003152D02*
X029540Y003152D01*
X029540Y003231D02*
X029340Y003231D01*
X029337Y003309D02*
X029543Y003309D01*
X029622Y003388D02*
X029258Y003388D01*
X029180Y003466D02*
X029700Y003466D01*
X029760Y003545D02*
X029120Y003545D01*
X029120Y003623D02*
X029760Y003623D01*
X029760Y003702D02*
X029120Y003702D01*
X029120Y003780D02*
X029760Y003780D01*
X029760Y003859D02*
X029120Y003859D01*
X029120Y003937D02*
X029760Y003937D01*
X029760Y004016D02*
X029120Y004016D01*
X029120Y004094D02*
X029760Y004094D01*
X029760Y004173D02*
X029120Y004173D01*
X029120Y004251D02*
X029760Y004251D01*
X029760Y004330D02*
X029120Y004330D01*
X029120Y004408D02*
X029760Y004408D01*
X029760Y004487D02*
X029120Y004487D01*
X029120Y004565D02*
X029760Y004565D01*
X029760Y004644D02*
X029120Y004644D01*
X029120Y004722D02*
X029760Y004722D01*
X029760Y004801D02*
X029120Y004801D01*
X029120Y004879D02*
X029760Y004879D01*
X029760Y004958D02*
X029120Y004958D01*
X029120Y005036D02*
X029760Y005036D01*
X029760Y005115D02*
X029120Y005115D01*
X029120Y005193D02*
X029760Y005193D01*
X029760Y005272D02*
X029120Y005272D01*
X029120Y005350D02*
X029760Y005350D01*
X029760Y005429D02*
X029120Y005429D01*
X029120Y005507D02*
X029760Y005507D01*
X029760Y005586D02*
X029120Y005586D01*
X029120Y005664D02*
X029760Y005664D01*
X029760Y005743D02*
X029120Y005743D01*
X029187Y005821D02*
X029693Y005821D01*
X029615Y005900D02*
X029265Y005900D01*
X029340Y005978D02*
X029540Y005978D01*
X029540Y006057D02*
X029340Y006057D01*
X029340Y006135D02*
X029540Y006135D01*
X029540Y006214D02*
X029340Y006214D01*
X029340Y006292D02*
X029540Y006292D01*
X029605Y006371D02*
X029275Y006371D01*
X029197Y006449D02*
X029683Y006449D01*
X029762Y006528D02*
X029118Y006528D01*
X028762Y006528D02*
X028118Y006528D01*
X028106Y006540D02*
X027774Y006540D01*
X027540Y006306D01*
X027540Y005974D01*
X027774Y005740D01*
X028106Y005740D01*
X028340Y005974D01*
X028340Y006306D01*
X028106Y006540D01*
X028197Y006449D02*
X028683Y006449D01*
X028605Y006371D02*
X028275Y006371D01*
X028340Y006292D02*
X028540Y006292D01*
X028540Y006214D02*
X028340Y006214D01*
X028340Y006135D02*
X028540Y006135D01*
X028540Y006057D02*
X028340Y006057D01*
X028340Y005978D02*
X028540Y005978D01*
X028615Y005900D02*
X028265Y005900D01*
X028187Y005821D02*
X028693Y005821D01*
X028760Y005743D02*
X028108Y005743D01*
X027772Y005743D02*
X027108Y005743D01*
X027106Y005740D02*
X027340Y005974D01*
X027340Y006306D01*
X027106Y006540D01*
X026774Y006540D01*
X026540Y006306D01*
X026540Y005974D01*
X026774Y005740D01*
X027106Y005740D01*
X027187Y005821D02*
X027693Y005821D01*
X027615Y005900D02*
X027265Y005900D01*
X027340Y005978D02*
X027540Y005978D01*
X027540Y006057D02*
X027340Y006057D01*
X027340Y006135D02*
X027540Y006135D01*
X027540Y006214D02*
X027340Y006214D01*
X027340Y006292D02*
X027540Y006292D01*
X027605Y006371D02*
X027275Y006371D01*
X027197Y006449D02*
X027683Y006449D01*
X027762Y006528D02*
X027118Y006528D01*
X026762Y006528D02*
X026118Y006528D01*
X026106Y006540D02*
X025774Y006540D01*
X025540Y006306D01*
X025540Y005974D01*
X025774Y005740D01*
X026106Y005740D01*
X026340Y005974D01*
X026340Y006306D01*
X026106Y006540D01*
X026197Y006449D02*
X026683Y006449D01*
X026605Y006371D02*
X026275Y006371D01*
X026340Y006292D02*
X026540Y006292D01*
X026540Y006214D02*
X026340Y006214D01*
X026340Y006135D02*
X026540Y006135D01*
X026540Y006057D02*
X026340Y006057D01*
X026340Y005978D02*
X026540Y005978D01*
X026615Y005900D02*
X026265Y005900D01*
X026187Y005821D02*
X026693Y005821D01*
X026772Y005743D02*
X026108Y005743D01*
X025772Y005743D02*
X024108Y005743D01*
X024106Y005740D02*
X024340Y005974D01*
X024340Y006306D01*
X024106Y006540D01*
X023774Y006540D01*
X023540Y006306D01*
X023540Y005974D01*
X023774Y005740D01*
X024106Y005740D01*
X024187Y005821D02*
X025693Y005821D01*
X025615Y005900D02*
X024265Y005900D01*
X024340Y005978D02*
X025540Y005978D01*
X025540Y006057D02*
X024340Y006057D01*
X024340Y006135D02*
X025540Y006135D01*
X025540Y006214D02*
X024340Y006214D01*
X024340Y006292D02*
X025540Y006292D01*
X025605Y006371D02*
X024275Y006371D01*
X024197Y006449D02*
X025683Y006449D01*
X025762Y006528D02*
X024118Y006528D01*
X023762Y006528D02*
X023175Y006528D01*
X023122Y006580D02*
X022980Y006580D01*
X022980Y006180D01*
X022900Y006180D01*
X022900Y006580D01*
X022758Y006580D01*
X022500Y006322D01*
X022500Y006180D01*
X022900Y006180D01*
X022900Y006100D01*
X022500Y006100D01*
X022500Y005958D01*
X022758Y005700D01*
X022900Y005700D01*
X022900Y006100D01*
X022980Y006100D01*
X022980Y006180D01*
X023380Y006180D01*
X023380Y006322D01*
X023122Y006580D01*
X022980Y006528D02*
X022900Y006528D01*
X022900Y006449D02*
X022980Y006449D01*
X022980Y006371D02*
X022900Y006371D01*
X022900Y006292D02*
X022980Y006292D01*
X022980Y006214D02*
X022900Y006214D01*
X022900Y006135D02*
X022340Y006135D01*
X022340Y006057D02*
X022500Y006057D01*
X022500Y005978D02*
X022340Y005978D01*
X022340Y005974D02*
X022106Y005740D01*
X021774Y005740D01*
X021540Y005974D01*
X021540Y006306D01*
X021774Y006540D01*
X022106Y006540D01*
X022340Y006306D01*
X022340Y005974D01*
X022265Y005900D02*
X022558Y005900D01*
X022637Y005821D02*
X022187Y005821D01*
X022108Y005743D02*
X022715Y005743D01*
X022900Y005743D02*
X022980Y005743D01*
X022980Y005700D02*
X023122Y005700D01*
X023380Y005958D01*
X023380Y006100D01*
X022980Y006100D01*
X022980Y005700D01*
X022980Y005821D02*
X022900Y005821D01*
X022900Y005900D02*
X022980Y005900D01*
X022980Y005978D02*
X022900Y005978D01*
X022900Y006057D02*
X022980Y006057D01*
X022980Y006135D02*
X023540Y006135D01*
X023540Y006057D02*
X023380Y006057D01*
X023380Y005978D02*
X023540Y005978D01*
X023615Y005900D02*
X023322Y005900D01*
X023243Y005821D02*
X023693Y005821D01*
X023772Y005743D02*
X023165Y005743D01*
X023380Y006214D02*
X023540Y006214D01*
X023540Y006292D02*
X023380Y006292D01*
X023332Y006371D02*
X023605Y006371D01*
X023683Y006449D02*
X023253Y006449D01*
X022705Y006528D02*
X022118Y006528D01*
X022197Y006449D02*
X022627Y006449D01*
X022548Y006371D02*
X022275Y006371D01*
X022340Y006292D02*
X022500Y006292D01*
X022500Y006214D02*
X022340Y006214D01*
X021762Y006528D02*
X021118Y006528D01*
X021197Y006449D02*
X021683Y006449D01*
X021605Y006371D02*
X021275Y006371D01*
X021340Y006292D02*
X021540Y006292D01*
X021540Y006214D02*
X021340Y006214D01*
X021340Y006135D02*
X021540Y006135D01*
X021540Y006057D02*
X021340Y006057D01*
X021340Y005978D02*
X021540Y005978D01*
X021615Y005900D02*
X021265Y005900D01*
X021200Y005821D02*
X021693Y005821D01*
X021772Y005743D02*
X021200Y005743D01*
X021200Y005664D02*
X028760Y005664D01*
X028760Y005586D02*
X021200Y005586D01*
X021200Y005507D02*
X028760Y005507D01*
X028760Y005429D02*
X021200Y005429D01*
X021200Y005350D02*
X028760Y005350D01*
X028760Y005272D02*
X021200Y005272D01*
X021200Y005193D02*
X028760Y005193D01*
X028760Y005115D02*
X021200Y005115D01*
X021200Y005036D02*
X028760Y005036D01*
X028760Y004958D02*
X021200Y004958D01*
X021200Y004879D02*
X028760Y004879D01*
X028760Y004801D02*
X021200Y004801D01*
X021200Y004722D02*
X028760Y004722D01*
X028760Y004644D02*
X021200Y004644D01*
X021200Y004565D02*
X028760Y004565D01*
X028760Y004487D02*
X021200Y004487D01*
X021200Y004408D02*
X028760Y004408D01*
X028760Y004330D02*
X021200Y004330D01*
X021200Y004251D02*
X028760Y004251D01*
X028760Y004173D02*
X021200Y004173D01*
X021200Y004094D02*
X028760Y004094D01*
X028760Y004016D02*
X021200Y004016D01*
X021200Y003937D02*
X028760Y003937D01*
X028760Y003859D02*
X021200Y003859D01*
X021200Y003780D02*
X028760Y003780D01*
X028760Y003702D02*
X021200Y003702D01*
X021200Y003623D02*
X028760Y003623D01*
X028760Y003545D02*
X021200Y003545D01*
X021200Y003466D02*
X025700Y003466D01*
X025774Y003540D02*
X025540Y003306D01*
X025540Y002974D01*
X025774Y002740D01*
X026106Y002740D01*
X026340Y002974D01*
X026340Y003306D01*
X026106Y003540D01*
X025774Y003540D01*
X025622Y003388D02*
X021200Y003388D01*
X021200Y003309D02*
X025543Y003309D01*
X025540Y003231D02*
X021200Y003231D01*
X021200Y003152D02*
X025540Y003152D01*
X025540Y003074D02*
X021200Y003074D01*
X021200Y002995D02*
X025540Y002995D01*
X025598Y002917D02*
X021200Y002917D01*
X021200Y002838D02*
X025676Y002838D01*
X025755Y002760D02*
X021200Y002760D01*
X021200Y002681D02*
X031728Y002681D01*
X031701Y002603D02*
X021200Y002603D01*
X021173Y002524D02*
X031674Y002524D01*
X031647Y002446D02*
X021113Y002446D01*
X021035Y002367D02*
X031620Y002367D01*
X031618Y002289D02*
X020956Y002289D01*
X020878Y002210D02*
X031618Y002210D01*
X031618Y002132D02*
X020799Y002132D01*
X020721Y002053D02*
X031618Y002053D01*
X031618Y001975D02*
X020642Y001975D01*
X020530Y001896D02*
X031626Y001896D01*
X031653Y001818D02*
X020335Y001818D01*
X020335Y001739D02*
X031680Y001739D01*
X031707Y001661D02*
X020281Y001661D01*
X019599Y001661D02*
X019281Y001661D01*
X019335Y001739D02*
X019545Y001739D01*
X019545Y002367D02*
X019335Y002367D01*
X019277Y002446D02*
X019603Y002446D01*
X019603Y002834D02*
X020277Y002834D01*
X020335Y002892D01*
X020335Y003566D01*
X020277Y003624D01*
X020120Y003624D01*
X020120Y004028D01*
X020218Y004028D01*
X020276Y004087D01*
X020276Y004485D01*
X020218Y004543D01*
X019662Y004543D01*
X019604Y004485D01*
X019604Y004087D01*
X019662Y004028D01*
X019760Y004028D01*
X019760Y003624D01*
X019603Y003624D01*
X019545Y003566D01*
X019545Y002892D01*
X019603Y002834D01*
X019599Y002838D02*
X019281Y002838D01*
X019277Y002834D02*
X019335Y002892D01*
X019335Y003566D01*
X019277Y003624D01*
X019120Y003624D01*
X019120Y004028D01*
X019218Y004028D01*
X019276Y004087D01*
X019276Y004485D01*
X019218Y004543D01*
X018662Y004543D01*
X018604Y004485D01*
X018604Y004087D01*
X018662Y004028D01*
X018760Y004028D01*
X018760Y003624D01*
X018603Y003624D01*
X018545Y003566D01*
X018545Y002892D01*
X018603Y002834D01*
X019277Y002834D01*
X019335Y002917D02*
X019545Y002917D01*
X019545Y002995D02*
X019335Y002995D01*
X019335Y003074D02*
X019545Y003074D01*
X019545Y003152D02*
X019335Y003152D01*
X019335Y003231D02*
X019545Y003231D01*
X019545Y003309D02*
X019335Y003309D01*
X019335Y003388D02*
X019545Y003388D01*
X019545Y003466D02*
X019335Y003466D01*
X019335Y003545D02*
X019545Y003545D01*
X019602Y003623D02*
X019278Y003623D01*
X019120Y003702D02*
X019760Y003702D01*
X019760Y003780D02*
X019120Y003780D01*
X019120Y003859D02*
X019760Y003859D01*
X019760Y003937D02*
X019120Y003937D01*
X019120Y004016D02*
X019760Y004016D01*
X019604Y004094D02*
X019276Y004094D01*
X019276Y004173D02*
X019604Y004173D01*
X019604Y004251D02*
X019276Y004251D01*
X019276Y004330D02*
X019604Y004330D01*
X019604Y004408D02*
X019276Y004408D01*
X019274Y004487D02*
X019606Y004487D01*
X019604Y004801D02*
X019276Y004801D01*
X019276Y004879D02*
X019604Y004879D01*
X019604Y004958D02*
X019276Y004958D01*
X019276Y005036D02*
X019604Y005036D01*
X019760Y005272D02*
X019120Y005272D01*
X019120Y005350D02*
X019760Y005350D01*
X019760Y005429D02*
X019120Y005429D01*
X019120Y005507D02*
X019760Y005507D01*
X019760Y005586D02*
X019120Y005586D01*
X019120Y005664D02*
X019760Y005664D01*
X019760Y005743D02*
X019120Y005743D01*
X019187Y005821D02*
X019693Y005821D01*
X019615Y005900D02*
X019265Y005900D01*
X019340Y005978D02*
X019540Y005978D01*
X019540Y006057D02*
X019340Y006057D01*
X019340Y006135D02*
X019540Y006135D01*
X019540Y006214D02*
X019340Y006214D01*
X019340Y006292D02*
X019540Y006292D01*
X019605Y006371D02*
X019275Y006371D01*
X019197Y006449D02*
X019683Y006449D01*
X019762Y006528D02*
X019118Y006528D01*
X018762Y006528D02*
X018118Y006528D01*
X018197Y006449D02*
X018683Y006449D01*
X018605Y006371D02*
X018275Y006371D01*
X018340Y006292D02*
X018540Y006292D01*
X018540Y006214D02*
X018340Y006214D01*
X018340Y006135D02*
X018540Y006135D01*
X018540Y006057D02*
X018340Y006057D01*
X018340Y005978D02*
X018540Y005978D01*
X018615Y005900D02*
X018265Y005900D01*
X018187Y005821D02*
X018693Y005821D01*
X018760Y005743D02*
X018120Y005743D01*
X018120Y005664D02*
X018760Y005664D01*
X018760Y005586D02*
X018120Y005586D01*
X018120Y005507D02*
X018760Y005507D01*
X018760Y005429D02*
X018120Y005429D01*
X018120Y005350D02*
X018760Y005350D01*
X018760Y005272D02*
X018120Y005272D01*
X018276Y005036D02*
X018604Y005036D01*
X018604Y004958D02*
X018276Y004958D01*
X018276Y004879D02*
X018604Y004879D01*
X018604Y004801D02*
X018276Y004801D01*
X018218Y004543D02*
X017662Y004543D01*
X017604Y004485D01*
X017604Y004087D01*
X017662Y004028D01*
X017760Y004028D01*
X017760Y003624D01*
X017603Y003624D01*
X017545Y003566D01*
X017545Y002892D01*
X017603Y002834D01*
X018277Y002834D01*
X018335Y002892D01*
X018335Y003566D01*
X018277Y003624D01*
X018120Y003624D01*
X018120Y004028D01*
X018218Y004028D01*
X018276Y004087D01*
X018276Y004485D01*
X018218Y004543D01*
X018274Y004487D02*
X018606Y004487D01*
X018604Y004408D02*
X018276Y004408D01*
X018276Y004330D02*
X018604Y004330D01*
X018604Y004251D02*
X018276Y004251D01*
X018276Y004173D02*
X018604Y004173D01*
X018604Y004094D02*
X018276Y004094D01*
X018120Y004016D02*
X018760Y004016D01*
X018760Y003937D02*
X018120Y003937D01*
X018120Y003859D02*
X018760Y003859D01*
X018760Y003780D02*
X018120Y003780D01*
X018120Y003702D02*
X018760Y003702D01*
X018602Y003623D02*
X018278Y003623D01*
X018335Y003545D02*
X018545Y003545D01*
X018545Y003466D02*
X018335Y003466D01*
X018335Y003388D02*
X018545Y003388D01*
X018545Y003309D02*
X018335Y003309D01*
X018335Y003231D02*
X018545Y003231D01*
X018545Y003152D02*
X018335Y003152D01*
X018335Y003074D02*
X018545Y003074D01*
X018545Y002995D02*
X018335Y002995D01*
X018335Y002917D02*
X018545Y002917D01*
X018599Y002838D02*
X018281Y002838D01*
X018277Y002446D02*
X018603Y002446D01*
X018545Y002367D02*
X018335Y002367D01*
X018335Y001739D02*
X018545Y001739D01*
X018599Y001661D02*
X018281Y001661D01*
X017599Y001661D02*
X017281Y001661D01*
X017335Y001739D02*
X017545Y001739D01*
X017545Y002367D02*
X017335Y002367D01*
X017277Y002446D02*
X017603Y002446D01*
X017599Y002838D02*
X017281Y002838D01*
X017277Y002834D02*
X017335Y002892D01*
X017335Y003566D01*
X017277Y003624D01*
X017120Y003624D01*
X017120Y004028D01*
X017218Y004028D01*
X017276Y004087D01*
X017276Y004485D01*
X017218Y004543D01*
X016662Y004543D01*
X016604Y004485D01*
X016604Y004087D01*
X016662Y004028D01*
X016760Y004028D01*
X016760Y003624D01*
X016603Y003624D01*
X016545Y003566D01*
X016545Y002892D01*
X016603Y002834D01*
X017277Y002834D01*
X017335Y002917D02*
X017545Y002917D01*
X017545Y002995D02*
X017335Y002995D01*
X017335Y003074D02*
X017545Y003074D01*
X017545Y003152D02*
X017335Y003152D01*
X017335Y003231D02*
X017545Y003231D01*
X017545Y003309D02*
X017335Y003309D01*
X017335Y003388D02*
X017545Y003388D01*
X017545Y003466D02*
X017335Y003466D01*
X017335Y003545D02*
X017545Y003545D01*
X017602Y003623D02*
X017278Y003623D01*
X017120Y003702D02*
X017760Y003702D01*
X017760Y003780D02*
X017120Y003780D01*
X017120Y003859D02*
X017760Y003859D01*
X017760Y003937D02*
X017120Y003937D01*
X017120Y004016D02*
X017760Y004016D01*
X017604Y004094D02*
X017276Y004094D01*
X017276Y004173D02*
X017604Y004173D01*
X017604Y004251D02*
X017276Y004251D01*
X017276Y004330D02*
X017604Y004330D01*
X017604Y004408D02*
X017276Y004408D01*
X017274Y004487D02*
X017606Y004487D01*
X017604Y004801D02*
X017276Y004801D01*
X017276Y004879D02*
X017604Y004879D01*
X017604Y004958D02*
X017276Y004958D01*
X017276Y005036D02*
X017604Y005036D01*
X017760Y005272D02*
X017120Y005272D01*
X017120Y005350D02*
X017760Y005350D01*
X017760Y005429D02*
X017120Y005429D01*
X017120Y005507D02*
X017760Y005507D01*
X017760Y005586D02*
X017120Y005586D01*
X017120Y005664D02*
X017760Y005664D01*
X017760Y005743D02*
X017120Y005743D01*
X017187Y005821D02*
X017693Y005821D01*
X017615Y005900D02*
X017265Y005900D01*
X017340Y005978D02*
X017540Y005978D01*
X017540Y006057D02*
X017340Y006057D01*
X017340Y006135D02*
X017540Y006135D01*
X017540Y006214D02*
X017340Y006214D01*
X017340Y006292D02*
X017540Y006292D01*
X017605Y006371D02*
X017275Y006371D01*
X017197Y006449D02*
X017683Y006449D01*
X017762Y006528D02*
X017118Y006528D01*
X016762Y006528D02*
X016118Y006528D01*
X016197Y006449D02*
X016683Y006449D01*
X016605Y006371D02*
X016275Y006371D01*
X016340Y006292D02*
X016540Y006292D01*
X016540Y006214D02*
X016340Y006214D01*
X016340Y006135D02*
X016540Y006135D01*
X016540Y006057D02*
X016340Y006057D01*
X016340Y005978D02*
X016540Y005978D01*
X016615Y005900D02*
X016265Y005900D01*
X016187Y005821D02*
X016693Y005821D01*
X016760Y005743D02*
X016120Y005743D01*
X016120Y005664D02*
X016760Y005664D01*
X016760Y005586D02*
X016120Y005586D01*
X016120Y005507D02*
X016760Y005507D01*
X016760Y005429D02*
X016120Y005429D01*
X016120Y005350D02*
X016760Y005350D01*
X016760Y005272D02*
X016120Y005272D01*
X016276Y005036D02*
X016604Y005036D01*
X016604Y004958D02*
X016276Y004958D01*
X016276Y004879D02*
X016604Y004879D01*
X016604Y004801D02*
X016276Y004801D01*
X016218Y004543D02*
X015662Y004543D01*
X015604Y004485D01*
X015604Y004087D01*
X015662Y004028D01*
X015760Y004028D01*
X015760Y003624D01*
X015603Y003624D01*
X015545Y003566D01*
X015545Y002892D01*
X015603Y002834D01*
X016277Y002834D01*
X016335Y002892D01*
X016335Y003566D01*
X016277Y003624D01*
X016120Y003624D01*
X016120Y004028D01*
X016218Y004028D01*
X016276Y004087D01*
X016276Y004485D01*
X016218Y004543D01*
X016274Y004487D02*
X016606Y004487D01*
X016604Y004408D02*
X016276Y004408D01*
X016276Y004330D02*
X016604Y004330D01*
X016604Y004251D02*
X016276Y004251D01*
X016276Y004173D02*
X016604Y004173D01*
X016604Y004094D02*
X016276Y004094D01*
X016120Y004016D02*
X016760Y004016D01*
X016760Y003937D02*
X016120Y003937D01*
X016120Y003859D02*
X016760Y003859D01*
X016760Y003780D02*
X016120Y003780D01*
X016120Y003702D02*
X016760Y003702D01*
X016602Y003623D02*
X016278Y003623D01*
X016335Y003545D02*
X016545Y003545D01*
X016545Y003466D02*
X016335Y003466D01*
X016335Y003388D02*
X016545Y003388D01*
X016545Y003309D02*
X016335Y003309D01*
X016335Y003231D02*
X016545Y003231D01*
X016545Y003152D02*
X016335Y003152D01*
X016335Y003074D02*
X016545Y003074D01*
X016545Y002995D02*
X016335Y002995D01*
X016335Y002917D02*
X016545Y002917D01*
X016599Y002838D02*
X016281Y002838D01*
X016277Y002446D02*
X016603Y002446D01*
X016545Y002367D02*
X016335Y002367D01*
X016335Y001739D02*
X016545Y001739D01*
X016599Y001661D02*
X016281Y001661D01*
X015599Y001661D02*
X015281Y001661D01*
X015335Y001739D02*
X015545Y001739D01*
X015545Y002367D02*
X015335Y002367D01*
X015277Y002446D02*
X015603Y002446D01*
X015599Y002838D02*
X015281Y002838D01*
X015277Y002834D02*
X015335Y002892D01*
X015335Y003566D01*
X015277Y003624D01*
X015120Y003624D01*
X015120Y004028D01*
X015218Y004028D01*
X015276Y004087D01*
X015276Y004485D01*
X015218Y004543D01*
X014662Y004543D01*
X014604Y004485D01*
X014604Y004087D01*
X014662Y004028D01*
X014760Y004028D01*
X014760Y003624D01*
X014603Y003624D01*
X014545Y003566D01*
X014545Y002892D01*
X014603Y002834D01*
X015277Y002834D01*
X015335Y002917D02*
X015545Y002917D01*
X015545Y002995D02*
X015335Y002995D01*
X015335Y003074D02*
X015545Y003074D01*
X015545Y003152D02*
X015335Y003152D01*
X015335Y003231D02*
X015545Y003231D01*
X015545Y003309D02*
X015335Y003309D01*
X015335Y003388D02*
X015545Y003388D01*
X015545Y003466D02*
X015335Y003466D01*
X015335Y003545D02*
X015545Y003545D01*
X015602Y003623D02*
X015278Y003623D01*
X015120Y003702D02*
X015760Y003702D01*
X015760Y003780D02*
X015120Y003780D01*
X015120Y003859D02*
X015760Y003859D01*
X015760Y003937D02*
X015120Y003937D01*
X015120Y004016D02*
X015760Y004016D01*
X015604Y004094D02*
X015276Y004094D01*
X015276Y004173D02*
X015604Y004173D01*
X015604Y004251D02*
X015276Y004251D01*
X015276Y004330D02*
X015604Y004330D01*
X015604Y004408D02*
X015276Y004408D01*
X015274Y004487D02*
X015606Y004487D01*
X015604Y004801D02*
X015276Y004801D01*
X015276Y004879D02*
X015604Y004879D01*
X015604Y004958D02*
X015276Y004958D01*
X015276Y005036D02*
X015604Y005036D01*
X015760Y005272D02*
X015120Y005272D01*
X015120Y005350D02*
X015760Y005350D01*
X015760Y005429D02*
X015120Y005429D01*
X015120Y005507D02*
X015760Y005507D01*
X015760Y005586D02*
X015120Y005586D01*
X015120Y005664D02*
X015760Y005664D01*
X015760Y005743D02*
X015120Y005743D01*
X015187Y005821D02*
X015693Y005821D01*
X015615Y005900D02*
X015265Y005900D01*
X015340Y005978D02*
X015540Y005978D01*
X015540Y006057D02*
X015340Y006057D01*
X015340Y006135D02*
X015540Y006135D01*
X015540Y006214D02*
X015340Y006214D01*
X015340Y006292D02*
X015540Y006292D01*
X015605Y006371D02*
X015275Y006371D01*
X015197Y006449D02*
X015683Y006449D01*
X015762Y006528D02*
X015118Y006528D01*
X014762Y006528D02*
X014118Y006528D01*
X014197Y006449D02*
X014683Y006449D01*
X014605Y006371D02*
X014275Y006371D01*
X014340Y006292D02*
X014540Y006292D01*
X014540Y006214D02*
X014340Y006214D01*
X014340Y006135D02*
X014540Y006135D01*
X014540Y006057D02*
X014340Y006057D01*
X014340Y005978D02*
X014540Y005978D01*
X014615Y005900D02*
X014265Y005900D01*
X014187Y005821D02*
X014693Y005821D01*
X014760Y005743D02*
X014120Y005743D01*
X014120Y005664D02*
X014760Y005664D01*
X014760Y005586D02*
X014120Y005586D01*
X014120Y005507D02*
X014760Y005507D01*
X014760Y005429D02*
X014120Y005429D01*
X014120Y005350D02*
X014760Y005350D01*
X014760Y005272D02*
X014120Y005272D01*
X014276Y005036D02*
X014604Y005036D01*
X014604Y004958D02*
X014276Y004958D01*
X014276Y004879D02*
X014604Y004879D01*
X014604Y004801D02*
X014276Y004801D01*
X014218Y004543D02*
X013662Y004543D01*
X013604Y004485D01*
X013604Y004087D01*
X013662Y004028D01*
X013760Y004028D01*
X013760Y003624D01*
X013603Y003624D01*
X013545Y003566D01*
X013545Y002892D01*
X013603Y002834D01*
X014277Y002834D01*
X014335Y002892D01*
X014335Y003566D01*
X014277Y003624D01*
X014120Y003624D01*
X014120Y004028D01*
X014218Y004028D01*
X014276Y004087D01*
X014276Y004485D01*
X014218Y004543D01*
X014274Y004487D02*
X014606Y004487D01*
X014604Y004408D02*
X014276Y004408D01*
X014276Y004330D02*
X014604Y004330D01*
X014604Y004251D02*
X014276Y004251D01*
X014276Y004173D02*
X014604Y004173D01*
X014604Y004094D02*
X014276Y004094D01*
X014120Y004016D02*
X014760Y004016D01*
X014760Y003937D02*
X014120Y003937D01*
X014120Y003859D02*
X014760Y003859D01*
X014760Y003780D02*
X014120Y003780D01*
X014120Y003702D02*
X014760Y003702D01*
X014602Y003623D02*
X014278Y003623D01*
X014335Y003545D02*
X014545Y003545D01*
X014545Y003466D02*
X014335Y003466D01*
X014335Y003388D02*
X014545Y003388D01*
X014545Y003309D02*
X014335Y003309D01*
X014335Y003231D02*
X014545Y003231D01*
X014545Y003152D02*
X014335Y003152D01*
X014335Y003074D02*
X014545Y003074D01*
X014545Y002995D02*
X014335Y002995D01*
X014335Y002917D02*
X014545Y002917D01*
X014599Y002838D02*
X014281Y002838D01*
X014277Y002446D02*
X014603Y002446D01*
X014545Y002367D02*
X014335Y002367D01*
X014335Y001739D02*
X014545Y001739D01*
X014599Y001661D02*
X014281Y001661D01*
X013599Y001661D02*
X013281Y001661D01*
X013335Y001739D02*
X013545Y001739D01*
X013545Y002367D02*
X013335Y002367D01*
X013277Y002446D02*
X013603Y002446D01*
X013599Y002838D02*
X013281Y002838D01*
X013277Y002834D02*
X013335Y002892D01*
X013335Y003566D01*
X013277Y003624D01*
X013120Y003624D01*
X013120Y004028D01*
X013218Y004028D01*
X013276Y004087D01*
X013276Y004485D01*
X013218Y004543D01*
X012662Y004543D01*
X012604Y004485D01*
X012604Y004087D01*
X012662Y004028D01*
X012760Y004028D01*
X012760Y003624D01*
X012603Y003624D01*
X012545Y003566D01*
X012545Y002892D01*
X012603Y002834D01*
X013277Y002834D01*
X013335Y002917D02*
X013545Y002917D01*
X013545Y002995D02*
X013335Y002995D01*
X013335Y003074D02*
X013545Y003074D01*
X013545Y003152D02*
X013335Y003152D01*
X013335Y003231D02*
X013545Y003231D01*
X013545Y003309D02*
X013335Y003309D01*
X013335Y003388D02*
X013545Y003388D01*
X013545Y003466D02*
X013335Y003466D01*
X013335Y003545D02*
X013545Y003545D01*
X013602Y003623D02*
X013278Y003623D01*
X013120Y003702D02*
X013760Y003702D01*
X013760Y003780D02*
X013120Y003780D01*
X013120Y003859D02*
X013760Y003859D01*
X013760Y003937D02*
X013120Y003937D01*
X013120Y004016D02*
X013760Y004016D01*
X013604Y004094D02*
X013276Y004094D01*
X013276Y004173D02*
X013604Y004173D01*
X013604Y004251D02*
X013276Y004251D01*
X013276Y004330D02*
X013604Y004330D01*
X013604Y004408D02*
X013276Y004408D01*
X013274Y004487D02*
X013606Y004487D01*
X013604Y004801D02*
X013276Y004801D01*
X013276Y004879D02*
X013604Y004879D01*
X013604Y004958D02*
X013276Y004958D01*
X013276Y005036D02*
X013604Y005036D01*
X013760Y005272D02*
X013120Y005272D01*
X013120Y005350D02*
X013760Y005350D01*
X013760Y005429D02*
X013120Y005429D01*
X013120Y005507D02*
X013760Y005507D01*
X013760Y005586D02*
X013120Y005586D01*
X013120Y005664D02*
X013760Y005664D01*
X013760Y005743D02*
X013120Y005743D01*
X013187Y005821D02*
X013693Y005821D01*
X013615Y005900D02*
X013265Y005900D01*
X013340Y005978D02*
X013540Y005978D01*
X013540Y006057D02*
X013340Y006057D01*
X013340Y006135D02*
X013540Y006135D01*
X013540Y006214D02*
X013340Y006214D01*
X013340Y006292D02*
X013540Y006292D01*
X013605Y006371D02*
X013275Y006371D01*
X013197Y006449D02*
X013683Y006449D01*
X013762Y006528D02*
X013118Y006528D01*
X012762Y006528D02*
X012118Y006528D01*
X012197Y006449D02*
X012683Y006449D01*
X012605Y006371D02*
X012275Y006371D01*
X012340Y006292D02*
X012540Y006292D01*
X012540Y006214D02*
X012340Y006214D01*
X012340Y006135D02*
X012540Y006135D01*
X012540Y006057D02*
X012340Y006057D01*
X012340Y005978D02*
X012540Y005978D01*
X012615Y005900D02*
X012265Y005900D01*
X012187Y005821D02*
X012693Y005821D01*
X012760Y005743D02*
X012120Y005743D01*
X012120Y005664D02*
X012760Y005664D01*
X012760Y005586D02*
X012120Y005586D01*
X012120Y005507D02*
X012760Y005507D01*
X012760Y005429D02*
X012120Y005429D01*
X012120Y005350D02*
X012760Y005350D01*
X012760Y005272D02*
X012120Y005272D01*
X012276Y005036D02*
X012604Y005036D01*
X012604Y004958D02*
X012276Y004958D01*
X012276Y004879D02*
X012604Y004879D01*
X012604Y004801D02*
X012276Y004801D01*
X012218Y004543D02*
X011662Y004543D01*
X011604Y004485D01*
X011604Y004087D01*
X011662Y004028D01*
X011760Y004028D01*
X011760Y003624D01*
X011603Y003624D01*
X011545Y003566D01*
X011545Y002892D01*
X011603Y002834D01*
X012277Y002834D01*
X012335Y002892D01*
X012335Y003566D01*
X012277Y003624D01*
X012120Y003624D01*
X012120Y004028D01*
X012218Y004028D01*
X012276Y004087D01*
X012276Y004485D01*
X012218Y004543D01*
X012274Y004487D02*
X012606Y004487D01*
X012604Y004408D02*
X012276Y004408D01*
X012276Y004330D02*
X012604Y004330D01*
X012604Y004251D02*
X012276Y004251D01*
X012276Y004173D02*
X012604Y004173D01*
X012604Y004094D02*
X012276Y004094D01*
X012120Y004016D02*
X012760Y004016D01*
X012760Y003937D02*
X012120Y003937D01*
X012120Y003859D02*
X012760Y003859D01*
X012760Y003780D02*
X012120Y003780D01*
X012120Y003702D02*
X012760Y003702D01*
X012602Y003623D02*
X012278Y003623D01*
X012335Y003545D02*
X012545Y003545D01*
X012545Y003466D02*
X012335Y003466D01*
X012335Y003388D02*
X012545Y003388D01*
X012545Y003309D02*
X012335Y003309D01*
X012335Y003231D02*
X012545Y003231D01*
X012545Y003152D02*
X012335Y003152D01*
X012335Y003074D02*
X012545Y003074D01*
X012545Y002995D02*
X012335Y002995D01*
X012335Y002917D02*
X012545Y002917D01*
X012599Y002838D02*
X012281Y002838D01*
X012277Y002446D02*
X012603Y002446D01*
X012545Y002367D02*
X012335Y002367D01*
X012335Y001739D02*
X012545Y001739D01*
X012599Y001661D02*
X012281Y001661D01*
X011599Y001661D02*
X011281Y001661D01*
X011335Y001739D02*
X011545Y001739D01*
X011545Y002367D02*
X011335Y002367D01*
X011277Y002446D02*
X011603Y002446D01*
X011599Y002838D02*
X011281Y002838D01*
X011277Y002834D02*
X011335Y002892D01*
X011335Y003566D01*
X011277Y003624D01*
X011120Y003624D01*
X011120Y004028D01*
X011218Y004028D01*
X011276Y004087D01*
X011276Y004485D01*
X011218Y004543D01*
X010662Y004543D01*
X010604Y004485D01*
X010604Y004087D01*
X010662Y004028D01*
X010760Y004028D01*
X010760Y003624D01*
X010603Y003624D01*
X010545Y003566D01*
X010545Y002892D01*
X010603Y002834D01*
X011277Y002834D01*
X011335Y002917D02*
X011545Y002917D01*
X011545Y002995D02*
X011335Y002995D01*
X011335Y003074D02*
X011545Y003074D01*
X011545Y003152D02*
X011335Y003152D01*
X011335Y003231D02*
X011545Y003231D01*
X011545Y003309D02*
X011335Y003309D01*
X011335Y003388D02*
X011545Y003388D01*
X011545Y003466D02*
X011335Y003466D01*
X011335Y003545D02*
X011545Y003545D01*
X011602Y003623D02*
X011278Y003623D01*
X011120Y003702D02*
X011760Y003702D01*
X011760Y003780D02*
X011120Y003780D01*
X011120Y003859D02*
X011760Y003859D01*
X011760Y003937D02*
X011120Y003937D01*
X011120Y004016D02*
X011760Y004016D01*
X011604Y004094D02*
X011276Y004094D01*
X011276Y004173D02*
X011604Y004173D01*
X011604Y004251D02*
X011276Y004251D01*
X011276Y004330D02*
X011604Y004330D01*
X011604Y004408D02*
X011276Y004408D01*
X011274Y004487D02*
X011606Y004487D01*
X011604Y004801D02*
X011276Y004801D01*
X011276Y004879D02*
X011604Y004879D01*
X011604Y004958D02*
X011276Y004958D01*
X011276Y005036D02*
X011604Y005036D01*
X011760Y005272D02*
X011120Y005272D01*
X011120Y005350D02*
X011760Y005350D01*
X011760Y005429D02*
X011120Y005429D01*
X011120Y005507D02*
X011760Y005507D01*
X011760Y005586D02*
X011120Y005586D01*
X011120Y005664D02*
X011760Y005664D01*
X011760Y005743D02*
X011120Y005743D01*
X011187Y005821D02*
X011693Y005821D01*
X011615Y005900D02*
X011265Y005900D01*
X011340Y005978D02*
X011540Y005978D01*
X011540Y006057D02*
X011340Y006057D01*
X011340Y006135D02*
X011540Y006135D01*
X011540Y006214D02*
X011340Y006214D01*
X011340Y006292D02*
X011540Y006292D01*
X011605Y006371D02*
X011275Y006371D01*
X011197Y006449D02*
X011683Y006449D01*
X011762Y006528D02*
X011118Y006528D01*
X010762Y006528D02*
X010118Y006528D01*
X010197Y006449D02*
X010683Y006449D01*
X010605Y006371D02*
X010275Y006371D01*
X010340Y006292D02*
X010540Y006292D01*
X010540Y006214D02*
X010340Y006214D01*
X010340Y006135D02*
X010540Y006135D01*
X010540Y006057D02*
X010340Y006057D01*
X010340Y005978D02*
X010540Y005978D01*
X010615Y005900D02*
X010265Y005900D01*
X010187Y005821D02*
X010693Y005821D01*
X010760Y005743D02*
X010120Y005743D01*
X010120Y005664D02*
X010760Y005664D01*
X010760Y005586D02*
X010120Y005586D01*
X010120Y005507D02*
X010760Y005507D01*
X010760Y005429D02*
X010120Y005429D01*
X010120Y005350D02*
X010760Y005350D01*
X010760Y005272D02*
X010120Y005272D01*
X010276Y005036D02*
X010604Y005036D01*
X010604Y004958D02*
X010276Y004958D01*
X010276Y004879D02*
X010604Y004879D01*
X010604Y004801D02*
X010276Y004801D01*
X010218Y004543D02*
X009662Y004543D01*
X009604Y004485D01*
X009604Y004087D01*
X009662Y004028D01*
X009760Y004028D01*
X009760Y003624D01*
X009603Y003624D01*
X009545Y003566D01*
X009545Y002892D01*
X009603Y002834D01*
X010277Y002834D01*
X010335Y002892D01*
X010335Y003566D01*
X010277Y003624D01*
X010120Y003624D01*
X010120Y004028D01*
X010218Y004028D01*
X010276Y004087D01*
X010276Y004485D01*
X010218Y004543D01*
X010274Y004487D02*
X010606Y004487D01*
X010604Y004408D02*
X010276Y004408D01*
X010276Y004330D02*
X010604Y004330D01*
X010604Y004251D02*
X010276Y004251D01*
X010276Y004173D02*
X010604Y004173D01*
X010604Y004094D02*
X010276Y004094D01*
X010120Y004016D02*
X010760Y004016D01*
X010760Y003937D02*
X010120Y003937D01*
X010120Y003859D02*
X010760Y003859D01*
X010760Y003780D02*
X010120Y003780D01*
X010120Y003702D02*
X010760Y003702D01*
X010602Y003623D02*
X010278Y003623D01*
X010335Y003545D02*
X010545Y003545D01*
X010545Y003466D02*
X010335Y003466D01*
X010335Y003388D02*
X010545Y003388D01*
X010545Y003309D02*
X010335Y003309D01*
X010335Y003231D02*
X010545Y003231D01*
X010545Y003152D02*
X010335Y003152D01*
X010335Y003074D02*
X010545Y003074D01*
X010545Y002995D02*
X010335Y002995D01*
X010335Y002917D02*
X010545Y002917D01*
X010599Y002838D02*
X010281Y002838D01*
X010277Y002446D02*
X010603Y002446D01*
X010545Y002367D02*
X010335Y002367D01*
X010335Y001739D02*
X010545Y001739D01*
X010599Y001661D02*
X010281Y001661D01*
X009599Y001661D02*
X009281Y001661D01*
X009335Y001739D02*
X009545Y001739D01*
X009545Y002367D02*
X009335Y002367D01*
X009277Y002446D02*
X009603Y002446D01*
X009599Y002838D02*
X009281Y002838D01*
X009277Y002834D02*
X009335Y002892D01*
X009335Y003566D01*
X009277Y003624D01*
X009120Y003624D01*
X009120Y004028D01*
X009218Y004028D01*
X009276Y004087D01*
X009276Y004485D01*
X009218Y004543D01*
X008662Y004543D01*
X008604Y004485D01*
X008604Y004087D01*
X008662Y004028D01*
X008760Y004028D01*
X008760Y003624D01*
X008603Y003624D01*
X008545Y003566D01*
X008545Y002892D01*
X008603Y002834D01*
X009277Y002834D01*
X009335Y002917D02*
X009545Y002917D01*
X009545Y002995D02*
X009335Y002995D01*
X009335Y003074D02*
X009545Y003074D01*
X009545Y003152D02*
X009335Y003152D01*
X009335Y003231D02*
X009545Y003231D01*
X009545Y003309D02*
X009335Y003309D01*
X009335Y003388D02*
X009545Y003388D01*
X009545Y003466D02*
X009335Y003466D01*
X009335Y003545D02*
X009545Y003545D01*
X009602Y003623D02*
X009278Y003623D01*
X009120Y003702D02*
X009760Y003702D01*
X009760Y003780D02*
X009120Y003780D01*
X009120Y003859D02*
X009760Y003859D01*
X009760Y003937D02*
X009120Y003937D01*
X009120Y004016D02*
X009760Y004016D01*
X009604Y004094D02*
X009276Y004094D01*
X009276Y004173D02*
X009604Y004173D01*
X009604Y004251D02*
X009276Y004251D01*
X009276Y004330D02*
X009604Y004330D01*
X009604Y004408D02*
X009276Y004408D01*
X009274Y004487D02*
X009606Y004487D01*
X009604Y004801D02*
X009276Y004801D01*
X009276Y004879D02*
X009604Y004879D01*
X009604Y004958D02*
X009276Y004958D01*
X009276Y005036D02*
X009604Y005036D01*
X009760Y005272D02*
X009120Y005272D01*
X009120Y005350D02*
X009760Y005350D01*
X009760Y005429D02*
X009120Y005429D01*
X009120Y005507D02*
X009760Y005507D01*
X009760Y005586D02*
X009120Y005586D01*
X009120Y005664D02*
X009760Y005664D01*
X009760Y005743D02*
X009120Y005743D01*
X009187Y005821D02*
X009693Y005821D01*
X009615Y005900D02*
X009265Y005900D01*
X009340Y005978D02*
X009540Y005978D01*
X009540Y006057D02*
X009340Y006057D01*
X009340Y006135D02*
X009540Y006135D01*
X009540Y006214D02*
X009340Y006214D01*
X009340Y006292D02*
X009540Y006292D01*
X009605Y006371D02*
X009275Y006371D01*
X009197Y006449D02*
X009683Y006449D01*
X009762Y006528D02*
X009118Y006528D01*
X008762Y006528D02*
X008118Y006528D01*
X008197Y006449D02*
X008683Y006449D01*
X008605Y006371D02*
X008275Y006371D01*
X008340Y006292D02*
X008540Y006292D01*
X008540Y006214D02*
X008340Y006214D01*
X008340Y006135D02*
X008540Y006135D01*
X008540Y006057D02*
X008340Y006057D01*
X008340Y005978D02*
X008540Y005978D01*
X008615Y005900D02*
X008265Y005900D01*
X008187Y005821D02*
X008693Y005821D01*
X008760Y005743D02*
X008120Y005743D01*
X008120Y005664D02*
X008760Y005664D01*
X008760Y005586D02*
X008120Y005586D01*
X008120Y005507D02*
X008760Y005507D01*
X008760Y005429D02*
X008120Y005429D01*
X008120Y005350D02*
X008760Y005350D01*
X008760Y005272D02*
X008120Y005272D01*
X008276Y005036D02*
X008604Y005036D01*
X008604Y004958D02*
X008276Y004958D01*
X008276Y004879D02*
X008604Y004879D01*
X008604Y004801D02*
X008276Y004801D01*
X008218Y004543D02*
X007662Y004543D01*
X007604Y004485D01*
X007604Y004087D01*
X007662Y004028D01*
X007760Y004028D01*
X007760Y003624D01*
X007603Y003624D01*
X007545Y003566D01*
X007545Y002892D01*
X007603Y002834D01*
X008277Y002834D01*
X008335Y002892D01*
X008335Y003566D01*
X008277Y003624D01*
X008120Y003624D01*
X008120Y004028D01*
X008218Y004028D01*
X008276Y004087D01*
X008276Y004485D01*
X008218Y004543D01*
X008274Y004487D02*
X008606Y004487D01*
X008604Y004408D02*
X008276Y004408D01*
X008276Y004330D02*
X008604Y004330D01*
X008604Y004251D02*
X008276Y004251D01*
X008276Y004173D02*
X008604Y004173D01*
X008604Y004094D02*
X008276Y004094D01*
X008120Y004016D02*
X008760Y004016D01*
X008760Y003937D02*
X008120Y003937D01*
X008120Y003859D02*
X008760Y003859D01*
X008760Y003780D02*
X008120Y003780D01*
X008120Y003702D02*
X008760Y003702D01*
X008602Y003623D02*
X008278Y003623D01*
X008335Y003545D02*
X008545Y003545D01*
X008545Y003466D02*
X008335Y003466D01*
X008335Y003388D02*
X008545Y003388D01*
X008545Y003309D02*
X008335Y003309D01*
X008335Y003231D02*
X008545Y003231D01*
X008545Y003152D02*
X008335Y003152D01*
X008335Y003074D02*
X008545Y003074D01*
X008545Y002995D02*
X008335Y002995D01*
X008335Y002917D02*
X008545Y002917D01*
X008599Y002838D02*
X008281Y002838D01*
X008277Y002446D02*
X008603Y002446D01*
X008545Y002367D02*
X008335Y002367D01*
X008335Y001739D02*
X008545Y001739D01*
X008599Y001661D02*
X008281Y001661D01*
X007599Y001661D02*
X007281Y001661D01*
X007335Y001739D02*
X007545Y001739D01*
X007545Y002367D02*
X007335Y002367D01*
X007277Y002446D02*
X007603Y002446D01*
X007599Y002838D02*
X007281Y002838D01*
X007277Y002834D02*
X007335Y002892D01*
X007335Y003566D01*
X007277Y003624D01*
X007120Y003624D01*
X007120Y004028D01*
X007218Y004028D01*
X007276Y004087D01*
X007276Y004485D01*
X007218Y004543D01*
X006662Y004543D01*
X006604Y004485D01*
X006604Y004087D01*
X006662Y004028D01*
X006760Y004028D01*
X006760Y003624D01*
X006603Y003624D01*
X006545Y003566D01*
X006545Y002892D01*
X006603Y002834D01*
X007277Y002834D01*
X007335Y002917D02*
X007545Y002917D01*
X007545Y002995D02*
X007335Y002995D01*
X007335Y003074D02*
X007545Y003074D01*
X007545Y003152D02*
X007335Y003152D01*
X007335Y003231D02*
X007545Y003231D01*
X007545Y003309D02*
X007335Y003309D01*
X007335Y003388D02*
X007545Y003388D01*
X007545Y003466D02*
X007335Y003466D01*
X007335Y003545D02*
X007545Y003545D01*
X007602Y003623D02*
X007278Y003623D01*
X007120Y003702D02*
X007760Y003702D01*
X007760Y003780D02*
X007120Y003780D01*
X007120Y003859D02*
X007760Y003859D01*
X007760Y003937D02*
X007120Y003937D01*
X007120Y004016D02*
X007760Y004016D01*
X007604Y004094D02*
X007276Y004094D01*
X007276Y004173D02*
X007604Y004173D01*
X007604Y004251D02*
X007276Y004251D01*
X007276Y004330D02*
X007604Y004330D01*
X007604Y004408D02*
X007276Y004408D01*
X007274Y004487D02*
X007606Y004487D01*
X007604Y004801D02*
X007276Y004801D01*
X007276Y004879D02*
X007604Y004879D01*
X007604Y004958D02*
X007276Y004958D01*
X007276Y005036D02*
X007604Y005036D01*
X007760Y005272D02*
X007120Y005272D01*
X007120Y005350D02*
X007760Y005350D01*
X007760Y005429D02*
X007120Y005429D01*
X007120Y005507D02*
X007760Y005507D01*
X007760Y005586D02*
X007120Y005586D01*
X007120Y005664D02*
X007760Y005664D01*
X007760Y005743D02*
X007120Y005743D01*
X007187Y005821D02*
X007693Y005821D01*
X007615Y005900D02*
X007265Y005900D01*
X007340Y005978D02*
X007540Y005978D01*
X007540Y006057D02*
X007340Y006057D01*
X007340Y006135D02*
X007540Y006135D01*
X007540Y006214D02*
X007340Y006214D01*
X007340Y006292D02*
X007540Y006292D01*
X007605Y006371D02*
X007275Y006371D01*
X007197Y006449D02*
X007683Y006449D01*
X007762Y006528D02*
X007118Y006528D01*
X006762Y006528D02*
X006118Y006528D01*
X006197Y006449D02*
X006683Y006449D01*
X006605Y006371D02*
X006275Y006371D01*
X006340Y006292D02*
X006540Y006292D01*
X006540Y006214D02*
X006340Y006214D01*
X006340Y006135D02*
X006540Y006135D01*
X006540Y006057D02*
X006340Y006057D01*
X006340Y005978D02*
X006540Y005978D01*
X006615Y005900D02*
X006265Y005900D01*
X006187Y005821D02*
X006693Y005821D01*
X006760Y005743D02*
X006120Y005743D01*
X006120Y005664D02*
X006760Y005664D01*
X006760Y005586D02*
X006120Y005586D01*
X006120Y005507D02*
X006760Y005507D01*
X006760Y005429D02*
X006120Y005429D01*
X006120Y005350D02*
X006760Y005350D01*
X006760Y005272D02*
X006120Y005272D01*
X006276Y005036D02*
X006604Y005036D01*
X006604Y004958D02*
X006276Y004958D01*
X006276Y004879D02*
X006604Y004879D01*
X006604Y004801D02*
X006276Y004801D01*
X006218Y004543D02*
X005662Y004543D01*
X005604Y004485D01*
X005604Y004087D01*
X005662Y004028D01*
X005760Y004028D01*
X005760Y003624D01*
X005603Y003624D01*
X005545Y003566D01*
X005545Y002892D01*
X005603Y002834D01*
X006277Y002834D01*
X006335Y002892D01*
X006335Y003566D01*
X006277Y003624D01*
X006120Y003624D01*
X006120Y004028D01*
X006218Y004028D01*
X006276Y004087D01*
X006276Y004485D01*
X006218Y004543D01*
X006274Y004487D02*
X006606Y004487D01*
X006604Y004408D02*
X006276Y004408D01*
X006276Y004330D02*
X006604Y004330D01*
X006604Y004251D02*
X006276Y004251D01*
X006276Y004173D02*
X006604Y004173D01*
X006604Y004094D02*
X006276Y004094D01*
X006120Y004016D02*
X006760Y004016D01*
X006760Y003937D02*
X006120Y003937D01*
X006120Y003859D02*
X006760Y003859D01*
X006760Y003780D02*
X006120Y003780D01*
X006120Y003702D02*
X006760Y003702D01*
X006602Y003623D02*
X006278Y003623D01*
X006335Y003545D02*
X006545Y003545D01*
X006545Y003466D02*
X006335Y003466D01*
X006335Y003388D02*
X006545Y003388D01*
X006545Y003309D02*
X006335Y003309D01*
X006335Y003231D02*
X006545Y003231D01*
X006545Y003152D02*
X006335Y003152D01*
X006335Y003074D02*
X006545Y003074D01*
X006545Y002995D02*
X006335Y002995D01*
X006335Y002917D02*
X006545Y002917D01*
X006599Y002838D02*
X006281Y002838D01*
X006277Y002446D02*
X006603Y002446D01*
X006545Y002367D02*
X006335Y002367D01*
X006335Y001739D02*
X006545Y001739D01*
X006599Y001661D02*
X006281Y001661D01*
X005599Y001661D02*
X005281Y001661D01*
X005335Y001739D02*
X005545Y001739D01*
X005545Y002367D02*
X005335Y002367D01*
X005277Y002446D02*
X005603Y002446D01*
X005599Y002838D02*
X005281Y002838D01*
X005335Y002917D02*
X005545Y002917D01*
X005545Y002995D02*
X005335Y002995D01*
X005335Y003074D02*
X005545Y003074D01*
X005545Y003152D02*
X005335Y003152D01*
X005335Y003231D02*
X005545Y003231D01*
X005545Y003309D02*
X005335Y003309D01*
X005335Y003388D02*
X005545Y003388D01*
X005545Y003466D02*
X005335Y003466D01*
X005335Y003545D02*
X005545Y003545D01*
X005602Y003623D02*
X005278Y003623D01*
X005120Y003702D02*
X005760Y003702D01*
X005760Y003780D02*
X005120Y003780D01*
X005120Y003859D02*
X005760Y003859D01*
X005760Y003937D02*
X005120Y003937D01*
X005120Y004016D02*
X005760Y004016D01*
X005604Y004094D02*
X005276Y004094D01*
X005276Y004173D02*
X005604Y004173D01*
X005604Y004251D02*
X005276Y004251D01*
X005276Y004330D02*
X005604Y004330D01*
X005604Y004408D02*
X005276Y004408D01*
X005274Y004487D02*
X005606Y004487D01*
X005604Y004801D02*
X005276Y004801D01*
X005276Y004879D02*
X005604Y004879D01*
X005604Y004958D02*
X005276Y004958D01*
X005276Y005036D02*
X005604Y005036D01*
X005760Y005272D02*
X005120Y005272D01*
X005120Y005350D02*
X005760Y005350D01*
X005760Y005429D02*
X005120Y005429D01*
X005120Y005507D02*
X005760Y005507D01*
X005760Y005586D02*
X005120Y005586D01*
X005120Y005664D02*
X005760Y005664D01*
X005760Y005743D02*
X005120Y005743D01*
X005187Y005821D02*
X005693Y005821D01*
X005615Y005900D02*
X005265Y005900D01*
X005340Y005978D02*
X005540Y005978D01*
X005540Y006057D02*
X005340Y006057D01*
X005340Y006135D02*
X005540Y006135D01*
X005540Y006214D02*
X005340Y006214D01*
X005340Y006292D02*
X005540Y006292D01*
X005605Y006371D02*
X005275Y006371D01*
X005197Y006449D02*
X005683Y006449D01*
X005762Y006528D02*
X005118Y006528D01*
X005302Y007200D02*
X005308Y007202D01*
X005335Y007195D01*
X005339Y007190D01*
X005360Y007188D01*
X005381Y007183D01*
X005386Y007186D01*
X005414Y007183D01*
X005419Y007179D01*
X005440Y007181D01*
X005461Y007179D01*
X005466Y007183D01*
X005494Y007186D01*
X005499Y007183D01*
X005520Y007188D01*
X005541Y007190D01*
X005545Y007195D01*
X005572Y007202D01*
X005578Y007200D01*
X005597Y007209D01*
X005617Y007214D01*
X005621Y007220D01*
X005646Y007231D01*
X005652Y007230D01*
X005669Y007243D01*
X005689Y007252D01*
X005691Y007258D01*
X005714Y007273D01*
X005720Y007273D01*
X005735Y007288D01*
X005752Y007301D01*
X005754Y007307D01*
X005773Y007326D01*
X005779Y007328D01*
X005792Y007345D01*
X005807Y007360D01*
X005807Y007366D01*
X005822Y007389D01*
X005828Y007391D01*
X034225Y007391D01*
X034225Y007313D02*
X005759Y007313D01*
X005828Y007391D02*
X005837Y007411D01*
X005850Y007428D01*
X005849Y007434D01*
X005860Y007459D01*
X005866Y007463D01*
X005871Y007483D01*
X005880Y007502D01*
X005878Y007508D01*
X005885Y007535D01*
X005890Y007539D01*
X005892Y007560D01*
X005897Y007581D01*
X005894Y007586D01*
X005897Y007614D01*
X005901Y007619D01*
X005899Y007640D01*
X005901Y007661D01*
X005897Y007666D01*
X005894Y007694D01*
X005897Y007699D01*
X005892Y007720D01*
X005890Y007741D01*
X005885Y007745D01*
X005878Y007772D01*
X005880Y007778D01*
X005871Y007797D01*
X005866Y007817D01*
X005860Y007821D01*
X005849Y007846D01*
X005850Y007852D01*
X005837Y007869D01*
X005828Y007889D01*
X005822Y007891D01*
X005807Y007914D01*
X005807Y007920D01*
X005792Y007935D01*
X005779Y007952D01*
X005773Y007954D01*
X005754Y007973D01*
X005752Y007979D01*
X005735Y007992D01*
X005720Y008007D01*
X005714Y008007D01*
X005691Y008022D01*
X005689Y008028D01*
X005669Y008037D01*
X005652Y008050D01*
X005646Y008049D01*
X005621Y008060D01*
X005617Y008066D01*
X005597Y008071D01*
X005578Y008080D01*
X005572Y008078D01*
X005545Y008085D01*
X005541Y008090D01*
X005520Y008092D01*
X005499Y008097D01*
X005494Y008094D01*
X005466Y008097D01*
X005461Y008101D01*
X005440Y008099D01*
X005419Y008101D01*
X005414Y008097D01*
X005386Y008094D01*
X005381Y008097D01*
X005360Y008092D01*
X005339Y008090D01*
X005335Y008085D01*
X005308Y008078D01*
X005302Y008080D01*
X005283Y008071D01*
X005263Y008066D01*
X005259Y008060D01*
X005234Y008049D01*
X005228Y008050D01*
X005211Y008037D01*
X005191Y008028D01*
X005189Y008022D01*
X005166Y008007D01*
X005160Y008007D01*
X005145Y007992D01*
X005128Y007979D01*
X005126Y007973D01*
X005107Y007954D01*
X005101Y007952D01*
X005088Y007935D01*
X005073Y007920D01*
X005073Y007914D01*
X005058Y007891D01*
X005052Y007889D01*
X005043Y007869D01*
X005030Y007852D01*
X005031Y007846D01*
X005020Y007821D01*
X005014Y007817D01*
X005009Y007797D01*
X005000Y007778D01*
X005002Y007772D01*
X004995Y007745D01*
X004990Y007741D01*
X004988Y007720D01*
X004983Y007699D01*
X004986Y007694D01*
X004983Y007666D01*
X004979Y007661D01*
X004981Y007640D01*
X004979Y007619D01*
X004983Y007614D01*
X004986Y007586D01*
X004983Y007581D01*
X004988Y007560D01*
X004990Y007539D01*
X004995Y007535D01*
X005002Y007508D01*
X005000Y007502D01*
X005009Y007483D01*
X005014Y007463D01*
X005020Y007459D01*
X005031Y007434D01*
X005030Y007428D01*
X005043Y007411D01*
X005052Y007391D01*
X000655Y007391D01*
X000655Y007313D02*
X005121Y007313D01*
X005126Y007307D02*
X005128Y007301D01*
X005145Y007288D01*
X005160Y007273D01*
X005166Y007273D01*
X005189Y007258D01*
X005191Y007252D01*
X005211Y007243D01*
X005228Y007230D01*
X005234Y007231D01*
X005259Y007220D01*
X005263Y007214D01*
X005283Y007209D01*
X005302Y007200D01*
X005223Y007234D02*
X000655Y007234D01*
X000655Y007156D02*
X034225Y007156D01*
X034225Y007234D02*
X005657Y007234D01*
X005868Y007470D02*
X034225Y007470D01*
X034225Y007548D02*
X005891Y007548D01*
X005900Y007627D02*
X034225Y007627D01*
X034225Y007705D02*
X005896Y007705D01*
X005878Y007784D02*
X034225Y007784D01*
X034225Y007862D02*
X005843Y007862D01*
X005788Y007941D02*
X034225Y007941D01*
X034225Y008019D02*
X005696Y008019D01*
X005465Y008098D02*
X034225Y008098D01*
X034225Y008176D02*
X000655Y008176D01*
X000655Y008098D02*
X005415Y008098D01*
X005184Y008019D02*
X000655Y008019D01*
X000655Y007941D02*
X005092Y007941D01*
X005037Y007862D02*
X000655Y007862D01*
X000655Y007784D02*
X005002Y007784D01*
X004984Y007705D02*
X000655Y007705D01*
X000655Y007627D02*
X004980Y007627D01*
X004989Y007548D02*
X000655Y007548D01*
X000655Y007470D02*
X005012Y007470D01*
X005052Y007391D02*
X005058Y007389D01*
X005073Y007366D01*
X005073Y007360D01*
X005088Y007345D01*
X005101Y007328D01*
X005107Y007326D01*
X005126Y007307D01*
X005943Y006143D02*
X005940Y006140D01*
X007931Y006149D02*
X007940Y006140D01*
X003108Y002760D02*
X020680Y002760D01*
X020680Y002838D02*
X020281Y002838D01*
X020335Y002917D02*
X020680Y002917D01*
X020680Y002995D02*
X020335Y002995D01*
X020335Y003074D02*
X020680Y003074D01*
X020680Y003152D02*
X020335Y003152D01*
X020335Y003231D02*
X020680Y003231D01*
X020680Y003309D02*
X020335Y003309D01*
X020335Y003388D02*
X020680Y003388D01*
X020680Y003466D02*
X020335Y003466D01*
X020335Y003545D02*
X020680Y003545D01*
X020680Y003623D02*
X020278Y003623D01*
X020120Y003702D02*
X020680Y003702D01*
X020680Y003780D02*
X020120Y003780D01*
X020120Y003859D02*
X020680Y003859D01*
X020680Y003937D02*
X020120Y003937D01*
X020120Y004016D02*
X020680Y004016D01*
X020680Y004094D02*
X020276Y004094D01*
X020276Y004173D02*
X020680Y004173D01*
X020680Y004251D02*
X020276Y004251D01*
X020276Y004330D02*
X020680Y004330D01*
X020680Y004408D02*
X020276Y004408D01*
X020274Y004487D02*
X020680Y004487D01*
X020680Y004565D02*
X000655Y004565D01*
X000655Y004644D02*
X020680Y004644D01*
X020680Y004722D02*
X000655Y004722D01*
X000655Y006685D02*
X034225Y006685D01*
X034225Y006763D02*
X000655Y006763D01*
X000655Y006842D02*
X034225Y006842D01*
X034225Y006920D02*
X000655Y006920D01*
X000655Y006999D02*
X034225Y006999D01*
X034225Y007077D02*
X000655Y007077D01*
X000655Y008255D02*
X034225Y008255D01*
X034225Y008333D02*
X000655Y008333D01*
X000655Y008412D02*
X034225Y008412D01*
X034225Y008490D02*
X000655Y008490D01*
X000655Y008569D02*
X034225Y008569D01*
X034225Y008647D02*
X000655Y008647D01*
X000655Y008726D02*
X034225Y008726D01*
X034225Y008804D02*
X000655Y008804D01*
X000655Y008883D02*
X034225Y008883D01*
X034225Y008961D02*
X000655Y008961D01*
X000655Y009040D02*
X034225Y009040D01*
X034225Y009118D02*
X000655Y009118D01*
X000655Y009197D02*
X034225Y009197D01*
X034225Y009275D02*
X000655Y009275D01*
X000655Y009354D02*
X034225Y009354D01*
X034225Y009432D02*
X000655Y009432D01*
X000655Y009511D02*
X034225Y009511D01*
X034225Y009589D02*
X000655Y009589D01*
X000655Y009668D02*
X034225Y009668D01*
X034225Y009746D02*
X000655Y009746D01*
X000655Y009825D02*
X034225Y009825D01*
X034225Y009903D02*
X000655Y009903D01*
X000655Y009982D02*
X034225Y009982D01*
X034225Y010060D02*
X000655Y010060D01*
X000655Y010139D02*
X034225Y010139D01*
X034225Y010217D02*
X000655Y010217D01*
X000655Y010296D02*
X034225Y010296D01*
X034225Y010374D02*
X000655Y010374D01*
X000655Y010453D02*
X034225Y010453D01*
X034225Y010531D02*
X000655Y010531D01*
X000655Y010610D02*
X034225Y010610D01*
X034225Y010688D02*
X000655Y010688D01*
X000655Y010767D02*
X034225Y010767D01*
X034225Y010845D02*
X000655Y010845D01*
X000655Y010924D02*
X034225Y010924D01*
X034225Y011002D02*
X000655Y011002D01*
X000655Y011081D02*
X034225Y011081D01*
X034225Y011159D02*
X000655Y011159D01*
X000655Y011238D02*
X034225Y011238D01*
X034225Y011316D02*
X000655Y011316D01*
X000655Y011395D02*
X034225Y011395D01*
X034225Y011473D02*
X000655Y011473D01*
X000655Y011552D02*
X034225Y011552D01*
X034225Y011630D02*
X000655Y011630D01*
X000655Y011709D02*
X034225Y011709D01*
X034225Y011787D02*
X000655Y011787D01*
X000655Y011866D02*
X034225Y011866D01*
X034225Y011944D02*
X000655Y011944D01*
X000655Y012023D02*
X034225Y012023D01*
X034225Y012101D02*
X000655Y012101D01*
X000655Y012180D02*
X034225Y012180D01*
X034225Y012258D02*
X000655Y012258D01*
X000655Y012337D02*
X034225Y012337D01*
X034225Y012415D02*
X000655Y012415D01*
X000655Y012494D02*
X034225Y012494D01*
X034225Y012572D02*
X000655Y012572D01*
X000655Y012651D02*
X034225Y012651D01*
X034225Y012729D02*
X000655Y012729D01*
X000655Y012808D02*
X034225Y012808D01*
X034225Y012886D02*
X000655Y012886D01*
X000655Y012965D02*
X034225Y012965D01*
X034225Y013043D02*
X000655Y013043D01*
X000655Y013122D02*
X034225Y013122D01*
X034225Y013200D02*
X000655Y013200D01*
X000655Y013279D02*
X034225Y013279D01*
X034225Y013357D02*
X000655Y013357D01*
X000655Y013436D02*
X034225Y013436D01*
X034225Y013514D02*
X000655Y013514D01*
X000655Y013593D02*
X034225Y013593D01*
X034225Y013671D02*
X000655Y013671D01*
X000655Y013750D02*
X034225Y013750D01*
X034225Y013828D02*
X000655Y013828D01*
X000655Y013907D02*
X034225Y013907D01*
X034225Y013985D02*
X000655Y013985D01*
X000655Y014064D02*
X034225Y014064D01*
X034225Y014142D02*
X000655Y014142D01*
X000655Y014221D02*
X034225Y014221D01*
X034225Y014299D02*
X000655Y014299D01*
X000655Y014378D02*
X034225Y014378D01*
X034225Y014456D02*
X000655Y014456D01*
X000655Y014535D02*
X034225Y014535D01*
X034225Y014613D02*
X000655Y014613D01*
X000655Y014692D02*
X034225Y014692D01*
X034225Y014770D02*
X000655Y014770D01*
X000655Y014849D02*
X034225Y014849D01*
X034225Y014927D02*
X000655Y014927D01*
X000655Y015006D02*
X034225Y015006D01*
X034225Y015084D02*
X000655Y015084D01*
X000655Y015163D02*
X034225Y015163D01*
X034225Y015241D02*
X000655Y015241D01*
X000655Y015320D02*
X034225Y015320D01*
X034225Y015398D02*
X000655Y015398D01*
X000655Y015477D02*
X034225Y015477D01*
X034225Y015555D02*
X000655Y015555D01*
X000655Y015634D02*
X034225Y015634D01*
X034225Y015712D02*
X000655Y015712D01*
X000655Y015791D02*
X034225Y015791D01*
X034225Y015869D02*
X000655Y015869D01*
X000655Y015948D02*
X034225Y015948D01*
X034225Y016026D02*
X000655Y016026D01*
X000655Y016105D02*
X034225Y016105D01*
X034225Y016183D02*
X030501Y016183D01*
X030499Y016183D02*
X030520Y016188D01*
X030541Y016190D01*
X030545Y016195D01*
X030572Y016202D01*
X030578Y016200D01*
X030597Y016209D01*
X030617Y016214D01*
X030621Y016220D01*
X030646Y016231D01*
X030652Y016230D01*
X030669Y016243D01*
X030689Y016252D01*
X030691Y016258D01*
X030714Y016273D01*
X030720Y016273D01*
X030735Y016288D01*
X030752Y016301D01*
X030754Y016307D01*
X030773Y016326D01*
X030779Y016328D01*
X030792Y016345D01*
X030807Y016360D01*
X030807Y016366D01*
X030822Y016389D01*
X030828Y016391D01*
X030837Y016411D01*
X030850Y016428D01*
X030849Y016434D01*
X030860Y016459D01*
X030866Y016463D01*
X030871Y016483D01*
X030880Y016502D01*
X030878Y016508D01*
X030885Y016535D01*
X030890Y016539D01*
X030892Y016560D01*
X030897Y016581D01*
X030894Y016586D01*
X030897Y016614D01*
X030901Y016619D01*
X030899Y016640D01*
X030901Y016661D01*
X030897Y016666D01*
X030894Y016694D01*
X030897Y016699D01*
X030892Y016720D01*
X030890Y016741D01*
X030885Y016745D01*
X030878Y016772D01*
X030880Y016778D01*
X030871Y016797D01*
X030866Y016817D01*
X030860Y016821D01*
X030849Y016846D01*
X030850Y016852D01*
X030837Y016869D01*
X030828Y016889D01*
X030822Y016891D01*
X030807Y016914D01*
X030807Y016920D01*
X030792Y016935D01*
X030779Y016952D01*
X030773Y016954D01*
X030754Y016973D01*
X030752Y016979D01*
X030735Y016992D01*
X030720Y017007D01*
X030714Y017007D01*
X030691Y017022D01*
X030689Y017028D01*
X030669Y017037D01*
X030652Y017050D01*
X030646Y017049D01*
X030621Y017060D01*
X030617Y017066D01*
X030597Y017071D01*
X030578Y017080D01*
X030572Y017078D01*
X030545Y017085D01*
X030541Y017090D01*
X030520Y017092D01*
X030499Y017097D01*
X030494Y017094D01*
X030466Y017097D01*
X030461Y017101D01*
X030440Y017099D01*
X030419Y017101D01*
X030414Y017097D01*
X030386Y017094D01*
X030381Y017097D01*
X030360Y017092D01*
X030339Y017090D01*
X030335Y017085D01*
X030308Y017078D01*
X030302Y017080D01*
X030283Y017071D01*
X030263Y017066D01*
X030259Y017060D01*
X030234Y017049D01*
X030228Y017050D01*
X030211Y017037D01*
X030191Y017028D01*
X030189Y017022D01*
X030166Y017007D01*
X030160Y017007D01*
X030145Y016992D01*
X030128Y016979D01*
X030126Y016973D01*
X030107Y016954D01*
X030101Y016952D01*
X030088Y016935D01*
X030073Y016920D01*
X030073Y016914D01*
X030058Y016891D01*
X030052Y016889D01*
X030043Y016869D01*
X030030Y016852D01*
X030031Y016846D01*
X030020Y016821D01*
X030014Y016817D01*
X030009Y016797D01*
X030000Y016778D01*
X030002Y016772D01*
X029995Y016745D01*
X029990Y016741D01*
X029988Y016720D01*
X029983Y016699D01*
X029986Y016694D01*
X029983Y016666D01*
X029979Y016661D01*
X029981Y016640D01*
X029979Y016619D01*
X029983Y016614D01*
X029986Y016586D01*
X029983Y016581D01*
X029988Y016560D01*
X029990Y016539D01*
X029995Y016535D01*
X030002Y016508D01*
X030000Y016502D01*
X030009Y016483D01*
X030014Y016463D01*
X030020Y016459D01*
X030031Y016434D01*
X030030Y016428D01*
X030043Y016411D01*
X030052Y016391D01*
X030058Y016389D01*
X030073Y016366D01*
X030073Y016360D01*
X030088Y016345D01*
X030101Y016328D01*
X030107Y016326D01*
X030126Y016307D01*
X030128Y016301D01*
X030145Y016288D01*
X030160Y016273D01*
X030166Y016273D01*
X030189Y016258D01*
X030191Y016252D01*
X030211Y016243D01*
X030228Y016230D01*
X030234Y016231D01*
X030259Y016220D01*
X030263Y016214D01*
X030283Y016209D01*
X030302Y016200D01*
X030308Y016202D01*
X030335Y016195D01*
X030339Y016190D01*
X030360Y016188D01*
X030381Y016183D01*
X030386Y016186D01*
X030414Y016183D01*
X030382Y016183D01*
X030379Y016183D02*
X014501Y016183D01*
X014499Y016183D02*
X014520Y016188D01*
X014541Y016190D01*
X014545Y016195D01*
X014572Y016202D01*
X014578Y016200D01*
X014597Y016209D01*
X014617Y016214D01*
X014621Y016220D01*
X014646Y016231D01*
X014652Y016230D01*
X014669Y016243D01*
X014689Y016252D01*
X014691Y016258D01*
X014714Y016273D01*
X014720Y016273D01*
X014735Y016288D01*
X014752Y016301D01*
X014754Y016307D01*
X014773Y016326D01*
X014779Y016328D01*
X014792Y016345D01*
X014807Y016360D01*
X014807Y016366D01*
X014822Y016389D01*
X014828Y016391D01*
X014837Y016411D01*
X014850Y016428D01*
X014849Y016434D01*
X014860Y016459D01*
X014866Y016463D01*
X014871Y016483D01*
X014880Y016502D01*
X014878Y016508D01*
X014885Y016535D01*
X014890Y016539D01*
X014892Y016560D01*
X014897Y016581D01*
X014894Y016586D01*
X014897Y016614D01*
X014901Y016619D01*
X014899Y016640D01*
X014901Y016661D01*
X014897Y016666D01*
X014894Y016694D01*
X014897Y016699D01*
X014892Y016720D01*
X014890Y016741D01*
X014885Y016745D01*
X014878Y016772D01*
X014880Y016778D01*
X014871Y016797D01*
X014866Y016817D01*
X014860Y016821D01*
X014849Y016846D01*
X014850Y016852D01*
X014837Y016869D01*
X014828Y016889D01*
X014822Y016891D01*
X014807Y016914D01*
X014807Y016920D01*
X014792Y016935D01*
X014779Y016952D01*
X014773Y016954D01*
X014754Y016973D01*
X014752Y016979D01*
X014735Y016992D01*
X014720Y017007D01*
X014714Y017007D01*
X014691Y017022D01*
X014689Y017028D01*
X014669Y017037D01*
X014652Y017050D01*
X014646Y017049D01*
X014621Y017060D01*
X014617Y017066D01*
X014597Y017071D01*
X014578Y017080D01*
X014572Y017078D01*
X014545Y017085D01*
X014541Y017090D01*
X014520Y017092D01*
X014499Y017097D01*
X014494Y017094D01*
X014466Y017097D01*
X014461Y017101D01*
X014440Y017099D01*
X014419Y017101D01*
X014414Y017097D01*
X014386Y017094D01*
X014381Y017097D01*
X014360Y017092D01*
X014339Y017090D01*
X014335Y017085D01*
X014308Y017078D01*
X014302Y017080D01*
X014283Y017071D01*
X014263Y017066D01*
X014259Y017060D01*
X014234Y017049D01*
X014228Y017050D01*
X014211Y017037D01*
X014191Y017028D01*
X014189Y017022D01*
X014166Y017007D01*
X014160Y017007D01*
X014145Y016992D01*
X014128Y016979D01*
X014126Y016973D01*
X014107Y016954D01*
X014101Y016952D01*
X014088Y016935D01*
X014073Y016920D01*
X014073Y016914D01*
X014058Y016891D01*
X014052Y016889D01*
X014043Y016869D01*
X014030Y016852D01*
X014031Y016846D01*
X014020Y016821D01*
X014014Y016817D01*
X014009Y016797D01*
X014000Y016778D01*
X014002Y016772D01*
X013995Y016745D01*
X013990Y016741D01*
X013988Y016720D01*
X013983Y016699D01*
X013986Y016694D01*
X013983Y016666D01*
X013979Y016661D01*
X013981Y016640D01*
X013979Y016619D01*
X013983Y016614D01*
X013986Y016586D01*
X013983Y016581D01*
X013988Y016560D01*
X013990Y016539D01*
X013995Y016535D01*
X014002Y016508D01*
X014000Y016502D01*
X014009Y016483D01*
X014014Y016463D01*
X014020Y016459D01*
X014031Y016434D01*
X014030Y016428D01*
X014043Y016411D01*
X014052Y016391D01*
X014058Y016389D01*
X014073Y016366D01*
X014073Y016360D01*
X014088Y016345D01*
X014101Y016328D01*
X014107Y016326D01*
X014126Y016307D01*
X014128Y016301D01*
X014145Y016288D01*
X014160Y016273D01*
X014166Y016273D01*
X014189Y016258D01*
X014191Y016252D01*
X014211Y016243D01*
X014228Y016230D01*
X014234Y016231D01*
X014259Y016220D01*
X014263Y016214D01*
X014283Y016209D01*
X014302Y016200D01*
X014308Y016202D01*
X014335Y016195D01*
X014339Y016190D01*
X014360Y016188D01*
X014381Y016183D01*
X014386Y016186D01*
X014414Y016183D01*
X014382Y016183D01*
X014379Y016183D02*
X000655Y016183D01*
X000655Y016262D02*
X014183Y016262D01*
X014092Y016340D02*
X000655Y016340D01*
X000655Y016419D02*
X014037Y016419D01*
X014002Y016497D02*
X000655Y016497D01*
X000655Y016576D02*
X013984Y016576D01*
X013980Y016654D02*
X000655Y016654D01*
X000655Y016733D02*
X013989Y016733D01*
X014013Y016811D02*
X000655Y016811D01*
X000655Y016890D02*
X014054Y016890D01*
X014121Y016968D02*
X000655Y016968D01*
X000655Y017047D02*
X014224Y017047D01*
X014656Y017047D02*
X030224Y017047D01*
X030121Y016968D02*
X014759Y016968D01*
X014826Y016890D02*
X030054Y016890D01*
X030013Y016811D02*
X014867Y016811D01*
X014891Y016733D02*
X029989Y016733D01*
X029980Y016654D02*
X014900Y016654D01*
X014896Y016576D02*
X029984Y016576D01*
X030002Y016497D02*
X014878Y016497D01*
X014843Y016419D02*
X030037Y016419D01*
X030092Y016340D02*
X014788Y016340D01*
X014697Y016262D02*
X030183Y016262D01*
X030414Y016183D02*
X030419Y016179D01*
X030440Y016181D01*
X030461Y016179D01*
X030466Y016183D01*
X030498Y016183D01*
X030499Y016183D02*
X030494Y016186D01*
X030466Y016183D01*
X030697Y016262D02*
X034225Y016262D01*
X034225Y016340D02*
X030788Y016340D01*
X030843Y016419D02*
X034225Y016419D01*
X034225Y016497D02*
X030878Y016497D01*
X030896Y016576D02*
X034225Y016576D01*
X034225Y016654D02*
X030900Y016654D01*
X030891Y016733D02*
X034225Y016733D01*
X034225Y016811D02*
X030867Y016811D01*
X030826Y016890D02*
X034225Y016890D01*
X034225Y016968D02*
X030759Y016968D01*
X030656Y017047D02*
X034225Y017047D01*
X034225Y017125D02*
X000655Y017125D01*
X000655Y017204D02*
X034225Y017204D01*
X034225Y017282D02*
X000655Y017282D01*
X000655Y017361D02*
X034225Y017361D01*
X034225Y017439D02*
X000655Y017439D01*
X000655Y017518D02*
X034225Y017518D01*
X034225Y017596D02*
X000655Y017596D01*
X000655Y017675D02*
X034225Y017675D01*
X034225Y017753D02*
X031175Y017753D01*
X031122Y017700D02*
X031380Y017958D01*
X031380Y018100D01*
X030980Y018100D01*
X030980Y018180D01*
X031380Y018180D01*
X031380Y018322D01*
X031122Y018580D01*
X030980Y018580D01*
X030980Y018180D01*
X030900Y018180D01*
X030900Y018580D01*
X030758Y018580D01*
X030500Y018322D01*
X030500Y018180D01*
X030900Y018180D01*
X030900Y018100D01*
X030980Y018100D01*
X030980Y017700D01*
X031122Y017700D01*
X030980Y017753D02*
X030900Y017753D01*
X030900Y017700D02*
X030758Y017700D01*
X030500Y017958D01*
X030500Y018100D01*
X030900Y018100D01*
X030900Y017700D01*
X030900Y017832D02*
X030980Y017832D01*
X030980Y017910D02*
X030900Y017910D01*
X030900Y017989D02*
X030980Y017989D01*
X030980Y018067D02*
X030900Y018067D01*
X030900Y018146D02*
X030340Y018146D01*
X030340Y018224D02*
X030500Y018224D01*
X030500Y018303D02*
X030340Y018303D01*
X030340Y018306D02*
X030120Y018526D01*
X030120Y020754D01*
X030340Y020974D01*
X030340Y021306D01*
X030106Y021540D01*
X029774Y021540D01*
X029540Y021306D01*
X029540Y020974D01*
X029760Y020754D01*
X029760Y018526D01*
X029540Y018306D01*
X029540Y017974D01*
X029774Y017740D01*
X030106Y017740D01*
X030340Y017974D01*
X030340Y018306D01*
X030265Y018381D02*
X030559Y018381D01*
X030637Y018460D02*
X030186Y018460D01*
X030120Y018538D02*
X030716Y018538D01*
X030900Y018538D02*
X030980Y018538D01*
X030980Y018460D02*
X030900Y018460D01*
X030900Y018381D02*
X030980Y018381D01*
X030980Y018303D02*
X030900Y018303D01*
X030900Y018224D02*
X030980Y018224D01*
X030980Y018146D02*
X034225Y018146D01*
X034225Y018224D02*
X031380Y018224D01*
X031380Y018303D02*
X034225Y018303D01*
X034225Y018381D02*
X031321Y018381D01*
X031243Y018460D02*
X034225Y018460D01*
X034225Y018538D02*
X031164Y018538D01*
X031380Y018067D02*
X034225Y018067D01*
X034225Y017989D02*
X031380Y017989D01*
X031332Y017910D02*
X034225Y017910D01*
X034225Y017832D02*
X031254Y017832D01*
X030705Y017753D02*
X030119Y017753D01*
X030197Y017832D02*
X030626Y017832D01*
X030548Y017910D02*
X030276Y017910D01*
X030340Y017989D02*
X030500Y017989D01*
X030500Y018067D02*
X030340Y018067D01*
X029761Y017753D02*
X029119Y017753D01*
X029106Y017740D02*
X029340Y017974D01*
X029340Y018306D01*
X029106Y018540D01*
X028774Y018540D01*
X028540Y018306D01*
X028540Y017974D01*
X028774Y017740D01*
X029106Y017740D01*
X029197Y017832D02*
X029683Y017832D01*
X029604Y017910D02*
X029276Y017910D01*
X029340Y017989D02*
X029540Y017989D01*
X029540Y018067D02*
X029340Y018067D01*
X029340Y018146D02*
X029540Y018146D01*
X029540Y018224D02*
X029340Y018224D01*
X029340Y018303D02*
X029540Y018303D01*
X029615Y018381D02*
X029265Y018381D01*
X029186Y018460D02*
X029694Y018460D01*
X029760Y018538D02*
X029108Y018538D01*
X028772Y018538D02*
X028120Y018538D01*
X028120Y018526D02*
X028120Y020754D01*
X028340Y020974D01*
X028340Y021306D01*
X028106Y021540D01*
X027774Y021540D01*
X027540Y021306D01*
X027540Y020974D01*
X027760Y020754D01*
X027760Y018526D01*
X027540Y018306D01*
X027540Y017974D01*
X027774Y017740D01*
X028106Y017740D01*
X028340Y017974D01*
X028340Y018306D01*
X028120Y018526D01*
X028120Y018617D02*
X029760Y018617D01*
X029760Y018695D02*
X028120Y018695D01*
X028120Y018774D02*
X029760Y018774D01*
X029760Y018852D02*
X028120Y018852D01*
X028120Y018931D02*
X029760Y018931D01*
X029760Y019009D02*
X028120Y019009D01*
X028120Y019088D02*
X029760Y019088D01*
X029760Y019166D02*
X028120Y019166D01*
X028120Y019245D02*
X029760Y019245D01*
X029760Y019323D02*
X028120Y019323D01*
X028120Y019402D02*
X029760Y019402D01*
X029760Y019480D02*
X028120Y019480D01*
X028120Y019559D02*
X029760Y019559D01*
X029760Y019637D02*
X028120Y019637D01*
X028120Y019716D02*
X029760Y019716D01*
X029760Y019794D02*
X028120Y019794D01*
X028120Y019873D02*
X029760Y019873D01*
X029760Y019951D02*
X028120Y019951D01*
X028120Y020030D02*
X029760Y020030D01*
X029760Y020108D02*
X028120Y020108D01*
X028120Y020187D02*
X029760Y020187D01*
X029760Y020265D02*
X028120Y020265D01*
X028120Y020344D02*
X029760Y020344D01*
X029760Y020422D02*
X028120Y020422D01*
X028120Y020501D02*
X029760Y020501D01*
X029760Y020579D02*
X028120Y020579D01*
X028120Y020658D02*
X029760Y020658D01*
X029760Y020736D02*
X028120Y020736D01*
X028180Y020815D02*
X028700Y020815D01*
X028774Y020740D02*
X028540Y020974D01*
X028540Y021172D01*
X027743Y021969D01*
X024335Y021969D01*
X024335Y021892D01*
X024277Y021834D01*
X023603Y021834D01*
X023545Y021892D01*
X023545Y021969D01*
X023335Y021969D01*
X023335Y021892D01*
X023277Y021834D01*
X022603Y021834D01*
X022545Y021892D01*
X022545Y021969D01*
X022335Y021969D01*
X022335Y021892D01*
X022277Y021834D01*
X021603Y021834D01*
X021545Y021892D01*
X021545Y021969D01*
X021335Y021969D01*
X021335Y021892D01*
X021277Y021834D01*
X020603Y021834D01*
X020545Y021892D01*
X020545Y021969D01*
X020335Y021969D01*
X020335Y021892D01*
X020277Y021834D01*
X019603Y021834D01*
X019545Y021892D01*
X019545Y021969D01*
X019335Y021969D01*
X019335Y021892D01*
X019277Y021834D01*
X018603Y021834D01*
X018545Y021892D01*
X018545Y021969D01*
X018335Y021969D01*
X018335Y021892D01*
X018277Y021834D01*
X017603Y021834D01*
X017545Y021892D01*
X017545Y021969D01*
X017335Y021969D01*
X017335Y021892D01*
X017277Y021834D01*
X016603Y021834D01*
X016545Y021892D01*
X016545Y021969D01*
X016335Y021969D01*
X016335Y021892D01*
X016277Y021834D01*
X015603Y021834D01*
X015545Y021892D01*
X015545Y021969D01*
X015335Y021969D01*
X015335Y021892D01*
X015277Y021834D01*
X014603Y021834D01*
X014545Y021892D01*
X014545Y021969D01*
X014335Y021969D01*
X014335Y021892D01*
X014277Y021834D01*
X013603Y021834D01*
X013545Y021892D01*
X013545Y021969D01*
X013335Y021969D01*
X013335Y021892D01*
X013277Y021834D01*
X012603Y021834D01*
X012545Y021892D01*
X012545Y021969D01*
X012335Y021969D01*
X012335Y021892D01*
X012277Y021834D01*
X011603Y021834D01*
X011545Y021892D01*
X011545Y021969D01*
X011335Y021969D01*
X011335Y021892D01*
X011277Y021834D01*
X010603Y021834D01*
X010545Y021892D01*
X010545Y021969D01*
X010335Y021969D01*
X010335Y021892D01*
X010277Y021834D01*
X009603Y021834D01*
X009545Y021892D01*
X009545Y021969D01*
X009335Y021969D01*
X009335Y021892D01*
X009277Y021834D01*
X008603Y021834D01*
X008545Y021892D01*
X008545Y021969D01*
X008335Y021969D01*
X008335Y021892D01*
X008277Y021834D01*
X007603Y021834D01*
X007545Y021892D01*
X007545Y021969D01*
X007335Y021969D01*
X007335Y021892D01*
X007277Y021834D01*
X006603Y021834D01*
X006545Y021892D01*
X006545Y021969D01*
X006335Y021969D01*
X006335Y021892D01*
X006277Y021834D01*
X005603Y021834D01*
X005545Y021892D01*
X005545Y021969D01*
X005335Y021969D01*
X005335Y021892D01*
X005277Y021834D01*
X004603Y021834D01*
X004545Y021892D01*
X004545Y022566D01*
X004603Y022624D01*
X005277Y022624D01*
X005335Y022566D01*
X005335Y022489D01*
X005545Y022489D01*
X005545Y022566D01*
X005603Y022624D01*
X006277Y022624D01*
X006335Y022566D01*
X006335Y022489D01*
X006545Y022489D01*
X006545Y022566D01*
X006603Y022624D01*
X007277Y022624D01*
X007335Y022566D01*
X007335Y022489D01*
X007545Y022489D01*
X007545Y022566D01*
X007603Y022624D01*
X008277Y022624D01*
X008335Y022566D01*
X008335Y022489D01*
X008545Y022489D01*
X008545Y022566D01*
X008603Y022624D01*
X009277Y022624D01*
X009335Y022566D01*
X009335Y022489D01*
X009545Y022489D01*
X009545Y022566D01*
X009603Y022624D01*
X010277Y022624D01*
X010335Y022566D01*
X010335Y022489D01*
X010545Y022489D01*
X010545Y022566D01*
X010603Y022624D01*
X011277Y022624D01*
X011335Y022566D01*
X011335Y022489D01*
X011545Y022489D01*
X011545Y022566D01*
X011603Y022624D01*
X012277Y022624D01*
X012335Y022566D01*
X012335Y022489D01*
X012545Y022489D01*
X012545Y022566D01*
X012603Y022624D01*
X013277Y022624D01*
X013335Y022566D01*
X013335Y022489D01*
X013545Y022489D01*
X013545Y022566D01*
X013603Y022624D01*
X014277Y022624D01*
X014335Y022566D01*
X014335Y022489D01*
X014545Y022489D01*
X014545Y022566D01*
X014603Y022624D01*
X015277Y022624D01*
X015335Y022566D01*
X015335Y022489D01*
X015545Y022489D01*
X015545Y022566D01*
X015603Y022624D01*
X016277Y022624D01*
X016335Y022566D01*
X016335Y022489D01*
X016545Y022489D01*
X016545Y022566D01*
X016603Y022624D01*
X017277Y022624D01*
X017335Y022566D01*
X017335Y022489D01*
X017545Y022489D01*
X017545Y022566D01*
X017603Y022624D01*
X018277Y022624D01*
X018335Y022566D01*
X018335Y022489D01*
X018545Y022489D01*
X018545Y022566D01*
X018603Y022624D01*
X019277Y022624D01*
X019335Y022566D01*
X019335Y022489D01*
X019545Y022489D01*
X019545Y022566D01*
X019603Y022624D01*
X020277Y022624D01*
X020335Y022566D01*
X020335Y022489D01*
X020545Y022489D01*
X020545Y022566D01*
X020603Y022624D01*
X021277Y022624D01*
X021335Y022566D01*
X021335Y022489D01*
X021545Y022489D01*
X021545Y022566D01*
X021603Y022624D01*
X022277Y022624D01*
X022335Y022566D01*
X022335Y022489D01*
X022545Y022489D01*
X022545Y022566D01*
X022603Y022624D01*
X023277Y022624D01*
X023335Y022566D01*
X023335Y022489D01*
X023545Y022489D01*
X023545Y022566D01*
X023603Y022624D01*
X024277Y022624D01*
X024335Y022566D01*
X024335Y022489D01*
X027903Y022489D01*
X027998Y022449D01*
X028071Y022376D01*
X028908Y021540D01*
X029106Y021540D01*
X029340Y021306D01*
X029340Y020974D01*
X029106Y020740D01*
X028774Y020740D01*
X028621Y020893D02*
X028259Y020893D01*
X028337Y020972D02*
X028543Y020972D01*
X028540Y021050D02*
X028340Y021050D01*
X028340Y021129D02*
X028540Y021129D01*
X028505Y021207D02*
X028340Y021207D01*
X028340Y021286D02*
X028427Y021286D01*
X028348Y021364D02*
X028282Y021364D01*
X028270Y021443D02*
X028203Y021443D01*
X028191Y021521D02*
X028125Y021521D01*
X028113Y021600D02*
X003150Y021600D01*
X003193Y021678D02*
X028034Y021678D01*
X027956Y021757D02*
X003216Y021757D01*
X003229Y021835D02*
X004602Y021835D01*
X004545Y021914D02*
X003242Y021914D01*
X003255Y021992D02*
X004545Y021992D01*
X004545Y022071D02*
X003268Y022071D01*
X003278Y022149D02*
X004545Y022149D01*
X004545Y022228D02*
X003265Y022228D01*
X003252Y022306D02*
X004545Y022306D01*
X004545Y022385D02*
X003239Y022385D01*
X003226Y022463D02*
X004545Y022463D01*
X004545Y022542D02*
X003213Y022542D01*
X003183Y022620D02*
X004599Y022620D01*
X005281Y022620D02*
X005599Y022620D01*
X005545Y022542D02*
X005335Y022542D01*
X005335Y021914D02*
X005545Y021914D01*
X005602Y021835D02*
X005278Y021835D01*
X005277Y021446D02*
X004603Y021446D01*
X004545Y021388D01*
X004545Y020714D01*
X004603Y020656D01*
X004760Y020656D01*
X004760Y020252D01*
X004662Y020252D01*
X004604Y020193D01*
X004604Y019795D01*
X004662Y019737D01*
X005218Y019737D01*
X005276Y019795D01*
X005276Y020193D01*
X005218Y020252D01*
X005120Y020252D01*
X005120Y020656D01*
X005277Y020656D01*
X005335Y020714D01*
X005335Y021388D01*
X005277Y021446D01*
X005280Y021443D02*
X005600Y021443D01*
X005603Y021446D02*
X005545Y021388D01*
X005545Y020714D01*
X005603Y020656D01*
X005760Y020656D01*
X005760Y020252D01*
X005662Y020252D01*
X005604Y020193D01*
X005604Y019795D01*
X005662Y019737D01*
X006218Y019737D01*
X006276Y019795D01*
X006276Y020193D01*
X006218Y020252D01*
X006120Y020252D01*
X006120Y020656D01*
X006277Y020656D01*
X006335Y020714D01*
X006335Y021388D01*
X006277Y021446D01*
X005603Y021446D01*
X005545Y021364D02*
X005335Y021364D01*
X005335Y021286D02*
X005545Y021286D01*
X005545Y021207D02*
X005335Y021207D01*
X005335Y021129D02*
X005545Y021129D01*
X005545Y021050D02*
X005335Y021050D01*
X005335Y020972D02*
X005545Y020972D01*
X005545Y020893D02*
X005335Y020893D01*
X005335Y020815D02*
X005545Y020815D01*
X005545Y020736D02*
X005335Y020736D01*
X005279Y020658D02*
X005601Y020658D01*
X005760Y020579D02*
X005120Y020579D01*
X005120Y020501D02*
X005760Y020501D01*
X005760Y020422D02*
X005120Y020422D01*
X005120Y020344D02*
X005760Y020344D01*
X005760Y020265D02*
X005120Y020265D01*
X005276Y020187D02*
X005604Y020187D01*
X005604Y020108D02*
X005276Y020108D01*
X005276Y020030D02*
X005604Y020030D01*
X005604Y019951D02*
X005276Y019951D01*
X005276Y019873D02*
X005604Y019873D01*
X005605Y019794D02*
X005275Y019794D01*
X005218Y019543D02*
X004662Y019543D01*
X004604Y019485D01*
X004604Y019087D01*
X004662Y019028D01*
X004760Y019028D01*
X004760Y018526D01*
X004540Y018306D01*
X004540Y017974D01*
X004774Y017740D01*
X005106Y017740D01*
X005340Y017974D01*
X005340Y018306D01*
X005120Y018526D01*
X005120Y019028D01*
X005218Y019028D01*
X005276Y019087D01*
X005276Y019485D01*
X005218Y019543D01*
X005276Y019480D02*
X005604Y019480D01*
X005604Y019485D02*
X005604Y019087D01*
X005662Y019028D01*
X005760Y019028D01*
X005760Y018526D01*
X005540Y018306D01*
X005540Y017974D01*
X005774Y017740D01*
X006106Y017740D01*
X006340Y017974D01*
X006340Y018306D01*
X006120Y018526D01*
X006120Y019028D01*
X006218Y019028D01*
X006276Y019087D01*
X006276Y019485D01*
X006218Y019543D01*
X005662Y019543D01*
X005604Y019485D01*
X005604Y019402D02*
X005276Y019402D01*
X005276Y019323D02*
X005604Y019323D01*
X005604Y019245D02*
X005276Y019245D01*
X005276Y019166D02*
X005604Y019166D01*
X005604Y019088D02*
X005276Y019088D01*
X005120Y019009D02*
X005760Y019009D01*
X005760Y018931D02*
X005120Y018931D01*
X005120Y018852D02*
X005760Y018852D01*
X005760Y018774D02*
X005120Y018774D01*
X005120Y018695D02*
X005760Y018695D01*
X005760Y018617D02*
X005120Y018617D01*
X005120Y018538D02*
X005760Y018538D01*
X005694Y018460D02*
X005186Y018460D01*
X005265Y018381D02*
X005615Y018381D01*
X005540Y018303D02*
X005340Y018303D01*
X005340Y018224D02*
X005540Y018224D01*
X005540Y018146D02*
X005340Y018146D01*
X005340Y018067D02*
X005540Y018067D01*
X005540Y017989D02*
X005340Y017989D01*
X005276Y017910D02*
X005604Y017910D01*
X005683Y017832D02*
X005197Y017832D01*
X005119Y017753D02*
X005761Y017753D01*
X006119Y017753D02*
X006761Y017753D01*
X006774Y017740D02*
X007106Y017740D01*
X007340Y017974D01*
X007340Y018306D01*
X007120Y018526D01*
X007120Y019028D01*
X007218Y019028D01*
X007276Y019087D01*
X007276Y019485D01*
X007218Y019543D01*
X006662Y019543D01*
X006604Y019485D01*
X006604Y019087D01*
X006662Y019028D01*
X006760Y019028D01*
X006760Y018526D01*
X006540Y018306D01*
X006540Y017974D01*
X006774Y017740D01*
X006683Y017832D02*
X006197Y017832D01*
X006276Y017910D02*
X006604Y017910D01*
X006540Y017989D02*
X006340Y017989D01*
X006340Y018067D02*
X006540Y018067D01*
X006540Y018146D02*
X006340Y018146D01*
X006340Y018224D02*
X006540Y018224D01*
X006540Y018303D02*
X006340Y018303D01*
X006265Y018381D02*
X006615Y018381D01*
X006694Y018460D02*
X006186Y018460D01*
X006120Y018538D02*
X006760Y018538D01*
X006760Y018617D02*
X006120Y018617D01*
X006120Y018695D02*
X006760Y018695D01*
X006760Y018774D02*
X006120Y018774D01*
X006120Y018852D02*
X006760Y018852D01*
X006760Y018931D02*
X006120Y018931D01*
X006120Y019009D02*
X006760Y019009D01*
X006604Y019088D02*
X006276Y019088D01*
X006276Y019166D02*
X006604Y019166D01*
X006604Y019245D02*
X006276Y019245D01*
X006276Y019323D02*
X006604Y019323D01*
X006604Y019402D02*
X006276Y019402D01*
X006276Y019480D02*
X006604Y019480D01*
X006662Y019737D02*
X007218Y019737D01*
X007276Y019795D01*
X007276Y020193D01*
X007218Y020252D01*
X007120Y020252D01*
X007120Y020656D01*
X007277Y020656D01*
X007335Y020714D01*
X007335Y021388D01*
X007277Y021446D01*
X006603Y021446D01*
X006545Y021388D01*
X006545Y020714D01*
X006603Y020656D01*
X006760Y020656D01*
X006760Y020252D01*
X006662Y020252D01*
X006604Y020193D01*
X006604Y019795D01*
X006662Y019737D01*
X006605Y019794D02*
X006275Y019794D01*
X006276Y019873D02*
X006604Y019873D01*
X006604Y019951D02*
X006276Y019951D01*
X006276Y020030D02*
X006604Y020030D01*
X006604Y020108D02*
X006276Y020108D01*
X006276Y020187D02*
X006604Y020187D01*
X006760Y020265D02*
X006120Y020265D01*
X006120Y020344D02*
X006760Y020344D01*
X006760Y020422D02*
X006120Y020422D01*
X006120Y020501D02*
X006760Y020501D01*
X006760Y020579D02*
X006120Y020579D01*
X006279Y020658D02*
X006601Y020658D01*
X006545Y020736D02*
X006335Y020736D01*
X006335Y020815D02*
X006545Y020815D01*
X006545Y020893D02*
X006335Y020893D01*
X006335Y020972D02*
X006545Y020972D01*
X006545Y021050D02*
X006335Y021050D01*
X006335Y021129D02*
X006545Y021129D01*
X006545Y021207D02*
X006335Y021207D01*
X006335Y021286D02*
X006545Y021286D01*
X006545Y021364D02*
X006335Y021364D01*
X006280Y021443D02*
X006600Y021443D01*
X006602Y021835D02*
X006278Y021835D01*
X006335Y021914D02*
X006545Y021914D01*
X006545Y022542D02*
X006335Y022542D01*
X006281Y022620D02*
X006599Y022620D01*
X007281Y022620D02*
X007599Y022620D01*
X007545Y022542D02*
X007335Y022542D01*
X007335Y021914D02*
X007545Y021914D01*
X007602Y021835D02*
X007278Y021835D01*
X007280Y021443D02*
X007600Y021443D01*
X007603Y021446D02*
X007545Y021388D01*
X007545Y020714D01*
X007603Y020656D01*
X007760Y020656D01*
X007760Y020252D01*
X007662Y020252D01*
X007604Y020193D01*
X007604Y019795D01*
X007662Y019737D01*
X008218Y019737D01*
X008276Y019795D01*
X008276Y020193D01*
X008218Y020252D01*
X008120Y020252D01*
X008120Y020656D01*
X008277Y020656D01*
X008335Y020714D01*
X008335Y021388D01*
X008277Y021446D01*
X007603Y021446D01*
X007545Y021364D02*
X007335Y021364D01*
X007335Y021286D02*
X007545Y021286D01*
X007545Y021207D02*
X007335Y021207D01*
X007335Y021129D02*
X007545Y021129D01*
X007545Y021050D02*
X007335Y021050D01*
X007335Y020972D02*
X007545Y020972D01*
X007545Y020893D02*
X007335Y020893D01*
X007335Y020815D02*
X007545Y020815D01*
X007545Y020736D02*
X007335Y020736D01*
X007279Y020658D02*
X007601Y020658D01*
X007760Y020579D02*
X007120Y020579D01*
X007120Y020501D02*
X007760Y020501D01*
X007760Y020422D02*
X007120Y020422D01*
X007120Y020344D02*
X007760Y020344D01*
X007760Y020265D02*
X007120Y020265D01*
X007276Y020187D02*
X007604Y020187D01*
X007604Y020108D02*
X007276Y020108D01*
X007276Y020030D02*
X007604Y020030D01*
X007604Y019951D02*
X007276Y019951D01*
X007276Y019873D02*
X007604Y019873D01*
X007605Y019794D02*
X007275Y019794D01*
X007276Y019480D02*
X007604Y019480D01*
X007604Y019485D02*
X007604Y019087D01*
X007662Y019028D01*
X007760Y019028D01*
X007760Y018526D01*
X007540Y018306D01*
X007540Y017974D01*
X007774Y017740D01*
X008106Y017740D01*
X008340Y017974D01*
X008340Y018306D01*
X008120Y018526D01*
X008120Y019028D01*
X008218Y019028D01*
X008276Y019087D01*
X008276Y019485D01*
X008218Y019543D01*
X007662Y019543D01*
X007604Y019485D01*
X007604Y019402D02*
X007276Y019402D01*
X007276Y019323D02*
X007604Y019323D01*
X007604Y019245D02*
X007276Y019245D01*
X007276Y019166D02*
X007604Y019166D01*
X007604Y019088D02*
X007276Y019088D01*
X007120Y019009D02*
X007760Y019009D01*
X007760Y018931D02*
X007120Y018931D01*
X007120Y018852D02*
X007760Y018852D01*
X007760Y018774D02*
X007120Y018774D01*
X007120Y018695D02*
X007760Y018695D01*
X007760Y018617D02*
X007120Y018617D01*
X007120Y018538D02*
X007760Y018538D01*
X007694Y018460D02*
X007186Y018460D01*
X007265Y018381D02*
X007615Y018381D01*
X007540Y018303D02*
X007340Y018303D01*
X007340Y018224D02*
X007540Y018224D01*
X007540Y018146D02*
X007340Y018146D01*
X007340Y018067D02*
X007540Y018067D01*
X007540Y017989D02*
X007340Y017989D01*
X007276Y017910D02*
X007604Y017910D01*
X007683Y017832D02*
X007197Y017832D01*
X007119Y017753D02*
X007761Y017753D01*
X008119Y017753D02*
X008761Y017753D01*
X008774Y017740D02*
X009106Y017740D01*
X009340Y017974D01*
X009340Y018306D01*
X009120Y018526D01*
X009120Y019028D01*
X009218Y019028D01*
X009276Y019087D01*
X009276Y019485D01*
X009218Y019543D01*
X008662Y019543D01*
X008604Y019485D01*
X008604Y019087D01*
X008662Y019028D01*
X008760Y019028D01*
X008760Y018526D01*
X008540Y018306D01*
X008540Y017974D01*
X008774Y017740D01*
X008683Y017832D02*
X008197Y017832D01*
X008276Y017910D02*
X008604Y017910D01*
X008540Y017989D02*
X008340Y017989D01*
X008340Y018067D02*
X008540Y018067D01*
X008540Y018146D02*
X008340Y018146D01*
X008340Y018224D02*
X008540Y018224D01*
X008540Y018303D02*
X008340Y018303D01*
X008265Y018381D02*
X008615Y018381D01*
X008694Y018460D02*
X008186Y018460D01*
X008120Y018538D02*
X008760Y018538D01*
X008760Y018617D02*
X008120Y018617D01*
X008120Y018695D02*
X008760Y018695D01*
X008760Y018774D02*
X008120Y018774D01*
X008120Y018852D02*
X008760Y018852D01*
X008760Y018931D02*
X008120Y018931D01*
X008120Y019009D02*
X008760Y019009D01*
X008604Y019088D02*
X008276Y019088D01*
X008276Y019166D02*
X008604Y019166D01*
X008604Y019245D02*
X008276Y019245D01*
X008276Y019323D02*
X008604Y019323D01*
X008604Y019402D02*
X008276Y019402D01*
X008276Y019480D02*
X008604Y019480D01*
X008662Y019737D02*
X008604Y019795D01*
X008604Y020193D01*
X008662Y020252D01*
X008760Y020252D01*
X008760Y020656D01*
X008603Y020656D01*
X008545Y020714D01*
X008545Y021388D01*
X008603Y021446D01*
X009277Y021446D01*
X009335Y021388D01*
X009335Y020714D01*
X009277Y020656D01*
X009120Y020656D01*
X009120Y020252D01*
X009218Y020252D01*
X009276Y020193D01*
X009276Y019795D01*
X009218Y019737D01*
X008662Y019737D01*
X008605Y019794D02*
X008275Y019794D01*
X008276Y019873D02*
X008604Y019873D01*
X008604Y019951D02*
X008276Y019951D01*
X008276Y020030D02*
X008604Y020030D01*
X008604Y020108D02*
X008276Y020108D01*
X008276Y020187D02*
X008604Y020187D01*
X008760Y020265D02*
X008120Y020265D01*
X008120Y020344D02*
X008760Y020344D01*
X008760Y020422D02*
X008120Y020422D01*
X008120Y020501D02*
X008760Y020501D01*
X008760Y020579D02*
X008120Y020579D01*
X008279Y020658D02*
X008601Y020658D01*
X008545Y020736D02*
X008335Y020736D01*
X008335Y020815D02*
X008545Y020815D01*
X008545Y020893D02*
X008335Y020893D01*
X008335Y020972D02*
X008545Y020972D01*
X008545Y021050D02*
X008335Y021050D01*
X008335Y021129D02*
X008545Y021129D01*
X008545Y021207D02*
X008335Y021207D01*
X008335Y021286D02*
X008545Y021286D01*
X008545Y021364D02*
X008335Y021364D01*
X008280Y021443D02*
X008600Y021443D01*
X008602Y021835D02*
X008278Y021835D01*
X008335Y021914D02*
X008545Y021914D01*
X008545Y022542D02*
X008335Y022542D01*
X008281Y022620D02*
X008599Y022620D01*
X009281Y022620D02*
X009599Y022620D01*
X009545Y022542D02*
X009335Y022542D01*
X009335Y021914D02*
X009545Y021914D01*
X009602Y021835D02*
X009278Y021835D01*
X009280Y021443D02*
X009600Y021443D01*
X009603Y021446D02*
X009545Y021388D01*
X009545Y020714D01*
X009603Y020656D01*
X009760Y020656D01*
X009760Y020252D01*
X009662Y020252D01*
X009604Y020193D01*
X009604Y019795D01*
X009662Y019737D01*
X010218Y019737D01*
X010276Y019795D01*
X010276Y020193D01*
X010218Y020252D01*
X010120Y020252D01*
X010120Y020656D01*
X010277Y020656D01*
X010335Y020714D01*
X010335Y021388D01*
X010277Y021446D01*
X009603Y021446D01*
X009545Y021364D02*
X009335Y021364D01*
X009335Y021286D02*
X009545Y021286D01*
X009545Y021207D02*
X009335Y021207D01*
X009335Y021129D02*
X009545Y021129D01*
X009545Y021050D02*
X009335Y021050D01*
X009335Y020972D02*
X009545Y020972D01*
X009545Y020893D02*
X009335Y020893D01*
X009335Y020815D02*
X009545Y020815D01*
X009545Y020736D02*
X009335Y020736D01*
X009279Y020658D02*
X009601Y020658D01*
X009760Y020579D02*
X009120Y020579D01*
X009120Y020501D02*
X009760Y020501D01*
X009760Y020422D02*
X009120Y020422D01*
X009120Y020344D02*
X009760Y020344D01*
X009760Y020265D02*
X009120Y020265D01*
X009276Y020187D02*
X009604Y020187D01*
X009604Y020108D02*
X009276Y020108D01*
X009276Y020030D02*
X009604Y020030D01*
X009604Y019951D02*
X009276Y019951D01*
X009276Y019873D02*
X009604Y019873D01*
X009605Y019794D02*
X009275Y019794D01*
X009276Y019480D02*
X009604Y019480D01*
X009604Y019485D02*
X009604Y019087D01*
X009662Y019028D01*
X009760Y019028D01*
X009760Y018526D01*
X009540Y018306D01*
X009540Y017974D01*
X009774Y017740D01*
X010106Y017740D01*
X010340Y017974D01*
X010340Y018306D01*
X010120Y018526D01*
X010120Y019028D01*
X010218Y019028D01*
X010276Y019087D01*
X010276Y019485D01*
X010218Y019543D01*
X009662Y019543D01*
X009604Y019485D01*
X009604Y019402D02*
X009276Y019402D01*
X009276Y019323D02*
X009604Y019323D01*
X009604Y019245D02*
X009276Y019245D01*
X009276Y019166D02*
X009604Y019166D01*
X009604Y019088D02*
X009276Y019088D01*
X009120Y019009D02*
X009760Y019009D01*
X009760Y018931D02*
X009120Y018931D01*
X009120Y018852D02*
X009760Y018852D01*
X009760Y018774D02*
X009120Y018774D01*
X009120Y018695D02*
X009760Y018695D01*
X009760Y018617D02*
X009120Y018617D01*
X009120Y018538D02*
X009760Y018538D01*
X009694Y018460D02*
X009186Y018460D01*
X009265Y018381D02*
X009615Y018381D01*
X009540Y018303D02*
X009340Y018303D01*
X009340Y018224D02*
X009540Y018224D01*
X009540Y018146D02*
X009340Y018146D01*
X009340Y018067D02*
X009540Y018067D01*
X009540Y017989D02*
X009340Y017989D01*
X009276Y017910D02*
X009604Y017910D01*
X009683Y017832D02*
X009197Y017832D01*
X009119Y017753D02*
X009761Y017753D01*
X010119Y017753D02*
X010761Y017753D01*
X010774Y017740D02*
X011106Y017740D01*
X011340Y017974D01*
X011340Y018306D01*
X011120Y018526D01*
X011120Y019028D01*
X011218Y019028D01*
X011276Y019087D01*
X011276Y019485D01*
X011218Y019543D01*
X010662Y019543D01*
X010604Y019485D01*
X010604Y019087D01*
X010662Y019028D01*
X010760Y019028D01*
X010760Y018526D01*
X010540Y018306D01*
X010540Y017974D01*
X010774Y017740D01*
X010683Y017832D02*
X010197Y017832D01*
X010276Y017910D02*
X010604Y017910D01*
X010540Y017989D02*
X010340Y017989D01*
X010340Y018067D02*
X010540Y018067D01*
X010540Y018146D02*
X010340Y018146D01*
X010340Y018224D02*
X010540Y018224D01*
X010540Y018303D02*
X010340Y018303D01*
X010265Y018381D02*
X010615Y018381D01*
X010694Y018460D02*
X010186Y018460D01*
X010120Y018538D02*
X010760Y018538D01*
X010760Y018617D02*
X010120Y018617D01*
X010120Y018695D02*
X010760Y018695D01*
X010760Y018774D02*
X010120Y018774D01*
X010120Y018852D02*
X010760Y018852D01*
X010760Y018931D02*
X010120Y018931D01*
X010120Y019009D02*
X010760Y019009D01*
X010604Y019088D02*
X010276Y019088D01*
X010276Y019166D02*
X010604Y019166D01*
X010604Y019245D02*
X010276Y019245D01*
X010276Y019323D02*
X010604Y019323D01*
X010604Y019402D02*
X010276Y019402D01*
X010276Y019480D02*
X010604Y019480D01*
X010662Y019737D02*
X011218Y019737D01*
X011276Y019795D01*
X011276Y020193D01*
X011218Y020252D01*
X011120Y020252D01*
X011120Y020656D01*
X011277Y020656D01*
X011335Y020714D01*
X011335Y021388D01*
X011277Y021446D01*
X010603Y021446D01*
X010545Y021388D01*
X010545Y020714D01*
X010603Y020656D01*
X010760Y020656D01*
X010760Y020252D01*
X010662Y020252D01*
X010604Y020193D01*
X010604Y019795D01*
X010662Y019737D01*
X010605Y019794D02*
X010275Y019794D01*
X010276Y019873D02*
X010604Y019873D01*
X010604Y019951D02*
X010276Y019951D01*
X010276Y020030D02*
X010604Y020030D01*
X010604Y020108D02*
X010276Y020108D01*
X010276Y020187D02*
X010604Y020187D01*
X010760Y020265D02*
X010120Y020265D01*
X010120Y020344D02*
X010760Y020344D01*
X010760Y020422D02*
X010120Y020422D01*
X010120Y020501D02*
X010760Y020501D01*
X010760Y020579D02*
X010120Y020579D01*
X010279Y020658D02*
X010601Y020658D01*
X010545Y020736D02*
X010335Y020736D01*
X010335Y020815D02*
X010545Y020815D01*
X010545Y020893D02*
X010335Y020893D01*
X010335Y020972D02*
X010545Y020972D01*
X010545Y021050D02*
X010335Y021050D01*
X010335Y021129D02*
X010545Y021129D01*
X010545Y021207D02*
X010335Y021207D01*
X010335Y021286D02*
X010545Y021286D01*
X010545Y021364D02*
X010335Y021364D01*
X010280Y021443D02*
X010600Y021443D01*
X010602Y021835D02*
X010278Y021835D01*
X010335Y021914D02*
X010545Y021914D01*
X010545Y022542D02*
X010335Y022542D01*
X010281Y022620D02*
X010599Y022620D01*
X011281Y022620D02*
X011599Y022620D01*
X011545Y022542D02*
X011335Y022542D01*
X011335Y021914D02*
X011545Y021914D01*
X011602Y021835D02*
X011278Y021835D01*
X011280Y021443D02*
X011600Y021443D01*
X011603Y021446D02*
X011545Y021388D01*
X011545Y020714D01*
X011603Y020656D01*
X011760Y020656D01*
X011760Y020252D01*
X011662Y020252D01*
X011604Y020193D01*
X011604Y019795D01*
X011662Y019737D01*
X012218Y019737D01*
X012276Y019795D01*
X012276Y020193D01*
X012218Y020252D01*
X012120Y020252D01*
X012120Y020656D01*
X012277Y020656D01*
X012335Y020714D01*
X012335Y021388D01*
X012277Y021446D01*
X011603Y021446D01*
X011545Y021364D02*
X011335Y021364D01*
X011335Y021286D02*
X011545Y021286D01*
X011545Y021207D02*
X011335Y021207D01*
X011335Y021129D02*
X011545Y021129D01*
X011545Y021050D02*
X011335Y021050D01*
X011335Y020972D02*
X011545Y020972D01*
X011545Y020893D02*
X011335Y020893D01*
X011335Y020815D02*
X011545Y020815D01*
X011545Y020736D02*
X011335Y020736D01*
X011279Y020658D02*
X011601Y020658D01*
X011760Y020579D02*
X011120Y020579D01*
X011120Y020501D02*
X011760Y020501D01*
X011760Y020422D02*
X011120Y020422D01*
X011120Y020344D02*
X011760Y020344D01*
X011760Y020265D02*
X011120Y020265D01*
X011276Y020187D02*
X011604Y020187D01*
X011604Y020108D02*
X011276Y020108D01*
X011276Y020030D02*
X011604Y020030D01*
X011604Y019951D02*
X011276Y019951D01*
X011276Y019873D02*
X011604Y019873D01*
X011605Y019794D02*
X011275Y019794D01*
X011276Y019480D02*
X011604Y019480D01*
X011604Y019485D02*
X011604Y019087D01*
X011662Y019028D01*
X011760Y019028D01*
X011760Y018526D01*
X011540Y018306D01*
X011540Y017974D01*
X011774Y017740D01*
X012106Y017740D01*
X012340Y017974D01*
X012340Y018306D01*
X012120Y018526D01*
X012120Y019028D01*
X012218Y019028D01*
X012276Y019087D01*
X012276Y019485D01*
X012218Y019543D01*
X011662Y019543D01*
X011604Y019485D01*
X011604Y019402D02*
X011276Y019402D01*
X011276Y019323D02*
X011604Y019323D01*
X011604Y019245D02*
X011276Y019245D01*
X011276Y019166D02*
X011604Y019166D01*
X011604Y019088D02*
X011276Y019088D01*
X011120Y019009D02*
X011760Y019009D01*
X011760Y018931D02*
X011120Y018931D01*
X011120Y018852D02*
X011760Y018852D01*
X011760Y018774D02*
X011120Y018774D01*
X011120Y018695D02*
X011760Y018695D01*
X011760Y018617D02*
X011120Y018617D01*
X011120Y018538D02*
X011760Y018538D01*
X011694Y018460D02*
X011186Y018460D01*
X011265Y018381D02*
X011615Y018381D01*
X011540Y018303D02*
X011340Y018303D01*
X011340Y018224D02*
X011540Y018224D01*
X011540Y018146D02*
X011340Y018146D01*
X011340Y018067D02*
X011540Y018067D01*
X011540Y017989D02*
X011340Y017989D01*
X011276Y017910D02*
X011604Y017910D01*
X011683Y017832D02*
X011197Y017832D01*
X011119Y017753D02*
X011761Y017753D01*
X012119Y017753D02*
X012761Y017753D01*
X012774Y017740D02*
X013106Y017740D01*
X013340Y017974D01*
X013340Y018306D01*
X013120Y018526D01*
X013120Y019028D01*
X013218Y019028D01*
X013276Y019087D01*
X013276Y019485D01*
X013218Y019543D01*
X012662Y019543D01*
X012604Y019485D01*
X012604Y019087D01*
X012662Y019028D01*
X012760Y019028D01*
X012760Y018526D01*
X012540Y018306D01*
X012540Y017974D01*
X012774Y017740D01*
X012683Y017832D02*
X012197Y017832D01*
X012276Y017910D02*
X012604Y017910D01*
X012540Y017989D02*
X012340Y017989D01*
X012340Y018067D02*
X012540Y018067D01*
X012540Y018146D02*
X012340Y018146D01*
X012340Y018224D02*
X012540Y018224D01*
X012540Y018303D02*
X012340Y018303D01*
X012265Y018381D02*
X012615Y018381D01*
X012694Y018460D02*
X012186Y018460D01*
X012120Y018538D02*
X012760Y018538D01*
X012760Y018617D02*
X012120Y018617D01*
X012120Y018695D02*
X012760Y018695D01*
X012760Y018774D02*
X012120Y018774D01*
X012120Y018852D02*
X012760Y018852D01*
X012760Y018931D02*
X012120Y018931D01*
X012120Y019009D02*
X012760Y019009D01*
X012604Y019088D02*
X012276Y019088D01*
X012276Y019166D02*
X012604Y019166D01*
X012604Y019245D02*
X012276Y019245D01*
X012276Y019323D02*
X012604Y019323D01*
X012604Y019402D02*
X012276Y019402D01*
X012276Y019480D02*
X012604Y019480D01*
X012662Y019737D02*
X013218Y019737D01*
X013276Y019795D01*
X013276Y020193D01*
X013218Y020252D01*
X013120Y020252D01*
X013120Y020656D01*
X013277Y020656D01*
X013335Y020714D01*
X013335Y021388D01*
X013277Y021446D01*
X012603Y021446D01*
X012545Y021388D01*
X012545Y020714D01*
X012603Y020656D01*
X012760Y020656D01*
X012760Y020252D01*
X012662Y020252D01*
X012604Y020193D01*
X012604Y019795D01*
X012662Y019737D01*
X012605Y019794D02*
X012275Y019794D01*
X012276Y019873D02*
X012604Y019873D01*
X012604Y019951D02*
X012276Y019951D01*
X012276Y020030D02*
X012604Y020030D01*
X012604Y020108D02*
X012276Y020108D01*
X012276Y020187D02*
X012604Y020187D01*
X012760Y020265D02*
X012120Y020265D01*
X012120Y020344D02*
X012760Y020344D01*
X012760Y020422D02*
X012120Y020422D01*
X012120Y020501D02*
X012760Y020501D01*
X012760Y020579D02*
X012120Y020579D01*
X012279Y020658D02*
X012601Y020658D01*
X012545Y020736D02*
X012335Y020736D01*
X012335Y020815D02*
X012545Y020815D01*
X012545Y020893D02*
X012335Y020893D01*
X012335Y020972D02*
X012545Y020972D01*
X012545Y021050D02*
X012335Y021050D01*
X012335Y021129D02*
X012545Y021129D01*
X012545Y021207D02*
X012335Y021207D01*
X012335Y021286D02*
X012545Y021286D01*
X012545Y021364D02*
X012335Y021364D01*
X012280Y021443D02*
X012600Y021443D01*
X012602Y021835D02*
X012278Y021835D01*
X012335Y021914D02*
X012545Y021914D01*
X012545Y022542D02*
X012335Y022542D01*
X012281Y022620D02*
X012599Y022620D01*
X013281Y022620D02*
X013599Y022620D01*
X013545Y022542D02*
X013335Y022542D01*
X013335Y021914D02*
X013545Y021914D01*
X013602Y021835D02*
X013278Y021835D01*
X013280Y021443D02*
X013600Y021443D01*
X013603Y021446D02*
X013545Y021388D01*
X013545Y020714D01*
X013603Y020656D01*
X013760Y020656D01*
X013760Y020252D01*
X013662Y020252D01*
X013604Y020193D01*
X013604Y019795D01*
X013662Y019737D01*
X014218Y019737D01*
X014276Y019795D01*
X014276Y020193D01*
X014218Y020252D01*
X014120Y020252D01*
X014120Y020656D01*
X014277Y020656D01*
X014335Y020714D01*
X014335Y021388D01*
X014277Y021446D01*
X013603Y021446D01*
X013545Y021364D02*
X013335Y021364D01*
X013335Y021286D02*
X013545Y021286D01*
X013545Y021207D02*
X013335Y021207D01*
X013335Y021129D02*
X013545Y021129D01*
X013545Y021050D02*
X013335Y021050D01*
X013335Y020972D02*
X013545Y020972D01*
X013545Y020893D02*
X013335Y020893D01*
X013335Y020815D02*
X013545Y020815D01*
X013545Y020736D02*
X013335Y020736D01*
X013279Y020658D02*
X013601Y020658D01*
X013760Y020579D02*
X013120Y020579D01*
X013120Y020501D02*
X013760Y020501D01*
X013760Y020422D02*
X013120Y020422D01*
X013120Y020344D02*
X013760Y020344D01*
X013760Y020265D02*
X013120Y020265D01*
X013276Y020187D02*
X013604Y020187D01*
X013604Y020108D02*
X013276Y020108D01*
X013276Y020030D02*
X013604Y020030D01*
X013604Y019951D02*
X013276Y019951D01*
X013276Y019873D02*
X013604Y019873D01*
X013605Y019794D02*
X013275Y019794D01*
X013276Y019480D02*
X013604Y019480D01*
X013604Y019485D02*
X013604Y019087D01*
X013662Y019028D01*
X013760Y019028D01*
X013760Y018526D01*
X013540Y018306D01*
X013540Y017974D01*
X013774Y017740D01*
X014106Y017740D01*
X014340Y017974D01*
X014340Y018306D01*
X014120Y018526D01*
X014120Y019028D01*
X014218Y019028D01*
X014276Y019087D01*
X014276Y019485D01*
X014218Y019543D01*
X013662Y019543D01*
X013604Y019485D01*
X013604Y019402D02*
X013276Y019402D01*
X013276Y019323D02*
X013604Y019323D01*
X013604Y019245D02*
X013276Y019245D01*
X013276Y019166D02*
X013604Y019166D01*
X013604Y019088D02*
X013276Y019088D01*
X013120Y019009D02*
X013760Y019009D01*
X013760Y018931D02*
X013120Y018931D01*
X013120Y018852D02*
X013760Y018852D01*
X013760Y018774D02*
X013120Y018774D01*
X013120Y018695D02*
X013760Y018695D01*
X013760Y018617D02*
X013120Y018617D01*
X013120Y018538D02*
X013760Y018538D01*
X013694Y018460D02*
X013186Y018460D01*
X013265Y018381D02*
X013615Y018381D01*
X013540Y018303D02*
X013340Y018303D01*
X013340Y018224D02*
X013540Y018224D01*
X013540Y018146D02*
X013340Y018146D01*
X013340Y018067D02*
X013540Y018067D01*
X013540Y017989D02*
X013340Y017989D01*
X013276Y017910D02*
X013604Y017910D01*
X013683Y017832D02*
X013197Y017832D01*
X013119Y017753D02*
X013761Y017753D01*
X014119Y017753D02*
X014761Y017753D01*
X014774Y017740D02*
X015106Y017740D01*
X015340Y017974D01*
X015340Y018306D01*
X015120Y018526D01*
X015120Y019028D01*
X015218Y019028D01*
X015276Y019087D01*
X015276Y019485D01*
X015218Y019543D01*
X014662Y019543D01*
X014604Y019485D01*
X014604Y019087D01*
X014662Y019028D01*
X014760Y019028D01*
X014760Y018526D01*
X014540Y018306D01*
X014540Y017974D01*
X014774Y017740D01*
X014683Y017832D02*
X014197Y017832D01*
X014276Y017910D02*
X014604Y017910D01*
X014540Y017989D02*
X014340Y017989D01*
X014340Y018067D02*
X014540Y018067D01*
X014540Y018146D02*
X014340Y018146D01*
X014340Y018224D02*
X014540Y018224D01*
X014540Y018303D02*
X014340Y018303D01*
X014265Y018381D02*
X014615Y018381D01*
X014694Y018460D02*
X014186Y018460D01*
X014120Y018538D02*
X014760Y018538D01*
X014760Y018617D02*
X014120Y018617D01*
X014120Y018695D02*
X014760Y018695D01*
X014760Y018774D02*
X014120Y018774D01*
X014120Y018852D02*
X014760Y018852D01*
X014760Y018931D02*
X014120Y018931D01*
X014120Y019009D02*
X014760Y019009D01*
X014604Y019088D02*
X014276Y019088D01*
X014276Y019166D02*
X014604Y019166D01*
X014604Y019245D02*
X014276Y019245D01*
X014276Y019323D02*
X014604Y019323D01*
X014604Y019402D02*
X014276Y019402D01*
X014276Y019480D02*
X014604Y019480D01*
X014662Y019737D02*
X015218Y019737D01*
X015276Y019795D01*
X015276Y020193D01*
X015218Y020252D01*
X015120Y020252D01*
X015120Y020656D01*
X015277Y020656D01*
X015335Y020714D01*
X015335Y021388D01*
X015277Y021446D01*
X014603Y021446D01*
X014545Y021388D01*
X014545Y020714D01*
X014603Y020656D01*
X014760Y020656D01*
X014760Y020252D01*
X014662Y020252D01*
X014604Y020193D01*
X014604Y019795D01*
X014662Y019737D01*
X014605Y019794D02*
X014275Y019794D01*
X014276Y019873D02*
X014604Y019873D01*
X014604Y019951D02*
X014276Y019951D01*
X014276Y020030D02*
X014604Y020030D01*
X014604Y020108D02*
X014276Y020108D01*
X014276Y020187D02*
X014604Y020187D01*
X014760Y020265D02*
X014120Y020265D01*
X014120Y020344D02*
X014760Y020344D01*
X014760Y020422D02*
X014120Y020422D01*
X014120Y020501D02*
X014760Y020501D01*
X014760Y020579D02*
X014120Y020579D01*
X014279Y020658D02*
X014601Y020658D01*
X014545Y020736D02*
X014335Y020736D01*
X014335Y020815D02*
X014545Y020815D01*
X014545Y020893D02*
X014335Y020893D01*
X014335Y020972D02*
X014545Y020972D01*
X014545Y021050D02*
X014335Y021050D01*
X014335Y021129D02*
X014545Y021129D01*
X014545Y021207D02*
X014335Y021207D01*
X014335Y021286D02*
X014545Y021286D01*
X014545Y021364D02*
X014335Y021364D01*
X014280Y021443D02*
X014600Y021443D01*
X014602Y021835D02*
X014278Y021835D01*
X014335Y021914D02*
X014545Y021914D01*
X014545Y022542D02*
X014335Y022542D01*
X014281Y022620D02*
X014599Y022620D01*
X015281Y022620D02*
X015599Y022620D01*
X015545Y022542D02*
X015335Y022542D01*
X015335Y021914D02*
X015545Y021914D01*
X015602Y021835D02*
X015278Y021835D01*
X015280Y021443D02*
X015600Y021443D01*
X015603Y021446D02*
X015545Y021388D01*
X015545Y020714D01*
X015603Y020656D01*
X015760Y020656D01*
X015760Y020252D01*
X015662Y020252D01*
X015604Y020193D01*
X015604Y019795D01*
X015662Y019737D01*
X016218Y019737D01*
X016276Y019795D01*
X016276Y020193D01*
X016218Y020252D01*
X016120Y020252D01*
X016120Y020656D01*
X016277Y020656D01*
X016335Y020714D01*
X016335Y021388D01*
X016277Y021446D01*
X015603Y021446D01*
X015545Y021364D02*
X015335Y021364D01*
X015335Y021286D02*
X015545Y021286D01*
X015545Y021207D02*
X015335Y021207D01*
X015335Y021129D02*
X015545Y021129D01*
X015545Y021050D02*
X015335Y021050D01*
X015335Y020972D02*
X015545Y020972D01*
X015545Y020893D02*
X015335Y020893D01*
X015335Y020815D02*
X015545Y020815D01*
X015545Y020736D02*
X015335Y020736D01*
X015279Y020658D02*
X015601Y020658D01*
X015760Y020579D02*
X015120Y020579D01*
X015120Y020501D02*
X015760Y020501D01*
X015760Y020422D02*
X015120Y020422D01*
X015120Y020344D02*
X015760Y020344D01*
X015760Y020265D02*
X015120Y020265D01*
X015276Y020187D02*
X015604Y020187D01*
X015604Y020108D02*
X015276Y020108D01*
X015276Y020030D02*
X015604Y020030D01*
X015604Y019951D02*
X015276Y019951D01*
X015276Y019873D02*
X015604Y019873D01*
X015605Y019794D02*
X015275Y019794D01*
X015276Y019480D02*
X015604Y019480D01*
X015604Y019485D02*
X015604Y019087D01*
X015662Y019028D01*
X015760Y019028D01*
X015760Y018526D01*
X015540Y018306D01*
X015540Y017974D01*
X015774Y017740D01*
X016106Y017740D01*
X016340Y017974D01*
X016340Y018306D01*
X016120Y018526D01*
X016120Y019028D01*
X016218Y019028D01*
X016276Y019087D01*
X016276Y019485D01*
X016218Y019543D01*
X015662Y019543D01*
X015604Y019485D01*
X015604Y019402D02*
X015276Y019402D01*
X015276Y019323D02*
X015604Y019323D01*
X015604Y019245D02*
X015276Y019245D01*
X015276Y019166D02*
X015604Y019166D01*
X015604Y019088D02*
X015276Y019088D01*
X015120Y019009D02*
X015760Y019009D01*
X015760Y018931D02*
X015120Y018931D01*
X015120Y018852D02*
X015760Y018852D01*
X015760Y018774D02*
X015120Y018774D01*
X015120Y018695D02*
X015760Y018695D01*
X015760Y018617D02*
X015120Y018617D01*
X015120Y018538D02*
X015760Y018538D01*
X015694Y018460D02*
X015186Y018460D01*
X015265Y018381D02*
X015615Y018381D01*
X015540Y018303D02*
X015340Y018303D01*
X015340Y018224D02*
X015540Y018224D01*
X015540Y018146D02*
X015340Y018146D01*
X015340Y018067D02*
X015540Y018067D01*
X015540Y017989D02*
X015340Y017989D01*
X015276Y017910D02*
X015604Y017910D01*
X015683Y017832D02*
X015197Y017832D01*
X015119Y017753D02*
X015761Y017753D01*
X016119Y017753D02*
X016761Y017753D01*
X016774Y017740D02*
X017106Y017740D01*
X017340Y017974D01*
X017340Y018306D01*
X017120Y018526D01*
X017120Y019028D01*
X017218Y019028D01*
X017276Y019087D01*
X017276Y019485D01*
X017218Y019543D01*
X016662Y019543D01*
X016604Y019485D01*
X016604Y019087D01*
X016662Y019028D01*
X016760Y019028D01*
X016760Y018526D01*
X016540Y018306D01*
X016540Y017974D01*
X016774Y017740D01*
X016683Y017832D02*
X016197Y017832D01*
X016276Y017910D02*
X016604Y017910D01*
X016540Y017989D02*
X016340Y017989D01*
X016340Y018067D02*
X016540Y018067D01*
X016540Y018146D02*
X016340Y018146D01*
X016340Y018224D02*
X016540Y018224D01*
X016540Y018303D02*
X016340Y018303D01*
X016265Y018381D02*
X016615Y018381D01*
X016694Y018460D02*
X016186Y018460D01*
X016120Y018538D02*
X016760Y018538D01*
X016760Y018617D02*
X016120Y018617D01*
X016120Y018695D02*
X016760Y018695D01*
X016760Y018774D02*
X016120Y018774D01*
X016120Y018852D02*
X016760Y018852D01*
X016760Y018931D02*
X016120Y018931D01*
X016120Y019009D02*
X016760Y019009D01*
X016604Y019088D02*
X016276Y019088D01*
X016276Y019166D02*
X016604Y019166D01*
X016604Y019245D02*
X016276Y019245D01*
X016276Y019323D02*
X016604Y019323D01*
X016604Y019402D02*
X016276Y019402D01*
X016276Y019480D02*
X016604Y019480D01*
X016662Y019737D02*
X016604Y019795D01*
X016604Y020193D01*
X016662Y020252D01*
X016760Y020252D01*
X016760Y020656D01*
X016603Y020656D01*
X016545Y020714D01*
X016545Y021388D01*
X016603Y021446D01*
X017277Y021446D01*
X017335Y021388D01*
X017335Y020714D01*
X017277Y020656D01*
X017120Y020656D01*
X017120Y020252D01*
X017218Y020252D01*
X017276Y020193D01*
X017276Y019795D01*
X017218Y019737D01*
X016662Y019737D01*
X016605Y019794D02*
X016275Y019794D01*
X016276Y019873D02*
X016604Y019873D01*
X016604Y019951D02*
X016276Y019951D01*
X016276Y020030D02*
X016604Y020030D01*
X016604Y020108D02*
X016276Y020108D01*
X016276Y020187D02*
X016604Y020187D01*
X016760Y020265D02*
X016120Y020265D01*
X016120Y020344D02*
X016760Y020344D01*
X016760Y020422D02*
X016120Y020422D01*
X016120Y020501D02*
X016760Y020501D01*
X016760Y020579D02*
X016120Y020579D01*
X016279Y020658D02*
X016601Y020658D01*
X016545Y020736D02*
X016335Y020736D01*
X016335Y020815D02*
X016545Y020815D01*
X016545Y020893D02*
X016335Y020893D01*
X016335Y020972D02*
X016545Y020972D01*
X016545Y021050D02*
X016335Y021050D01*
X016335Y021129D02*
X016545Y021129D01*
X016545Y021207D02*
X016335Y021207D01*
X016335Y021286D02*
X016545Y021286D01*
X016545Y021364D02*
X016335Y021364D01*
X016280Y021443D02*
X016600Y021443D01*
X016602Y021835D02*
X016278Y021835D01*
X016335Y021914D02*
X016545Y021914D01*
X016545Y022542D02*
X016335Y022542D01*
X016281Y022620D02*
X016599Y022620D01*
X017281Y022620D02*
X017599Y022620D01*
X017545Y022542D02*
X017335Y022542D01*
X017335Y021914D02*
X017545Y021914D01*
X017602Y021835D02*
X017278Y021835D01*
X017280Y021443D02*
X017600Y021443D01*
X017603Y021446D02*
X017545Y021388D01*
X017545Y020714D01*
X017603Y020656D01*
X017760Y020656D01*
X017760Y020252D01*
X017662Y020252D01*
X017604Y020193D01*
X017604Y019795D01*
X017662Y019737D01*
X018218Y019737D01*
X018276Y019795D01*
X018276Y020193D01*
X018218Y020252D01*
X018120Y020252D01*
X018120Y020656D01*
X018277Y020656D01*
X018335Y020714D01*
X018335Y021388D01*
X018277Y021446D01*
X017603Y021446D01*
X017545Y021364D02*
X017335Y021364D01*
X017335Y021286D02*
X017545Y021286D01*
X017545Y021207D02*
X017335Y021207D01*
X017335Y021129D02*
X017545Y021129D01*
X017545Y021050D02*
X017335Y021050D01*
X017335Y020972D02*
X017545Y020972D01*
X017545Y020893D02*
X017335Y020893D01*
X017335Y020815D02*
X017545Y020815D01*
X017545Y020736D02*
X017335Y020736D01*
X017279Y020658D02*
X017601Y020658D01*
X017760Y020579D02*
X017120Y020579D01*
X017120Y020501D02*
X017760Y020501D01*
X017760Y020422D02*
X017120Y020422D01*
X017120Y020344D02*
X017760Y020344D01*
X017760Y020265D02*
X017120Y020265D01*
X017276Y020187D02*
X017604Y020187D01*
X017604Y020108D02*
X017276Y020108D01*
X017276Y020030D02*
X017604Y020030D01*
X017604Y019951D02*
X017276Y019951D01*
X017276Y019873D02*
X017604Y019873D01*
X017605Y019794D02*
X017275Y019794D01*
X017276Y019480D02*
X017604Y019480D01*
X017604Y019485D02*
X017604Y019087D01*
X017662Y019028D01*
X017760Y019028D01*
X017760Y018526D01*
X017540Y018306D01*
X017540Y017974D01*
X017774Y017740D01*
X018106Y017740D01*
X018340Y017974D01*
X018340Y018306D01*
X018120Y018526D01*
X018120Y019028D01*
X018218Y019028D01*
X018276Y019087D01*
X018276Y019485D01*
X018218Y019543D01*
X017662Y019543D01*
X017604Y019485D01*
X017604Y019402D02*
X017276Y019402D01*
X017276Y019323D02*
X017604Y019323D01*
X017604Y019245D02*
X017276Y019245D01*
X017276Y019166D02*
X017604Y019166D01*
X017604Y019088D02*
X017276Y019088D01*
X017120Y019009D02*
X017760Y019009D01*
X017760Y018931D02*
X017120Y018931D01*
X017120Y018852D02*
X017760Y018852D01*
X017760Y018774D02*
X017120Y018774D01*
X017120Y018695D02*
X017760Y018695D01*
X017760Y018617D02*
X017120Y018617D01*
X017120Y018538D02*
X017760Y018538D01*
X017694Y018460D02*
X017186Y018460D01*
X017265Y018381D02*
X017615Y018381D01*
X017540Y018303D02*
X017340Y018303D01*
X017340Y018224D02*
X017540Y018224D01*
X017540Y018146D02*
X017340Y018146D01*
X017340Y018067D02*
X017540Y018067D01*
X017540Y017989D02*
X017340Y017989D01*
X017276Y017910D02*
X017604Y017910D01*
X017683Y017832D02*
X017197Y017832D01*
X017119Y017753D02*
X017761Y017753D01*
X018119Y017753D02*
X018761Y017753D01*
X018774Y017740D02*
X019106Y017740D01*
X019340Y017974D01*
X019340Y018306D01*
X019120Y018526D01*
X019120Y019028D01*
X019218Y019028D01*
X019276Y019087D01*
X019276Y019485D01*
X019218Y019543D01*
X018662Y019543D01*
X018604Y019485D01*
X018604Y019087D01*
X018662Y019028D01*
X018760Y019028D01*
X018760Y018526D01*
X018540Y018306D01*
X018540Y017974D01*
X018774Y017740D01*
X018683Y017832D02*
X018197Y017832D01*
X018276Y017910D02*
X018604Y017910D01*
X018540Y017989D02*
X018340Y017989D01*
X018340Y018067D02*
X018540Y018067D01*
X018540Y018146D02*
X018340Y018146D01*
X018340Y018224D02*
X018540Y018224D01*
X018540Y018303D02*
X018340Y018303D01*
X018265Y018381D02*
X018615Y018381D01*
X018694Y018460D02*
X018186Y018460D01*
X018120Y018538D02*
X018760Y018538D01*
X018760Y018617D02*
X018120Y018617D01*
X018120Y018695D02*
X018760Y018695D01*
X018760Y018774D02*
X018120Y018774D01*
X018120Y018852D02*
X018760Y018852D01*
X018760Y018931D02*
X018120Y018931D01*
X018120Y019009D02*
X018760Y019009D01*
X018604Y019088D02*
X018276Y019088D01*
X018276Y019166D02*
X018604Y019166D01*
X018604Y019245D02*
X018276Y019245D01*
X018276Y019323D02*
X018604Y019323D01*
X018604Y019402D02*
X018276Y019402D01*
X018276Y019480D02*
X018604Y019480D01*
X018662Y019737D02*
X019218Y019737D01*
X019276Y019795D01*
X019276Y020193D01*
X019218Y020252D01*
X019120Y020252D01*
X019120Y020656D01*
X019277Y020656D01*
X019335Y020714D01*
X019335Y021388D01*
X019277Y021446D01*
X018603Y021446D01*
X018545Y021388D01*
X018545Y020714D01*
X018603Y020656D01*
X018760Y020656D01*
X018760Y020252D01*
X018662Y020252D01*
X018604Y020193D01*
X018604Y019795D01*
X018662Y019737D01*
X018605Y019794D02*
X018275Y019794D01*
X018276Y019873D02*
X018604Y019873D01*
X018604Y019951D02*
X018276Y019951D01*
X018276Y020030D02*
X018604Y020030D01*
X018604Y020108D02*
X018276Y020108D01*
X018276Y020187D02*
X018604Y020187D01*
X018760Y020265D02*
X018120Y020265D01*
X018120Y020344D02*
X018760Y020344D01*
X018760Y020422D02*
X018120Y020422D01*
X018120Y020501D02*
X018760Y020501D01*
X018760Y020579D02*
X018120Y020579D01*
X018279Y020658D02*
X018601Y020658D01*
X018545Y020736D02*
X018335Y020736D01*
X018335Y020815D02*
X018545Y020815D01*
X018545Y020893D02*
X018335Y020893D01*
X018335Y020972D02*
X018545Y020972D01*
X018545Y021050D02*
X018335Y021050D01*
X018335Y021129D02*
X018545Y021129D01*
X018545Y021207D02*
X018335Y021207D01*
X018335Y021286D02*
X018545Y021286D01*
X018545Y021364D02*
X018335Y021364D01*
X018280Y021443D02*
X018600Y021443D01*
X018602Y021835D02*
X018278Y021835D01*
X018335Y021914D02*
X018545Y021914D01*
X018545Y022542D02*
X018335Y022542D01*
X018281Y022620D02*
X018599Y022620D01*
X019281Y022620D02*
X019599Y022620D01*
X019545Y022542D02*
X019335Y022542D01*
X019335Y021914D02*
X019545Y021914D01*
X019602Y021835D02*
X019278Y021835D01*
X019280Y021443D02*
X019600Y021443D01*
X019603Y021446D02*
X019545Y021388D01*
X019545Y020714D01*
X019603Y020656D01*
X019760Y020656D01*
X019760Y020252D01*
X019662Y020252D01*
X019604Y020193D01*
X019604Y019795D01*
X019662Y019737D01*
X020218Y019737D01*
X020276Y019795D01*
X020276Y020193D01*
X020218Y020252D01*
X020120Y020252D01*
X020120Y020656D01*
X020277Y020656D01*
X020335Y020714D01*
X020335Y021388D01*
X020277Y021446D01*
X019603Y021446D01*
X019545Y021364D02*
X019335Y021364D01*
X019335Y021286D02*
X019545Y021286D01*
X019545Y021207D02*
X019335Y021207D01*
X019335Y021129D02*
X019545Y021129D01*
X019545Y021050D02*
X019335Y021050D01*
X019335Y020972D02*
X019545Y020972D01*
X019545Y020893D02*
X019335Y020893D01*
X019335Y020815D02*
X019545Y020815D01*
X019545Y020736D02*
X019335Y020736D01*
X019279Y020658D02*
X019601Y020658D01*
X019760Y020579D02*
X019120Y020579D01*
X019120Y020501D02*
X019760Y020501D01*
X019760Y020422D02*
X019120Y020422D01*
X019120Y020344D02*
X019760Y020344D01*
X019760Y020265D02*
X019120Y020265D01*
X019276Y020187D02*
X019604Y020187D01*
X019604Y020108D02*
X019276Y020108D01*
X019276Y020030D02*
X019604Y020030D01*
X019604Y019951D02*
X019276Y019951D01*
X019276Y019873D02*
X019604Y019873D01*
X019605Y019794D02*
X019275Y019794D01*
X019276Y019480D02*
X019604Y019480D01*
X019604Y019485D02*
X019604Y019087D01*
X019662Y019028D01*
X019760Y019028D01*
X019760Y018526D01*
X019540Y018306D01*
X019540Y017974D01*
X019774Y017740D01*
X020106Y017740D01*
X020340Y017974D01*
X020340Y018306D01*
X020120Y018526D01*
X020120Y019028D01*
X020218Y019028D01*
X020276Y019087D01*
X020276Y019485D01*
X020218Y019543D01*
X019662Y019543D01*
X019604Y019485D01*
X019604Y019402D02*
X019276Y019402D01*
X019276Y019323D02*
X019604Y019323D01*
X019604Y019245D02*
X019276Y019245D01*
X019276Y019166D02*
X019604Y019166D01*
X019604Y019088D02*
X019276Y019088D01*
X019120Y019009D02*
X019760Y019009D01*
X019760Y018931D02*
X019120Y018931D01*
X019120Y018852D02*
X019760Y018852D01*
X019760Y018774D02*
X019120Y018774D01*
X019120Y018695D02*
X019760Y018695D01*
X019760Y018617D02*
X019120Y018617D01*
X019120Y018538D02*
X019760Y018538D01*
X019694Y018460D02*
X019186Y018460D01*
X019265Y018381D02*
X019615Y018381D01*
X019540Y018303D02*
X019340Y018303D01*
X019340Y018224D02*
X019540Y018224D01*
X019540Y018146D02*
X019340Y018146D01*
X019340Y018067D02*
X019540Y018067D01*
X019540Y017989D02*
X019340Y017989D01*
X019276Y017910D02*
X019604Y017910D01*
X019683Y017832D02*
X019197Y017832D01*
X019119Y017753D02*
X019761Y017753D01*
X020119Y017753D02*
X020761Y017753D01*
X020774Y017740D02*
X021106Y017740D01*
X021340Y017974D01*
X021340Y018306D01*
X021120Y018526D01*
X021120Y019028D01*
X021218Y019028D01*
X021276Y019087D01*
X021276Y019485D01*
X021218Y019543D01*
X020662Y019543D01*
X020604Y019485D01*
X020604Y019087D01*
X020662Y019028D01*
X020760Y019028D01*
X020760Y018526D01*
X020540Y018306D01*
X020540Y017974D01*
X020774Y017740D01*
X020683Y017832D02*
X020197Y017832D01*
X020276Y017910D02*
X020604Y017910D01*
X020540Y017989D02*
X020340Y017989D01*
X020340Y018067D02*
X020540Y018067D01*
X020540Y018146D02*
X020340Y018146D01*
X020340Y018224D02*
X020540Y018224D01*
X020540Y018303D02*
X020340Y018303D01*
X020265Y018381D02*
X020615Y018381D01*
X020694Y018460D02*
X020186Y018460D01*
X020120Y018538D02*
X020760Y018538D01*
X020760Y018617D02*
X020120Y018617D01*
X020120Y018695D02*
X020760Y018695D01*
X020760Y018774D02*
X020120Y018774D01*
X020120Y018852D02*
X020760Y018852D01*
X020760Y018931D02*
X020120Y018931D01*
X020120Y019009D02*
X020760Y019009D01*
X020604Y019088D02*
X020276Y019088D01*
X020276Y019166D02*
X020604Y019166D01*
X020604Y019245D02*
X020276Y019245D01*
X020276Y019323D02*
X020604Y019323D01*
X020604Y019402D02*
X020276Y019402D01*
X020276Y019480D02*
X020604Y019480D01*
X020662Y019737D02*
X021218Y019737D01*
X021276Y019795D01*
X021276Y020193D01*
X021218Y020252D01*
X021120Y020252D01*
X021120Y020656D01*
X021277Y020656D01*
X021335Y020714D01*
X021335Y021388D01*
X021277Y021446D01*
X020603Y021446D01*
X020545Y021388D01*
X020545Y020714D01*
X020603Y020656D01*
X020760Y020656D01*
X020760Y020252D01*
X020662Y020252D01*
X020604Y020193D01*
X020604Y019795D01*
X020662Y019737D01*
X020605Y019794D02*
X020275Y019794D01*
X020276Y019873D02*
X020604Y019873D01*
X020604Y019951D02*
X020276Y019951D01*
X020276Y020030D02*
X020604Y020030D01*
X020604Y020108D02*
X020276Y020108D01*
X020276Y020187D02*
X020604Y020187D01*
X020760Y020265D02*
X020120Y020265D01*
X020120Y020344D02*
X020760Y020344D01*
X020760Y020422D02*
X020120Y020422D01*
X020120Y020501D02*
X020760Y020501D01*
X020760Y020579D02*
X020120Y020579D01*
X020279Y020658D02*
X020601Y020658D01*
X020545Y020736D02*
X020335Y020736D01*
X020335Y020815D02*
X020545Y020815D01*
X020545Y020893D02*
X020335Y020893D01*
X020335Y020972D02*
X020545Y020972D01*
X020545Y021050D02*
X020335Y021050D01*
X020335Y021129D02*
X020545Y021129D01*
X020545Y021207D02*
X020335Y021207D01*
X020335Y021286D02*
X020545Y021286D01*
X020545Y021364D02*
X020335Y021364D01*
X020280Y021443D02*
X020600Y021443D01*
X020602Y021835D02*
X020278Y021835D01*
X020335Y021914D02*
X020545Y021914D01*
X020545Y022542D02*
X020335Y022542D01*
X020281Y022620D02*
X020599Y022620D01*
X021281Y022620D02*
X021599Y022620D01*
X021545Y022542D02*
X021335Y022542D01*
X021335Y021914D02*
X021545Y021914D01*
X021602Y021835D02*
X021278Y021835D01*
X021280Y021443D02*
X021600Y021443D01*
X021603Y021446D02*
X021545Y021388D01*
X021545Y020714D01*
X021603Y020656D01*
X021760Y020656D01*
X021760Y020252D01*
X021662Y020252D01*
X021604Y020193D01*
X021604Y019795D01*
X021662Y019737D01*
X022218Y019737D01*
X022276Y019795D01*
X022276Y020193D01*
X022218Y020252D01*
X022120Y020252D01*
X022120Y020656D01*
X022277Y020656D01*
X022335Y020714D01*
X022335Y021388D01*
X022277Y021446D01*
X021603Y021446D01*
X021545Y021364D02*
X021335Y021364D01*
X021335Y021286D02*
X021545Y021286D01*
X021545Y021207D02*
X021335Y021207D01*
X021335Y021129D02*
X021545Y021129D01*
X021545Y021050D02*
X021335Y021050D01*
X021335Y020972D02*
X021545Y020972D01*
X021545Y020893D02*
X021335Y020893D01*
X021335Y020815D02*
X021545Y020815D01*
X021545Y020736D02*
X021335Y020736D01*
X021279Y020658D02*
X021601Y020658D01*
X021760Y020579D02*
X021120Y020579D01*
X021120Y020501D02*
X021760Y020501D01*
X021760Y020422D02*
X021120Y020422D01*
X021120Y020344D02*
X021760Y020344D01*
X021760Y020265D02*
X021120Y020265D01*
X021276Y020187D02*
X021604Y020187D01*
X021604Y020108D02*
X021276Y020108D01*
X021276Y020030D02*
X021604Y020030D01*
X021604Y019951D02*
X021276Y019951D01*
X021276Y019873D02*
X021604Y019873D01*
X021605Y019794D02*
X021275Y019794D01*
X021276Y019480D02*
X021604Y019480D01*
X021604Y019485D02*
X021604Y019087D01*
X021662Y019028D01*
X021760Y019028D01*
X021760Y018526D01*
X021540Y018306D01*
X021540Y017974D01*
X021774Y017740D01*
X022106Y017740D01*
X022340Y017974D01*
X022340Y018306D01*
X022120Y018526D01*
X022120Y019028D01*
X022218Y019028D01*
X022276Y019087D01*
X022276Y019485D01*
X022218Y019543D01*
X021662Y019543D01*
X021604Y019485D01*
X021604Y019402D02*
X021276Y019402D01*
X021276Y019323D02*
X021604Y019323D01*
X021604Y019245D02*
X021276Y019245D01*
X021276Y019166D02*
X021604Y019166D01*
X021604Y019088D02*
X021276Y019088D01*
X021120Y019009D02*
X021760Y019009D01*
X021760Y018931D02*
X021120Y018931D01*
X021120Y018852D02*
X021760Y018852D01*
X021760Y018774D02*
X021120Y018774D01*
X021120Y018695D02*
X021760Y018695D01*
X021760Y018617D02*
X021120Y018617D01*
X021120Y018538D02*
X021760Y018538D01*
X021694Y018460D02*
X021186Y018460D01*
X021265Y018381D02*
X021615Y018381D01*
X021540Y018303D02*
X021340Y018303D01*
X021340Y018224D02*
X021540Y018224D01*
X021540Y018146D02*
X021340Y018146D01*
X021340Y018067D02*
X021540Y018067D01*
X021540Y017989D02*
X021340Y017989D01*
X021276Y017910D02*
X021604Y017910D01*
X021683Y017832D02*
X021197Y017832D01*
X021119Y017753D02*
X021761Y017753D01*
X022119Y017753D02*
X022761Y017753D01*
X022774Y017740D02*
X023106Y017740D01*
X023340Y017974D01*
X023340Y018306D01*
X023120Y018526D01*
X023120Y019028D01*
X023218Y019028D01*
X023276Y019087D01*
X023276Y019485D01*
X023218Y019543D01*
X022662Y019543D01*
X022604Y019485D01*
X022604Y019087D01*
X022662Y019028D01*
X022760Y019028D01*
X022760Y018526D01*
X022540Y018306D01*
X022540Y017974D01*
X022774Y017740D01*
X022683Y017832D02*
X022197Y017832D01*
X022276Y017910D02*
X022604Y017910D01*
X022540Y017989D02*
X022340Y017989D01*
X022340Y018067D02*
X022540Y018067D01*
X022540Y018146D02*
X022340Y018146D01*
X022340Y018224D02*
X022540Y018224D01*
X022540Y018303D02*
X022340Y018303D01*
X022265Y018381D02*
X022615Y018381D01*
X022694Y018460D02*
X022186Y018460D01*
X022120Y018538D02*
X022760Y018538D01*
X022760Y018617D02*
X022120Y018617D01*
X022120Y018695D02*
X022760Y018695D01*
X022760Y018774D02*
X022120Y018774D01*
X022120Y018852D02*
X022760Y018852D01*
X022760Y018931D02*
X022120Y018931D01*
X022120Y019009D02*
X022760Y019009D01*
X022604Y019088D02*
X022276Y019088D01*
X022276Y019166D02*
X022604Y019166D01*
X022604Y019245D02*
X022276Y019245D01*
X022276Y019323D02*
X022604Y019323D01*
X022604Y019402D02*
X022276Y019402D01*
X022276Y019480D02*
X022604Y019480D01*
X022662Y019737D02*
X023218Y019737D01*
X023276Y019795D01*
X023276Y020193D01*
X023218Y020252D01*
X023120Y020252D01*
X023120Y020656D01*
X023277Y020656D01*
X023335Y020714D01*
X023335Y021388D01*
X023277Y021446D01*
X022603Y021446D01*
X022545Y021388D01*
X022545Y020714D01*
X022603Y020656D01*
X022760Y020656D01*
X022760Y020252D01*
X022662Y020252D01*
X022604Y020193D01*
X022604Y019795D01*
X022662Y019737D01*
X022605Y019794D02*
X022275Y019794D01*
X022276Y019873D02*
X022604Y019873D01*
X022604Y019951D02*
X022276Y019951D01*
X022276Y020030D02*
X022604Y020030D01*
X022604Y020108D02*
X022276Y020108D01*
X022276Y020187D02*
X022604Y020187D01*
X022760Y020265D02*
X022120Y020265D01*
X022120Y020344D02*
X022760Y020344D01*
X022760Y020422D02*
X022120Y020422D01*
X022120Y020501D02*
X022760Y020501D01*
X022760Y020579D02*
X022120Y020579D01*
X022279Y020658D02*
X022601Y020658D01*
X022545Y020736D02*
X022335Y020736D01*
X022335Y020815D02*
X022545Y020815D01*
X022545Y020893D02*
X022335Y020893D01*
X022335Y020972D02*
X022545Y020972D01*
X022545Y021050D02*
X022335Y021050D01*
X022335Y021129D02*
X022545Y021129D01*
X022545Y021207D02*
X022335Y021207D01*
X022335Y021286D02*
X022545Y021286D01*
X022545Y021364D02*
X022335Y021364D01*
X022280Y021443D02*
X022600Y021443D01*
X022602Y021835D02*
X022278Y021835D01*
X022335Y021914D02*
X022545Y021914D01*
X022545Y022542D02*
X022335Y022542D01*
X022281Y022620D02*
X022599Y022620D01*
X023281Y022620D02*
X023599Y022620D01*
X023545Y022542D02*
X023335Y022542D01*
X023335Y021914D02*
X023545Y021914D01*
X023602Y021835D02*
X023278Y021835D01*
X023280Y021443D02*
X023600Y021443D01*
X023603Y021446D02*
X023545Y021388D01*
X023545Y020714D01*
X023603Y020656D01*
X023760Y020656D01*
X023760Y020252D01*
X023662Y020252D01*
X023604Y020193D01*
X023604Y019795D01*
X023662Y019737D01*
X024218Y019737D01*
X024276Y019795D01*
X024276Y020193D01*
X024218Y020252D01*
X024120Y020252D01*
X024120Y020656D01*
X024277Y020656D01*
X024335Y020714D01*
X024335Y021388D01*
X024277Y021446D01*
X023603Y021446D01*
X023545Y021364D02*
X023335Y021364D01*
X023335Y021286D02*
X023545Y021286D01*
X023545Y021207D02*
X023335Y021207D01*
X023335Y021129D02*
X023545Y021129D01*
X023545Y021050D02*
X023335Y021050D01*
X023335Y020972D02*
X023545Y020972D01*
X023545Y020893D02*
X023335Y020893D01*
X023335Y020815D02*
X023545Y020815D01*
X023545Y020736D02*
X023335Y020736D01*
X023279Y020658D02*
X023601Y020658D01*
X023760Y020579D02*
X023120Y020579D01*
X023120Y020501D02*
X023760Y020501D01*
X023760Y020422D02*
X023120Y020422D01*
X023120Y020344D02*
X023760Y020344D01*
X023760Y020265D02*
X023120Y020265D01*
X023276Y020187D02*
X023604Y020187D01*
X023604Y020108D02*
X023276Y020108D01*
X023276Y020030D02*
X023604Y020030D01*
X023604Y019951D02*
X023276Y019951D01*
X023276Y019873D02*
X023604Y019873D01*
X023605Y019794D02*
X023275Y019794D01*
X023276Y019480D02*
X023604Y019480D01*
X023604Y019485D02*
X023604Y019087D01*
X023662Y019028D01*
X023760Y019028D01*
X023760Y018526D01*
X023540Y018306D01*
X023540Y017974D01*
X023774Y017740D01*
X024106Y017740D01*
X024340Y017974D01*
X024340Y018306D01*
X024120Y018526D01*
X024120Y019028D01*
X024218Y019028D01*
X024276Y019087D01*
X024276Y019485D01*
X024218Y019543D01*
X023662Y019543D01*
X023604Y019485D01*
X023604Y019402D02*
X023276Y019402D01*
X023276Y019323D02*
X023604Y019323D01*
X023604Y019245D02*
X023276Y019245D01*
X023276Y019166D02*
X023604Y019166D01*
X023604Y019088D02*
X023276Y019088D01*
X023120Y019009D02*
X023760Y019009D01*
X023760Y018931D02*
X023120Y018931D01*
X023120Y018852D02*
X023760Y018852D01*
X023760Y018774D02*
X023120Y018774D01*
X023120Y018695D02*
X023760Y018695D01*
X023760Y018617D02*
X023120Y018617D01*
X023120Y018538D02*
X023760Y018538D01*
X023694Y018460D02*
X023186Y018460D01*
X023265Y018381D02*
X023615Y018381D01*
X023540Y018303D02*
X023340Y018303D01*
X023340Y018224D02*
X023540Y018224D01*
X023540Y018146D02*
X023340Y018146D01*
X023340Y018067D02*
X023540Y018067D01*
X023540Y017989D02*
X023340Y017989D01*
X023276Y017910D02*
X023604Y017910D01*
X023683Y017832D02*
X023197Y017832D01*
X023119Y017753D02*
X023761Y017753D01*
X024119Y017753D02*
X025761Y017753D01*
X025774Y017740D02*
X026106Y017740D01*
X026340Y017974D01*
X026340Y018306D01*
X026120Y018526D01*
X026120Y020754D01*
X026340Y020974D01*
X026340Y021306D01*
X026106Y021540D01*
X025774Y021540D01*
X025540Y021306D01*
X025540Y020974D01*
X025760Y020754D01*
X025760Y018526D01*
X025540Y018306D01*
X025540Y017974D01*
X025774Y017740D01*
X025683Y017832D02*
X024197Y017832D01*
X024276Y017910D02*
X025604Y017910D01*
X025540Y017989D02*
X024340Y017989D01*
X024340Y018067D02*
X025540Y018067D01*
X025540Y018146D02*
X024340Y018146D01*
X024340Y018224D02*
X025540Y018224D01*
X025540Y018303D02*
X024340Y018303D01*
X024265Y018381D02*
X025615Y018381D01*
X025694Y018460D02*
X024186Y018460D01*
X024120Y018538D02*
X025760Y018538D01*
X025760Y018617D02*
X024120Y018617D01*
X024120Y018695D02*
X025760Y018695D01*
X025760Y018774D02*
X024120Y018774D01*
X024120Y018852D02*
X025760Y018852D01*
X025760Y018931D02*
X024120Y018931D01*
X024120Y019009D02*
X025760Y019009D01*
X025760Y019088D02*
X024276Y019088D01*
X024276Y019166D02*
X025760Y019166D01*
X025760Y019245D02*
X024276Y019245D01*
X024276Y019323D02*
X025760Y019323D01*
X025760Y019402D02*
X024276Y019402D01*
X024276Y019480D02*
X025760Y019480D01*
X025760Y019559D02*
X000655Y019559D01*
X000655Y019637D02*
X025760Y019637D01*
X025760Y019716D02*
X000655Y019716D01*
X000655Y019794D02*
X004605Y019794D01*
X004604Y019873D02*
X000655Y019873D01*
X000655Y019951D02*
X004604Y019951D01*
X004604Y020030D02*
X000655Y020030D01*
X000655Y020108D02*
X004604Y020108D01*
X004604Y020187D02*
X000655Y020187D01*
X000655Y020265D02*
X004760Y020265D01*
X004760Y020344D02*
X000655Y020344D01*
X000655Y020422D02*
X004760Y020422D01*
X004760Y020501D02*
X000655Y020501D01*
X000655Y020579D02*
X004760Y020579D01*
X004601Y020658D02*
X000655Y020658D01*
X000655Y020736D02*
X004545Y020736D01*
X004545Y020815D02*
X001950Y020815D01*
X001790Y020815D02*
X000655Y020815D01*
X000655Y020893D02*
X001480Y020893D01*
X001312Y020972D02*
X000655Y020972D01*
X000655Y021050D02*
X001192Y021050D01*
X001072Y021129D02*
X000655Y021129D01*
X000655Y021207D02*
X000991Y021207D01*
X000930Y021286D02*
X000655Y021286D01*
X000655Y021364D02*
X000869Y021364D01*
X000808Y021443D02*
X000655Y021443D01*
X000655Y021521D02*
X000755Y021521D01*
X000728Y021600D02*
X000655Y021600D01*
X000655Y021678D02*
X000701Y021678D01*
X000674Y021757D02*
X000655Y021757D01*
X002388Y020893D02*
X004545Y020893D01*
X004545Y020972D02*
X002567Y020972D01*
X002708Y021050D02*
X004545Y021050D01*
X004545Y021129D02*
X002793Y021129D01*
X002878Y021207D02*
X004545Y021207D01*
X004545Y021286D02*
X002963Y021286D01*
X003023Y021364D02*
X004545Y021364D01*
X004600Y021443D02*
X003065Y021443D01*
X003108Y021521D02*
X025755Y021521D01*
X025677Y021443D02*
X024280Y021443D01*
X024335Y021364D02*
X025598Y021364D01*
X025540Y021286D02*
X024335Y021286D01*
X024335Y021207D02*
X025540Y021207D01*
X025540Y021129D02*
X024335Y021129D01*
X024335Y021050D02*
X025540Y021050D01*
X025543Y020972D02*
X024335Y020972D01*
X024335Y020893D02*
X025621Y020893D01*
X025700Y020815D02*
X024335Y020815D01*
X024335Y020736D02*
X025760Y020736D01*
X025760Y020658D02*
X024279Y020658D01*
X024120Y020579D02*
X025760Y020579D01*
X025760Y020501D02*
X024120Y020501D01*
X024120Y020422D02*
X025760Y020422D01*
X025760Y020344D02*
X024120Y020344D01*
X024120Y020265D02*
X025760Y020265D01*
X025760Y020187D02*
X024276Y020187D01*
X024276Y020108D02*
X025760Y020108D01*
X025760Y020030D02*
X024276Y020030D01*
X024276Y019951D02*
X025760Y019951D01*
X025760Y019873D02*
X024276Y019873D01*
X024275Y019794D02*
X025760Y019794D01*
X026120Y019794D02*
X026760Y019794D01*
X026760Y019716D02*
X026120Y019716D01*
X026120Y019637D02*
X026760Y019637D01*
X026760Y019559D02*
X026120Y019559D01*
X026120Y019480D02*
X026760Y019480D01*
X026760Y019402D02*
X026120Y019402D01*
X026120Y019323D02*
X026760Y019323D01*
X026760Y019245D02*
X026120Y019245D01*
X026120Y019166D02*
X026760Y019166D01*
X026760Y019088D02*
X026120Y019088D01*
X026120Y019009D02*
X026760Y019009D01*
X026760Y018931D02*
X026120Y018931D01*
X026120Y018852D02*
X026760Y018852D01*
X026760Y018774D02*
X026120Y018774D01*
X026120Y018695D02*
X026760Y018695D01*
X026760Y018617D02*
X026120Y018617D01*
X026120Y018538D02*
X026760Y018538D01*
X026760Y018526D02*
X026540Y018306D01*
X026540Y017974D01*
X026774Y017740D01*
X027106Y017740D01*
X027340Y017974D01*
X027340Y018306D01*
X027120Y018526D01*
X027120Y020754D01*
X027340Y020974D01*
X027340Y021306D01*
X027106Y021540D01*
X026774Y021540D01*
X026540Y021306D01*
X026540Y020974D01*
X026760Y020754D01*
X026760Y018526D01*
X026694Y018460D02*
X026186Y018460D01*
X026265Y018381D02*
X026615Y018381D01*
X026540Y018303D02*
X026340Y018303D01*
X026340Y018224D02*
X026540Y018224D01*
X026540Y018146D02*
X026340Y018146D01*
X026340Y018067D02*
X026540Y018067D01*
X026540Y017989D02*
X026340Y017989D01*
X026276Y017910D02*
X026604Y017910D01*
X026683Y017832D02*
X026197Y017832D01*
X026119Y017753D02*
X026761Y017753D01*
X027119Y017753D02*
X027761Y017753D01*
X027683Y017832D02*
X027197Y017832D01*
X027276Y017910D02*
X027604Y017910D01*
X027540Y017989D02*
X027340Y017989D01*
X027340Y018067D02*
X027540Y018067D01*
X027540Y018146D02*
X027340Y018146D01*
X027340Y018224D02*
X027540Y018224D01*
X027540Y018303D02*
X027340Y018303D01*
X027265Y018381D02*
X027615Y018381D01*
X027694Y018460D02*
X027186Y018460D01*
X027120Y018538D02*
X027760Y018538D01*
X027760Y018617D02*
X027120Y018617D01*
X027120Y018695D02*
X027760Y018695D01*
X027760Y018774D02*
X027120Y018774D01*
X027120Y018852D02*
X027760Y018852D01*
X027760Y018931D02*
X027120Y018931D01*
X027120Y019009D02*
X027760Y019009D01*
X027760Y019088D02*
X027120Y019088D01*
X027120Y019166D02*
X027760Y019166D01*
X027760Y019245D02*
X027120Y019245D01*
X027120Y019323D02*
X027760Y019323D01*
X027760Y019402D02*
X027120Y019402D01*
X027120Y019480D02*
X027760Y019480D01*
X027760Y019559D02*
X027120Y019559D01*
X027120Y019637D02*
X027760Y019637D01*
X027760Y019716D02*
X027120Y019716D01*
X027120Y019794D02*
X027760Y019794D01*
X027760Y019873D02*
X027120Y019873D01*
X027120Y019951D02*
X027760Y019951D01*
X027760Y020030D02*
X027120Y020030D01*
X027120Y020108D02*
X027760Y020108D01*
X027760Y020187D02*
X027120Y020187D01*
X027120Y020265D02*
X027760Y020265D01*
X027760Y020344D02*
X027120Y020344D01*
X027120Y020422D02*
X027760Y020422D01*
X027760Y020501D02*
X027120Y020501D01*
X027120Y020579D02*
X027760Y020579D01*
X027760Y020658D02*
X027120Y020658D01*
X027120Y020736D02*
X027760Y020736D01*
X027700Y020815D02*
X027180Y020815D01*
X027259Y020893D02*
X027621Y020893D01*
X027543Y020972D02*
X027337Y020972D01*
X027340Y021050D02*
X027540Y021050D01*
X027540Y021129D02*
X027340Y021129D01*
X027340Y021207D02*
X027540Y021207D01*
X027540Y021286D02*
X027340Y021286D01*
X027282Y021364D02*
X027598Y021364D01*
X027677Y021443D02*
X027203Y021443D01*
X027125Y021521D02*
X027755Y021521D01*
X027877Y021835D02*
X024278Y021835D01*
X024335Y021914D02*
X027799Y021914D01*
X028142Y022306D02*
X031618Y022306D01*
X031618Y022228D02*
X028220Y022228D01*
X028299Y022149D02*
X031618Y022149D01*
X031618Y022071D02*
X028377Y022071D01*
X028456Y021992D02*
X031618Y021992D01*
X031620Y021914D02*
X028534Y021914D01*
X028613Y021835D02*
X031647Y021835D01*
X031674Y021757D02*
X028691Y021757D01*
X028770Y021678D02*
X031701Y021678D01*
X031728Y021600D02*
X028848Y021600D01*
X029125Y021521D02*
X029755Y021521D01*
X029677Y021443D02*
X029203Y021443D01*
X029282Y021364D02*
X029598Y021364D01*
X029540Y021286D02*
X029340Y021286D01*
X029340Y021207D02*
X029540Y021207D01*
X029540Y021129D02*
X029340Y021129D01*
X029340Y021050D02*
X029540Y021050D01*
X029543Y020972D02*
X029337Y020972D01*
X029259Y020893D02*
X029621Y020893D01*
X029700Y020815D02*
X029180Y020815D01*
X030120Y020736D02*
X030722Y020736D01*
X030758Y020700D02*
X030500Y020958D01*
X030500Y021100D01*
X030900Y021100D01*
X030900Y021180D01*
X030900Y021580D01*
X030758Y021580D01*
X030500Y021322D01*
X030500Y021180D01*
X030900Y021180D01*
X030980Y021180D01*
X030980Y021580D01*
X031122Y021580D01*
X031380Y021322D01*
X031380Y021180D01*
X030980Y021180D01*
X030980Y021100D01*
X031380Y021100D01*
X031380Y020958D01*
X031122Y020700D01*
X030980Y020700D01*
X030980Y021100D01*
X030900Y021100D01*
X030900Y020700D01*
X030758Y020700D01*
X030900Y020736D02*
X030980Y020736D01*
X030980Y020815D02*
X030900Y020815D01*
X030900Y020893D02*
X030980Y020893D01*
X030980Y020972D02*
X030900Y020972D01*
X030900Y021050D02*
X030980Y021050D01*
X030980Y021129D02*
X032072Y021129D01*
X031991Y021207D02*
X031380Y021207D01*
X031380Y021286D02*
X031930Y021286D01*
X031869Y021364D02*
X031338Y021364D01*
X031260Y021443D02*
X031808Y021443D01*
X031755Y021521D02*
X031181Y021521D01*
X030980Y021521D02*
X030900Y021521D01*
X030900Y021443D02*
X030980Y021443D01*
X030980Y021364D02*
X030900Y021364D01*
X030900Y021286D02*
X030980Y021286D01*
X030980Y021207D02*
X030900Y021207D01*
X030900Y021129D02*
X030340Y021129D01*
X030340Y021207D02*
X030500Y021207D01*
X030500Y021286D02*
X030340Y021286D01*
X030282Y021364D02*
X030542Y021364D01*
X030620Y021443D02*
X030203Y021443D01*
X030125Y021521D02*
X030699Y021521D01*
X030500Y021050D02*
X030340Y021050D01*
X030337Y020972D02*
X030500Y020972D01*
X030565Y020893D02*
X030259Y020893D01*
X030180Y020815D02*
X030643Y020815D01*
X030120Y020658D02*
X034225Y020658D01*
X034225Y020736D02*
X031158Y020736D01*
X031237Y020815D02*
X032790Y020815D01*
X032950Y020815D02*
X034225Y020815D01*
X034225Y020893D02*
X033388Y020893D01*
X033567Y020972D02*
X034225Y020972D01*
X034225Y021050D02*
X033708Y021050D01*
X033793Y021129D02*
X034225Y021129D01*
X034225Y021207D02*
X033878Y021207D01*
X033963Y021286D02*
X034225Y021286D01*
X034225Y021364D02*
X034023Y021364D01*
X034065Y021443D02*
X034225Y021443D01*
X034225Y021521D02*
X034108Y021521D01*
X034150Y021600D02*
X034225Y021600D01*
X034225Y021678D02*
X034193Y021678D01*
X034216Y021757D02*
X034225Y021757D01*
X034225Y020579D02*
X030120Y020579D01*
X030120Y020501D02*
X034225Y020501D01*
X034225Y020422D02*
X030120Y020422D01*
X030120Y020344D02*
X034225Y020344D01*
X034225Y020265D02*
X030120Y020265D01*
X030120Y020187D02*
X034225Y020187D01*
X034225Y020108D02*
X030120Y020108D01*
X030120Y020030D02*
X034225Y020030D01*
X034225Y019951D02*
X030120Y019951D01*
X030120Y019873D02*
X034225Y019873D01*
X034225Y019794D02*
X030120Y019794D01*
X030120Y019716D02*
X034225Y019716D01*
X034225Y019637D02*
X030120Y019637D01*
X030120Y019559D02*
X034225Y019559D01*
X034225Y019480D02*
X030120Y019480D01*
X030120Y019402D02*
X034225Y019402D01*
X034225Y019323D02*
X030120Y019323D01*
X030120Y019245D02*
X034225Y019245D01*
X034225Y019166D02*
X030120Y019166D01*
X030120Y019088D02*
X034225Y019088D01*
X034225Y019009D02*
X030120Y019009D01*
X030120Y018931D02*
X034225Y018931D01*
X034225Y018852D02*
X030120Y018852D01*
X030120Y018774D02*
X034225Y018774D01*
X034225Y018695D02*
X030120Y018695D01*
X030120Y018617D02*
X034225Y018617D01*
X032480Y020893D02*
X031315Y020893D01*
X031380Y020972D02*
X032312Y020972D01*
X032192Y021050D02*
X031380Y021050D01*
X031627Y022385D02*
X028063Y022385D01*
X027965Y022463D02*
X031653Y022463D01*
X031680Y022542D02*
X024335Y022542D01*
X024281Y022620D02*
X031707Y022620D01*
X031734Y022699D02*
X003141Y022699D01*
X003098Y022777D02*
X031761Y022777D01*
X031822Y022856D02*
X003056Y022856D01*
X003013Y022934D02*
X031883Y022934D01*
X031944Y023013D02*
X002944Y023013D01*
X002858Y023091D02*
X032005Y023091D01*
X032099Y023170D02*
X002773Y023170D01*
X002688Y023248D02*
X032219Y023248D01*
X032340Y023327D02*
X002525Y023327D01*
X002346Y023405D02*
X032552Y023405D01*
X026755Y021521D02*
X026125Y021521D01*
X026203Y021443D02*
X026677Y021443D01*
X026598Y021364D02*
X026282Y021364D01*
X026340Y021286D02*
X026540Y021286D01*
X026540Y021207D02*
X026340Y021207D01*
X026340Y021129D02*
X026540Y021129D01*
X026540Y021050D02*
X026340Y021050D01*
X026337Y020972D02*
X026543Y020972D01*
X026621Y020893D02*
X026259Y020893D01*
X026180Y020815D02*
X026700Y020815D01*
X026760Y020736D02*
X026120Y020736D01*
X026120Y020658D02*
X026760Y020658D01*
X026760Y020579D02*
X026120Y020579D01*
X026120Y020501D02*
X026760Y020501D01*
X026760Y020422D02*
X026120Y020422D01*
X026120Y020344D02*
X026760Y020344D01*
X026760Y020265D02*
X026120Y020265D01*
X026120Y020187D02*
X026760Y020187D01*
X026760Y020108D02*
X026120Y020108D01*
X026120Y020030D02*
X026760Y020030D01*
X026760Y019951D02*
X026120Y019951D01*
X026120Y019873D02*
X026760Y019873D01*
X028186Y018460D02*
X028694Y018460D01*
X028615Y018381D02*
X028265Y018381D01*
X028340Y018303D02*
X028540Y018303D01*
X028540Y018224D02*
X028340Y018224D01*
X028340Y018146D02*
X028540Y018146D01*
X028540Y018067D02*
X028340Y018067D01*
X028340Y017989D02*
X028540Y017989D01*
X028604Y017910D02*
X028276Y017910D01*
X028197Y017832D02*
X028683Y017832D01*
X028761Y017753D02*
X028119Y017753D01*
X025940Y018140D02*
X025929Y018129D01*
X014499Y016183D02*
X014494Y016186D01*
X014466Y016183D01*
X014498Y016183D01*
X014466Y016183D02*
X014461Y016179D01*
X014440Y016181D01*
X014419Y016179D01*
X014414Y016183D01*
X004761Y017753D02*
X000655Y017753D01*
X000655Y017832D02*
X004683Y017832D01*
X004604Y017910D02*
X000655Y017910D01*
X000655Y017989D02*
X004540Y017989D01*
X004540Y018067D02*
X000655Y018067D01*
X000655Y018146D02*
X004540Y018146D01*
X004540Y018224D02*
X000655Y018224D01*
X000655Y018303D02*
X004540Y018303D01*
X004615Y018381D02*
X000655Y018381D01*
X000655Y018460D02*
X004694Y018460D01*
X004760Y018538D02*
X000655Y018538D01*
X000655Y018617D02*
X004760Y018617D01*
X004760Y018695D02*
X000655Y018695D01*
X000655Y018774D02*
X004760Y018774D01*
X004760Y018852D02*
X000655Y018852D01*
X000655Y018931D02*
X004760Y018931D01*
X004760Y019009D02*
X000655Y019009D01*
X000655Y019088D02*
X004604Y019088D01*
X004604Y019166D02*
X000655Y019166D01*
X000655Y019245D02*
X004604Y019245D01*
X004604Y019323D02*
X000655Y019323D01*
X000655Y019402D02*
X004604Y019402D01*
X004604Y019480D02*
X000655Y019480D01*
X015909Y006171D02*
X015940Y006140D01*
X020118Y006528D02*
X020762Y006528D01*
X020683Y006449D02*
X020197Y006449D01*
X020275Y006371D02*
X020605Y006371D01*
X020540Y006292D02*
X020340Y006292D01*
X020340Y006214D02*
X020540Y006214D01*
X020540Y006135D02*
X020340Y006135D01*
X020340Y006057D02*
X020540Y006057D01*
X020540Y005978D02*
X020340Y005978D01*
X020265Y005900D02*
X020615Y005900D01*
X020680Y005821D02*
X020187Y005821D01*
X020120Y005743D02*
X020680Y005743D01*
X020680Y005664D02*
X020120Y005664D01*
X020120Y005586D02*
X020680Y005586D01*
X020680Y005507D02*
X020120Y005507D01*
X020120Y005429D02*
X020680Y005429D01*
X020680Y005350D02*
X020120Y005350D01*
X020120Y005272D02*
X020680Y005272D01*
X020680Y005036D02*
X020276Y005036D01*
X020276Y004958D02*
X020680Y004958D01*
X020680Y004879D02*
X020276Y004879D01*
X020276Y004801D02*
X020680Y004801D01*
X020613Y002681D02*
X003150Y002681D01*
X003193Y002603D02*
X020535Y002603D01*
X020456Y002524D02*
X003216Y002524D01*
X020277Y002446D02*
X020378Y002446D01*
X026125Y002760D02*
X026755Y002760D01*
X026774Y002740D02*
X027106Y002740D01*
X027340Y002974D01*
X027340Y003306D01*
X027106Y003540D01*
X026774Y003540D01*
X026540Y003306D01*
X026540Y002974D01*
X026774Y002740D01*
X026676Y002838D02*
X026204Y002838D01*
X026282Y002917D02*
X026598Y002917D01*
X026540Y002995D02*
X026340Y002995D01*
X026340Y003074D02*
X026540Y003074D01*
X026540Y003152D02*
X026340Y003152D01*
X026340Y003231D02*
X026540Y003231D01*
X026543Y003309D02*
X026337Y003309D01*
X026258Y003388D02*
X026622Y003388D01*
X026700Y003466D02*
X026180Y003466D01*
X027180Y003466D02*
X027700Y003466D01*
X027774Y003540D02*
X027540Y003306D01*
X027540Y002974D01*
X027774Y002740D01*
X028106Y002740D01*
X028340Y002974D01*
X028340Y003306D01*
X028106Y003540D01*
X027774Y003540D01*
X027622Y003388D02*
X027258Y003388D01*
X027337Y003309D02*
X027543Y003309D01*
X027540Y003231D02*
X027340Y003231D01*
X027340Y003152D02*
X027540Y003152D01*
X027540Y003074D02*
X027340Y003074D01*
X027340Y002995D02*
X027540Y002995D01*
X027598Y002917D02*
X027282Y002917D01*
X027204Y002838D02*
X027676Y002838D01*
X027755Y002760D02*
X027125Y002760D01*
X028125Y002760D02*
X028755Y002760D01*
X028676Y002838D02*
X028204Y002838D01*
X028282Y002917D02*
X028598Y002917D01*
X028540Y002995D02*
X028340Y002995D01*
X028340Y003074D02*
X028540Y003074D01*
X028540Y003152D02*
X028340Y003152D01*
X028340Y003231D02*
X028540Y003231D01*
X028543Y003309D02*
X028337Y003309D01*
X028258Y003388D02*
X028622Y003388D01*
X028700Y003466D02*
X028180Y003466D01*
X031125Y002760D02*
X031755Y002760D01*
X031808Y002838D02*
X031204Y002838D01*
X031282Y002917D02*
X031869Y002917D01*
X031931Y002995D02*
X031340Y002995D01*
X031340Y003074D02*
X031992Y003074D01*
X032072Y003152D02*
X031340Y003152D01*
X031340Y003231D02*
X032193Y003231D01*
X032313Y003309D02*
X031337Y003309D01*
X031258Y003388D02*
X032482Y003388D01*
X032792Y003466D02*
X031180Y003466D01*
X032943Y003466D02*
X034225Y003466D01*
X034225Y003388D02*
X033386Y003388D01*
X033565Y003309D02*
X034225Y003309D01*
X034225Y003231D02*
X033707Y003231D01*
X033792Y003152D02*
X034225Y003152D01*
X034225Y003074D02*
X033877Y003074D01*
X033963Y002995D02*
X034225Y002995D01*
X034225Y002917D02*
X034023Y002917D01*
X034065Y002838D02*
X034225Y002838D01*
X034225Y002760D02*
X034108Y002760D01*
X034150Y002681D02*
X034225Y002681D01*
X034225Y002603D02*
X034193Y002603D01*
X034216Y002524D02*
X034225Y002524D01*
X030693Y005821D02*
X030187Y005821D01*
X030265Y005900D02*
X030615Y005900D01*
X030540Y005978D02*
X030340Y005978D01*
X030340Y006057D02*
X030540Y006057D01*
X030540Y006135D02*
X030340Y006135D01*
X030340Y006214D02*
X030540Y006214D01*
X030540Y006292D02*
X030340Y006292D01*
X030275Y006371D02*
X030605Y006371D01*
X030683Y006449D02*
X030197Y006449D01*
X030118Y006528D02*
X030762Y006528D01*
M02*
