G75*
G70*
%OFA0B0*%
%FSLAX24Y24*%
%IPPOS*%
%LPD*%
%AMOC8*
5,1,8,0,0,1.08239X$1,22.5*
%
%ADD10R,0.0472X0.0315*%
%ADD11R,0.0591X0.0591*%
D10*
X004940Y004286D03*
X004940Y004994D03*
X005940Y004994D03*
X005940Y004286D03*
X006940Y004286D03*
X007940Y004286D03*
X007940Y004994D03*
X006940Y004994D03*
X008940Y004994D03*
X008940Y004286D03*
X009940Y004286D03*
X009940Y004994D03*
X010940Y004994D03*
X010940Y004286D03*
X011940Y004286D03*
X011940Y004994D03*
X012940Y004994D03*
X012940Y004286D03*
X013940Y004286D03*
X013940Y004994D03*
X014940Y004994D03*
X014940Y004286D03*
X015940Y004286D03*
X016940Y004286D03*
X016940Y004994D03*
X015940Y004994D03*
X017940Y004994D03*
X017940Y004286D03*
X018940Y004286D03*
X018940Y004994D03*
X019940Y004994D03*
X019940Y004286D03*
X019940Y019286D03*
X019940Y019994D03*
X018940Y019994D03*
X018940Y019286D03*
X017940Y019286D03*
X017940Y019994D03*
X016940Y019994D03*
X015940Y019994D03*
X015940Y019286D03*
X016940Y019286D03*
X014940Y019286D03*
X014940Y019994D03*
X013940Y019994D03*
X013940Y019286D03*
X012940Y019286D03*
X012940Y019994D03*
X011940Y019994D03*
X011940Y019286D03*
X010940Y019286D03*
X010940Y019994D03*
X009940Y019994D03*
X009940Y019286D03*
X008940Y019286D03*
X008940Y019994D03*
X007940Y019994D03*
X006940Y019994D03*
X006940Y019286D03*
X007940Y019286D03*
X005940Y019286D03*
X005940Y019994D03*
X004940Y019994D03*
X004940Y019286D03*
X020940Y019286D03*
X020940Y019994D03*
X021940Y019994D03*
X021940Y019286D03*
X022940Y019286D03*
X022940Y019994D03*
X023940Y019994D03*
X023940Y019286D03*
D11*
X004940Y002051D03*
X005940Y002051D03*
X006940Y002051D03*
X007940Y002051D03*
X008940Y002051D03*
X009940Y002051D03*
X010940Y002051D03*
X011940Y002051D03*
X012940Y002051D03*
X013940Y002051D03*
X014940Y002051D03*
X015940Y002051D03*
X016940Y002051D03*
X017940Y002051D03*
X018940Y002051D03*
X019940Y002051D03*
X019940Y003229D03*
X018940Y003229D03*
X017940Y003229D03*
X016940Y003229D03*
X015940Y003229D03*
X014940Y003229D03*
X013940Y003229D03*
X012940Y003229D03*
X011940Y003229D03*
X010940Y003229D03*
X009940Y003229D03*
X008940Y003229D03*
X007940Y003229D03*
X006940Y003229D03*
X005940Y003229D03*
X004940Y003229D03*
X004940Y021051D03*
X005940Y021051D03*
X006940Y021051D03*
X007940Y021051D03*
X008940Y021051D03*
X009940Y021051D03*
X010940Y021051D03*
X011940Y021051D03*
X012940Y021051D03*
X013940Y021051D03*
X014940Y021051D03*
X015940Y021051D03*
X016940Y021051D03*
X017940Y021051D03*
X018940Y021051D03*
X019940Y021051D03*
X020940Y021051D03*
X021940Y021051D03*
X022940Y021051D03*
X023940Y021051D03*
X023940Y022229D03*
X022940Y022229D03*
X021940Y022229D03*
X020940Y022229D03*
X019940Y022229D03*
X018940Y022229D03*
X017940Y022229D03*
X016940Y022229D03*
X015940Y022229D03*
X014940Y022229D03*
X013940Y022229D03*
X012940Y022229D03*
X011940Y022229D03*
X010940Y022229D03*
X009940Y022229D03*
X008940Y022229D03*
X007940Y022229D03*
X006940Y022229D03*
X005940Y022229D03*
X004940Y022229D03*
M02*
